<svg width="30" height="30" viewBox="0 0 30 30" fill="none" xmlns="http://www.w3.org/2000/svg">
<path d="M22.2769 15.9375C22.2394 12.1875 25.3763 10.3125 25.515 10.3125C23.7525 7.6875 21.0075 7.3125 20.0306 7.3125C17.6944 6.9375 15.4707 8.625 14.2857 8.625C13.1044 8.625 11.2744 7.3125 9.33565 7.3125C6.7894 7.3125 4.4419 8.8125 3.1294 11.0625C0.487526 15.75 2.45628 22.5 5.03253 26.25C6.2944 27.9375 7.79628 30 9.76878 30C11.6682 30 12.3863 28.6875 14.6832 28.6875C16.98 28.6875 17.6269 30 19.6369 30C21.6807 30 22.9763 28.125 24.2269 26.25C25.6725 24.1875 26.2688 22.125 26.3044 21.9375C26.2594 21.9375 22.3182 20.4375 22.2788 15.9375H22.2769ZM18.4988 4.875C19.5469 3.5625 20.2538 1.6875 20.0607 0C18.5532 0 16.7232 0.9375 15.6413 2.25C14.6719 3.375 13.8225 5.25 14.0475 6.9375C15.7332 7.125 17.4507 6 18.4988 4.875Z" fill="white"/>
</svg>
