<svg width="30" height="30" viewBox="0 0 30 30" fill="none" xmlns="http://www.w3.org/2000/svg">
<path d="M22.2758 15.9375C22.2383 12.1875 25.3752 10.3125 25.5139 10.3125C23.7514 7.6875 21.0064 7.3125 20.0296 7.3125C17.6933 6.9375 15.4696 8.625 14.2846 8.625C13.1033 8.625 11.2733 7.3125 9.33455 7.3125C6.7883 7.3125 4.4408 8.8125 3.1283 11.0625C0.486427 15.75 2.45518 22.5 5.03143 26.25C6.2933 27.9375 7.79518 30 9.76768 30C11.6671 30 12.3852 28.6875 14.6821 28.6875C16.9789 28.6875 17.6258 30 19.6358 30C21.6796 30 22.9752 28.125 24.2258 26.25C25.6714 24.1875 26.2677 22.125 26.3033 21.9375C26.2583 21.9375 22.3171 20.4375 22.2777 15.9375H22.2758ZM18.4977 4.875C19.5458 3.5625 20.2527 1.6875 20.0596 0C18.5521 0 16.7221 0.9375 15.6402 2.25C14.6708 3.375 13.8214 5.25 14.0464 6.9375C15.7321 7.125 17.4496 6 18.4977 4.875Z" fill="black"/>
</svg>
