<svg width="30" height="30" viewBox="0 0 30 30" fill="none" xmlns="http://www.w3.org/2000/svg">
<g clip-path="url(#clip0_30_36)">
<path fill-rule="evenodd" clip-rule="evenodd" d="M2.92971 0.0922018C1.86934 0.369702 0.880221 1.16464 0.419733 2.10953C-0.0109313 2.99312 2.56892e-05 2.86439 2.56892e-05 7.0314C2.56892e-05 11.1984 -0.0109313 11.0697 0.419733 11.9533C0.760866 12.6532 1.4095 13.3018 2.1094 13.6429C2.99299 14.0736 2.86426 14.0627 7.03128 14.0627C11.1983 14.0627 11.0696 14.0736 11.9532 13.6429C12.6531 13.3018 13.3017 12.6532 13.6428 11.9533C14.0735 11.0697 14.0625 11.1984 14.0625 7.0314C14.0625 2.86439 14.0735 2.99312 13.6428 2.10953C13.3017 1.40962 12.6531 0.760991 11.9532 0.419858C11.0679 -0.0116263 11.2029 -0.000317748 7.00432 0.00401819C3.93688 0.00718225 3.19315 0.0232369 2.92971 0.0922018ZM18.8672 0.0922018C17.8068 0.369702 16.8177 1.16464 16.3572 2.10953C15.9266 2.99312 15.9375 2.86439 15.9375 7.0314C15.9375 11.1984 15.9266 11.0697 16.3572 11.9533C16.6984 12.6532 17.347 13.3018 18.0469 13.6429C18.9305 14.0736 18.8018 14.0627 22.9688 14.0627C27.1358 14.0627 27.0071 14.0736 27.8906 13.6429C28.5906 13.3018 29.2392 12.6532 29.5803 11.9533C30.011 11.0697 30 11.1984 30 7.0314C30 2.86439 30.011 2.99312 29.5803 2.10953C29.2392 1.40962 28.5906 0.760991 27.8906 0.419858C27.0054 -0.0116263 27.1404 -0.000317748 22.9418 0.00401819C19.8744 0.00718225 19.1306 0.0232369 18.8672 0.0922018ZM3.45542 1.95478C2.65368 2.12746 2.09188 2.71591 1.93895 3.54302C1.85165 4.01523 1.85165 10.0476 1.93895 10.5198C2.09733 11.3767 2.6876 11.9677 3.54108 12.124C4.01628 12.211 10.0487 12.2108 10.5197 12.1237C11.3765 11.9653 11.9676 11.3751 12.1238 10.5216C12.2107 10.0476 12.2107 4.01517 12.1238 3.54121C11.9676 2.68773 11.3765 2.09746 10.5197 1.93908C10.0237 1.84738 3.89053 1.86103 3.45542 1.95478ZM19.3929 1.95478C18.5912 2.12746 18.0294 2.71591 17.8765 3.54302C17.7891 4.01523 17.7891 10.0476 17.8765 10.5198C18.0348 11.3767 18.6251 11.9677 19.4786 12.124C19.9538 12.211 25.9862 12.2108 26.4572 12.1237C27.314 11.9653 27.9051 11.3751 28.0613 10.5216C28.1482 10.0476 28.1482 4.01517 28.0613 3.54121C27.9051 2.68773 27.314 2.09746 26.4572 1.93908C25.9612 1.84738 19.828 1.86103 19.3929 1.95478ZM2.92971 16.0297C1.86934 16.3072 0.880221 17.1021 0.419733 18.047C-0.0109313 18.9306 2.56892e-05 18.8019 2.56892e-05 22.9689C2.56892e-05 27.1359 -0.0109313 27.0072 0.419733 27.8908C0.760866 28.5907 1.4095 29.2393 2.1094 29.5804C2.99299 30.0111 2.86426 30.0002 7.03128 30.0002C11.1983 30.0002 11.0696 30.0111 11.9532 29.5804C12.6531 29.2393 13.3017 28.5907 13.6428 27.8908C14.0735 27.0072 14.0625 27.1359 14.0625 22.9689C14.0625 18.8019 14.0735 18.9306 13.6428 18.047C13.3017 17.3471 12.6531 16.6985 11.9532 16.3574C11.0679 15.9259 11.2029 15.9372 7.00432 15.9415C3.93688 15.9447 3.19315 15.9607 2.92971 16.0297ZM21.5918 16.0536C18.6829 16.6829 16.5646 18.8564 16.0228 21.7677C15.8781 22.5449 15.9281 23.9104 16.1291 24.6725C16.8077 27.245 18.6733 29.1119 21.2652 29.8121C21.7784 29.9508 21.9235 29.9637 22.9688 29.9637C24.0141 29.9637 24.1591 29.9508 24.6723 29.8121C27.2635 29.112 29.1119 27.2636 29.812 24.6725C29.9506 24.1592 29.9636 24.0142 29.9636 22.9689C29.9636 21.9236 29.9506 21.7786 29.812 21.2653C29.1113 18.6716 27.2496 16.8111 24.6723 16.1287C23.8859 15.9205 22.3771 15.8836 21.5918 16.0536ZM3.45542 17.8923C2.65368 18.065 2.09188 18.6534 1.93895 19.4805C1.85165 19.9527 1.85165 25.9851 1.93895 26.4573C2.09733 27.3142 2.6876 27.9052 3.54108 28.0615C4.01628 28.1485 10.0487 28.1483 10.5197 28.0612C11.3765 27.9028 11.9676 27.3126 12.1238 26.4591C12.2107 25.9851 12.2107 19.9527 12.1238 19.4787C11.9676 18.6252 11.3765 18.035 10.5197 17.8766C10.0237 17.7849 3.89053 17.7985 3.45542 17.8923ZM22.5293 17.8504C21.2974 17.9702 20.2518 18.4682 19.3599 19.3601C18.3295 20.3905 17.8572 21.5247 17.8572 22.9689C17.8572 24.4127 18.3283 25.5429 19.3612 26.5773C19.9913 27.2083 20.5885 27.5816 21.3704 27.8328C22.8302 28.3019 24.302 28.1376 25.6251 27.3579C26.2049 27.0161 27.0359 26.1752 27.3855 25.5763C27.9252 24.6517 28.1825 23.4662 28.0663 22.4399C27.9288 21.2265 27.4453 20.2257 26.5784 19.3601C25.8287 18.6115 25.0652 18.1833 24.0988 17.9694C23.6625 17.8728 22.8964 17.8148 22.5293 17.8504Z" fill="#AFAFAF"/>
</g>
<defs>
<clipPath id="clip0_30_36">
<rect width="30" height="30" fill="white"/>
</clipPath>
</defs>
</svg>
