<svg width="30" height="30" viewBox="0 0 30 30" fill="none" xmlns="http://www.w3.org/2000/svg">
<g clip-path="url(#clip0_79_5)">
<path fill-rule="evenodd" clip-rule="evenodd" d="M0.67429 0.0975726C0.0734699 0.414272 -0.177956 1.12718 0.113724 1.6871C0.176009 1.80664 1.42576 3.10144 2.89095 4.56435L5.55503 7.22421L4.95451 7.73755C3.43658 9.03517 2.19732 10.3818 1.07495 11.9533C0.302747 13.0345 0.000462076 13.8917 0.000462076 15.0002C0.000462076 16.1084 0.302337 16.9647 1.0746 18.0471C3.41947 21.3336 6.65636 24.0118 9.8745 25.3282C11.0524 25.81 12.1409 26.1005 13.4477 26.2821C14.395 26.4137 16.2013 26.3745 17.1706 26.2014C18.8639 25.899 20.2977 25.3665 22.1918 24.3368L22.4985 24.1701L25.3266 26.9916C26.8821 28.5434 28.2391 29.8552 28.3423 29.9067C28.7427 30.1064 29.3763 29.9804 29.686 29.6397C30.0148 29.2778 30.0993 28.7204 29.8871 28.3133C29.7452 28.041 1.91882 0.223315 1.65867 0.0936468C1.42042 -0.0250641 0.90304 -0.0230134 0.67429 0.0975726ZM13.5497 3.69769C12.8375 3.78054 11.6493 4.04351 11.3248 4.19011C10.5201 4.55374 10.4164 5.68507 11.1397 6.20908C11.4903 6.46308 11.7664 6.48253 12.5476 6.30851C13.5257 6.09054 14.109 6.02515 15.0591 6.02673C17.7918 6.03136 20.4777 7.10597 23.1959 9.28226C24.7381 10.5169 26.8039 12.8376 27.3858 13.989C27.6826 14.5762 27.6847 15.4208 27.3908 16.0008C27.1194 16.5362 26.3768 17.5215 25.5042 18.5037C24.9078 19.1749 24.8209 19.333 24.8209 19.7463C24.8209 20.1 24.9176 20.3302 25.1757 20.5907C25.5136 20.9317 26.0648 21.0185 26.5134 20.8013C27.0176 20.5573 28.9386 18.2099 29.4626 17.1975C30.077 16.0104 30.1744 14.663 29.7359 13.4144C29.364 12.3556 28.1181 10.7066 26.3718 8.96193C24.6445 7.23634 23.1224 6.11439 21.2037 5.15257C19.6638 4.3806 18.3008 3.95287 16.6537 3.72464C15.941 3.62585 14.2904 3.61156 13.5497 3.69769ZM15.8609 8.49728C15.3558 8.64886 15.0293 9.1581 15.0706 9.72962C15.1125 10.3084 15.4278 10.6348 16.1529 10.8503C17.6347 11.2906 18.7298 12.4002 19.1644 13.9016C19.2518 14.2033 19.3618 14.4328 19.4926 14.5854C20.031 15.2145 21.0377 15.0978 21.4266 14.3611C21.6041 14.0249 21.6013 13.6964 21.4158 13.0882C20.7537 10.9174 19.0833 9.24699 16.9124 8.58488C16.416 8.43341 16.148 8.41109 15.8609 8.49728ZM6.72995 9.35738C5.29493 10.5082 3.04798 13.0556 2.59488 14.0453C2.32634 14.6319 2.3196 15.3227 2.57665 15.9202C2.88234 16.6308 4.19197 18.2511 5.44675 19.4712C6.91693 20.9007 8.37474 21.9475 9.9907 22.734C11.786 23.6078 13.2509 23.9698 15.0005 23.9722C16.8023 23.9746 18.4274 23.5742 20.1714 22.6981L20.7428 22.4111L19.7849 21.4545L18.827 20.498L18.4924 20.712C17.8245 21.1393 16.866 21.4882 15.9847 21.625C15.3434 21.7245 14.0489 21.6651 13.4207 21.5073C12.2337 21.2091 11.153 20.5945 10.2795 19.7211C9.39972 18.8414 8.79462 17.7727 8.48367 16.5495C8.36865 16.0968 8.35095 15.8822 8.35388 14.9709C8.35687 14.024 8.37286 13.8583 8.51021 13.3496C8.69308 12.6724 8.98142 11.9885 9.28253 11.5178L9.50273 11.1735L8.39964 10.0693C7.79296 9.46197 7.27915 8.96503 7.25788 8.96503C7.23661 8.96503 6.99902 9.14158 6.72995 9.35738ZM11.0552 13.2897C10.8244 13.8039 10.7133 14.3721 10.7151 15.0295C10.7184 16.2209 11.1124 17.152 11.9805 18.0201C12.5876 18.6272 13.1661 18.9672 13.929 19.1654C14.5001 19.3137 15.391 19.3256 15.9639 19.1926C16.3716 19.098 17.0512 18.825 17.0512 18.7559C17.0512 18.7357 16.7269 18.3956 16.3306 18.0002L15.6099 17.2812L15.0269 17.2681C14.5348 17.257 14.3916 17.2305 14.1088 17.0984C13.6416 16.8802 13.222 16.4687 12.9931 16.0038C12.8218 15.6561 12.802 15.5609 12.7906 15.0338L12.778 14.4493L12.0297 13.6993C11.6182 13.2869 11.2649 12.9494 11.2447 12.9494C11.2244 12.9494 11.1391 13.1025 11.0552 13.2897Z" fill="#040404"/>
</g>
<defs>
<clipPath id="clip0_79_5">
<rect width="30" height="30" fill="white"/>
</clipPath>
</defs>
</svg>
