<svg width="30" height="30" viewBox="0 0 30 30" fill="none" xmlns="http://www.w3.org/2000/svg">
<g clip-path="url(#clip0_30_34)">
<path d="M14.9998 1.88574C14.7601 1.88574 14.5206 1.97677 14.3369 2.16039L1.08013 15.421C0.712873 15.7882 0.712873 16.3794 1.08013 16.7466C1.44739 17.1139 2.03855 17.1139 2.40581 16.7466L3.74981 15.4026V26.2499C3.74981 28.3274 5.42231 29.9999 7.49981 29.9999H22.4998C24.5773 29.9999 26.2498 28.3274 26.2498 26.2499V15.4026L27.5938 16.7466C27.9611 17.1139 28.5522 17.1139 28.9195 16.7466C29.2867 16.3794 29.2867 15.7882 28.9195 15.421L15.6627 2.16039C15.4791 1.97677 15.2394 1.88574 14.9998 1.88574ZM14.9998 4.15262L24.3748 13.5276V26.2499C24.3748 27.2886 23.5385 28.1249 22.4998 28.1249H18.7498V22.4999C18.7498 20.4224 17.0773 18.7499 14.9998 18.7499C12.9223 18.7499 11.2498 20.4224 11.2498 22.4999V28.1249H7.49979C6.46104 28.1249 5.62479 27.2886 5.62479 26.2499V13.5276L14.9998 4.15262Z" fill="#FF3E3F"/>
</g>
<defs>
<clipPath id="clip0_30_34">
<rect width="30" height="30" fill="white"/>
</clipPath>
</defs>
</svg>
