<svg width="30" height="30" viewBox="0 0 30 30" fill="none" xmlns="http://www.w3.org/2000/svg">
<g clip-path="url(#clip0_30_38)">
<path fill-rule="evenodd" clip-rule="evenodd" d="M13.5354 0.0921309C12.599 0.336936 11.7109 1.0441 11.2947 1.87625C11.0023 2.46096 10.8987 2.9017 10.8987 3.56123C10.8987 4.26998 10.8112 4.45051 10.4671 4.45238C10.3374 4.45309 10.1899 4.34967 9.81784 3.99758C8.62604 2.86942 7.09839 2.61957 5.68382 3.32135C5.31274 3.50545 5.11177 3.67197 4.39194 4.39186C3.67206 5.11168 3.50554 5.31266 3.32144 5.68373C2.62118 7.09514 2.87108 8.6276 3.99521 9.81512C4.3494 10.1894 4.45317 10.3372 4.45247 10.467C4.4506 10.8112 4.27007 10.8986 3.56132 10.8986C2.90179 10.8986 2.46105 11.0022 1.87634 11.2946C1.03235 11.7167 0.3304 12.6072 0.0886426 13.5622C-0.0347559 14.0496 -0.0347559 15.9506 0.0886426 16.438C0.403584 17.6824 1.41954 18.6983 2.6639 19.0133C2.85597 19.0619 3.25979 19.1017 3.56132 19.1017C4.27007 19.1017 4.4506 19.1891 4.45247 19.5332C4.45317 19.663 4.34976 19.8105 3.99767 20.1825C2.8695 21.3743 2.61966 22.902 3.32144 24.3165C3.50554 24.6876 3.67206 24.8886 4.39194 25.6084C5.11177 26.3283 5.31274 26.4948 5.68382 26.6789C7.09839 27.3807 8.62604 27.1309 9.81784 26.0027C10.1899 25.6506 10.3374 25.5472 10.4671 25.5479C10.8112 25.5498 10.8987 25.7303 10.8987 26.439C10.8987 26.7406 10.9384 27.1444 10.9871 27.3365C11.302 28.5808 12.318 29.5968 13.5623 29.9117C14.0497 30.0351 15.9507 30.0351 16.4381 29.9117C17.6825 29.5968 18.6984 28.5808 19.0134 27.3365C19.062 27.1444 19.1018 26.7406 19.1018 26.439C19.1018 25.7303 19.1892 25.5498 19.5333 25.5479C19.6631 25.5472 19.8106 25.6506 20.1826 26.0027C21.3744 27.1309 22.9021 27.3807 24.3166 26.6789C24.6877 26.4948 24.8887 26.3283 25.6085 25.6084C26.3284 24.8886 26.4949 24.6876 26.679 24.3165C27.3808 22.902 27.1309 21.3743 26.0028 20.1825C25.6507 19.8105 25.5473 19.663 25.548 19.5332C25.5499 19.1891 25.7304 19.1017 26.4391 19.1017C26.7407 19.1017 27.1445 19.0619 27.3366 19.0133C28.5222 18.7132 29.5309 17.751 29.8546 16.6115C29.9095 16.4181 29.9778 16.2141 30.0066 16.1582C30.0674 16.0397 30.0787 13.7302 30.0182 13.7908C29.9959 13.8131 29.943 13.6923 29.9008 13.5222C29.6752 12.6141 28.9537 11.7096 28.1241 11.2946C27.5394 11.0022 27.0987 10.8986 26.4391 10.8986C25.7304 10.8986 25.5499 10.8112 25.548 10.467C25.5473 10.3372 25.651 10.1894 26.0052 9.81512C27.1294 8.6276 27.3793 7.09514 26.679 5.68373C26.4949 5.31266 26.3284 5.11168 25.6085 4.39186C24.8887 3.67197 24.6877 3.50545 24.3166 3.32135C22.9021 2.61957 21.3744 2.86942 20.1826 3.99758C19.8106 4.34967 19.6631 4.45309 19.5333 4.45238C19.1892 4.45051 19.1018 4.26998 19.1018 3.56123C19.1018 3.25971 19.062 2.85588 19.0134 2.66381C18.6984 1.41945 17.6825 0.403498 16.4381 0.0885566C15.9646 -0.0313262 13.9982 -0.0288652 13.5354 0.0921309ZM14.0943 2.42979C13.4892 2.59221 13.2424 3.06729 13.2424 4.07006C13.2424 4.90156 12.9617 5.55799 12.3689 6.11246C11.6612 6.7744 10.5802 7.025 9.6597 6.74053C9.18936 6.59516 8.87835 6.39459 8.3012 5.86438C7.79056 5.39528 7.67015 5.33217 7.28554 5.33217C6.88933 5.33217 6.69708 5.45358 6.04681 6.11434C5.41329 6.75817 5.33226 6.89281 5.33226 7.3018C5.33226 7.64662 5.44605 7.85422 5.90659 8.34975C6.39169 8.8717 6.59648 9.19332 6.74062 9.65961C7.02509 10.5801 6.77448 11.6611 6.11255 12.3688C5.55808 12.9616 4.90165 13.2423 4.07015 13.2423C3.32056 13.2423 3.00421 13.3297 2.7178 13.6162C2.42853 13.9054 2.34397 14.2186 2.34397 15.0001C2.34397 15.7817 2.42853 16.0948 2.7178 16.3841C3.00421 16.6705 3.32056 16.758 4.07015 16.758C4.90165 16.758 5.55808 17.0387 6.11255 17.6315C6.77448 18.3392 7.02509 19.4202 6.74062 20.3407C6.59524 20.811 6.39468 21.122 5.86446 21.6992C5.39536 22.2098 5.33226 22.3302 5.33226 22.7148C5.33226 23.111 5.45366 23.3033 6.11442 23.9536C6.75608 24.5849 6.89349 24.6681 7.29515 24.6681C7.67126 24.6681 7.79073 24.6039 8.32991 24.1119C8.59868 23.8667 8.95042 23.5907 9.11155 23.4987C10.1449 22.9086 11.4943 23.0697 12.3689 23.8878C12.9617 24.4423 13.2424 25.0987 13.2424 25.9302C13.2424 26.6798 13.3298 26.9962 13.6162 27.2826C13.9055 27.5718 14.2186 27.6564 15.0002 27.6564C15.7818 27.6564 16.0949 27.5718 16.3842 27.2826C16.6706 26.9962 16.758 26.6798 16.758 25.9302C16.758 25.0987 17.0388 24.4423 17.6316 23.8878C18.3392 23.2259 19.4202 22.9753 20.3408 23.2597C20.8111 23.4051 21.1221 23.6057 21.6992 24.1359C22.2074 24.6027 22.3311 24.6681 22.7053 24.6681C23.107 24.6681 23.2444 24.5849 23.886 23.9536C24.5468 23.3033 24.6682 23.111 24.6682 22.7148C24.6682 22.3302 24.6051 22.2098 24.136 21.6992C23.6058 21.122 23.4052 20.811 23.2598 20.3407C22.9754 19.4202 23.226 18.3392 23.8879 17.6315C24.4424 17.0387 25.0988 16.758 25.9303 16.758C26.6799 16.758 26.9962 16.6705 27.2826 16.3841C27.5719 16.0948 27.6565 15.7817 27.6565 15.0001C27.6565 14.2186 27.5719 13.9054 27.2826 13.6162C26.9962 13.3297 26.6799 13.2423 25.9303 13.2423C25.0988 13.2423 24.4424 12.9616 23.8879 12.3688C23.226 11.6611 22.9754 10.5801 23.2598 9.65961C23.404 9.19332 23.6088 8.8717 24.0939 8.34975C24.5544 7.85422 24.6682 7.64662 24.6682 7.3018C24.6682 6.89281 24.5872 6.75817 23.9536 6.11434C23.3034 5.45358 23.1111 5.33217 22.7149 5.33217C22.3303 5.33217 22.2099 5.39528 21.6992 5.86438C21.1221 6.39459 20.8111 6.59516 20.3408 6.74053C19.4202 7.025 18.3392 6.7744 17.6316 6.11246C17.0388 5.55799 16.758 4.90156 16.758 4.07006C16.758 3.32047 16.6706 3.00412 16.3842 2.71772C16.1998 2.53332 16.0695 2.46072 15.8323 2.4101C15.4185 2.32186 14.4559 2.33276 14.0943 2.42979ZM13.698 8.31928C12.2874 8.61676 11.1736 9.21201 10.1928 10.1928C8.89476 11.4909 8.20335 13.1615 8.20335 15.0001C8.20335 16.8388 8.89476 18.5094 10.1928 19.8075C11.2091 20.8237 12.3849 21.4338 13.865 21.7127C14.8937 21.9066 16.6004 21.7481 17.2834 21.3954C17.8101 21.1234 18.0316 20.3516 17.7397 19.8048C17.5808 19.5073 17.3224 19.3083 16.9689 19.2114C16.7683 19.1564 16.6332 19.1669 16.1498 19.275C14.4292 19.6597 12.8647 19.1961 11.7408 17.9684C10.662 16.7901 10.3154 15.1687 10.8093 13.6115C11.0188 12.9509 11.3287 12.4607 11.8948 11.8947C12.4608 11.3287 12.951 11.0188 13.6116 10.8092C15.1688 10.3153 16.7901 10.6619 17.9685 11.7407C18.9135 12.6058 19.4006 13.7037 19.4016 14.9708C19.4018 15.2931 19.3608 15.7497 19.3105 15.9854C19.1954 16.5247 19.1952 16.7633 19.3097 17.0373C19.7294 18.042 21.1658 17.9756 21.5331 16.9347C21.692 16.4841 21.7971 15.7139 21.7971 14.9989C21.7971 13.1616 21.1053 11.4905 19.8076 10.1928C18.4914 8.87656 16.8284 8.19694 14.9498 8.20737C14.47 8.21006 14.0292 8.24944 13.698 8.31928ZM0.0249512 15.0001C0.0249512 15.6608 0.0335059 15.931 0.0439355 15.6007C0.0543652 15.2704 0.0543652 14.7298 0.0439355 14.3996C0.0335059 14.0693 0.0249512 14.3395 0.0249512 15.0001Z" fill="#AFAFAF"/>
</g>
<defs>
<clipPath id="clip0_30_38">
<rect width="30" height="30" fill="white"/>
</clipPath>
</defs>
</svg>
