<svg width="30" height="30" viewBox="0 0 30 30" fill="none" xmlns="http://www.w3.org/2000/svg">
<path d="M14.9956 6.87109C9.85492 6.87734 5.35478 10.0985 4.0761 14.6854C4.0163 14.8994 4.0163 15.1239 4.0761 15.3379C5.36565 19.9144 9.86569 23.1251 14.9983 23.1283C14.9991 23.1283 15 23.1283 15.0009 23.1283C20.1415 23.122 24.6416 19.9008 25.9203 15.3139C25.9806 15.0991 25.9806 14.8736 25.9203 14.6588C24.6308 10.0823 20.1307 6.8743 14.9981 6.87116C14.9972 6.87116 14.9965 6.87109 14.9956 6.87109ZM14.9983 8.18147C19.4911 8.18425 23.4148 10.9829 24.5435 14.989C23.4241 19.0041 19.4981 21.8124 14.9983 21.8178C10.5054 21.8151 6.58178 19.0164 5.45296 15.0103C6.5723 10.9952 10.4984 8.18692 14.9983 8.18147Z" fill="black" fill-opacity="0.6"/>
<path d="M15.0011 10.9092C13.9161 10.9092 12.8755 11.3402 12.1084 12.1074C11.3412 12.8746 10.9102 13.9151 10.9102 15.0001C10.9102 16.0851 11.3412 17.1256 12.1084 17.8928C12.8755 18.66 13.9161 19.091 15.0011 19.091C16.086 19.091 17.1266 18.66 17.8938 17.8928C18.661 17.1256 19.092 16.0851 19.092 15.0001C19.092 13.9151 18.661 12.8746 17.8938 12.1074C17.1266 11.3402 16.086 10.9092 15.0011 10.9092ZM15.0011 12.2728C15.7244 12.2728 16.4181 12.5602 16.9295 13.0716C17.441 13.5831 17.7283 14.2768 17.7283 15.0001C17.7283 15.7234 17.441 16.4171 16.9295 16.9286C16.4181 17.44 15.7244 17.7274 15.0011 17.7274C14.2777 17.7274 13.5841 17.44 13.0726 16.9286C12.5611 16.4171 12.2738 15.7234 12.2738 15.0001C12.2738 14.2768 12.5611 13.5831 13.0726 13.0716C13.5841 12.5602 14.2777 12.2728 15.0011 12.2728Z" fill="black" fill-opacity="0.6"/>
</svg>
