<svg width="256" height="256" viewBox="0 0 256 256" fill="none" xmlns="http://www.w3.org/2000/svg">
<path d="M210 144C210 162.778 179.43 178 128.831 178C78.2329 178 46 162.321 46 143.544C46 124.766 78.2329 110 128.831 110C179.43 110 210 125.222 210 144ZM52.8126 144C52.8126 159.581 86.8474 172.211 128.831 172.211C170.815 172.211 202.285 159.581 202.285 144C202.285 128.419 170.815 115.789 128.831 115.789C86.8474 115.789 52.8126 128.419 52.8126 144Z" fill="#FF3E3F"/>
<path d="M113 145C113 154.941 108.299 163 102.5 163C96.701 163 92 154.941 92 145C92 135.059 96.701 127 102.5 127C108.299 127 113 135.059 113 145ZM96.4174 145C96.4174 150.759 99.1406 155.427 102.5 155.427C105.859 155.427 108.583 150.759 108.583 145C108.583 139.241 105.859 134.573 102.5 134.573C99.1406 134.573 96.4174 139.241 96.4174 145Z" fill="#FF3E3F"/>
<path d="M166 144C166 153.941 161.299 162 155.5 162C149.701 162 145 153.941 145 144C145 134.059 149.701 126 155.5 126C161.299 126 166 134.059 166 144ZM149.417 144C149.417 149.759 152.141 154.427 155.5 154.427C158.859 154.427 161.583 149.759 161.583 144C161.583 138.241 158.859 133.573 155.5 133.573C152.141 133.573 149.417 138.241 149.417 144Z" fill="#FF3E3F"/>
<path d="M231 152.097C231 192.353 191.229 222 127.776 222C64.3218 222 25 192.353 25 152.097C25 111.842 64.3218 81 127.776 81C191.229 81 231 111.842 231 152.097ZM34.7029 152.097C34.7029 186.287 73.8847 214.002 127.776 214.002C181.667 214.002 221.297 186.287 221.297 152.097C221.297 117.908 181.667 90.1926 127.776 90.1926C73.8847 90.1926 34.7029 117.908 34.7029 152.097Z" fill="#FF3E3F"/>
<rect width="6.86493" height="40.1056" transform="matrix(0.894759 0.446549 -0.497456 0.867489 161.652 47.3047)" fill="#FF3E3F"/>
<path d="M178 44.5C178 50.299 172.851 55 166.5 55C160.149 55 155 50.299 155 44.5C155 38.701 160.149 34 166.5 34C172.851 34 178 38.701 178 44.5ZM162.059 44.5C162.059 46.7393 164.047 48.5546 166.5 48.5546C168.953 48.5546 170.941 46.7393 170.941 44.5C170.941 42.2607 168.953 40.4454 166.5 40.4454C164.047 40.4454 162.059 42.2607 162.059 44.5Z" fill="#FF3E3F"/>
</svg>
