<svg width="50" height="50" viewBox="0 0 50 50" fill="none" xmlns="http://www.w3.org/2000/svg">
<g clip-path="url(#clip0_18_16)">
<path fill-rule="evenodd" clip-rule="evenodd" d="M24.0222 0.217963C23.4292 0.532123 22.9828 1.20175 22.8943 1.91005C22.8571 2.20771 22.8451 2.96845 22.8677 3.60058C22.9047 4.63876 22.9346 4.79404 23.1778 5.20917C23.326 5.46191 23.6282 5.78847 23.8496 5.93495C24.1998 6.16669 24.3492 6.20136 24.9988 6.20136C25.6484 6.20136 25.7978 6.16669 26.148 5.93495C26.3694 5.78847 26.6738 5.45888 26.8245 5.20253C27.0947 4.74277 27.0984 4.71484 27.0984 3.12519C27.0984 1.53554 27.0947 1.50761 26.8245 1.04785C26.4278 0.372943 25.9088 0.0622009 25.1073 0.0195251C24.5726 -0.00889284 24.3861 0.0251892 24.0222 0.217963ZM24.5594 10.441C23.8844 10.6102 23.4253 10.9768 23.0815 11.6213C22.9061 11.9501 22.8992 12.4599 22.8992 25.0002V38.0373L23.1095 38.4279C23.5161 39.1836 24.1689 39.5825 24.9988 39.5825C25.8287 39.5825 26.4815 39.1836 26.8882 38.4279L27.0984 38.0373V25.0002V11.9631L26.8882 11.5725C26.4224 10.7071 25.4271 10.2235 24.5594 10.441ZM1.21952 12.6853C1.00467 12.7848 0.710338 12.9926 0.565513 13.1471C-0.0328263 13.7851 -0.00138098 13.1236 0.000962767 25.0215C0.00301355 35.391 0.011412 35.9067 0.183971 36.2795C0.822154 37.6579 2.67909 37.9268 3.68085 36.7857C3.85204 36.5908 4.03817 36.2653 4.09452 36.0624C4.2367 35.5503 4.2367 14.4501 4.09452 13.938C3.96122 13.4579 3.47049 12.906 2.97821 12.6823C2.47508 12.4538 1.71678 12.4551 1.21952 12.6853ZM47.0194 12.6823C46.5271 12.906 46.0364 13.4579 45.9031 13.938C45.7609 14.4501 45.7609 35.5503 45.9031 36.0624C45.9595 36.2653 46.1456 36.5908 46.3168 36.7857C47.3185 37.9268 49.1755 37.6579 49.8137 36.2795C49.9863 35.9066 49.9945 35.393 49.9945 25.0002C49.9945 14.6074 49.9863 14.0937 49.8137 13.7209C49.3308 12.678 48.0647 12.2074 47.0194 12.6823ZM16.9556 14.694C16.4742 14.8656 16.0391 15.2745 15.809 15.7717C15.6371 16.1428 15.6281 16.6035 15.6281 25.0002C15.6281 33.3402 15.6382 33.8601 15.8059 34.2296C16.2885 35.2917 17.5193 35.7268 18.6023 35.2182C19.1765 34.9484 19.3522 34.7689 19.6202 34.1781C19.815 33.7485 19.8187 33.5778 19.8199 25.0002L19.8211 16.26L19.5918 15.7717C19.3221 15.1975 19.1426 15.0218 18.5517 14.7538C18.0448 14.5238 17.4911 14.5031 16.9556 14.694ZM31.3953 14.7822C30.8211 15.0519 30.6454 15.2314 30.3774 15.8223C30.1825 16.2519 30.1789 16.4213 30.1789 25.0002C30.1789 33.5791 30.1825 33.7485 30.3774 34.1781C30.6454 34.7689 30.8211 34.9484 31.3953 35.2182C32.4783 35.7268 33.7092 35.2917 34.1917 34.2296C34.3595 33.8601 34.3695 33.3402 34.3695 25.0002C34.3695 16.6602 34.3595 16.1402 34.1917 15.7708C33.7092 14.7087 32.4783 14.2735 31.3953 14.7822ZM9.51942 18.9323C9.02713 19.156 8.53641 19.7079 8.40311 20.188C8.26395 20.6893 8.26395 29.3111 8.40311 29.8124C8.45946 30.0153 8.64559 30.3408 8.81678 30.5357C9.81854 31.6768 11.6755 31.4079 12.3137 30.0295C12.4817 29.6666 12.4945 29.3096 12.4945 25.0002C12.4945 20.6908 12.4817 20.3338 12.3137 19.9709C11.8308 18.928 10.5647 18.4574 9.51942 18.9323ZM38.7195 18.9353C38.5047 19.0348 38.2103 19.2426 38.0655 19.3971C37.497 20.0034 37.4986 19.9867 37.501 25.0215C37.5029 29.3074 37.5161 29.6669 37.684 30.0295C38.3222 31.4079 40.1791 31.6768 41.1808 30.5357C41.352 30.3408 41.5382 30.0153 41.5945 29.8124C41.7337 29.3111 41.7337 20.6893 41.5945 20.188C41.4612 19.7079 40.9705 19.156 40.4782 18.9323C39.9751 18.7038 39.2168 18.7051 38.7195 18.9353ZM24.0222 43.968C23.4292 44.2821 22.9828 44.9518 22.8943 45.6601C22.8571 45.9577 22.8451 46.7185 22.8677 47.3506C22.9047 48.3888 22.9346 48.544 23.1778 48.9592C23.326 49.2119 23.6282 49.5385 23.8496 49.685C24.1998 49.9167 24.3492 49.9514 24.9988 49.9514C25.6484 49.9514 25.7978 49.9167 26.148 49.685C26.3694 49.5385 26.6738 49.2089 26.8245 48.9525C27.0947 48.4928 27.0984 48.4648 27.0984 46.8752C27.0984 45.2855 27.0947 45.2576 26.8245 44.7978C26.4278 44.1229 25.9088 43.8122 25.1073 43.7695C24.5726 43.7411 24.3861 43.7752 24.0222 43.968Z" fill="black"/>
</g>
<defs>
<clipPath id="clip0_18_16">
<rect width="50" height="50" fill="white"/>
</clipPath>
</defs>
</svg>
