<svg width="45" height="45" viewBox="0 0 45 45" fill="none" xmlns="http://www.w3.org/2000/svg">
<path fill-rule="evenodd" clip-rule="evenodd" d="M10.9157 27.7691C10.611 27.862 10.1943 28.0361 9.98985 28.1559C9.78532 28.2758 9.43455 28.57 9.21043 28.8096C8.98622 29.0492 8.67843 29.4918 8.52638 29.793C8.37433 30.0942 8.09703 30.7674 7.91018 31.289C7.72332 31.8107 7.45253 32.469 7.30848 32.752C7.16434 33.035 6.86498 33.4775 6.64315 33.7354C6.4214 33.9933 6.21582 34.3 6.18647 34.4171C6.15702 34.5342 6.15817 34.7642 6.18893 34.9281C6.21969 35.0921 6.32191 35.3243 6.41612 35.444C6.51026 35.5637 6.89487 35.8211 7.27069 36.016C7.64659 36.2109 8.23098 36.4501 8.56936 36.5476C8.90774 36.6451 9.35264 36.7481 9.55813 36.7766L9.93166 36.8282V36.4917C9.93166 36.3067 9.97455 35.9206 10.0269 35.6338C10.0793 35.3469 10.244 34.8552 10.393 34.541C10.5665 34.175 10.8561 33.7785 11.1986 33.4378C11.5395 33.0988 11.9725 32.7855 12.3926 32.5742C12.7551 32.3917 13.1384 32.1618 13.2441 32.0631C13.3499 31.9645 13.5813 31.5906 13.7584 31.2322C13.9355 30.8737 14.2765 30.3659 14.5161 30.1037C14.7558 29.8416 15.095 29.5385 15.27 29.4304L15.5881 29.2338L15.0694 28.7624C14.7841 28.5031 14.2618 28.1482 13.9087 27.9737C13.3185 27.682 13.1944 27.6542 12.3683 27.6283C11.6714 27.6064 11.3455 27.6381 10.9157 27.7691ZM31.6393 27.7622C31.3727 27.8476 30.9376 28.0579 30.6725 28.2297C30.4074 28.4015 30.0322 28.6851 29.8389 28.8601C29.5032 29.1637 29.4953 29.1828 29.6631 29.2822C29.7598 29.3395 30.0859 29.6228 30.3877 29.9117C30.7776 30.285 31.0404 30.643 31.2958 31.1487C31.4933 31.54 31.7195 31.932 31.7982 32.0196C31.877 32.1071 32.288 32.3578 32.7115 32.5765C33.2734 32.8668 33.6136 33.1169 33.9697 33.5015C34.2382 33.7915 34.5587 34.2277 34.682 34.4711C34.8052 34.7144 34.9618 35.1757 35.0297 35.4963C35.0977 35.8168 35.1539 36.2447 35.1548 36.4471L35.1563 36.8151L35.4859 36.7673C35.6672 36.7412 36.0528 36.662 36.3428 36.5913C36.6328 36.5207 37.191 36.3089 37.5832 36.1206C38.0031 35.9188 38.4097 35.6489 38.572 35.4641C38.8007 35.2036 38.8477 35.0768 38.8477 34.7195C38.8477 34.333 38.8018 34.2321 38.4001 33.7338C38.1538 33.4285 37.8366 32.9508 37.6951 32.6723C37.5536 32.3937 37.283 31.7316 37.0936 31.2007C36.9042 30.6699 36.6203 29.9935 36.4625 29.6976C36.3048 29.4017 36.0107 28.9898 35.8091 28.7823C35.6074 28.5748 35.2754 28.2996 35.0712 28.1707C34.867 28.0418 34.417 27.861 34.0712 27.769C33.7109 27.6732 33.161 27.6029 32.7832 27.6044C32.4021 27.606 31.9195 27.6725 31.6393 27.7622ZM16.4662 34.541C16.4662 34.9519 16.4814 35.1199 16.4999 34.9145C16.5184 34.7091 16.5184 34.3729 16.4999 34.1675C16.4814 33.9621 16.4662 34.1301 16.4662 34.541ZM17.7841 34.497C17.7843 34.8838 17.7998 35.0311 17.8184 34.8243C17.837 34.6176 17.8367 34.3012 17.8178 34.1212C17.7989 33.9412 17.7837 34.1103 17.7841 34.497ZM27.1878 34.541C27.1878 34.9035 27.2033 35.0519 27.2222 34.8706C27.2412 34.6893 27.2412 34.3927 27.2222 34.2114C27.2033 34.0302 27.1878 34.1784 27.1878 34.541ZM28.5061 34.541C28.5061 34.9035 28.5217 35.0519 28.5406 34.8706C28.5596 34.6893 28.5596 34.3927 28.5406 34.2114C28.5217 34.0302 28.5061 34.1784 28.5061 34.541ZM22.3462 35.5683C22.4309 35.5905 22.5693 35.5905 22.6538 35.5683C22.7384 35.5463 22.6692 35.5282 22.5 35.5282C22.3308 35.5282 22.2616 35.5463 22.3462 35.5683Z" fill="#DF8A57"/>
<path fill-rule="evenodd" clip-rule="evenodd" d="M28.4985 19.8359C28.5831 19.8581 28.7216 19.8581 28.8062 19.8359C28.8907 19.8139 28.8215 19.7958 28.6523 19.7958C28.4832 19.7958 28.414 19.8139 28.4985 19.8359ZM15.9384 21.2256C15.9386 21.6123 15.9541 21.7596 15.9726 21.5529C15.9913 21.3462 15.991 21.0298 15.9721 20.8498C15.9532 20.6698 15.938 20.8389 15.9384 21.2256ZM17.2567 21.2256C17.257 21.6123 17.2724 21.7596 17.291 21.5529C17.3096 21.3462 17.3094 21.0298 17.2905 20.8498C17.2716 20.6698 17.2564 20.8389 17.2567 21.2256ZM21.3194 27.7736C21.0326 27.8652 20.5382 28.1166 20.2207 28.3324C19.9033 28.5482 19.4782 28.7685 19.2761 28.8221C19.0067 28.8935 18.7397 28.8932 18.2754 28.8213C17.9271 28.7672 17.4266 28.7499 17.1634 28.7828C16.9001 28.8156 16.4637 28.9186 16.1936 29.0115C15.9235 29.1044 15.5365 29.2778 15.3337 29.3967C15.1308 29.5156 14.7658 29.8305 14.5226 30.0966C14.2794 30.3628 13.9355 30.8738 13.7584 31.2322C13.5813 31.5906 13.3499 31.9645 13.2441 32.0631C13.1383 32.1618 12.7551 32.3917 12.3926 32.5742C11.9725 32.7856 11.5395 33.0988 11.1986 33.4378C10.8563 33.7784 10.5651 34.1771 10.3893 34.5459C10.2383 34.8629 10.0708 35.3968 10.017 35.7325C9.95379 36.1273 9.94474 36.6374 9.99141 37.1776L10.0635 38.0123L10.5884 38.0777C10.8773 38.1137 11.3316 38.2498 11.5981 38.3803C11.8646 38.5106 12.2733 38.8079 12.5063 39.0409C12.7478 39.2824 13.0505 39.7192 13.2106 40.0569C13.4679 40.6004 13.4912 40.7222 13.4912 41.5283C13.4912 42.3279 13.4668 42.4588 13.2203 42.9788C13.0704 43.2951 12.7616 43.7382 12.5287 43.9711C12.2972 44.2026 11.9445 44.4759 11.7448 44.5786C11.5452 44.6813 11.2236 44.8154 11.0303 44.8768C10.7305 44.9718 11.1104 44.9891 13.6107 44.9941L16.5427 45L16.4984 44.7144C16.474 44.5572 16.3867 43.9343 16.3042 43.3301C16.1914 42.5047 16.1658 41.8817 16.2011 40.8252C16.2269 40.0518 16.3113 39.063 16.3885 38.6279C16.4658 38.1929 16.6279 37.4627 16.7489 37.0052C16.8697 36.5478 17.0198 36.0712 17.0822 35.9461C17.1855 35.7389 17.1794 35.7175 17.0133 35.7054C16.9131 35.6981 16.7421 35.5891 16.6333 35.4632C16.4651 35.2685 16.4355 35.133 16.4355 34.5557C16.4355 34.0756 16.4768 33.8182 16.5763 33.6761C16.6536 33.5656 16.8118 33.4391 16.9278 33.3951C17.0576 33.3458 17.2246 33.3475 17.362 33.3998C17.4849 33.4465 17.6513 33.5994 17.7317 33.7397L17.878 33.9946L18.2802 33.2771C18.5014 32.8825 18.8872 32.2639 19.1374 31.9024C19.3876 31.5409 19.9078 30.8836 20.2932 30.4418C20.6787 30 21.3231 29.3528 21.7252 29.0036C22.1272 28.6544 22.6622 28.2249 22.9141 28.0491C23.1661 27.8734 23.3737 27.6999 23.3756 27.6636C23.3774 27.6273 23.0329 27.5998 22.6099 27.6024C22.1089 27.6055 21.6591 27.6652 21.3194 27.7736ZM22.2144 31.7042C22.3714 31.7237 22.6285 31.7237 22.7856 31.7042C22.9428 31.6847 22.8142 31.6687 22.5 31.6687C22.1858 31.6687 22.0573 31.6847 22.2144 31.7042ZM35.0947 36.3867C35.0947 36.6526 35.1112 36.7613 35.1313 36.6284C35.1514 36.4955 35.1514 36.2779 35.1313 36.145C35.1112 36.0121 35.0947 36.1208 35.0947 36.3867Z" fill="#E3A67B"/>
<path fill-rule="evenodd" clip-rule="evenodd" d="M20.4738 13.5132L20.1709 13.8428L20.5005 13.5399C20.6818 13.3733 20.8301 13.225 20.8301 13.2103C20.8301 13.1956 20.8181 13.1836 20.8034 13.1836C20.7887 13.1836 20.6404 13.332 20.4738 13.5132ZM24.4776 13.5352C24.6664 13.7285 24.8406 13.8867 24.8648 13.8867C24.889 13.8867 24.7542 13.7285 24.5655 13.5352C24.3767 13.3418 24.2024 13.1836 24.1782 13.1836C24.154 13.1836 24.2888 13.3418 24.4776 13.5352ZM19.3744 14.6118L19.1162 14.8975L19.4019 14.6393C19.5589 14.4974 19.6875 14.3688 19.6875 14.3537C19.6875 14.3386 19.6751 14.3262 19.66 14.3262C19.6449 14.3262 19.5163 14.4548 19.3744 14.6118ZM25.3125 14.3537C25.3125 14.3688 25.441 14.4974 25.5982 14.6393L25.8838 14.8975L25.6257 14.6118C25.4837 14.4548 25.3552 14.3262 25.34 14.3262C25.3249 14.3262 25.3125 14.3386 25.3125 14.3537ZM13.7989 18.0763C13.3396 18.2448 12.6079 18.4569 12.1729 18.5477C11.7378 18.6385 11.016 18.74 10.5689 18.7733L9.75589 18.8338L9.6752 19.1508C9.63082 19.3251 9.55356 19.7446 9.50347 20.083C9.45346 20.4214 9.38868 21.0344 9.3595 21.4453C9.33032 21.8562 9.34676 22.6116 9.39589 23.1241C9.44502 23.6366 9.54829 24.3683 9.62528 24.7501C9.70227 25.1319 9.90645 25.8596 10.0789 26.3672C10.2514 26.8748 10.448 27.3988 10.5159 27.5317C10.5838 27.6646 10.6562 27.7734 10.6767 27.7734C10.6973 27.7734 10.9419 27.7141 11.2202 27.6416C11.4987 27.5691 11.9471 27.5098 12.2168 27.5098C12.4866 27.5098 12.9408 27.5706 13.2262 27.6449C13.5116 27.7193 13.955 27.9002 14.2114 28.0469C14.4678 28.1936 14.8911 28.5087 15.152 28.7472C15.5621 29.122 15.6544 29.1695 15.8333 29.0979C15.947 29.0523 15.9976 29.0125 15.9458 29.0094C15.8939 29.0065 15.6671 28.654 15.4416 28.2264C15.2161 27.7988 14.9316 27.1832 14.8092 26.8581C14.687 26.5332 14.6096 26.2305 14.6375 26.1854C14.6654 26.1403 14.5573 26.1032 14.3973 26.1026C14.2373 26.1022 13.8889 26.0009 13.6231 25.8776C13.3572 25.7543 13.0077 25.5272 12.8463 25.3731C12.685 25.2189 12.4822 24.9543 12.3956 24.7852C12.3091 24.616 12.2107 24.3497 12.1769 24.1934C12.1393 24.0188 12.1679 23.7305 12.2511 23.4463C12.3256 23.1917 12.5071 22.8379 12.6545 22.6601C12.8019 22.4822 13.1493 22.2224 13.4266 22.0827L13.9307 21.8287L13.9552 21.1756C13.9687 20.8164 14.0389 20.1705 14.1112 19.7405C14.1836 19.3104 14.3337 18.6875 14.4448 18.3562C14.5559 18.025 14.6438 17.7575 14.6403 17.7619C14.6367 17.7663 14.2581 17.9077 13.7989 18.0763ZM35.2752 19.008C35.3027 19.1177 35.39 19.6022 35.4691 20.0847C35.5805 20.7642 35.6021 21.3086 35.565 22.5C35.5368 23.4025 35.46 24.2887 35.3792 24.6445C35.3033 24.9782 35.2602 25.27 35.2833 25.293C35.3063 25.3161 35.5132 25.3311 35.743 25.3266C35.9729 25.3219 36.2809 25.2928 36.4276 25.262C36.5743 25.231 36.9218 25.0857 37.1999 24.9391C37.478 24.7925 37.8672 24.4972 38.0648 24.2829C38.2623 24.0685 38.5288 23.6686 38.6569 23.3943C38.8575 22.9647 38.8898 22.7797 38.8898 22.0605C38.8898 21.3462 38.8569 21.1552 38.6621 20.7381C38.5369 20.4701 38.3037 20.1019 38.144 19.9201C37.9843 19.7381 37.6917 19.4803 37.4937 19.3471C37.2958 19.2139 36.9216 19.0383 36.6623 18.9568C36.403 18.8753 35.9735 18.8086 35.708 18.8086C35.2499 18.8086 35.2276 18.8189 35.2752 19.008ZM29.6576 28.938L29.3994 29.2236L29.6851 28.9655C29.8422 28.8236 29.9707 28.695 29.9707 28.6799C29.9707 28.6647 29.9583 28.6523 29.9432 28.6523C29.9281 28.6523 29.7995 28.7808 29.6576 28.938ZM9.47288 38.0603C9.2448 38.0982 8.84068 38.2287 8.57481 38.3505C8.30903 38.4721 7.89779 38.7529 7.66093 38.9745C7.42415 39.1961 7.10933 39.6044 6.96132 39.882C6.8134 40.1595 6.64693 40.6477 6.5913 40.9667C6.51756 41.3902 6.51589 41.6866 6.58506 42.0649C6.63718 42.3498 6.7996 42.8276 6.94611 43.1266C7.10968 43.4605 7.38284 43.8234 7.65425 44.0675C7.89726 44.286 8.30385 44.5663 8.55776 44.6905C8.81168 44.8148 9.21589 44.9397 9.45601 44.9682C9.69603 44.9966 10.1645 44.9775 10.4968 44.9257C10.8292 44.8741 11.322 44.7236 11.5919 44.5916C11.8619 44.4595 12.2636 44.1706 12.4847 43.9495C12.7058 43.7284 12.9916 43.3305 13.1198 43.0653C13.2481 42.8 13.3895 42.3457 13.434 42.0557C13.4786 41.7656 13.4836 41.3025 13.4453 41.0265C13.407 40.7505 13.2785 40.3154 13.1601 40.0597C13.0415 39.804 12.7836 39.4138 12.5869 39.1928C12.3902 38.9718 11.999 38.6692 11.7177 38.5205C11.4363 38.3719 10.9688 38.2039 10.6787 38.1473C10.3887 38.0908 10.0921 38.0326 10.0196 38.018C9.94705 38.0034 9.70104 38.0225 9.47288 38.0603ZM34.5202 38.1052C34.1945 38.1689 33.6874 38.3491 33.3934 38.5059C33.0993 38.6626 32.6977 38.9718 32.501 39.1928C32.3043 39.4138 32.0464 39.804 31.9279 40.0597C31.8094 40.3154 31.681 40.7505 31.6427 41.0265C31.6044 41.3025 31.6094 41.7656 31.6539 42.0557C31.6985 42.3457 31.8398 42.8 31.9681 43.0653C32.0964 43.3305 32.3822 43.7284 32.6032 43.9495C32.8244 44.1706 33.2222 44.4575 33.4875 44.587C33.7528 44.7166 34.2071 44.8668 34.4971 44.9207C34.7871 44.9746 35.256 44.9982 35.5391 44.9729C35.8602 44.9444 36.2604 44.8254 36.603 44.6567C36.9242 44.4986 37.3244 44.2024 37.5667 43.9433C37.7946 43.6996 38.0772 43.2901 38.1948 43.0333C38.3124 42.7765 38.4543 42.339 38.5101 42.0614C38.5876 41.6752 38.5866 41.4213 38.5057 40.9823C38.4475 40.6666 38.2872 40.185 38.1495 39.9121C38.0118 39.6393 37.7025 39.2322 37.4622 39.0074C37.2219 38.7827 36.83 38.4998 36.5914 38.3788C36.3526 38.2579 36.0013 38.1336 35.8106 38.1027C35.6199 38.0718 35.3848 38.0337 35.2881 38.0181C35.1914 38.0024 34.8458 38.0416 34.5202 38.1052Z" fill="#FFDECF"/>
<path fill-rule="evenodd" clip-rule="evenodd" d="M22.3462 27.5727C22.4791 27.5928 22.6967 27.5928 22.8296 27.5727C22.9625 27.5526 22.8538 27.5361 22.5879 27.5361C22.322 27.5361 22.2133 27.5526 22.3462 27.5727ZM23.3615 27.6719C23.3469 27.7036 23.106 27.9 22.8262 28.1085C22.5464 28.3169 22.0172 28.7492 21.6504 29.0691C21.2835 29.3891 20.6701 30.0096 20.2872 30.448C19.9043 30.8864 19.3612 31.5813 19.0804 31.9922C18.7995 32.4031 18.406 33.0392 18.2058 33.4059C17.8839 33.9955 17.8418 34.1393 17.8418 34.6487C17.8418 35.0667 17.7996 35.2765 17.688 35.4136C17.6033 35.5175 17.4388 35.6505 17.3223 35.709C17.1821 35.7794 17.0565 35.9744 16.9513 36.285C16.8638 36.5433 16.6944 37.1958 16.5749 37.7352C16.4552 38.2745 16.3157 39.0999 16.2646 39.5693C16.2136 40.0387 16.1732 40.8692 16.1748 41.415C16.1763 41.9607 16.2339 42.8225 16.3027 43.3301C16.3716 43.8376 16.4545 44.4211 16.4872 44.6265L16.5466 45L25.5219 44.991C30.4582 44.986 34.3698 44.9517 34.2142 44.9147C34.0586 44.8778 33.7154 44.742 33.4515 44.6128C33.165 44.4727 32.7774 44.1682 32.4894 43.8571C32.1801 43.5231 31.9376 43.1538 31.8135 42.8278C31.7071 42.5481 31.5998 42.0563 31.5751 41.7348C31.5411 41.2906 31.5755 41.0016 31.7181 40.5319C31.8245 40.1818 32.0423 39.735 32.2204 39.5017C32.3934 39.2751 32.6402 38.9931 32.7689 38.8752C32.8976 38.7571 33.2576 38.5372 33.569 38.3864C33.9028 38.2248 34.3266 38.0964 34.6017 38.0736L35.0684 38.0348L35.075 37.4525C35.0787 37.1322 35.0759 36.5982 35.0688 36.2659C35.0617 35.9336 34.9792 35.4134 34.8855 35.1101C34.7919 34.8068 34.5524 34.315 34.3535 34.0171C34.1547 33.7193 33.7892 33.3242 33.5414 33.139C33.2936 32.9538 32.8535 32.6831 32.5635 32.5374C32.2734 32.3917 31.9302 32.16 31.8008 32.0224C31.6715 31.885 31.4237 31.4923 31.2504 31.1498C31.0771 30.8072 30.7967 30.3652 30.6273 30.1673C30.458 29.9694 30.0787 29.6468 29.7846 29.4504C29.4905 29.254 29.0462 29.0271 28.7973 28.9461C28.4607 28.8366 28.004 28.7969 27.0153 28.7915L25.6859 28.7842L25.2135 28.4636C24.9538 28.2873 24.583 28.0644 24.3896 27.9681C24.1963 27.8719 23.8918 27.7529 23.7131 27.7037C23.5343 27.6545 23.3761 27.6403 23.3615 27.6719ZM15.293 28.96C15.457 29.1292 15.6109 29.2676 15.635 29.2676C15.6592 29.2676 15.5449 29.1292 15.3809 28.96C15.2169 28.7908 15.063 28.6523 15.0388 28.6523C15.0146 28.6523 15.129 28.7908 15.293 28.96ZM21.6126 31.7239C21.3904 31.7646 21.0804 31.8643 20.9237 31.9453C20.7347 32.043 20.5787 32.2286 20.4601 32.4969C20.3242 32.8039 20.2927 33.0121 20.3289 33.3629C20.3551 33.6168 20.4526 33.9957 20.5455 34.2048C20.6384 34.4139 20.8278 34.7192 20.9664 34.8832C21.105 35.0472 21.4178 35.2742 21.6614 35.3877C21.9197 35.508 22.2694 35.5939 22.5 35.5939C22.7306 35.5939 23.0803 35.508 23.3386 35.3877C23.5822 35.2742 23.895 35.0472 24.0336 34.8832C24.1722 34.7192 24.3573 34.4236 24.4449 34.2265C24.5326 34.0292 24.6299 33.6501 24.6612 33.3838C24.7066 32.9974 24.6812 32.8162 24.5354 32.4864C24.3873 32.1518 24.2784 32.0404 23.9621 31.9005C23.7067 31.7876 23.3028 31.7143 22.7942 31.6887C22.3665 31.6673 21.8348 31.6831 21.6126 31.7239ZM27.4151 33.5675C27.1731 33.8094 27.1582 33.8661 27.1582 34.541C27.1582 35.2159 27.1731 35.2726 27.4151 35.5146C27.5564 35.6559 27.7572 35.7715 27.8613 35.7715C27.9655 35.7715 28.1662 35.6559 28.3075 35.5146C28.546 35.2761 28.5645 35.2101 28.5645 34.5959C28.5645 34.2319 28.5205 33.8377 28.4669 33.7199C28.4132 33.6021 28.2729 33.4618 28.1551 33.4081C28.0373 33.3545 27.8804 33.3105 27.8065 33.3105C27.7326 33.3105 27.5564 33.4261 27.4151 33.5675ZM19.6037 37.8326C19.4299 38.0176 19.407 38.1161 19.4413 38.5304C19.4683 38.8552 19.5575 39.1279 19.7143 39.3649C19.8425 39.5584 20.1305 39.8242 20.3545 39.9555C20.6607 40.135 20.8847 40.1958 21.2573 40.2006C21.6 40.205 21.8721 40.1479 22.1392 40.0155L22.5255 39.8239L22.8863 40.0089C23.124 40.1308 23.412 40.1939 23.7305 40.1939C24.0507 40.1939 24.337 40.1307 24.5789 40.0067C24.7797 39.9038 25.0625 39.6758 25.2073 39.5001C25.3521 39.3243 25.5182 39.0108 25.5763 38.8033C25.6344 38.5958 25.655 38.3034 25.6221 38.1535C25.5892 38.0036 25.4775 37.8217 25.3738 37.7491C25.2702 37.6766 25.0739 37.6172 24.9374 37.6172C24.7911 37.6172 24.6007 37.7058 24.4736 37.833C24.3549 37.9516 24.2578 38.1494 24.2578 38.2724C24.2578 38.3955 24.1787 38.5752 24.082 38.6719C23.9854 38.7686 23.8271 38.8477 23.7305 38.8477C23.6338 38.8477 23.4756 38.7686 23.3789 38.6719C23.2822 38.5752 23.2031 38.3955 23.2031 38.2724C23.2031 38.1494 23.106 37.9516 22.9874 37.833C22.8687 37.7143 22.6742 37.6172 22.5551 37.6172C22.436 37.6172 22.2746 37.6418 22.1963 37.6718C22.118 37.7018 21.9962 37.8382 21.9255 37.9751C21.8547 38.1118 21.7969 38.3026 21.7969 38.3989C21.7969 38.4952 21.709 38.6356 21.6015 38.7108C21.4941 38.786 21.3539 38.8477 21.2899 38.8477C21.2259 38.8477 21.0766 38.7505 20.958 38.6319C20.8393 38.5132 20.7422 38.3184 20.7422 38.1989C20.7422 38.0688 20.6493 37.9084 20.5106 37.7994C20.3832 37.6992 20.1726 37.6172 20.0425 37.6172C19.9052 37.6172 19.7212 37.7075 19.6037 37.8326ZM12.2168 38.7873C12.2168 38.8024 12.3454 38.931 12.5024 39.0729L12.7881 39.3311L12.53 39.0454C12.388 38.8883 12.2594 38.7598 12.2443 38.7598C12.2292 38.7598 12.2168 38.7722 12.2168 38.7873Z" fill="#F2B88F"/>
<path fill-rule="evenodd" clip-rule="evenodd" d="M10.9157 27.7691C10.611 27.862 10.1943 28.0361 9.98985 28.1559C9.78532 28.2758 9.43455 28.57 9.21043 28.8096C8.98622 29.0492 8.67843 29.4918 8.52638 29.793C8.37433 30.0942 8.09703 30.7674 7.91018 31.289C7.72332 31.8107 7.45253 32.469 7.30848 32.752C7.16434 33.035 6.86498 33.4775 6.64315 33.7354C6.4214 33.9933 6.21582 34.3 6.18647 34.4171C6.15702 34.5342 6.15817 34.7642 6.18893 34.9281C6.21969 35.0921 6.32191 35.3243 6.41612 35.444C6.51026 35.5637 6.89487 35.8211 7.27069 36.016C7.64659 36.2109 8.23098 36.4501 8.56936 36.5476C8.90774 36.6451 9.35264 36.7481 9.55813 36.7766L9.93166 36.8282V36.4917C9.93166 36.3067 9.97455 35.9206 10.0269 35.6338C10.0793 35.3469 10.244 34.8552 10.393 34.541C10.5665 34.175 10.8561 33.7785 11.1986 33.4378C11.5395 33.0988 11.9725 32.7855 12.3926 32.5742C12.7551 32.3917 13.1384 32.1618 13.2441 32.0631C13.3499 31.9645 13.5813 31.5906 13.7584 31.2322C13.9355 30.8737 14.2765 30.3659 14.5161 30.1037C14.7558 29.8416 15.095 29.5385 15.27 29.4304L15.5881 29.2338L15.0694 28.7624C14.7841 28.5031 14.2618 28.1482 13.9087 27.9737C13.3185 27.682 13.1944 27.6542 12.3683 27.6283C11.6714 27.6064 11.3455 27.6381 10.9157 27.7691ZM31.6393 27.7622C31.3727 27.8476 30.9376 28.0579 30.6725 28.2297C30.4074 28.4015 30.0322 28.6851 29.8389 28.8601C29.5032 29.1637 29.4953 29.1828 29.6631 29.2822C29.7598 29.3395 30.0859 29.6228 30.3877 29.9117C30.7776 30.285 31.0404 30.643 31.2958 31.1487C31.4933 31.54 31.7195 31.932 31.7982 32.0196C31.877 32.1071 32.288 32.3578 32.7115 32.5765C33.2734 32.8668 33.6136 33.1169 33.9697 33.5015C34.2382 33.7915 34.5587 34.2277 34.682 34.4711C34.8052 34.7144 34.9618 35.1757 35.0297 35.4963C35.0977 35.8168 35.1539 36.2447 35.1548 36.4471L35.1563 36.8151L35.4859 36.7673C35.6672 36.7412 36.0528 36.662 36.3428 36.5913C36.6328 36.5207 37.191 36.3089 37.5832 36.1206C38.0031 35.9188 38.4097 35.6489 38.572 35.4641C38.8007 35.2036 38.8477 35.0768 38.8477 34.7195C38.8477 34.333 38.8018 34.2321 38.4001 33.7338C38.1538 33.4285 37.8366 32.9508 37.6951 32.6723C37.5536 32.3937 37.283 31.7316 37.0936 31.2007C36.9042 30.6699 36.6203 29.9935 36.4625 29.6976C36.3048 29.4017 36.0107 28.9898 35.8091 28.7823C35.6074 28.5748 35.2754 28.2996 35.0712 28.1707C34.867 28.0418 34.417 27.861 34.0712 27.769C33.7109 27.6732 33.161 27.6029 32.7832 27.6044C32.4021 27.606 31.9195 27.6725 31.6393 27.7622ZM16.4662 34.541C16.4662 34.9519 16.4814 35.1199 16.4999 34.9145C16.5184 34.7091 16.5184 34.3729 16.4999 34.1675C16.4814 33.9621 16.4662 34.1301 16.4662 34.541ZM17.7841 34.497C17.7843 34.8838 17.7998 35.0311 17.8184 34.8243C17.837 34.6176 17.8367 34.3012 17.8178 34.1212C17.7989 33.9412 17.7837 34.1103 17.7841 34.497ZM27.1878 34.541C27.1878 34.9035 27.2033 35.0519 27.2222 34.8706C27.2412 34.6893 27.2412 34.3927 27.2222 34.2114C27.2033 34.0302 27.1878 34.1784 27.1878 34.541ZM28.5061 34.541C28.5061 34.9035 28.5217 35.0519 28.5406 34.8706C28.5596 34.6893 28.5596 34.3927 28.5406 34.2114C28.5217 34.0302 28.5061 34.1784 28.5061 34.541ZM22.3462 35.5683C22.4309 35.5905 22.5693 35.5905 22.6538 35.5683C22.7384 35.5463 22.6692 35.5282 22.5 35.5282C22.3308 35.5282 22.2616 35.5463 22.3462 35.5683Z" fill="#DF8A57"/>
<path fill-rule="evenodd" clip-rule="evenodd" d="M20.4738 13.5132L20.1709 13.8428L20.5005 13.5399C20.6818 13.3733 20.8301 13.225 20.8301 13.2103C20.8301 13.1956 20.8181 13.1836 20.8034 13.1836C20.7887 13.1836 20.6404 13.332 20.4738 13.5132ZM24.4776 13.5352C24.6664 13.7285 24.8406 13.8867 24.8648 13.8867C24.889 13.8867 24.7542 13.7285 24.5655 13.5352C24.3767 13.3418 24.2024 13.1836 24.1782 13.1836C24.154 13.1836 24.2888 13.3418 24.4776 13.5352ZM19.3744 14.6118L19.1162 14.8975L19.4019 14.6393C19.5589 14.4974 19.6875 14.3688 19.6875 14.3537C19.6875 14.3386 19.6751 14.3262 19.66 14.3262C19.6449 14.3262 19.5163 14.4548 19.3744 14.6118ZM25.3125 14.3537C25.3125 14.3688 25.441 14.4974 25.5982 14.6393L25.8838 14.8975L25.6257 14.6118C25.4837 14.4548 25.3552 14.3262 25.34 14.3262C25.3249 14.3262 25.3125 14.3386 25.3125 14.3537ZM13.7989 18.0763C13.3396 18.2448 12.6079 18.4569 12.1729 18.5477C11.7378 18.6385 11.016 18.74 10.5689 18.7733L9.75589 18.8338L9.6752 19.1508C9.63082 19.3251 9.55356 19.7446 9.50347 20.083C9.45346 20.4214 9.38868 21.0344 9.3595 21.4453C9.33032 21.8562 9.34676 22.6116 9.39589 23.1241C9.44502 23.6366 9.54829 24.3683 9.62528 24.7501C9.70227 25.1319 9.90645 25.8596 10.0789 26.3672C10.2514 26.8748 10.448 27.3988 10.5159 27.5317C10.5838 27.6646 10.6562 27.7734 10.6767 27.7734C10.6973 27.7734 10.9419 27.7141 11.2202 27.6416C11.4987 27.5691 11.9471 27.5098 12.2168 27.5098C12.4866 27.5098 12.9408 27.5706 13.2262 27.6449C13.5116 27.7193 13.955 27.9002 14.2114 28.0469C14.4678 28.1936 14.8911 28.5087 15.152 28.7472C15.5621 29.122 15.6544 29.1695 15.8333 29.0979C15.947 29.0523 15.9976 29.0125 15.9458 29.0094C15.8939 29.0065 15.6671 28.654 15.4416 28.2264C15.2161 27.7988 14.9316 27.1832 14.8092 26.8581C14.687 26.5332 14.6096 26.2305 14.6375 26.1854C14.6654 26.1403 14.5573 26.1032 14.3973 26.1026C14.2373 26.1022 13.8889 26.0009 13.6231 25.8776C13.3572 25.7543 13.0077 25.5272 12.8463 25.3731C12.685 25.2189 12.4822 24.9543 12.3956 24.7852C12.3091 24.616 12.2107 24.3497 12.1769 24.1934C12.1393 24.0188 12.1679 23.7305 12.2511 23.4463C12.3256 23.1917 12.5071 22.8379 12.6545 22.6601C12.8019 22.4822 13.1493 22.2224 13.4266 22.0827L13.9307 21.8287L13.9552 21.1756C13.9687 20.8164 14.0389 20.1705 14.1112 19.7405C14.1836 19.3104 14.3337 18.6875 14.4448 18.3562C14.5559 18.025 14.6438 17.7575 14.6403 17.7619C14.6367 17.7663 14.2581 17.9077 13.7989 18.0763ZM35.2752 19.008C35.3027 19.1177 35.39 19.6022 35.4691 20.0847C35.5805 20.7642 35.6021 21.3086 35.565 22.5C35.5368 23.4025 35.46 24.2887 35.3792 24.6445C35.3033 24.9782 35.2602 25.27 35.2833 25.293C35.3063 25.3161 35.5132 25.3311 35.743 25.3266C35.9729 25.3219 36.2809 25.2928 36.4276 25.262C36.5743 25.231 36.9218 25.0857 37.1999 24.9391C37.478 24.7925 37.8672 24.4972 38.0648 24.2829C38.2623 24.0685 38.5288 23.6686 38.6569 23.3943C38.8575 22.9647 38.8898 22.7797 38.8898 22.0605C38.8898 21.3462 38.8569 21.1552 38.6621 20.7381C38.5369 20.4701 38.3037 20.1019 38.144 19.9201C37.9843 19.7381 37.6917 19.4803 37.4937 19.3471C37.2958 19.2139 36.9216 19.0383 36.6623 18.9568C36.403 18.8753 35.9735 18.8086 35.708 18.8086C35.2499 18.8086 35.2276 18.8189 35.2752 19.008ZM29.6576 28.938L29.3994 29.2236L29.6851 28.9655C29.8422 28.8236 29.9707 28.695 29.9707 28.6799C29.9707 28.6647 29.9583 28.6523 29.9432 28.6523C29.9281 28.6523 29.7995 28.7808 29.6576 28.938ZM9.47288 38.0603C9.2448 38.0982 8.84068 38.2287 8.57481 38.3505C8.30903 38.4721 7.89779 38.7529 7.66093 38.9745C7.42415 39.1961 7.10933 39.6044 6.96132 39.882C6.8134 40.1595 6.64693 40.6477 6.5913 40.9667C6.51756 41.3902 6.51589 41.6866 6.58506 42.0649C6.63718 42.3498 6.7996 42.8276 6.94611 43.1266C7.10968 43.4605 7.38284 43.8234 7.65425 44.0675C7.89726 44.286 8.30385 44.5663 8.55776 44.6905C8.81168 44.8148 9.21589 44.9397 9.45601 44.9682C9.69603 44.9966 10.1645 44.9775 10.4968 44.9257C10.8292 44.8741 11.322 44.7236 11.5919 44.5916C11.8619 44.4595 12.2636 44.1706 12.4847 43.9495C12.7058 43.7284 12.9916 43.3305 13.1198 43.0653C13.2481 42.8 13.3895 42.3457 13.434 42.0557C13.4786 41.7656 13.4836 41.3025 13.4453 41.0265C13.407 40.7505 13.2785 40.3154 13.1601 40.0597C13.0415 39.804 12.7836 39.4138 12.5869 39.1928C12.3902 38.9718 11.999 38.6692 11.7177 38.5205C11.4363 38.3719 10.9688 38.2039 10.6787 38.1473C10.3887 38.0908 10.0921 38.0326 10.0196 38.018C9.94705 38.0034 9.70104 38.0225 9.47288 38.0603ZM34.5202 38.1052C34.1945 38.1689 33.6874 38.3491 33.3934 38.5059C33.0993 38.6626 32.6977 38.9718 32.501 39.1928C32.3043 39.4138 32.0464 39.804 31.9279 40.0597C31.8094 40.3154 31.681 40.7505 31.6427 41.0265C31.6044 41.3025 31.6094 41.7656 31.6539 42.0557C31.6985 42.3457 31.8398 42.8 31.9681 43.0653C32.0964 43.3305 32.3822 43.7284 32.6032 43.9495C32.8244 44.1706 33.2222 44.4575 33.4875 44.587C33.7528 44.7166 34.2071 44.8668 34.4971 44.9207C34.7871 44.9746 35.256 44.9982 35.5391 44.9729C35.8602 44.9444 36.2604 44.8254 36.603 44.6567C36.9242 44.4986 37.3244 44.2024 37.5667 43.9433C37.7946 43.6996 38.0772 43.2901 38.1948 43.0333C38.3124 42.7765 38.4543 42.339 38.5101 42.0614C38.5876 41.6752 38.5866 41.4213 38.5057 40.9823C38.4475 40.6666 38.2872 40.185 38.1495 39.9121C38.0118 39.6393 37.7025 39.2322 37.4622 39.0074C37.2219 38.7827 36.83 38.4998 36.5914 38.3788C36.3526 38.2579 36.0013 38.1336 35.8106 38.1027C35.6199 38.0718 35.3848 38.0337 35.2881 38.0181C35.1914 38.0024 34.8458 38.0416 34.5202 38.1052Z" fill="#FFDECF"/>
<path fill-rule="evenodd" clip-rule="evenodd" d="M8.43959 18.9495C8.17496 19.0206 7.79588 19.174 7.59734 19.2904C7.39871 19.4068 7.08669 19.6675 6.90397 19.8699C6.72116 20.0722 6.46777 20.46 6.34085 20.7316C6.14275 21.1559 6.11023 21.3433 6.11023 22.0605C6.11023 22.7771 6.14257 22.964 6.33866 23.3789C6.46434 23.6448 6.7281 24.0432 6.9248 24.2642C7.1215 24.4853 7.51806 24.7917 7.80608 24.9452C8.11308 25.1088 8.54295 25.2521 8.84503 25.2915C9.12848 25.3285 9.45236 25.3451 9.56477 25.3286C9.69924 25.3088 9.75286 25.2557 9.7213 25.1734C9.69485 25.1046 9.60696 24.6826 9.52592 24.2356C9.42863 23.6992 9.37906 22.9597 9.38002 22.0605C9.38099 21.1827 9.43337 20.4092 9.52742 19.8855C9.60766 19.4385 9.69608 19.0134 9.72394 18.9407C9.76499 18.8339 9.69291 18.8097 9.34777 18.8144C9.11301 18.8175 8.70432 18.8784 8.43959 18.9495ZM27.6855 25.0763C27.6855 25.0914 27.814 25.22 27.9712 25.362L28.2568 25.6201L27.9987 25.3345C27.8567 25.1773 27.7282 25.0488 27.713 25.0488C27.6979 25.0488 27.6855 25.0612 27.6855 25.0763ZM14.8326 26.1656C14.9419 26.1866 15.1001 26.1859 15.1841 26.1639C15.2682 26.1419 15.1787 26.1247 14.9853 26.1257C14.792 26.1266 14.7232 26.1446 14.8326 26.1656ZM29.9498 26.1656C30.0591 26.1866 30.2173 26.1859 30.3013 26.1639C30.3854 26.1419 30.2959 26.1247 30.1025 26.1257C29.9092 26.1266 29.8404 26.1446 29.9498 26.1656Z" fill="#FFCDBE"/>
<path fill-rule="evenodd" clip-rule="evenodd" d="M14.2695 21.7951C14.0691 21.8376 13.7096 21.9715 13.4706 22.0927C13.2315 22.2139 12.906 22.4609 12.7472 22.6418C12.5884 22.8227 12.4041 23.1008 12.3376 23.2598C12.2712 23.4189 12.2168 23.7206 12.2168 23.9302C12.2168 24.1634 12.3046 24.4873 12.4429 24.7651C12.5781 25.0364 12.8151 25.3262 13.032 25.4858C13.2316 25.6325 13.6143 25.8354 13.8825 25.9366C14.2768 26.0852 14.5131 26.1137 15.1172 26.0854C15.683 26.0587 15.9815 25.9954 16.3477 25.8244C16.6135 25.7002 16.9625 25.4674 17.123 25.3071C17.2836 25.1468 17.4704 24.9086 17.538 24.7778C17.6056 24.647 17.687 24.3775 17.7188 24.1787C17.7517 23.9724 17.7302 23.6521 17.6685 23.4318C17.6092 23.2197 17.4429 22.9035 17.2992 22.7291C17.0726 22.4541 16.9876 22.4121 16.6574 22.4121C16.3279 22.4121 16.2432 22.3706 16.0266 22.1024C15.7953 21.8161 15.7333 21.7899 15.2051 21.7552C14.8909 21.7345 14.4699 21.7524 14.2695 21.7951ZM30.5747 21.9947C30.5168 22.1035 30.4066 22.2406 30.3299 22.2995C30.2532 22.3584 30.0778 22.4078 29.94 22.4093C29.7728 22.4112 29.6079 22.3246 29.4434 22.1485C29.3079 22.0035 29.152 21.8848 29.097 21.8848C29.042 21.8848 28.8455 21.962 28.6606 22.0564C28.4756 22.1508 28.1947 22.337 28.0363 22.4702C27.8779 22.6036 27.6555 22.912 27.542 23.1556C27.4286 23.3993 27.3356 23.7173 27.3353 23.8623C27.3351 24.0074 27.3776 24.2796 27.4297 24.4672C27.4823 24.6569 27.6982 24.9942 27.9158 25.2268C28.1418 25.4685 28.5007 25.7294 28.7654 25.8444C29.0559 25.9707 29.4676 26.0585 29.8903 26.084C30.3492 26.1119 30.7085 26.0803 31.0438 25.983C31.3115 25.9051 31.722 25.7125 31.9559 25.555C32.2501 25.3569 32.4568 25.1231 32.6261 24.7971C32.786 24.4894 32.8711 24.1908 32.8711 23.9374C32.8711 23.7238 32.8097 23.4021 32.7348 23.2223C32.6598 23.0426 32.472 22.7622 32.3173 22.5992C32.1627 22.4362 31.7988 22.1891 31.5088 22.0499C31.2188 21.9109 30.9136 21.797 30.8307 21.797C30.7478 21.7969 30.6326 21.8859 30.5747 21.9947Z" fill="#FFA1AC"/>
<path fill-rule="evenodd" clip-rule="evenodd" d="M27.9053 20.0091C27.7603 20.0854 27.5279 20.2519 27.3888 20.3791C27.2498 20.5063 27.0628 20.7685 26.9733 20.9619C26.8837 21.1552 26.8096 21.4574 26.8086 21.6333C26.8075 21.8101 26.8757 22.0385 26.9612 22.1439C27.0595 22.2655 27.2212 22.3377 27.4066 22.343C27.5879 22.3482 27.7562 22.2882 27.8532 22.1839C27.9388 22.0919 28.0544 21.855 28.1101 21.6575C28.1803 21.4083 28.2832 21.2657 28.4462 21.1914C28.6275 21.1088 28.7381 21.1079 28.9301 21.1874C29.1125 21.263 29.2062 21.3874 29.2813 21.6536C29.3376 21.8532 29.4543 22.0924 29.5405 22.1851C29.6321 22.2835 29.8145 22.3535 29.9795 22.3535C30.1672 22.3535 30.3161 22.2864 30.4239 22.1533C30.513 22.0432 30.5859 21.8178 30.5859 21.6524C30.5859 21.487 30.5245 21.2047 30.4494 21.025C30.3744 20.8453 30.2062 20.5858 30.0759 20.4484C29.9456 20.3111 29.6921 20.1232 29.5128 20.0309C29.2987 19.9209 29.0119 19.8645 28.6778 19.8668C28.3908 19.8688 28.054 19.9308 27.9053 20.0091ZM16.1719 20.2148C16.0209 20.3658 15.9961 20.5078 15.9961 21.2221C15.9961 21.9644 16.0167 22.0729 16.1885 22.2329C16.2942 22.3314 16.4851 22.4121 16.6126 22.4121C16.7412 22.4121 16.9294 22.3216 17.0355 22.2087C17.203 22.0303 17.2266 21.9058 17.2266 21.198C17.2266 20.5078 17.2011 20.3651 17.0508 20.2148C16.9531 20.1172 16.7578 20.039 16.6113 20.039C16.4648 20.039 16.2695 20.1172 16.1719 20.2148ZM20.6825 21.1982C20.5772 21.2491 20.4456 21.4005 20.3899 21.5348C20.3086 21.7312 20.316 21.8312 20.4278 22.0473C20.5042 22.1951 20.7347 22.4283 20.94 22.5655C21.1454 22.7028 21.4264 22.864 21.5644 22.9236C21.7024 22.9832 22.0413 23.0555 22.3175 23.0844C22.6581 23.12 22.9756 23.0916 23.3038 22.9962C23.5701 22.9188 23.9668 22.7189 24.1855 22.5519C24.4042 22.3849 24.6316 22.131 24.691 21.9877C24.7805 21.7718 24.7754 21.6814 24.6618 21.4616C24.5704 21.285 24.4324 21.176 24.2488 21.1356C24.0378 21.0893 23.9188 21.1187 23.7419 21.2607C23.6148 21.3628 23.4136 21.5152 23.2949 21.5995C23.1459 21.7054 22.9116 21.7529 22.5389 21.7529C22.0487 21.7529 21.9599 21.7225 21.5758 21.4233C21.3432 21.2421 21.0901 21.0964 21.0134 21.0997C20.9368 21.1029 20.7879 21.1472 20.6825 21.1982ZM21.3816 31.8087C21.2257 31.8485 20.9991 31.9461 20.8781 32.0254C20.757 32.1047 20.593 32.2951 20.5138 32.4484C20.4056 32.6577 20.3797 32.8823 20.4101 33.3485C20.4354 33.7363 20.5191 34.1018 20.6327 34.3213C20.7328 34.5146 20.9467 34.7994 21.108 34.954C21.2694 35.1087 21.5484 35.2965 21.7281 35.3715C21.9079 35.4464 22.2552 35.5078 22.5 35.5078C22.7448 35.5078 23.0921 35.4463 23.2719 35.3713C23.4516 35.2962 23.711 35.1281 23.8482 34.9978C23.9854 34.8674 24.1999 34.5874 24.3248 34.3755C24.5015 34.0758 24.5595 33.8416 24.5861 33.3208C24.6146 32.7625 24.5908 32.6046 24.4429 32.37C24.3454 32.2152 24.1353 32.0201 23.976 31.9364C23.7606 31.8232 23.4279 31.7781 22.6758 31.7603C22.1199 31.747 21.5375 31.7688 21.3816 31.8087ZM16.6992 33.5742C16.5495 33.724 16.5234 33.8671 16.5234 34.541C16.5234 35.2148 16.5495 35.358 16.6992 35.5078C16.7969 35.6054 16.9922 35.6836 17.1387 35.6836C17.2852 35.6836 17.4805 35.6054 17.5781 35.5078C17.7279 35.358 17.7539 35.2148 17.7539 34.541C17.7539 33.8671 17.7279 33.724 17.5781 33.5742C17.4805 33.4765 17.2852 33.3984 17.1387 33.3984C16.9922 33.3984 16.7969 33.4765 16.6992 33.5742ZM27.4219 33.5742C27.2721 33.724 27.2461 33.8671 27.2461 34.541C27.2461 35.2148 27.2721 35.358 27.4219 35.5078C27.5195 35.6054 27.7148 35.6836 27.8613 35.6836C28.0078 35.6836 28.2031 35.6054 28.3008 35.5078C28.4505 35.358 28.4766 35.2148 28.4766 34.541C28.4766 33.8671 28.4505 33.724 28.3008 33.5742C28.2031 33.4765 28.0078 33.3984 27.8613 33.3984C27.7148 33.3984 27.5195 33.4765 27.4219 33.5742ZM19.8043 37.7493C19.6579 37.8109 19.5123 37.9282 19.481 38.0101C19.4495 38.0919 19.4241 38.2446 19.4244 38.3495C19.4246 38.4542 19.4663 38.6894 19.517 38.872C19.5677 39.0546 19.7352 39.3475 19.8893 39.523C20.0434 39.6985 20.328 39.914 20.5217 40.0021C20.7155 40.0901 21.0552 40.163 21.2766 40.1641C21.5287 40.1653 21.8326 40.0884 22.0896 39.9582L22.5 39.7504L22.9104 39.9582C23.1553 40.0822 23.4755 40.166 23.7043 40.166C23.9151 40.166 24.2347 40.1045 24.4144 40.0295C24.5942 39.9544 24.8536 39.7863 24.991 39.656C25.1283 39.5256 25.3162 39.2721 25.4085 39.0928C25.5007 38.9135 25.5762 38.5933 25.5762 38.3814C25.5762 38.1068 25.5253 37.9499 25.3992 37.8358C25.302 37.7478 25.1047 37.6758 24.9609 37.6758C24.8171 37.6758 24.6245 37.7437 24.5327 37.8267C24.441 37.9097 24.3411 38.1016 24.3108 38.253C24.2805 38.4046 24.1908 38.6003 24.1113 38.688C24.0318 38.7758 23.8605 38.8476 23.7305 38.8476C23.6004 38.8476 23.433 38.7784 23.3583 38.6938C23.2837 38.6093 23.1963 38.4156 23.164 38.2635C23.1317 38.1114 23.0285 37.9175 22.9347 37.8326C22.8399 37.7467 22.6377 37.6818 22.479 37.6864C22.2994 37.6915 22.1365 37.7652 22.0393 37.8853C21.9543 37.9903 21.8848 38.1706 21.8848 38.2861C21.8848 38.4016 21.8057 38.5752 21.709 38.6718C21.6123 38.7685 21.4207 38.8476 21.2832 38.8476C21.1456 38.8476 20.9676 38.7753 20.8876 38.6869C20.8077 38.5985 20.7422 38.462 20.7422 38.3834C20.7422 38.3049 20.6972 38.1419 20.6422 38.0212C20.5871 37.9004 20.4361 37.7647 20.3064 37.7195C20.1443 37.6629 19.9876 37.6723 19.8043 37.7493Z" fill="#495560"/>
<path fill-rule="evenodd" clip-rule="evenodd" d="M21.871 11.9312C21.5492 12.3542 20.9018 13.1069 20.4323 13.604C19.9629 14.101 19.2038 14.8205 18.7457 15.203C18.2877 15.5853 17.5814 16.121 17.1764 16.3933C16.7714 16.6655 16.0245 17.1053 15.5167 17.3704L14.5935 17.8526L14.4123 18.4395C14.3125 18.7623 14.1756 19.363 14.108 19.7744C14.0403 20.1858 13.9598 20.7993 13.9291 21.1377L13.8733 21.7529H14.8905H15.9078L15.908 21.1638C15.9081 20.8397 15.9521 20.4783 16.0058 20.3605C16.0595 20.2427 16.1997 20.1024 16.3175 20.0487C16.4354 19.9951 16.5922 19.9512 16.6662 19.9512C16.7401 19.9512 16.9162 20.0667 17.0575 20.2081C17.3005 20.451 17.3144 20.5049 17.3144 21.1993C17.3144 21.7153 17.2745 21.9905 17.1803 22.125C17.0549 22.3041 17.0659 22.3425 17.3479 22.712C17.5176 22.9342 17.6896 23.2934 17.7408 23.5318C17.7919 23.77 17.8015 24.0899 17.7629 24.2609C17.7249 24.4284 17.6316 24.6841 17.5556 24.8291C17.4796 24.9741 17.2854 25.2191 17.1242 25.3737C16.963 25.5282 16.6053 25.7577 16.3292 25.8839C16.0159 26.027 15.5949 26.1326 15.2086 26.165C14.8683 26.1935 14.5898 26.2301 14.5898 26.2461C14.5898 26.2621 14.6892 26.5394 14.8107 26.8622C14.9323 27.1849 15.2161 27.7988 15.4416 28.2264C15.667 28.654 15.8939 29.0035 15.9457 29.0029C15.9976 29.0024 16.2378 28.9413 16.4795 28.8671C16.8075 28.7665 17.2327 28.7389 18.1557 28.7582L19.3925 28.7842L19.8696 28.4842C20.132 28.3191 20.5063 28.0931 20.7014 27.9818C20.8965 27.8705 21.3107 27.7142 21.622 27.6345C22.0075 27.5357 22.399 27.5028 22.8494 27.5312C23.2131 27.5541 23.7335 27.6529 24.0058 27.7507C24.2781 27.8487 24.7347 28.0875 25.0206 28.2816C25.3064 28.4757 25.6967 28.6806 25.8878 28.737C26.1285 28.8079 26.4314 28.8155 26.8733 28.7617C27.2241 28.719 27.7679 28.7148 28.0816 28.7526C28.3952 28.7903 28.82 28.8946 29.0255 28.9842L29.3991 29.1472L29.9472 28.6822C30.2486 28.4265 30.7035 28.1115 30.9581 27.9821C31.2126 27.8528 31.6186 27.6941 31.8603 27.6294C32.102 27.5648 32.5371 27.5119 32.8271 27.5119C33.1172 27.5119 33.5712 27.5695 33.8361 27.64C34.101 27.7105 34.3461 27.7397 34.3806 27.7049C34.4151 27.6701 34.5886 27.2659 34.7659 26.8066C34.9433 26.3474 35.1848 25.5366 35.3028 25.0049C35.4603 24.2945 35.5307 23.6507 35.5682 22.5776C35.6015 21.6276 35.5821 20.8595 35.5128 20.3803C35.4542 19.9751 35.3665 19.4557 35.3179 19.2261L35.2295 18.8086H34.681C34.3794 18.8086 33.7597 18.7454 33.304 18.6681C32.8484 18.5909 32.0564 18.3931 31.5441 18.2286C31.0318 18.0641 30.1617 17.7019 29.6105 17.4239C29.0594 17.1459 28.2661 16.6887 27.8477 16.4082C27.4293 16.1276 26.7141 15.5868 26.2582 15.2063C25.8024 14.8258 25.0611 14.126 24.6109 13.6512C24.1609 13.1765 23.5175 12.4321 23.1813 11.9971C22.8451 11.562 22.5445 11.1962 22.5131 11.1842C22.4817 11.172 22.1927 11.5082 21.871 11.9312ZM27.9932 19.9063C27.7929 19.9766 27.4858 20.2 27.2796 20.4256C27.0469 20.6801 26.8805 20.9689 26.8138 21.2335C26.7568 21.46 26.7349 21.7585 26.7653 21.8968C26.7957 22.035 26.9053 22.2076 27.009 22.2802C27.1126 22.3527 27.3089 22.4121 27.4454 22.4121C27.5917 22.4121 27.7821 22.3235 27.9092 22.1963C28.0279 22.0777 28.125 21.8799 28.125 21.7569C28.125 21.6338 28.2041 21.4541 28.3008 21.3574C28.3974 21.2607 28.5754 21.1816 28.6963 21.1816C28.8171 21.1816 28.9951 21.2607 29.0918 21.3574C29.1885 21.4541 29.2669 21.5827 29.2661 21.6431C29.2653 21.7035 29.039 21.8506 28.7633 21.9701C28.4874 22.0895 28.109 22.3402 27.9221 22.5271C27.7352 22.714 27.5236 23.0074 27.4518 23.179C27.3801 23.3508 27.3214 23.6993 27.3214 23.9536C27.3214 24.2424 27.3869 24.543 27.4958 24.7544C27.5917 24.9404 27.8022 25.2191 27.9634 25.3737C28.1248 25.5282 28.4941 25.7643 28.7842 25.8985C29.2278 26.1036 29.4302 26.1427 30.0586 26.1446C30.5713 26.1462 30.957 26.0944 31.2882 25.9793C31.6343 25.8591 31.911 25.6714 32.2668 25.3156C32.6796 24.9028 32.7809 24.739 32.8701 24.3404C32.9503 23.9823 32.9529 23.7706 32.8805 23.5019C32.8273 23.3041 32.6652 22.9786 32.5202 22.7786C32.3753 22.5786 32.0885 22.3084 31.8828 22.1781C31.6771 22.048 31.3244 21.8872 31.099 21.8209C30.7055 21.7051 30.685 21.6825 30.5819 21.2526C30.5022 20.9204 30.37 20.6973 30.0688 20.3869C29.8077 20.1178 29.5377 19.9344 29.3115 19.8725C29.1182 19.8197 28.8215 19.7778 28.6523 19.7797C28.4831 19.7816 28.1865 19.8386 27.9932 19.9063ZM20.4938 21.2971C20.381 21.4172 20.3027 21.6141 20.3027 21.7776C20.3027 21.9775 20.3891 22.141 20.6127 22.3646C20.7831 22.5351 21.0719 22.7507 21.2543 22.8438C21.4367 22.9368 21.8015 23.0524 22.0649 23.1005C22.3842 23.1589 22.7042 23.1586 23.0245 23.0997C23.2889 23.0511 23.6505 22.9372 23.828 22.8466C24.0056 22.756 24.2936 22.5473 24.468 22.3828C24.7191 22.146 24.7851 22.0173 24.7851 21.7645C24.7851 21.5625 24.7206 21.3808 24.6094 21.2695C24.5033 21.1634 24.3164 21.0937 24.1381 21.0937C23.9432 21.0937 23.7315 21.182 23.5168 21.3526C23.3377 21.495 23.0503 21.6579 22.8783 21.7147C22.6443 21.7919 22.4826 21.7932 22.2373 21.7197C22.0569 21.6656 21.7599 21.5027 21.5773 21.3576C21.3652 21.189 21.1442 21.0937 20.9652 21.0937C20.7859 21.0937 20.6161 21.167 20.4938 21.2971Z" fill="#FFEEE5"/>
<path fill-rule="evenodd" clip-rule="evenodd" d="M21.7897 2.09813C21.4233 2.22768 20.8962 2.47105 20.6185 2.63901C20.3408 2.80697 19.8694 3.14737 19.571 3.39557C19.2725 3.64369 18.8256 4.09852 18.5778 4.40632C18.33 4.71402 17.9408 5.25508 17.7129 5.60866C17.485 5.96224 17.0863 6.69393 16.8267 7.23464C16.5672 7.77534 16.1928 8.70347 15.9947 9.29708C15.7967 9.8906 15.5004 10.9514 15.3363 11.6543C15.1723 12.3573 14.958 13.592 14.8601 14.3983C14.7623 15.2046 14.6515 16.3046 14.6141 16.8428L14.5459 17.8215L15.3809 17.4014C15.8401 17.1704 16.5718 16.7466 17.0068 16.4596C17.4419 16.1727 18.1092 15.6868 18.4899 15.3798C18.8706 15.0728 19.5774 14.4235 20.0606 13.9367C20.5438 13.45 21.2468 12.6698 21.6228 12.203C21.9988 11.7362 22.3499 11.2814 22.4031 11.1923C22.4973 11.0349 22.5027 11.0349 22.5969 11.1923C22.6501 11.2814 23.0019 11.7362 23.3786 12.203C23.7553 12.6698 24.4611 13.4522 24.947 13.9417C25.4327 14.431 26.1389 15.0805 26.5162 15.3847C26.8935 15.689 27.5581 16.1727 27.9932 16.4596C28.4282 16.7466 29.1599 17.1704 29.6191 17.4014C30.0784 17.6324 30.8026 17.9444 31.2286 18.0947C31.6545 18.245 32.406 18.4507 32.8985 18.5519C33.4099 18.6568 34.3782 18.7633 35.1562 18.8003C35.9065 18.8358 36.6048 18.9113 36.7105 18.9685C36.8162 19.0256 36.9292 19.0723 36.9617 19.0723C36.9942 19.0723 37.0009 18.034 36.9765 16.7651C36.9403 14.8927 36.8975 14.2924 36.7489 13.5791C36.6482 13.0957 36.4424 12.3245 36.2914 11.8652C36.1404 11.406 35.8072 10.5952 35.5507 10.0635C35.2942 9.53175 34.8534 8.75391 34.5711 8.33485C34.2887 7.91588 33.8005 7.2705 33.4863 6.90074C33.1721 6.5309 32.584 5.93553 32.1796 5.57764C31.775 5.21974 31.0983 4.69003 30.6758 4.4006C30.2531 4.11118 29.4767 3.65916 28.9503 3.39619C28.4238 3.13322 27.6308 2.79484 27.1879 2.64429C26.745 2.49364 26.0133 2.29387 25.5619 2.20026C25.1105 2.10666 24.3316 1.98862 23.831 1.93791C23.3304 1.8872 22.8162 1.84949 22.6884 1.85415C22.5606 1.85881 22.1562 1.96867 21.7897 2.09813Z" fill="#FAD989"/>
<path fill-rule="evenodd" clip-rule="evenodd" d="M15.4896 0.173987C15.2836 0.267502 14.9432 0.505071 14.7332 0.701858C14.5232 0.898645 14.2422 1.26031 14.1088 1.50544C13.9753 1.75066 13.8119 2.15495 13.7457 2.40386C13.6794 2.65285 13.6246 3.06409 13.6241 3.31792C13.6235 3.57175 13.608 3.77935 13.5897 3.77935C13.5714 3.77935 13.3242 3.67265 13.0404 3.54231C12.6048 3.34227 12.4011 3.30474 11.7334 3.30131C11.0755 3.29797 10.8724 3.33199 10.5267 3.5032C10.2981 3.61649 9.98719 3.83366 9.83575 3.98598C9.6844 4.13821 9.48577 4.43422 9.39445 4.64384C9.30305 4.85346 9.20408 5.2306 9.17455 5.48197C9.13939 5.78132 9.17024 6.13192 9.26402 6.49789C9.34277 6.80525 9.50766 7.24136 9.63044 7.46698C9.75322 7.69259 9.95036 7.98966 10.0685 8.12703C10.1865 8.26449 10.2832 8.41118 10.2832 8.45293C10.2832 8.49477 10.1919 8.67644 10.0802 8.85679C9.96855 9.03705 9.7534 9.42571 9.60205 9.72031C9.45062 10.015 9.18958 10.5885 9.02188 10.9947C8.85419 11.401 8.61636 12.1092 8.4934 12.5684C8.37035 13.0276 8.20863 13.8238 8.13393 14.3375C8.04454 14.9522 7.99805 15.9185 7.99805 17.1633V19.0551L8.37158 18.9447C8.57698 18.884 9.2918 18.8089 9.96003 18.7779C10.6282 18.7469 11.5604 18.6429 12.0315 18.5469C12.5026 18.4509 13.2611 18.2431 13.717 18.0851L14.5459 17.7979L14.6131 16.8311C14.6501 16.2994 14.7609 15.2046 14.8592 14.3983C14.9576 13.5921 15.1723 12.3573 15.3363 11.6543C15.5004 10.9515 15.7967 9.89065 15.9947 9.29712C16.1928 8.70351 16.5729 7.76343 16.8395 7.20814C17.1061 6.65284 17.5817 5.81164 17.8965 5.33888C18.2112 4.86612 18.733 4.21124 19.0561 3.88376C19.3792 3.55619 19.8809 3.12746 20.1709 2.93094C20.4609 2.73442 20.8577 2.49263 21.0524 2.39358C21.2473 2.29452 21.6329 2.14766 21.9094 2.06733C22.1859 1.98691 22.4121 1.8991 22.4121 1.87212C22.4121 1.84514 22.0858 1.85147 21.687 1.88618C21.2883 1.92081 20.6055 2.00264 20.1699 2.06794C19.7343 2.13324 19.317 2.21015 19.2424 2.23871C19.142 2.2773 19.0549 2.16515 18.9055 1.80489C18.7948 1.53761 18.529 1.12417 18.315 0.886165C18.1009 0.648069 17.7211 0.35135 17.471 0.226633C17.1192 0.0513794 16.8858 0.000490742 16.4403 0.00198488C16.0619 0.00321535 15.7357 0.0622778 15.4896 0.173987Z" fill="#F6CA56"/>
</svg>
