<svg width="30" height="30" viewBox="0 0 30 30" fill="none" xmlns="http://www.w3.org/2000/svg">
<g clip-path="url(#clip0_32_19)">
<path fill-rule="evenodd" clip-rule="evenodd" d="M13.6523 0.0838175C11.7757 0.419794 10.2969 1.18251 8.99169 2.48774C7.99237 3.48706 7.35493 4.51948 6.91401 5.85278C6.55958 6.9247 6.50391 7.39181 6.50391 9.29475V10.9517L6.28419 10.986C5.16094 11.1615 4.40637 11.7795 4.09542 12.7787C3.99739 13.0935 3.98438 13.3309 3.98438 14.8001V16.4648H2.67669C1.05962 16.4648 0.874635 16.5058 0.429147 16.9627C0.243346 17.1532 0.101608 17.3611 0.0632878 17.4991C0.0228581 17.6447 0.000768286 18.7211 0.000885474 20.5371L0.00117844 23.3496L0.13776 23.643C0.212936 23.8043 0.371843 24.0219 0.490964 24.1265C0.90528 24.4903 1.00208 24.5095 2.55967 24.5373L3.97671 24.5626L3.99616 26.3292C4.01426 27.9798 4.02387 28.1161 4.14223 28.407C4.41821 29.0853 5.00051 29.6378 5.69678 29.8823C6.02714 29.9982 6.16846 30 15 30C23.8315 30 23.9729 29.9982 24.3032 29.8823C24.9995 29.6378 25.5818 29.0853 25.8578 28.407C25.9761 28.1161 25.9858 27.9798 26.0039 26.3292L26.0233 24.5626L27.4403 24.5373C28.9959 24.5096 29.0951 24.49 29.5057 24.1295C29.6229 24.0265 29.7953 23.7845 29.8887 23.5916L30.0586 23.2409V20.4061C30.0586 18.6985 30.0372 17.5844 30.0048 17.6045C29.9752 17.6227 29.9327 17.5548 29.9105 17.4536C29.8873 17.3478 29.7419 17.1381 29.5688 16.9606C29.1256 16.5061 28.9388 16.4648 27.3233 16.4648H26.0156V14.8001C26.0156 13.3309 26.0026 13.0935 25.9046 12.7787C25.5943 11.7815 24.8375 11.1605 23.7213 10.9871L23.507 10.9537L23.4798 9.06571C23.4561 7.42532 23.4368 7.11237 23.3325 6.67966C22.9293 5.00657 22.1853 3.66472 21.0083 2.48774C19.8046 1.28405 18.4031 0.522157 16.6992 0.145165C16.1017 0.0129777 14.2557 -0.0241707 13.6523 0.0838175ZM14.4043 1.06222C11.5221 1.251 8.95231 3.22462 7.94796 6.02083C7.62376 6.92335 7.55391 7.45099 7.51735 9.27243L7.48354 10.957H8.4879H9.49219V9.43872C9.49219 8.37126 9.5168 7.79276 9.5751 7.49048C9.97594 5.41204 11.4367 3.81202 13.5059 3.18536C13.9884 3.03923 14.1154 3.02563 15 3.02563C15.8847 3.02563 16.0116 3.03923 16.4941 3.18542C18.5586 3.81079 20.025 5.41684 20.4249 7.49048C20.4832 7.79276 20.5078 8.37126 20.5078 9.43872V10.957H21.5115H22.5152L22.4845 9.33102C22.451 7.55352 22.3856 7.02571 22.0889 6.14018C21.4393 4.20126 20.0252 2.61554 18.1582 1.73259C16.9945 1.18222 15.8078 0.970282 14.4043 1.06222ZM14.0332 4.12532C13.153 4.32642 12.4176 4.75356 11.7659 5.44245C11.2546 5.9828 11.0063 6.38558 10.7599 7.07452L10.5762 7.58786L10.5575 9.27243L10.5389 10.957H15H19.4612L19.4425 9.27243L19.4238 7.58786L19.2401 7.07452C18.9763 6.33706 18.7322 5.95872 18.1348 5.3613C17.5334 4.75995 17.1519 4.51497 16.4215 4.2612C15.9711 4.10475 15.8148 4.08056 15.1465 4.06392C14.646 4.05149 14.2642 4.07253 14.0332 4.12532ZM6.03516 12.1017C5.67505 12.2135 5.37212 12.4796 5.19083 12.8434L5.03907 13.148V14.8064V16.4648H15H24.9609V14.8064V13.148L24.8098 12.8448C24.6315 12.4869 24.3015 12.2068 23.9246 12.0934C23.5199 11.9716 6.42856 11.9796 6.03516 12.1017ZM6.32966 13.023C6.01706 13.1346 5.97839 13.2733 5.97745 14.2867L5.97657 15.1848L6.14784 15.356C6.36253 15.5707 6.61014 15.5815 6.83755 15.386C6.99551 15.2503 7.00272 15.2203 7.02194 14.6243L7.04192 14.0039H7.62516C8.16633 14.0039 8.21883 13.9935 8.35225 13.86C8.55446 13.6579 8.55106 13.3142 8.34499 13.1205C8.20149 12.9856 8.1521 12.9778 7.36354 12.9644C6.81721 12.9552 6.4636 12.9752 6.32966 13.023ZM1.18981 17.6609L1.0254 17.8022L1.00846 20.3818C0.989889 23.2057 1.0012 23.3169 1.31936 23.4378C1.53042 23.5181 28.4696 23.5181 28.6807 23.4378C28.9988 23.3169 29.0101 23.2057 28.9916 20.3818L28.9746 17.8022L28.8102 17.6609L28.6458 17.5195H15H1.35423L1.18981 17.6609ZM0.0271355 20.5078C0.0271355 22.103 0.0346941 22.7556 0.0438933 21.958C0.0530925 21.1603 0.0530925 19.8552 0.0438933 19.0576C0.0346941 18.26 0.0271355 18.9126 0.0271355 20.5078ZM3.77251 18.5397C3.56163 18.6331 3.45704 18.8711 3.45704 19.258V19.5141L3.06217 19.2492C2.59383 18.9351 2.37663 18.9089 2.14665 19.1388C1.98264 19.3029 1.94508 19.5485 2.05313 19.7505C2.08665 19.8131 2.32653 20.0066 2.58622 20.1804L3.05831 20.4965L2.59846 20.8058C2.04733 21.1766 1.99647 21.2362 1.99407 21.5133C1.9926 21.6822 2.03057 21.7601 2.17249 21.8795C2.27163 21.963 2.41231 22.0312 2.48514 22.0312C2.55798 22.0312 2.79985 21.9137 3.02262 21.7702L3.42774 21.5091L3.4629 21.8596C3.50796 22.3084 3.6678 22.5 3.99727 22.5C4.35487 22.5 4.51173 22.3043 4.51173 21.8581C4.51173 21.6633 4.52637 21.5039 4.54424 21.5039C4.56212 21.5039 4.73005 21.608 4.91737 21.7352C5.10475 21.8624 5.3246 21.9832 5.40592 22.0036C5.60924 22.0547 5.88522 21.9001 5.97417 21.6854C6.09839 21.3855 5.99473 21.2181 5.46253 20.8593C5.19962 20.6821 4.98358 20.5206 4.98247 20.5005C4.98141 20.4804 5.18889 20.3271 5.44366 20.1599C5.93549 19.837 6.07114 19.6461 6.00264 19.3733C5.95243 19.1732 5.71301 18.9843 5.50952 18.9843C5.4218 18.9843 5.17055 19.1008 4.94614 19.2454L4.54102 19.5065L4.51173 19.1297C4.46919 18.5829 4.18589 18.3568 3.77251 18.5397ZM9.28571 18.5388C9.06428 18.6352 8.96485 18.8472 8.96485 19.2227V19.5141L8.56999 19.2492C8.10493 18.9373 7.86598 18.9061 7.64385 19.1282C7.54067 19.2313 7.50001 19.3361 7.50001 19.4988C7.50001 19.761 7.56639 19.8341 8.16487 20.2307L8.566 20.4966L8.10628 20.8058C7.55514 21.1766 7.50428 21.2362 7.50188 21.5133C7.50042 21.6822 7.53838 21.7601 7.6803 21.8795C7.77944 21.963 7.92012 22.0312 7.99296 22.0312C8.06579 22.0312 8.30766 21.9137 8.53044 21.7701L8.93555 21.509L8.96485 21.8534C9.00253 22.296 9.1721 22.5 9.50239 22.5C9.86327 22.5 9.99862 22.3102 10.0334 21.7555L10.0488 21.509L10.454 21.7701C10.6767 21.9137 10.9088 22.0312 10.9695 22.0312C11.1657 22.0312 11.4073 21.8658 11.485 21.6782C11.6048 21.3889 11.464 21.1709 10.9348 20.8266C10.69 20.6674 10.4895 20.5218 10.489 20.5031C10.4886 20.4843 10.6986 20.327 10.9557 20.1535C11.4916 19.7916 11.5914 19.6237 11.4587 19.3063C11.2904 18.9035 10.9825 18.886 10.4425 19.2488L10.0488 19.5134L10.0335 19.2342C10.0093 18.7929 9.97032 18.6954 9.76893 18.5726C9.54862 18.4383 9.5209 18.4363 9.28571 18.5388ZM14.7483 18.5505C14.5479 18.6592 14.4727 18.843 14.4727 19.2238V19.5141L14.0778 19.2492C13.6127 18.9373 13.3738 18.9061 13.1517 19.1282C13.0726 19.2073 13.0048 19.3193 13.0011 19.3772C12.9785 19.7287 13.0753 19.8579 13.6327 20.2211C13.8369 20.3541 14.0039 20.4837 14.0039 20.509C14.0039 20.5344 13.7963 20.6883 13.5424 20.8511C13.0632 21.1585 13.0078 21.2261 13.0078 21.5039C13.0078 21.7499 13.062 21.8501 13.2464 21.9455C13.4982 22.0757 13.5987 22.0535 14.0382 21.7701L14.4434 21.509L14.4588 21.7555C14.4928 22.2971 14.6402 22.5 15 22.5C15.3598 22.5 15.5073 22.2971 15.5412 21.7555L15.5566 21.509L15.9618 21.7701C16.3869 22.0442 16.5076 22.0749 16.7177 21.9631C16.909 21.8612 16.9883 21.7309 16.9903 21.5147C16.9931 21.2264 16.9239 21.1397 16.439 20.8242C16.1963 20.6663 15.9973 20.52 15.9969 20.4992C15.9965 20.4784 16.1343 20.373 16.3032 20.2649C16.8593 19.909 16.9922 19.7619 16.9922 19.503C16.9922 19.3358 16.9524 19.2322 16.8483 19.1282C16.6262 18.9061 16.3873 18.9373 15.9222 19.2492L15.5274 19.5141V19.2238C15.5274 18.8365 15.4509 18.6569 15.2398 18.5477C15.0251 18.4367 14.9575 18.4371 14.7483 18.5505ZM20.2311 18.5726C20.0297 18.6954 19.9907 18.7929 19.9665 19.2342L19.9512 19.5134L19.5575 19.2488C19.1354 18.9652 18.9225 18.9228 18.7007 19.0782C18.5088 19.2126 18.4402 19.4297 18.5166 19.661C18.5644 19.8059 18.6921 19.9259 19.0457 20.158C19.302 20.3263 19.5114 20.4804 19.511 20.5005C19.5106 20.5206 19.3113 20.6665 19.0682 20.8247C18.545 21.1651 18.4184 21.3558 18.5172 21.655C18.5852 21.8612 18.8172 22.0312 19.0305 22.0312C19.0913 22.0312 19.3233 21.9137 19.5461 21.7701L19.9512 21.509L19.9666 21.7555C20.0014 22.3102 20.1367 22.5 20.4976 22.5C20.8279 22.5 20.9975 22.296 21.0352 21.8534L21.0645 21.509L21.4696 21.7701C21.6924 21.9137 21.9342 22.0312 22.0071 22.0312C22.0799 22.0312 22.2206 21.963 22.3197 21.8795C22.4616 21.7601 22.4996 21.6822 22.4981 21.5133C22.4957 21.2363 22.4447 21.1765 21.8963 20.8076L21.4391 20.5L21.8084 20.2635C22.3763 19.8999 22.5 19.7629 22.5 19.498C22.5 19.3361 22.4592 19.2311 22.3562 19.1282C22.134 18.9061 21.8951 18.9373 21.43 19.2492L21.0352 19.5141V19.217C21.0352 18.8392 20.9142 18.6048 20.6766 18.5219C20.4385 18.439 20.453 18.4373 20.2311 18.5726ZM24.1165 21.6842C24.0331 21.7833 23.9649 21.9263 23.9649 22.0019C23.9649 22.0776 24.0331 22.2205 24.1165 22.3197L24.2682 22.5H25.9942H27.7202L27.864 22.3561C27.9633 22.2569 28.0078 22.1472 28.0078 22.0019C28.0078 21.8567 27.9633 21.747 27.864 21.6477L27.7202 21.5039H25.9942H24.2682L24.1165 21.6842ZM5.05044 26.2646C5.07018 28.1515 5.06608 28.1287 5.45883 28.5296C5.56635 28.6393 5.77296 28.7843 5.91798 28.8518L6.18165 28.9746H15H23.8184L24.082 28.8518C24.2271 28.7843 24.4337 28.6393 24.5412 28.5296C24.9339 28.1287 24.9298 28.1515 24.9496 26.2646L24.9674 24.5508H15H5.03257L5.05044 26.2646Z" fill="#FF3E3F"/>
</g>
<defs>
<clipPath id="clip0_32_19">
<rect width="30" height="30" fill="white"/>
</clipPath>
</defs>
</svg>
