<svg width="45" height="45" viewBox="0 0 45 45" fill="none" xmlns="http://www.w3.org/2000/svg">
<g clip-path="url(#clip0_20_397)">
<path fill-rule="evenodd" clip-rule="evenodd" d="M13.7988 35.2354C13.3879 35.3262 12.8442 35.4833 12.5905 35.5847C12.3368 35.6859 11.9017 35.8839 11.6237 36.0244C11.3456 36.1649 10.8809 36.4563 10.5908 36.6718C10.3008 36.8874 9.88339 37.2377 9.66322 37.4503C9.44306 37.663 9.12366 38.0091 8.95351 38.2196L8.64404 38.6021L7.81567 38.337C7.36005 38.1912 6.67793 38.0288 6.29982 37.9764C5.92163 37.9239 5.32134 37.8809 4.96582 37.8809C4.6103 37.8809 4.01159 37.9237 3.63551 37.976C3.25934 38.0283 2.63355 38.1715 2.24481 38.2941C1.85616 38.4168 1.19206 38.6907 0.769043 38.903L0 39.2889V42.1445V45.0001H9.8877H19.7754V40.5559V36.1117L19.1116 35.805C18.7466 35.6364 18.1435 35.4168 17.7713 35.3171C17.2801 35.1855 16.7455 35.1269 15.8203 35.103C14.8061 35.077 14.3934 35.104 13.7988 35.2354Z" fill="#FFF5F5"/>
<path fill-rule="evenodd" clip-rule="evenodd" d="M27.5976 35.2333C27.1868 35.3229 26.5528 35.5203 26.1888 35.6719C25.8248 35.8235 25.4391 36.009 25.3318 36.0842L25.1367 36.2208V40.6104V45H35.0683H45V42.1444V39.2888L44.2309 38.9029C43.808 38.6906 43.1438 38.4167 42.7552 38.294C42.3664 38.1714 41.7407 38.0282 41.3645 37.9759C40.9884 37.9236 40.3897 37.8808 40.0342 37.8808C39.6787 37.8808 39.0784 37.9238 38.7002 37.9763C38.3221 38.0287 37.6526 38.1869 37.2126 38.3278C36.7725 38.4687 36.393 38.5839 36.3694 38.5839C36.3457 38.5839 36.1323 38.3417 35.895 38.0456C35.6579 37.7496 35.1475 37.2523 34.7607 36.9406C34.3636 36.6206 33.6751 36.1872 33.1787 35.945C32.6953 35.7091 31.9834 35.4307 31.5967 35.3262C31.0734 35.1849 30.5676 35.1278 29.6191 35.1032C28.6112 35.0771 28.1885 35.1043 27.5976 35.2333ZM19.8162 40.5615C19.8162 43.0268 19.8274 44.048 19.8412 42.8308C19.855 41.6136 19.855 39.5965 19.8412 38.3484C19.8275 37.1003 19.8163 38.0961 19.8162 40.5615Z" fill="#ECE6F2"/>
<path fill-rule="evenodd" clip-rule="evenodd" d="M23.1811 6.65712C23.5316 6.67373 24.105 6.67373 24.4556 6.65712C24.8061 6.64042 24.5193 6.62671 23.8183 6.62671C23.1174 6.62671 22.8306 6.64042 23.1811 6.65712ZM2.01646 19.7504C0.935846 21.1902 0.0516663 22.4275 0.0516663 22.5C0.0516663 22.5725 0.934791 23.8084 2.01426 25.2466L3.97686 27.8613H11.2466C15.2451 27.8613 19.4128 27.8352 20.5082 27.8033L22.5 27.7454V22.4876V17.2299L24.4995 17.2063C25.5992 17.1933 21.4326 17.1714 15.2402 17.1577L3.98134 17.1326L2.01646 19.7504Z" fill="#FF884D"/>
<path fill-rule="evenodd" clip-rule="evenodd" d="M22.5 22.486V27.7454L24.4443 27.802C25.5136 27.833 26.4233 27.837 26.4658 27.8108C26.5087 27.7842 26.543 25.4261 26.543 22.4948V17.2266H24.5215H22.5V22.486Z" fill="#FF4D4D"/>
<path fill-rule="evenodd" clip-rule="evenodd" d="M19.7967 11.8872L19.8193 17.1826L21.1597 17.2069L22.5 17.2311V11.9115V6.5918H21.137H19.774L19.7967 11.8872Z" fill="#FFDD99"/>
<path fill-rule="evenodd" clip-rule="evenodd" d="M19.7754 3.2959V6.5918H21.1377H22.5V3.2959V0H21.1377H19.7754V3.2959ZM19.8147 27.8688C19.7823 27.9213 19.7852 31.7972 19.8212 36.4821L19.8866 45H21.1933H22.5V36.3867V27.7734H21.1868C20.3376 27.7734 19.8528 27.8071 19.8147 27.8688Z" fill="#607DA5"/>
<path fill-rule="evenodd" clip-rule="evenodd" d="M22.5 3.2959V6.5918H23.8623H25.2246V3.2959V0H23.8623H22.5V3.2959ZM22.5 36.3867V45H23.8067H25.1134L25.1788 36.4821C25.2148 31.7972 25.2177 27.9213 25.1853 27.8688C25.1472 27.8071 24.6624 27.7734 23.8132 27.7734H22.5V36.3867Z" fill="#385C8E"/>
<path fill-rule="evenodd" clip-rule="evenodd" d="M22.5 11.8717V17.1101L25.4663 17.1682C27.0978 17.2001 31.2803 17.2247 34.7607 17.2227L41.0889 17.2193L43.0444 14.5999C44.12 13.1592 45 11.9539 45 11.9213C45 11.8888 44.1066 10.6722 43.0146 9.21792L41.0291 6.57373L31.7646 6.60344L22.5 6.63314V11.8717Z" fill="#FFBB33"/>
</g>
<defs>
<clipPath id="clip0_20_397">
<rect width="45" height="45" fill="white"/>
</clipPath>
</defs>
</svg>
