<svg width="45" height="45" viewBox="0 0 45 45" fill="none" xmlns="http://www.w3.org/2000/svg">
<path fill-rule="evenodd" clip-rule="evenodd" d="M20.0171 3.22965C20.5125 3.24529 21.3234 3.24529 21.8189 3.22965C22.3143 3.214 21.9089 3.20117 20.918 3.20117C19.927 3.20117 19.5217 3.214 20.0171 3.22965ZM19.9047 6.54787L19.9072 8.48146L21.3795 8.48472L22.8517 8.48806L21.4031 8.46063L19.9545 8.4333L19.9283 6.52379L19.9022 4.61428L19.9047 6.54787ZM30.1863 5.11965L29.8389 5.49318L30.2124 5.14575C30.4178 4.95468 30.5859 4.78654 30.5859 4.77222C30.5859 4.70568 30.5094 4.7723 30.1863 5.11965ZM28.3247 9.5801C28.3247 9.79763 28.3418 9.88657 28.3628 9.77785C28.3838 9.66913 28.3838 9.49106 28.3628 9.38234C28.3418 9.27362 28.3247 9.36257 28.3247 9.5801ZM19.9006 11.6895C19.9006 12.7288 19.9133 13.1539 19.9289 12.6343C19.9444 12.1147 19.9444 11.2643 19.9289 10.7446C19.9133 10.225 19.9006 10.6502 19.9006 11.6895ZM25.5134 12.2608C25.5141 12.5025 25.5312 12.5909 25.5514 12.4573C25.5715 12.3237 25.571 12.1259 25.5502 12.0178C25.5293 11.9097 25.5128 12.0191 25.5134 12.2608ZM31.1572 13.1836C31.346 13.377 31.5203 13.5352 31.5445 13.5352C31.5687 13.5352 31.4339 13.377 31.2451 13.1836C31.0563 12.9903 30.882 12.8321 30.8579 12.8321C30.8337 12.8321 30.9684 12.9903 31.1572 13.1836ZM26.8066 16.7267C26.8066 16.7419 26.9351 16.8705 27.0923 17.0124L27.3779 17.2705L27.1198 16.9849C26.8792 16.7187 26.8066 16.6588 26.8066 16.7267ZM18.9288 18.1377C17.9468 18.6646 16.9504 19.5342 16.1968 20.5225C15.4347 21.5219 14.8416 23.0619 14.6768 24.4693C14.287 27.7977 16.0919 31.1761 19.0723 32.6966C19.4421 32.8853 19.5065 32.8918 20.0648 32.7965C21.7539 32.5083 23.5761 31.3779 24.6626 29.9443C25.1561 29.2931 25.7644 28.0364 25.9686 27.2461C26.2 26.3502 26.2434 24.8752 26.0642 23.991C25.75 22.4403 25.0434 21.1075 23.9806 20.0612C22.9898 19.0856 22.1263 18.5604 20.874 18.1714C19.7071 17.809 19.5468 17.8062 18.9288 18.1377ZM21.5772 21.1646C21.4805 21.1844 21.348 21.244 21.2827 21.2971C21.2175 21.3501 20.4758 22.7697 19.6345 24.4516C18.7933 26.1336 18.0754 27.5073 18.0393 27.5042C18.0032 27.5013 17.6375 27.0811 17.2266 26.5705C15.8942 24.915 15.7605 24.7852 15.3863 24.7852C14.8586 24.7852 14.5564 25.2711 14.8013 25.7256C15.0794 26.2413 17.7991 29.3982 18.036 29.4803C18.5589 29.6613 18.5934 29.6092 20.5649 25.6671C21.5808 23.6356 22.4121 21.8996 22.4121 21.8092C22.4121 21.5988 22.1114 21.2144 21.9089 21.1659C21.8231 21.1454 21.6738 21.1448 21.5772 21.1646Z" fill="#C8EFFE"/>
<path fill-rule="evenodd" clip-rule="evenodd" d="M31.1517 6.08643L30.8936 6.37207L31.1792 6.11394C31.4454 5.87329 31.5053 5.80078 31.4373 5.80078C31.4222 5.80078 31.2936 5.92937 31.1517 6.08643ZM25.8637 6.50391C25.8637 6.72144 25.8809 6.81038 25.9019 6.70166C25.9228 6.59294 25.9228 6.41487 25.9019 6.30615C25.8809 6.19743 25.8637 6.28638 25.8637 6.50391ZM8.17374 11.7993C8.17374 11.8355 9.29118 11.857 10.6567 11.8469C13.155 11.8283 12.8716 11.7975 9.82169 11.7559C8.91527 11.7435 8.17365 11.7631 8.17374 11.7993ZM9.11865 13.2493C9.95247 13.2638 11.317 13.2638 12.1509 13.2493C12.9848 13.2349 12.3025 13.2231 10.6348 13.2231C8.96704 13.2231 8.28474 13.2349 9.11865 13.2493ZM34.563 14.6504C34.6475 14.6725 34.7861 14.6725 34.8706 14.6504C34.9552 14.6283 34.886 14.6102 34.7168 14.6102C34.5476 14.6102 34.4784 14.6283 34.563 14.6504ZM17.3875 17.9317C15.3666 18.2727 13.4248 19.5471 12.3189 21.2582C11.8919 21.9188 11.4773 22.8936 11.2796 23.7016C11.0817 24.5103 11.0822 26.2012 11.2807 27.0264C11.9289 29.7222 13.8567 31.7921 16.4701 32.5984C17.1889 32.8201 18.6282 32.9959 19.0608 32.9148L19.3678 32.8571L18.9344 32.62C16.4775 31.2754 14.9005 28.8352 14.6329 25.9634C14.5078 24.6219 14.9242 22.7077 15.6157 21.4453C16.3626 20.082 17.5857 18.8604 18.9288 18.1363L19.4678 17.8458L18.6328 17.8541C18.1736 17.8588 17.6132 17.8937 17.3875 17.9317Z" fill="#99E6FC"/>
<path fill-rule="evenodd" clip-rule="evenodd" d="M26.4651 34.3971C26.4104 34.463 26.1287 34.6895 25.8391 34.9003C25.2842 35.3044 25.2458 35.3638 25.4224 35.5456C25.4828 35.6078 25.8486 36.0462 26.2353 36.52C26.7998 37.2113 29.5923 40.5875 31.2775 42.6156C31.4531 42.827 31.714 43.1434 31.8574 43.3187C32.3928 43.9734 32.9471 44.4546 33.4508 44.7015C33.9258 44.9345 34.0479 44.9557 34.8926 44.9517C35.7027 44.9478 35.8744 44.9191 36.2988 44.716C36.5647 44.5888 36.8745 44.4103 36.9873 44.319L37.1923 44.1533L36.8115 44.0393C36.278 43.8795 35.3756 43.2752 34.654 42.5945C34.3172 42.2767 32.3851 40.2754 30.3606 38.147C28.3361 36.0187 26.6538 34.2773 26.6221 34.2773C26.5904 34.2773 26.5198 34.3312 26.4651 34.3971Z" fill="#685E68"/>
<path fill-rule="evenodd" clip-rule="evenodd" d="M28.1162 32.5859C27.8612 32.9119 27.4245 33.4174 27.1458 33.7093L26.639 34.2398L30.5722 38.3675C32.7355 40.6376 34.7211 42.6781 34.9846 42.9018C35.6355 43.4542 36.3597 43.9038 36.821 44.042L37.2039 44.1568L37.4612 43.8533C38.5139 42.6116 38.5633 40.8636 37.5836 39.5208C37.4392 39.3229 29.4059 32.5911 28.731 32.1025C28.5987 32.0067 28.5218 32.0671 28.1162 32.5859Z" fill="#7A6D79"/>
<path fill-rule="evenodd" clip-rule="evenodd" d="M21.3327 21.2781C21.2467 21.3282 20.4752 22.771 19.6182 24.4842L18.0603 27.5993L16.8974 26.1922C15.7985 24.8625 15.7176 24.7852 15.4259 24.7852C15.0289 24.7852 14.7656 25.0407 14.7656 25.4258C14.7656 25.6704 14.9984 25.9968 16.2817 27.551C17.8979 29.5082 18.0957 29.673 18.5064 29.4039C18.8182 29.1997 22.4404 21.9435 22.3634 21.6775C22.2422 21.2587 21.7162 21.0549 21.3327 21.2781Z" fill="#FE646F"/>
<path fill-rule="evenodd" clip-rule="evenodd" d="M17.8209 13.5094C17.9302 13.5304 18.0884 13.5296 18.1724 13.5076C18.2565 13.4857 18.167 13.4684 17.9736 13.4694C17.7803 13.4704 17.7115 13.4884 17.8209 13.5094ZM18.9404 13.5351C19.0917 13.6001 19.0794 13.6116 18.8525 13.6171C18.5171 13.6252 17.0676 14.0076 16.4355 14.2545C9.94342 16.7919 6.98959 24.173 9.93894 30.4883C10.4516 31.586 11.1778 32.6178 12.1428 33.6198C14.0063 35.5546 16.2571 36.7231 18.9404 37.149C19.7579 37.2787 19.8808 37.2777 20.6982 37.135C21.1816 37.0506 21.9186 36.8702 22.336 36.734C23.232 36.4417 24.7423 35.7014 25.1537 35.3529C25.3136 35.2175 25.6025 34.9917 25.7959 34.8512C26.3421 34.4542 27.5737 33.2351 28.0183 32.6514C28.2393 32.3613 28.4896 32.0555 28.5746 31.972C29.0936 31.4613 30.0107 29.2867 30.3451 27.7734C30.6221 26.52 30.6178 24.2093 30.3362 22.9466C29.8032 20.5563 28.69 18.5785 26.9082 16.856C25.0399 15.0498 23.0756 14.067 20.4478 13.6231C19.3504 13.4378 18.6138 13.3948 18.9404 13.5351ZM17.8418 16.4818C17.7693 16.496 17.4155 16.5557 17.0557 16.6144C13.7707 17.1509 10.9203 19.7653 10.0161 23.0713C9.72914 24.1205 9.68027 26.0379 9.91187 27.1586C10.4769 29.8919 12.2142 32.1309 14.7217 33.3569C16.2097 34.0846 16.8719 34.2297 18.6768 34.2239C19.9125 34.2198 20.2871 34.1871 20.8429 34.0344C23.4442 33.3197 25.5355 31.5982 26.6701 29.2377C27.8699 26.7414 27.851 23.8546 26.6189 21.4111C26.1358 20.4528 25.8325 20.0311 25.0109 19.1753C23.6239 17.7302 21.9564 16.8696 19.9512 16.5639C19.205 16.4501 18.2025 16.4111 17.8418 16.4818ZM18.3472 17.8174C18.5042 17.8369 18.7614 17.8369 18.9185 17.8174C19.0755 17.798 18.947 17.782 18.6328 17.782C18.3186 17.782 18.1901 17.798 18.3472 17.8174ZM23.4668 19.5392C23.4668 19.5543 23.5953 19.6829 23.7524 19.8249L24.0381 20.083L23.78 19.7973C23.5393 19.5311 23.4668 19.4713 23.4668 19.5392ZM13.2715 19.9951C13.058 20.2126 12.9031 20.3906 12.9273 20.3906C12.9515 20.3906 13.1459 20.2126 13.3594 19.9951C13.5729 19.7776 13.7277 19.5996 13.7036 19.5996C13.6794 19.5996 13.485 19.7776 13.2715 19.9951ZM26.2136 25.3564C26.2145 25.5498 26.2325 25.6185 26.2535 25.5092C26.2746 25.3998 26.2738 25.2416 26.2518 25.1576C26.2298 25.0736 26.2126 25.1631 26.2136 25.3564Z" fill="#FFD15B"/>
<path fill-rule="evenodd" clip-rule="evenodd" d="M17.5781 13.5402C13.9444 13.8734 10.8214 15.7436 8.70696 18.8525C7.95585 19.9569 7.73849 20.3886 7.3523 21.543C6.86767 22.9914 6.73267 23.8387 6.73768 25.4004C6.74832 28.7451 7.86523 31.4233 10.2446 33.8096C12.396 35.9671 14.9856 37.1172 18.1248 37.3094C19.3648 37.3852 19.7349 37.277 18.7646 37.1222C17.0634 36.8509 15.2061 36.0848 13.7753 35.0643C12.8101 34.3759 11.4353 32.9571 10.7821 31.9752C9.57013 30.1538 8.92203 28.17 8.81805 25.9635C8.57442 20.7909 11.5964 16.1458 16.4355 14.2545C17.0676 14.0075 18.5171 13.6252 18.8525 13.617C19.0794 13.6116 19.0917 13.6001 18.9404 13.5351C18.7359 13.4472 18.5865 13.4478 17.5781 13.5402ZM17.8418 16.4818C17.7693 16.496 17.4155 16.5557 17.0557 16.6144C13.7707 17.1509 10.9203 19.7653 10.0161 23.0713C9.72913 24.1205 9.68026 26.0379 9.91185 27.1586C10.4769 29.8919 12.2142 32.1309 14.7217 33.3569C16.2097 34.0846 16.8719 34.2297 18.6767 34.2239C19.9125 34.2198 20.2871 34.1871 20.8429 34.0344C23.4442 33.3197 25.5355 31.5982 26.67 29.2377C27.8698 26.7414 27.8509 23.8545 26.6189 21.4111C26.1358 20.4528 25.8324 20.0311 25.0108 19.1752C23.6238 17.7302 21.9564 16.8696 19.9512 16.5638C19.205 16.4501 18.2025 16.4111 17.8418 16.4818ZM17.6497 17.8431C15.0387 18.255 12.9765 19.7428 11.865 22.0166C11.2161 23.3441 11.1201 23.7871 11.1219 25.4443C11.1235 26.8069 11.1327 26.8771 11.4167 27.7048C11.9875 29.3682 13.0342 30.7397 14.4534 31.684C18.6716 34.4906 24.4154 32.4362 25.9117 27.5856C27.0274 23.9689 25.2261 20.0254 21.7352 18.4426C20.5638 17.9114 18.8296 17.6569 17.6497 17.8431ZM26.9799 33.8159L26.4111 34.4092L27.0044 33.8404C27.3306 33.5276 27.5976 33.2606 27.5976 33.2472C27.5976 33.1825 27.5082 33.2648 26.9799 33.8159Z" fill="#FFC344"/>
<path fill-rule="evenodd" clip-rule="evenodd" d="M10.0706 3.44971C9.90272 3.59904 9.30946 5.06452 7.64868 9.43278C6.43896 12.6147 5.44922 15.296 5.44922 15.3913C5.44922 15.6326 5.83726 15.9961 6.09469 15.9961C6.47271 15.9961 6.66387 15.7156 7.14296 14.458L7.61168 13.2275H10.6306H13.6496L13.8463 13.7549C13.9546 14.0449 14.0771 14.2822 14.1187 14.2822C14.1603 14.2822 14.4411 14.2033 14.7427 14.1068C15.2186 13.9545 15.2837 13.9081 15.2356 13.7552C15.205 13.6584 14.3363 11.3445 13.305 8.61329C11.2692 3.22181 11.2843 3.25196 10.6348 3.25196C10.4048 3.25196 10.2203 3.31664 10.0706 3.44971ZM18.7964 3.41992L18.5889 3.58787L18.5641 8.51757L18.5393 13.4473L19.0035 13.4485C19.2589 13.4491 19.5567 13.4735 19.6655 13.5026L19.8633 13.5556V11.6997V9.84375L21.7749 9.84463C23.594 9.84542 23.7078 9.85544 24.126 10.051C25.9446 10.9017 26.0383 13.3538 24.2899 14.3405L23.8084 14.6123L24.4818 14.996L25.1551 15.3798L25.3992 15.2059C26.3498 14.5291 26.9837 13.0939 26.8525 11.9161C26.7138 10.6712 26.0708 9.68775 24.8862 8.90886C24.8693 8.8977 24.9762 8.73765 25.1239 8.55317C26.296 7.08882 25.9537 4.85016 24.3998 3.8185C23.6195 3.3003 23.3331 3.25196 21.0456 3.25196C19.1665 3.25196 18.9874 3.26532 18.7964 3.41992ZM33.5808 3.34749C32.2518 3.60827 31.2826 4.13306 30.2676 5.14161C29.5802 5.82469 29.4089 6.05681 29.066 6.77039C28.5274 7.89091 28.3546 8.72078 28.4106 9.91899C28.5441 12.7794 30.4912 15.1283 33.3105 15.8303C33.5764 15.8965 34.229 15.9507 34.7607 15.9508C35.581 15.951 35.8407 15.914 36.4746 15.7064C37.3511 15.4194 38.3207 14.7945 38.7377 14.2477C39.0713 13.8103 39.0901 13.6435 38.8412 13.3273C38.5367 12.9401 38.1553 13.0052 37.5973 13.5394C36.1978 14.8792 34.012 15.0353 32.1135 13.931C31.48 13.5626 30.6771 12.7012 30.3028 11.9885C29.8778 11.1793 29.707 10.5014 29.707 9.62403C29.707 8.20319 30.1737 7.09067 31.2006 6.06384C32.2232 5.04115 33.3405 4.57032 34.7446 4.57032C35.614 4.57032 36.3255 4.75207 37.1819 5.19302C37.5494 5.38225 37.9182 5.53711 38.0014 5.53711C38.2462 5.53711 38.584 5.13545 38.584 4.84436C38.584 4.64959 38.5006 4.51433 38.256 4.3128C37.8495 3.97767 36.8207 3.54261 36.0473 3.3787C35.4077 3.24308 34.1913 3.22779 33.5808 3.34749ZM19.8836 6.52588L19.9072 8.48145L21.2957 8.50571C22.0594 8.51898 22.8345 8.48945 23.0183 8.43996C23.4888 8.31323 23.8997 8.01405 24.2106 7.57169C24.4484 7.2334 24.4775 7.1224 24.4775 6.55533C24.4775 5.70815 24.1736 5.17966 23.4773 4.81588C23.0137 4.57366 22.9856 4.57032 21.4336 4.57032H19.8599L19.8836 6.52588ZM9.4043 8.49314C8.75171 10.2138 8.20503 11.6764 8.18938 11.7434C8.16565 11.845 8.57127 11.8652 10.6378 11.8652C12.5807 11.8652 13.1064 11.8416 13.0768 11.7554C12.7917 10.9238 10.6669 5.3623 10.6348 5.36335C10.6106 5.36414 10.0569 6.7725 9.4043 8.49314Z" fill="#F8F7F7"/>
<path fill-rule="evenodd" clip-rule="evenodd" d="M7.93239 0.102412C7.36269 0.230029 6.51199 0.846318 6.13266 1.40627C5.53324 2.29098 5.53685 2.24571 5.53948 8.87346L5.54177 14.8096L7.65246 9.27345C8.81341 6.22856 9.82073 3.6495 9.89104 3.54219C10.075 3.26146 10.6391 3.1081 10.9754 3.24749C11.1195 3.30708 11.2952 3.42151 11.3658 3.50167C11.4365 3.58191 12.3139 5.82277 13.3155 8.48147C14.3171 11.1402 15.1872 13.4386 15.2492 13.5891L15.3618 13.8626L16.0965 13.7005C16.5005 13.6113 17.2166 13.5119 17.688 13.4796L18.5449 13.4208V8.52189C18.5449 3.83108 18.552 3.61417 18.7128 3.41554C18.8783 3.21093 18.9069 3.20768 20.7563 3.17999C23.3518 3.14114 24.0557 3.30884 24.9187 4.17184C26.0779 5.33103 26.2201 7.12479 25.2589 8.46266C24.9639 8.87319 24.9534 8.90932 25.1053 8.98956C25.1952 9.03693 25.5294 9.33875 25.8483 9.66017C26.661 10.4795 26.8506 10.9714 26.8506 12.2608C26.8506 13.1688 26.8333 13.2641 26.5656 13.8293C26.3774 14.2266 26.1065 14.6015 25.7683 14.9324L25.256 15.4336L25.7018 15.7367C26.427 16.2299 27.9547 17.8172 28.5101 18.6548L29.0201 19.4238L34.7469 19.4217L40.4736 19.4197L40.9727 19.2144C41.8997 18.8331 42.5265 18.1644 42.8645 17.1957C43.0114 16.7748 43.0225 16.2519 43.0225 9.71193C43.0225 3.17199 43.0114 2.64904 42.8645 2.22813C42.5265 1.25949 41.8997 0.590732 40.9727 0.209463L40.4736 0.00415039L24.3897 0.0115332C14.5676 0.0160156 8.16038 0.0513477 7.93239 0.102412ZM33.9697 3.21304C33.8731 3.23536 33.5859 3.29574 33.3317 3.34725C31.045 3.80981 29.0656 5.77329 28.4662 8.17385C28.2676 8.96952 28.311 10.5533 28.553 11.3379C29.3509 13.9245 31.4312 15.6969 34.0074 15.9851C35.8085 16.1867 37.4977 15.6234 38.627 14.4448C38.9529 14.1047 39.0234 13.9724 39.0234 13.7016C39.0234 13.1669 38.5059 12.8583 38.0289 13.1086C37.9233 13.1639 37.8039 13.2654 37.7634 13.3341C37.7229 13.4027 37.4522 13.6338 37.1617 13.8476C36.4753 14.353 35.7119 14.5899 34.77 14.5899C33.3638 14.5899 32.2277 14.1226 31.2447 13.1398C30.2275 12.1232 29.7662 11.026 29.7662 9.62404C29.7662 8.21902 30.2315 7.10264 31.2354 6.09866C32.2265 5.10761 33.3409 4.63818 34.7104 4.63493C35.6274 4.63273 36.4167 4.82565 37.1581 5.23312C37.4622 5.40037 37.8241 5.53713 37.9621 5.53713C38.5248 5.53713 38.8426 4.89896 38.498 4.46091C38.27 4.17096 37.0649 3.5675 36.3428 3.38161C35.8121 3.24503 34.2968 3.13736 33.9697 3.21304ZM19.9512 6.50393V8.43752H21.4481C23.0795 8.43752 23.3778 8.37415 23.8484 7.92749C24.951 6.88098 24.4491 4.99599 22.9769 4.65453C22.7871 4.6105 22.0286 4.57358 21.2915 4.57244L19.9512 4.57033V6.50393ZM9.45431 8.5487C8.82923 10.2036 8.30101 11.6071 8.28035 11.6675C8.251 11.7536 8.75989 11.7774 10.6348 11.7774C12.5106 11.7774 13.0182 11.7536 12.9873 11.6675C12.5158 10.3478 10.6717 5.53748 10.6378 5.53845C10.6119 5.53915 10.0794 6.89381 9.45431 8.5487ZM19.9512 11.6625V13.4963L20.6763 13.6088C21.075 13.6707 21.8562 13.8796 22.4121 14.0732C23.8042 14.5577 23.8703 14.5638 24.3562 14.2529C25.6739 13.4097 25.8743 11.6496 24.7775 10.5528C24.1824 9.95768 23.9059 9.89281 21.8188 9.85897L19.9512 9.82865V11.6625ZM7.33333 14.1284C6.72328 15.728 6.66809 15.8337 6.37919 15.9552C6.15542 16.0493 6.05883 16.0473 5.81054 15.9436L5.51154 15.8186L5.56445 16.3688C5.63353 17.0875 5.82355 17.6134 6.19946 18.1268C6.56631 18.6278 7.32243 19.1496 7.891 19.2942L8.30567 19.3997L8.51775 19.0382C9.48903 17.3829 11.3305 15.6946 13.1842 14.7598C13.5947 14.5528 13.9459 14.3718 13.9644 14.3577C13.983 14.3435 13.909 14.0933 13.7999 13.8017L13.6016 13.2715H10.6309H7.66011L7.33333 14.1284Z" fill="#7FE9FF"/>
<path fill-rule="evenodd" clip-rule="evenodd" d="M4.01063 0.216237C2.95023 0.652174 2.21037 1.58786 2.02703 2.72464C1.9017 3.50185 1.90179 15.9239 2.02712 16.6963C2.20624 17.8003 2.86516 18.6834 3.85665 19.1483C4.34066 19.3752 4.39041 19.3802 6.32813 19.3949C7.78527 19.406 8.20741 19.3873 7.9324 19.3239C7.35971 19.1918 6.51068 18.5756 6.13267 18.0176C5.51462 17.1054 5.52666 17.2735 5.53589 9.69506C5.54503 2.14465 5.53457 2.28896 6.13267 1.40628C6.512 0.846325 7.36269 0.230035 7.9324 0.102418C8.21137 0.0400159 7.82807 0.0169886 6.41602 0.0115394C4.61101 0.00450811 4.50326 0.0137366 4.01063 0.216237Z" fill="#00DEFF"/>
</svg>
