<svg width="20" height="20" viewBox="0 0 20 20" fill="none" xmlns="http://www.w3.org/2000/svg">
<path fill-rule="evenodd" clip-rule="evenodd" d="M8.16119 0.0423371C6.05237 0.268158 4.20931 1.21442 2.7165 2.83774C1.74959 3.88921 1.08322 4.99696 0.599647 6.35683C0.187584 7.51565 0 8.65645 0 10.0037C0 11.3509 0.187584 12.4917 0.599647 13.6505C1.08542 15.0166 1.75566 16.1288 2.72376 17.1756C3.87383 18.4191 5.19442 19.252 6.68487 19.6739C9.50574 20.4723 12.3565 19.7907 14.5896 17.7839C15.1742 17.2586 15.5184 16.839 15.6256 16.5212C15.8582 15.8313 15.5733 15.0496 14.969 14.7194C14.8052 14.6299 14.7085 14.6103 14.43 14.6097C13.9909 14.6089 13.8345 14.6885 13.3767 15.1465C12.4728 16.0507 11.6457 16.5708 10.6368 16.8695C10.0009 17.0577 9.69864 17.0982 8.9398 17.097C8.35868 17.096 8.13484 17.0766 7.77069 16.9959C3.95923 16.1512 1.69297 11.8628 2.89398 7.76776C3.60435 5.34575 5.47851 3.51849 7.77261 3.01129C8.31052 2.89233 9.46035 2.86888 9.95798 2.96671C11.298 3.23017 12.3034 3.78716 13.3767 4.86083C13.8345 5.31883 13.9909 5.39851 14.43 5.39767C14.8299 5.39686 15.0673 5.29169 15.3304 4.9987C15.599 4.69965 15.6878 4.44518 15.6874 3.97556C15.687 3.62869 15.6728 3.54514 15.5809 3.35042C15.3798 2.92453 14.4223 2.00119 13.6112 1.45091C11.9918 0.352374 10.0215 -0.156835 8.16119 0.0423371ZM15.8674 5.8163C15.5062 5.94865 15.1712 6.27728 15.0228 6.64484C14.9557 6.81109 14.9329 6.95158 14.9325 7.20094C14.9318 7.62918 15.0566 7.94522 15.3719 8.31358L15.5984 8.57815L12.0894 8.59025L8.58044 8.60231L8.3808 8.72083C7.61034 9.17812 7.43817 10.3076 8.03378 10.9974C8.11483 11.0912 8.271 11.2214 8.3808 11.2865L8.58044 11.4051L12.0894 11.4171L15.5984 11.4292L15.3719 11.6938C15.0566 12.0621 14.9318 12.3782 14.9325 12.8064C14.9334 13.3612 15.1871 13.8161 15.6478 14.0888C15.821 14.1913 15.8949 14.207 16.2068 14.2074C16.7775 14.208 16.7575 14.2243 18.3549 12.4548C19.5692 11.1097 19.7605 10.8793 19.8722 10.6274C19.9818 10.3802 20 10.2915 20 10.0037C20 9.71589 19.9818 9.62714 19.8722 9.37992C19.7605 9.12803 19.5692 8.89762 18.3549 7.55253C16.8002 5.83031 16.7825 5.81541 16.2695 5.79298C16.1033 5.78569 15.9223 5.79619 15.8674 5.8163Z" fill="#FF3E3F"/>
</svg>
