<svg width="45" height="45" viewBox="0 0 45 45" fill="none" xmlns="http://www.w3.org/2000/svg">
<g clip-path="url(#clip0_20_355)">
<path fill-rule="evenodd" clip-rule="evenodd" d="M16.7871 15.0706C16.7871 15.0981 16.8835 15.2734 17.0013 15.46C17.1191 15.6466 17.3129 16.0314 17.432 16.3152C17.5511 16.599 17.6939 17.0005 17.7493 17.2076C17.8048 17.4147 17.8875 17.9091 17.9331 18.3062C17.9871 18.7766 17.9846 19.2888 17.9261 19.7754C17.8767 20.1863 17.7529 20.7796 17.651 21.0938C17.5491 21.408 17.3669 21.8628 17.2462 22.1045C17.1253 22.3462 16.8787 22.7619 16.6981 23.0283C16.5175 23.2947 16.0924 23.7743 15.7535 24.0939C15.4146 24.4136 14.7566 24.8993 14.2912 25.1731C13.7157 25.5119 13.3757 25.7761 13.228 25.9992C13.1085 26.1797 12.9705 26.5395 12.9214 26.7987C12.8661 27.0905 12.832 29.6477 12.832 33.5099C12.832 39.6349 12.8287 39.7551 12.6529 40.0396C12.5545 40.1989 12.3046 40.4112 12.0979 40.5114C11.8528 40.63 11.5479 40.6934 11.2222 40.6934H10.7227V41.2275C10.7227 41.7006 10.752 41.791 10.9796 42.0185L11.2365 42.2754L12.4517 42.2855C13.1201 42.2911 13.7461 42.289 13.8428 42.2809C13.9395 42.2728 14.1274 42.1489 14.2603 42.0057C14.4723 41.7772 14.502 41.6754 14.502 41.1754V40.6055H17.4369C20.0321 40.6055 20.378 40.5894 20.4252 40.4664C20.4545 40.39 20.4785 39.864 20.4785 39.2975C20.4785 38.6136 20.4431 38.2322 20.373 38.1621C20.3104 38.0995 20.0087 38.0567 19.6298 38.0567H18.9921L18.9663 38.6939L18.9404 39.3311L16.7212 39.3545L14.502 39.378L14.5029 33.378L14.5039 27.3779L15.1401 27.1393C15.49 27.008 16.0766 26.7033 16.4436 26.4622C16.8107 26.221 17.3446 25.7739 17.6302 25.4687C17.9157 25.1634 18.2903 24.6968 18.4626 24.4319C18.6348 24.167 18.881 23.7103 19.0096 23.4171C19.1382 23.1238 19.3122 22.6294 19.3963 22.3184C19.5053 21.9156 19.5489 21.4242 19.548 20.6104C19.5471 19.7962 19.5022 19.3036 19.3917 18.8965C19.3063 18.5823 19.082 18.0035 18.8931 17.6104C18.7044 17.2173 18.3333 16.624 18.0686 16.292C17.8039 15.9601 17.4073 15.5382 17.1872 15.3545C16.9672 15.1708 16.7871 15.0431 16.7871 15.0706ZM18.9844 35.1123V36.4746H19.6781C20.1796 36.4746 20.3845 36.4418 20.4173 36.3559C20.4424 36.2906 20.4672 35.7554 20.4723 35.1666C20.4775 34.5655 20.4411 34.02 20.3891 33.923C20.3098 33.7747 20.203 33.75 19.6405 33.75H18.9844V35.1123Z" fill="#D4A806"/>
<path fill-rule="evenodd" clip-rule="evenodd" d="M11.3951 13.7634C11.0157 13.832 10.4442 13.9925 10.1251 14.1202C9.80595 14.2479 9.3106 14.4896 9.02426 14.6574C8.73791 14.8253 8.21109 15.2405 7.85346 15.5801C7.49593 15.9198 7.01754 16.4773 6.79034 16.8189C6.56323 17.1606 6.25175 17.7777 6.09829 18.1903C5.94483 18.6028 5.77028 19.2371 5.71034 19.5996C5.64442 19.9993 5.62262 20.5702 5.65497 21.0498C5.68441 21.4849 5.7912 22.1364 5.89218 22.4976C5.99326 22.8589 6.23232 23.455 6.42348 23.8225C6.61473 24.19 6.95883 24.7236 7.18822 25.0084C7.41761 25.2932 7.87429 25.752 8.20318 26.0282C8.53198 26.3044 9.12463 26.6864 9.52013 26.8771C9.91564 27.0678 10.348 27.2494 10.481 27.2806L10.7227 27.3373V34.0153V40.6934H11.2222C11.5479 40.6934 11.8528 40.63 12.0979 40.5113C12.3046 40.4112 12.5545 40.1989 12.6529 40.0395C12.8287 39.7551 12.832 39.6349 12.832 33.5099C12.832 29.6477 12.8661 27.0904 12.9214 26.7987C12.9705 26.5394 13.1085 26.1797 13.228 25.9992C13.3757 25.776 13.7157 25.5118 14.2912 25.1731C14.7566 24.8992 15.4146 24.4135 15.7535 24.0939C16.0924 23.7742 16.5175 23.2947 16.6981 23.0283C16.8787 22.7619 17.1253 22.3462 17.2462 22.1045C17.3669 21.8628 17.5491 21.408 17.6509 21.0937C17.7527 20.7795 17.8764 20.1899 17.926 19.7835C17.9859 19.2922 17.9874 18.7909 17.9305 18.2885C17.8834 17.8726 17.781 17.3153 17.7028 17.0499C17.6248 16.7846 17.4215 16.2905 17.2512 15.9521C17.0808 15.6138 16.8989 15.2542 16.8469 15.1532C16.7948 15.0521 16.4733 14.804 16.1324 14.6018C15.7916 14.3996 15.2144 14.1394 14.8499 14.0236C14.4853 13.908 13.8793 13.7704 13.5032 13.7181C13.1271 13.6658 12.654 13.6266 12.4522 13.631C12.2502 13.6353 11.7745 13.6949 11.3951 13.7634ZM11.9469 17.874C11.7259 17.9336 11.3656 18.0877 11.146 18.2164C10.9264 18.3451 10.617 18.5981 10.4584 18.7788C10.2997 18.9595 10.0886 19.2872 9.98921 19.5072C9.85702 19.7997 9.80727 20.0962 9.80411 20.6103C9.80051 21.1932 9.8397 21.3985 10.0328 21.8105C10.161 22.0839 10.4302 22.4671 10.6312 22.6621C10.832 22.857 11.1763 23.1036 11.3963 23.2101C11.6345 23.3255 12.0349 23.4208 12.3866 23.446C12.7831 23.4743 13.1337 23.442 13.4539 23.3475C13.7161 23.2702 14.1253 23.0577 14.3632 22.8754C14.648 22.6571 14.9028 22.3488 15.1093 21.9727C15.3991 21.4446 15.423 21.3448 15.4236 20.6543C15.4242 20.0793 15.3817 19.815 15.2395 19.5072C15.1378 19.2872 14.9221 18.9562 14.7601 18.7718C14.598 18.5872 14.3154 18.3414 14.1321 18.2258C13.9488 18.11 13.5729 17.9565 13.2969 17.8846C13.0209 17.8127 12.6947 17.7565 12.5719 17.7598C12.4491 17.7631 12.1678 17.8145 11.9469 17.874ZM14.502 35.5515V39.378L16.7212 39.3545L18.9404 39.331L18.9661 38.6997L18.9918 38.0683L18.7024 38.0405L18.4131 38.0127V37.2656V36.5185L18.6987 36.491L18.9844 36.4634V35.1068V33.75H18.6784C18.4333 33.75 18.3634 33.7107 18.3269 33.5522C18.3017 33.4434 18.2713 32.9985 18.2593 32.5635L18.2373 31.7725L16.3696 31.7487L14.502 31.725V35.5515ZM12.019 42.3404C12.3212 42.3576 12.8156 42.3576 13.1177 42.3404C13.4198 42.3233 13.1726 42.3092 12.5684 42.3092C11.9641 42.3092 11.717 42.3233 12.019 42.3404Z" fill="#F9C301"/>
<path fill-rule="evenodd" clip-rule="evenodd" d="M0 20.7422V31.2012H5.36133H10.7227V29.2692V27.3373L10.481 27.2806C10.348 27.2494 9.91564 27.0679 9.52014 26.8771C9.12463 26.6864 8.53198 26.3044 8.20318 26.0282C7.8743 25.752 7.41762 25.2932 7.18822 25.0084C6.95883 24.7236 6.61474 24.19 6.42349 23.8225C6.23232 23.455 5.99326 22.8589 5.89219 22.4976C5.7912 22.1364 5.68441 21.4849 5.65497 21.0498C5.62263 20.5702 5.64442 19.9993 5.71034 19.5996C5.77028 19.2371 5.94483 18.6028 6.09829 18.1903C6.25175 17.7777 6.56323 17.1606 6.79034 16.8189C7.01754 16.4773 7.49593 15.9198 7.85347 15.5801C8.21109 15.2405 8.73791 14.8253 9.02426 14.6574C9.31061 14.4896 9.80631 14.2477 10.1259 14.1199C10.4454 13.992 11.0955 13.8218 11.5705 13.7415C12.2972 13.6187 12.5684 13.6114 13.2804 13.6949C13.7458 13.7495 14.4407 13.8934 14.8245 14.0147C15.2083 14.1359 15.8564 14.4367 16.2646 14.683C16.6729 14.9294 17.2185 15.3355 17.4771 15.5855C17.7358 15.8355 18.1384 16.3093 18.372 16.6385C18.6055 16.9676 18.9208 17.5357 19.0729 17.9008C19.2248 18.266 19.4049 18.8272 19.4729 19.148C19.5409 19.4689 19.5972 20.1389 19.5981 20.637C19.5989 21.1504 19.5388 21.8164 19.4591 22.1751C19.3818 22.5229 19.1505 23.1636 18.9451 23.5986C18.7397 24.0337 18.3847 24.6363 18.1562 24.9377C17.9278 25.2392 17.5361 25.658 17.286 25.8684C17.0358 26.0788 16.6333 26.3851 16.3916 26.549C16.1499 26.7129 15.6357 26.975 15.249 27.1312L14.5459 27.4154L14.5222 29.3095L14.4985 31.2036L26.5632 31.1804L38.6279 31.1572L39.1045 30.8936C39.3712 30.746 39.7285 30.4435 39.9158 30.2067C40.0999 29.9739 40.3106 29.5811 40.3841 29.3338C40.4998 28.9439 40.5176 27.6474 40.5176 19.5836V10.2832H20.2588H0V20.7422ZM29.9105 14.8541C29.8049 14.8967 29.677 15.0091 29.6263 15.1039C29.5755 15.1988 28.8967 17.0698 28.1177 19.2617C27.3387 21.4537 26.6743 23.2761 26.6411 23.3116C26.608 23.3471 25.9542 21.5475 25.1881 19.3126C24.4222 17.0776 23.7224 15.1719 23.6331 15.0776C23.5328 14.9718 23.354 14.9063 23.1655 14.9063C22.9916 14.9063 22.7828 14.9764 22.6802 15.0693C22.5664 15.1721 22.5 15.3416 22.5 15.5283C22.5 15.691 23.276 18.0876 24.2244 20.854C25.2533 23.8553 26.0216 25.9635 26.1294 26.0815C26.2369 26.1994 26.4126 26.2793 26.5641 26.2793C26.7038 26.2793 26.89 26.2409 26.9776 26.194C27.0653 26.147 27.2049 25.9394 27.2877 25.7325C27.3705 25.5257 28.0499 23.637 28.7974 21.5355C29.545 19.4339 30.1685 17.7027 30.183 17.6881C30.1975 17.6736 30.8368 19.5075 31.6036 21.7636C32.3704 24.0196 33.071 25.9586 33.1605 26.0724C33.273 26.2154 33.4134 26.2793 33.6148 26.2793C33.7751 26.2793 33.9892 26.21 34.0905 26.1255C34.2187 26.0183 34.8236 24.4045 36.0842 20.8056C37.5126 16.7277 37.8816 15.5842 37.836 15.3768C37.7989 15.2075 37.685 15.0659 37.5156 14.9782C37.3535 14.8945 37.1566 14.8635 37.0016 14.8975C36.8634 14.9279 36.7082 15.0035 36.6566 15.0657C36.605 15.1279 35.9135 17.0336 35.1198 19.3008C33.7645 23.172 33.6705 23.4068 33.5741 23.1592C33.5178 23.0142 32.881 21.1553 32.1593 19.0283C31.1224 15.9728 30.8001 15.1196 30.6236 14.9634C30.5009 14.8546 30.3333 14.7682 30.2514 14.7712C30.1695 14.7742 30.0161 14.8116 29.9105 14.8541ZM11.9469 17.8741C11.7259 17.9336 11.3656 18.0877 11.146 18.2164C10.9264 18.3451 10.617 18.5981 10.4584 18.7788C10.2997 18.9595 10.0886 19.2872 9.98921 19.5072C9.85702 19.7997 9.80728 20.0962 9.80411 20.6104C9.80051 21.1932 9.83971 21.3985 10.0328 21.8105C10.161 22.0839 10.4302 22.4671 10.6312 22.6621C10.832 22.857 11.1763 23.1036 11.3963 23.2102C11.6345 23.3255 12.0349 23.4208 12.3866 23.446C12.7831 23.4744 13.1337 23.442 13.4539 23.3475C13.7161 23.2702 14.1253 23.0577 14.3632 22.8754C14.648 22.6571 14.9028 22.3488 15.1093 21.9727C15.3991 21.4446 15.423 21.3449 15.4236 20.6543C15.4242 20.0793 15.3817 19.815 15.2395 19.5072C15.1378 19.2872 14.9221 18.9562 14.7601 18.7718C14.598 18.5872 14.3154 18.3415 14.1321 18.2258C13.9488 18.11 13.5729 17.9565 13.2969 17.8846C13.0209 17.8127 12.6947 17.7565 12.5719 17.7598C12.4491 17.7631 12.1678 17.8146 11.9469 17.8741Z" fill="#D8EAFB"/>
<path fill-rule="evenodd" clip-rule="evenodd" d="M40.5762 2.69532C40.544 2.72749 40.5176 4.42817 40.5176 6.47462V10.1953H42.7634H45.0092L44.9826 7.40476L44.9561 4.61424L44.7222 4.17478C44.5936 3.93308 44.3563 3.61026 44.1948 3.45733C44.0335 3.30449 43.7359 3.09417 43.5336 2.9901C43.3314 2.88595 42.9161 2.76467 42.6108 2.72046C42.3055 2.67634 41.736 2.63942 41.3453 2.63845C40.9545 2.63749 40.6084 2.66306 40.5762 2.69532ZM29.8189 15.0073C29.7135 15.102 29.0799 16.7661 28.1707 19.3359C27.3584 21.6321 26.6694 23.5388 26.6394 23.5732C26.6094 23.6077 26.094 22.2036 25.494 20.4531C24.8941 18.7027 24.2335 16.7964 24.0261 16.217C23.8189 15.6377 23.5809 15.1137 23.4973 15.0525C23.4137 14.9914 23.2584 14.9414 23.1522 14.9414C23.0459 14.9414 22.8689 15.0143 22.7588 15.1035C22.6321 15.206 22.5594 15.3594 22.5607 15.5209C22.5619 15.6614 23.344 18.0505 24.2989 20.8301C25.2537 23.6096 26.096 25.953 26.1707 26.0376C26.2466 26.1235 26.4302 26.1914 26.5869 26.1914C26.7511 26.1914 26.9301 26.122 27.019 26.0238C27.1024 25.9317 27.8022 24.0826 28.5741 21.9149C29.3461 19.7472 30.0278 17.8433 30.0891 17.684C30.1973 17.4028 30.2424 17.5174 31.6446 21.6379C32.4388 23.972 33.1583 25.9513 33.2435 26.0364C33.3288 26.1217 33.5095 26.1914 33.6453 26.1914C33.7811 26.1914 33.9585 26.142 34.0394 26.0815C34.1246 26.018 34.9471 23.8037 35.9898 20.8309C36.9816 18.0036 37.793 15.6188 37.793 15.5316C37.793 15.4443 37.6959 15.2758 37.5772 15.1572C37.4586 15.0385 37.2829 14.9414 37.1866 14.9414C37.0905 14.9414 36.9151 15.0303 36.7969 15.1391C36.6356 15.2877 36.225 16.3603 35.1483 19.4458C34.3597 21.7057 33.692 23.5547 33.6645 23.5547C33.6371 23.5547 32.9718 21.6661 32.1863 19.3579C31.1874 16.4227 30.7028 15.1149 30.5744 15.0073C30.4734 14.9227 30.3006 14.8535 30.1904 14.8535C30.0803 14.8535 29.9131 14.9227 29.8189 15.0073Z" fill="#0571F9"/>
<path fill-rule="evenodd" clip-rule="evenodd" d="M4.43127 5.35862C4.33072 5.39931 4.14439 5.5562 4.0173 5.70719C3.89021 5.85819 3.76075 6.11773 3.72964 6.28393C3.68895 6.50067 3.72463 6.69289 3.85611 6.96438C3.95684 7.1725 4.15494 7.41104 4.29636 7.49462C4.43777 7.57812 4.72535 7.64632 4.93541 7.64615C5.15391 7.64597 5.43322 7.57522 5.58809 7.48074C5.73697 7.38995 5.92488 7.17646 6.00557 7.00639C6.08634 6.83624 6.15234 6.59041 6.15234 6.45998C6.15234 6.32955 6.0888 6.08899 6.01119 5.92534C5.9335 5.76168 5.74093 5.54802 5.58334 5.45064C5.41749 5.34816 5.15276 5.27583 4.95545 5.27899C4.7678 5.28207 4.5319 5.31793 4.43127 5.35862ZM8.04199 5.44282C7.89697 5.54117 7.70915 5.75035 7.62451 5.90758C7.53987 6.06491 7.4707 6.30423 7.4707 6.4395C7.4707 6.57467 7.52766 6.82165 7.59727 6.9882C7.66688 7.15484 7.8547 7.37087 8.01475 7.46843C8.18833 7.57425 8.45974 7.64597 8.68764 7.64615C8.8977 7.64632 9.18527 7.57812 9.32669 7.49462C9.46811 7.41104 9.66621 7.1725 9.76693 6.96438C9.90079 6.68788 9.93437 6.50208 9.89165 6.27418C9.85948 6.1027 9.70356 5.8211 9.54527 5.64831C9.29619 5.37655 9.19345 5.32953 8.78159 5.29912C8.40797 5.27152 8.24897 5.30246 8.04199 5.44282ZM11.8036 5.44572C11.6488 5.54002 11.4609 5.73567 11.3861 5.88042C11.3113 6.02518 11.2502 6.29395 11.2504 6.47755C11.2505 6.66125 11.3279 6.93819 11.4223 7.09288C11.5166 7.24765 11.7122 7.43556 11.857 7.51036C12.0017 7.58524 12.3048 7.6465 12.5304 7.6465C12.8897 7.6465 12.9829 7.60414 13.2819 7.30531C13.5849 7.00217 13.623 6.91622 13.6227 6.53626C13.6225 6.26706 13.5587 6.00409 13.4508 5.82708C13.3565 5.6723 13.1608 5.48439 13.0161 5.40959C12.8713 5.33471 12.6025 5.27363 12.4189 5.2738C12.2353 5.27398 11.9583 5.35132 11.8036 5.44572ZM20.2368 10.2612L40.5176 10.2836V19.672C40.5176 28.0624 40.5025 29.1046 40.3764 29.4748C40.2962 29.7104 40.0505 30.0912 39.8069 30.3578C39.5449 30.6444 39.1986 30.9078 38.9153 31.0358L38.4521 31.2451L26.4771 31.2683L14.502 31.2915V31.5083V31.725L16.3696 31.7487L18.2373 31.7725L18.2921 32.7393C18.3221 33.271 18.3518 33.716 18.358 33.728C18.3641 33.7401 18.8028 33.75 19.3329 33.75C20.1957 33.75 20.3061 33.7678 20.3875 33.92C20.4376 34.0135 20.4785 34.4486 20.4785 34.8868V35.6836H31.7145H42.9505L43.4974 35.4103C43.8708 35.2237 44.1536 34.9989 44.3885 34.7016C44.5778 34.4622 44.7799 34.1007 44.8378 33.8983C44.8956 33.6959 44.9662 33.4907 44.9946 33.4424C45.0231 33.3941 45.0328 28.1698 45.0162 21.833L44.9859 10.3115L41.6312 10.2535C39.7861 10.2217 29.6543 10.2053 19.1162 10.2172L-0.0439453 10.2389L20.2368 10.2612ZM0.0878906 32.5463C0.0878906 33.7198 0.10292 33.8335 0.313506 34.2562C0.437607 34.5053 0.682207 34.8346 0.857109 34.9881C1.03192 35.1417 1.3754 35.3605 1.62026 35.4746L2.06543 35.6819L6.39404 35.6827L10.7227 35.6836V33.4863V31.2891H5.40527H0.0878906V32.5463Z" fill="#B3D8FB"/>
<path fill-rule="evenodd" clip-rule="evenodd" d="M40.5762 2.69532C40.544 2.72749 40.5176 4.42817 40.5176 6.47462V10.1953H42.7634H45.0092L44.9826 7.40476L44.9561 4.61424L44.7222 4.17478C44.5936 3.93308 44.3563 3.61026 44.1948 3.45733C44.0335 3.30449 43.7359 3.09417 43.5336 2.9901C43.3314 2.88595 42.9161 2.76467 42.6108 2.72046C42.3055 2.67634 41.736 2.63942 41.3453 2.63845C40.9545 2.63749 40.6084 2.66306 40.5762 2.69532ZM29.8189 15.0073C29.7135 15.102 29.0799 16.7661 28.1707 19.3359C27.3584 21.6321 26.6694 23.5388 26.6394 23.5732C26.6094 23.6077 26.094 22.2036 25.494 20.4531C24.8941 18.7027 24.2335 16.7964 24.0261 16.217C23.8189 15.6377 23.5809 15.1137 23.4973 15.0525C23.4137 14.9914 23.2584 14.9414 23.1522 14.9414C23.0459 14.9414 22.8689 15.0143 22.7588 15.1035C22.6321 15.206 22.5594 15.3594 22.5607 15.5209C22.5619 15.6614 23.344 18.0505 24.2989 20.8301C25.2537 23.6096 26.096 25.953 26.1707 26.0376C26.2466 26.1235 26.4302 26.1914 26.5869 26.1914C26.7511 26.1914 26.9301 26.122 27.019 26.0238C27.1024 25.9317 27.8022 24.0826 28.5741 21.9149C29.3461 19.7472 30.0278 17.8433 30.0891 17.684C30.1973 17.4028 30.2424 17.5174 31.6446 21.6379C32.4388 23.972 33.1583 25.9513 33.2435 26.0364C33.3288 26.1217 33.5095 26.1914 33.6453 26.1914C33.7811 26.1914 33.9585 26.142 34.0394 26.0815C34.1246 26.018 34.9471 23.8037 35.9898 20.8309C36.9816 18.0036 37.793 15.6188 37.793 15.5316C37.793 15.4443 37.6959 15.2758 37.5772 15.1572C37.4586 15.0385 37.2829 14.9414 37.1866 14.9414C37.0905 14.9414 36.9151 15.0303 36.7969 15.1391C36.6356 15.2877 36.225 16.3603 35.1483 19.4458C34.3597 21.7057 33.692 23.5547 33.6645 23.5547C33.6371 23.5547 32.9718 21.6661 32.1863 19.3579C31.1874 16.4227 30.7028 15.1149 30.5744 15.0073C30.4734 14.9227 30.3006 14.8535 30.1904 14.8535C30.0803 14.8535 29.9131 14.9227 29.8189 15.0073Z" fill="#0571F9"/>
<path fill-rule="evenodd" clip-rule="evenodd" d="M2.27813 2.72545C2.05682 2.76298 1.71185 2.87715 1.51154 2.97937C1.31133 3.0815 1.00978 3.28602 0.841553 3.43376C0.673242 3.58151 0.415107 3.94353 0.267803 4.23823L0 4.7741V7.48473V10.1953L19.1382 10.1954C29.6641 10.1955 39.7793 10.2092 41.6162 10.2259C43.4531 10.2425 43.9566 10.2418 42.735 10.2242L40.5139 10.1923L40.5377 6.41449L40.5615 2.6366L21.6211 2.64697C11.2039 2.65268 2.49952 2.68801 2.27813 2.72545ZM4.43127 5.35857C4.33072 5.39926 4.14439 5.55615 4.0173 5.70714C3.89021 5.85814 3.76075 6.11768 3.72964 6.28388C3.68895 6.50062 3.72463 6.69284 3.85611 6.96433C3.95684 7.17246 4.15494 7.41099 4.29636 7.49458C4.43777 7.57807 4.72535 7.64627 4.93541 7.6461C5.15391 7.64592 5.43322 7.57517 5.58809 7.48069C5.73697 7.3899 5.92488 7.17641 6.00557 7.00634C6.08634 6.83619 6.15234 6.59036 6.15234 6.45993C6.15234 6.3295 6.0888 6.08894 6.01119 5.92529C5.9335 5.76164 5.74093 5.54797 5.58334 5.45059C5.41749 5.34811 5.15276 5.27578 4.95545 5.27894C4.7678 5.28202 4.5319 5.31788 4.43127 5.35857ZM8.04199 5.44277C7.89697 5.54112 7.70915 5.7503 7.62451 5.90753C7.53987 6.06486 7.4707 6.30418 7.4707 6.43945C7.4707 6.57462 7.52766 6.8216 7.59727 6.98815C7.66688 7.15479 7.8547 7.37083 8.01475 7.46838C8.18833 7.5742 8.45974 7.64592 8.68764 7.6461C8.8977 7.64627 9.18527 7.57807 9.32669 7.49458C9.46811 7.41099 9.66621 7.17246 9.76693 6.96433C9.90079 6.68783 9.93437 6.50203 9.89165 6.27413C9.85948 6.10265 9.70356 5.82105 9.54527 5.64826C9.29619 5.3765 9.19345 5.32948 8.78159 5.29907C8.40797 5.27147 8.24897 5.30241 8.04199 5.44277ZM11.8036 5.44567C11.6488 5.53998 11.4609 5.73562 11.3861 5.88038C11.3113 6.02513 11.2502 6.2939 11.2504 6.4775C11.2505 6.6612 11.3279 6.93814 11.4223 7.09283C11.5166 7.2476 11.7122 7.43551 11.857 7.51031C12.0017 7.58519 12.3048 7.64645 12.5304 7.64645C12.8897 7.64645 12.9829 7.60409 13.2819 7.30526C13.5849 7.00212 13.623 6.91617 13.6227 6.53622C13.6225 6.26701 13.5587 6.00404 13.4508 5.82703C13.3565 5.67225 13.1608 5.48434 13.0161 5.40955C12.8713 5.33466 12.6025 5.27358 12.4189 5.27376C12.2353 5.27393 11.9583 5.35127 11.8036 5.44567Z" fill="#1690FB"/>
<path fill-rule="evenodd" clip-rule="evenodd" d="M17.5301 25.5981L17.1826 25.9717L17.5562 25.6242C17.7617 25.4332 17.9297 25.265 17.9297 25.2507C17.9297 25.2364 17.9179 25.2246 17.9036 25.2246C17.8893 25.2246 17.7212 25.3927 17.5301 25.5981ZM2.65872 31.267C4.14512 31.2805 6.5775 31.2805 8.06399 31.267C9.5504 31.2536 8.33426 31.2425 5.36136 31.2425C2.38845 31.2425 1.17222 31.2536 2.65872 31.267ZM20.4126 31.2671C23.6877 31.2798 29.0468 31.2798 32.3218 31.2671C35.5969 31.2543 32.9173 31.2439 26.3672 31.2439C19.8172 31.2439 17.1376 31.2543 20.4126 31.2671ZM4.37259 35.7494C5.54487 35.7633 7.46308 35.7633 8.63528 35.7494C9.80757 35.7356 8.84842 35.7243 6.50393 35.7243C4.15945 35.7243 3.20039 35.7356 4.37259 35.7494ZM26.0445 35.7495C29.1299 35.7623 34.1528 35.7623 37.2066 35.7495C40.2603 35.7367 37.7359 35.7262 31.5967 35.7262C25.4575 35.7262 22.959 35.7367 26.0445 35.7495Z" fill="#CFE6FB"/>
</g>
<defs>
<clipPath id="clip0_20_355">
<rect width="45" height="45" fill="white"/>
</clipPath>
</defs>
</svg>
