<svg xmlns="http://www.w3.org/2000/svg" width="512" height="512" viewBox="0 0 512 512" version="1.1"><path d="" stroke="none" fill="#080404" fill-rule="evenodd"/><path d="M 129.798 33.931 C 114.174 38.926, 102.746 50.368, 97.985 65.783 C 96.035 72.096, 96 75.491, 96 256 C 96 435.847, 96.042 439.926, 97.964 446.145 C 101.465 457.474, 107.672 465.767, 117.428 472.151 C 127.179 478.531, 133.647 480, 152 480 C 170.353 480, 176.821 478.531, 186.572 472.151 C 196.328 465.767, 202.535 457.474, 206.036 446.145 C 207.958 439.926, 208 435.847, 208 256 C 208 75.491, 207.965 72.096, 206.015 65.783 C 203.862 58.812, 197.986 49.074, 193.386 44.851 C 188.522 40.386, 180.815 36.026, 174.145 33.964 C 165.268 31.221, 138.337 31.201, 129.798 33.931 M 337.798 33.931 C 322.174 38.926, 310.746 50.368, 305.985 65.783 C 304.035 72.096, 304 75.491, 304 256 C 304 435.847, 304.042 439.926, 305.964 446.145 C 309.465 457.474, 315.672 465.767, 325.428 472.151 C 335.179 478.531, 341.647 480, 360 480 C 378.353 480, 384.821 478.531, 394.572 472.151 C 404.328 465.767, 410.535 457.474, 414.036 446.145 C 415.958 439.926, 416 435.847, 416 256 C 416 75.491, 415.965 72.096, 414.015 65.783 C 411.862 58.812, 405.986 49.074, 401.386 44.851 C 396.522 40.386, 388.815 36.026, 382.145 33.964 C 373.268 31.221, 346.337 31.201, 337.798 33.931" stroke="none" fill="#040404" fill-rule="evenodd"/></svg>