<svg xmlns="http://www.w3.org/2000/svg" width="512" height="512" viewBox="0 0 512 512" version="1.1"><path d="" stroke="none" fill="#fcbc44" fill-rule="evenodd"/><path d="M 247.500 72.662 C 245.850 73.531, 243.429 75.201, 242.121 76.372 C 240.812 77.542, 221.829 105.275, 199.937 138 C 178.044 170.725, 159.090 198.212, 157.816 199.083 C 152.219 202.908, 145.616 203.864, 138.831 201.831 C 136.375 201.095, 117.451 187.535, 87.715 165.201 C 61.747 145.697, 38.948 129.079, 37.052 128.273 C 30.401 125.446, 21.045 129.145, 17.499 136.002 C 16.675 137.596, 16 140.728, 16 142.961 C 16 146.085, 41.851 317.438, 44.632 332.750 L 45.223 336 256 336 L 466.777 336 467.368 332.750 C 470.267 316.789, 495.999 146.021, 495.996 142.760 C 495.987 132.406, 484.643 124.480, 475.161 128.205 C 473.126 129.004, 449.850 145.860, 423.436 165.663 C 391.460 189.635, 374.297 201.891, 372.080 202.334 C 366.070 203.536, 362.007 203.037, 356.956 200.478 C 352.125 198.030, 350.834 196.236, 312.869 139.228 C 291.359 106.928, 272.576 79.221, 271.130 77.658 C 265.267 71.323, 254.398 69.025, 247.500 72.662 M 45.186 397.831 L 45.500 425.663 48.515 430.537 C 50.710 434.084, 52.988 436.173, 56.880 438.206 L 62.228 441 255.864 440.990 L 449.500 440.980 454.503 438.651 C 459.884 436.145, 464.320 430.857, 466.023 424.920 C 466.560 423.046, 467 409.923, 467 395.757 L 467 370 255.936 370 L 44.873 370 45.186 397.831" stroke="none" fill="#fcb444" fill-rule="evenodd"/></svg>