<svg width="45" height="45" viewBox="0 0 45 45" fill="none" xmlns="http://www.w3.org/2000/svg">
<g filter="url(#filter0_i_18_50)">
<path fill-rule="evenodd" clip-rule="evenodd" d="M8.33888 15.7272C6.24541 16.4317 4.61214 17.4324 3.10869 18.9317C1.63538 20.4008 0.75102 21.8894 0.248637 23.7452C0.0791837 24.371 0.0499162 24.7012 0.0471916 26.0156C0.0443791 27.3605 0.070131 27.653 0.252592 28.3434C0.536479 29.4181 1.03535 30.536 1.6388 31.4495C2.11702 32.1735 3.56062 33.7228 4.21374 34.213L4.51625 34.4401L3.65326 36.461C2.68927 38.7183 2.66 38.8935 3.17381 39.3258C3.50806 39.607 3.73825 39.6084 4.93839 39.3361C6.71299 38.9335 8.59306 38.1715 9.86739 37.3383L10.4623 36.9493L11.2297 37.0679C11.7618 37.1501 12.5226 37.1741 13.7109 37.1459C16.2353 37.0862 17.9071 36.6956 20.0324 35.6688L20.9485 35.2261L19.9005 34.8764C15.5401 33.4216 11.8647 30.4298 9.98683 26.8067C8.11801 23.2009 7.96658 19.4108 9.53657 15.5347C9.62534 15.3155 9.50475 15.3349 8.33888 15.7272ZM17.7876 16.0743C16.8688 16.3109 15.9751 17.1102 15.6461 17.9896C15.4684 18.4645 15.4608 18.6161 15.4861 21.1753C15.5165 24.2405 15.5284 24.2988 16.2989 25.1225C17.2629 26.1531 18.8557 26.3766 20.0816 25.6533L20.3912 25.4706L20.7002 25.7419C20.8701 25.891 21.1102 26.0385 21.2337 26.0694C21.709 26.1888 22.1448 25.7482 22.0248 25.2699C21.9929 25.1426 21.8153 24.8727 21.6303 24.6701C21.3041 24.3128 21.2974 24.2925 21.4069 23.9942C21.4888 23.771 21.5217 22.9693 21.5265 21.0751C21.5328 18.6399 21.5209 18.4309 21.3512 17.9773C21.1127 17.3399 20.4353 16.6012 19.8073 16.294C19.2877 16.0398 18.3273 15.9354 17.7876 16.0743ZM25.9277 16.1057C25.4924 16.2505 24.7597 17.0121 24.6284 17.4565C24.3746 18.3152 24.5428 18.8365 25.4812 20.0999L25.6895 20.3804L25.2898 20.825C24.7828 21.3889 24.3122 22.0969 24.0155 22.7423C23.8277 23.151 23.7826 23.3821 23.779 23.9567C23.7748 24.5973 23.8003 24.7083 24.0404 25.0969C24.2055 25.3643 24.4696 25.6285 24.7366 25.7936C25.1178 26.0293 25.2429 26.0593 25.833 26.0574C26.659 26.0547 27.2311 25.7872 27.9193 25.0822C28.1732 24.8222 28.398 24.6094 28.4187 24.6094C28.4395 24.6094 28.6247 24.8878 28.8303 25.2282C29.3817 26.141 29.7589 26.3233 30.1944 25.8878C30.533 25.5492 30.4711 25.2852 29.7893 24.1606L29.1684 23.1365L29.5696 22.2781C29.7902 21.8059 29.9695 21.3364 29.9679 21.2347C29.9641 20.9845 29.7867 20.7681 29.494 20.6569C29.1302 20.5185 28.8276 20.7068 28.5338 21.2542L28.2835 21.7205L27.8984 21.1019L27.5134 20.4831L27.9313 19.931C28.5789 19.0753 28.7651 18.6134 28.7238 17.9646C28.6544 16.8748 27.8717 16.0936 26.7893 16.034C26.4847 16.0172 26.0969 16.0495 25.9277 16.1057ZM34.502 16.1903C34.3113 16.3011 34.0878 16.5104 34.0052 16.6554C33.8123 16.9942 31.5527 25.117 31.5527 25.4716C31.5527 25.9318 32.1031 26.2385 32.5244 26.013C32.7643 25.8846 32.8888 25.591 33.2222 24.3658L33.5158 23.2873L35.1892 23.3112L36.8626 23.335L37.1928 24.5215C37.4498 25.4443 37.5738 25.752 37.7509 25.9058C37.8761 26.0146 38.0377 26.1035 38.1098 26.1035C38.3673 26.1035 38.7581 25.8331 38.8122 25.6173C38.8821 25.3391 36.5519 16.9327 36.3183 16.6197C35.8661 16.014 35.112 15.8356 34.502 16.1903ZM17.8418 17.5009C17.5576 17.6138 17.162 17.9909 16.977 18.3252C16.8548 18.546 16.8261 18.939 16.801 20.7422C16.768 23.1087 16.8326 23.6501 17.2002 24.0869C17.5099 24.455 18.0232 24.6973 18.4933 24.6973C18.8733 24.6973 19.3359 24.5542 19.3359 24.4368C19.3359 24.4057 19.1928 24.2439 19.0179 24.0773C18.6519 23.7288 18.4335 23.2843 18.5152 23.0543C18.718 22.484 19.2834 22.4196 19.8475 22.9024L20.2148 23.2169L20.2143 21.0786C20.214 19.8578 20.1743 18.798 20.1217 18.6085C20.007 18.1953 19.562 17.6781 19.1863 17.5211C18.8584 17.3841 18.1619 17.3736 17.8418 17.5009ZM26.1188 17.6057C25.8555 17.8861 25.8796 18.2347 26.1962 18.7283C26.6237 19.3945 26.6517 19.3995 27.0016 18.8725C27.171 18.6173 27.337 18.3226 27.3703 18.2175C27.4413 17.9937 27.2326 17.5376 27.0224 17.4569C26.7109 17.3374 26.3086 17.4037 26.1188 17.6057ZM35.0386 17.8418C34.598 19.3526 33.931 21.8313 33.9579 21.8583C33.9752 21.8756 34.5416 21.8787 35.2166 21.8653L36.4439 21.8408L35.8511 19.7089C35.5251 18.5362 35.2406 17.5277 35.219 17.4677C35.1974 17.4075 35.1162 17.5759 35.0386 17.8418ZM26.0703 22.0321C24.9299 23.4579 24.8148 24.6973 25.8226 24.6973C26.2979 24.6973 26.8792 24.2997 27.2744 23.7043L27.6004 23.2132L27.1449 22.4831C26.4768 21.4121 26.5437 21.4401 26.0703 22.0321Z" fill="#FCC745"/>
<path fill-rule="evenodd" clip-rule="evenodd" d="M24.873 5.50751C17.5182 6.2276 11.5744 10.2509 9.34781 16.0162C7.48453 20.8411 8.60022 26.0827 12.3502 30.1215C15.0513 33.0308 19.2295 35.1367 23.5619 35.7726C25.7042 36.0869 27.9808 36.0835 30.0193 35.7626L30.6392 35.6651L31.4048 36.1641C33.4099 37.471 36.0705 38.5117 38.8244 39.066L39.9818 39.299L40.385 39.1208C40.7143 38.975 40.8213 38.8672 40.9699 38.5313C41.0878 38.265 41.1354 38.0192 41.1053 37.8338C41.0798 37.6763 40.5612 36.3865 39.9531 34.9676C39.3449 33.5487 38.8473 32.3451 38.8474 32.2931C38.8475 32.2409 39.2656 31.8509 39.7765 31.4262C42.2978 29.3303 44.0956 26.4082 44.7814 23.291C44.8676 22.899 44.9452 22.0262 44.9729 21.1377C45.0266 19.4158 44.8613 18.1607 44.3885 16.6992C44.0231 15.5699 43.1935 13.9333 42.4732 12.9208C41.7619 11.921 40.0466 10.1652 39.0509 9.41768C36.292 7.34662 32.8612 6.00831 29.2184 5.58213C28.2075 5.46392 25.7494 5.42164 24.873 5.50751ZM17.7875 16.0743C16.8687 16.3109 15.975 17.1102 15.6461 17.9896C15.4683 18.4645 15.4608 18.6161 15.4861 21.1753C15.5164 24.2405 15.5284 24.2988 16.2988 25.1225C17.2628 26.1531 18.8556 26.3766 20.0815 25.6533L20.3912 25.4706L20.7001 25.7419C20.87 25.891 21.1101 26.0385 21.2336 26.0694C21.7089 26.1888 22.1448 25.7482 22.0247 25.2699C21.9928 25.1426 21.8153 24.8727 21.6303 24.6701C21.304 24.3129 21.2973 24.2925 21.4068 23.9942C21.4888 23.771 21.5216 22.9693 21.5265 21.0751C21.5327 18.6399 21.5208 18.4309 21.3511 17.9773C21.1127 17.3399 20.4352 16.6012 19.8072 16.294C19.2876 16.0398 18.3272 15.9354 17.7875 16.0743ZM25.9277 16.1057C25.4924 16.2505 24.7596 17.0121 24.6283 17.4565C24.3746 18.3152 24.5428 18.8365 25.4811 20.0999L25.6895 20.3805L25.2898 20.825C24.7827 21.3889 24.3122 22.097 24.0154 22.7423C23.8276 23.151 23.7825 23.3821 23.7789 23.9567C23.7748 24.5973 23.8003 24.7083 24.0403 25.0969C24.2055 25.3643 24.4696 25.6285 24.7366 25.7936C25.1178 26.0293 25.2428 26.0593 25.8329 26.0574C26.6589 26.0547 27.231 25.7872 27.9193 25.0822C28.1732 24.8222 28.3979 24.6094 28.4187 24.6094C28.4394 24.6094 28.6246 24.8878 28.8303 25.2282C29.3817 26.141 29.7588 26.3233 30.1943 25.8878C30.533 25.5492 30.471 25.2852 29.7892 24.1606L29.1684 23.1365L29.5695 22.2781C29.7901 21.8059 29.9694 21.3364 29.9678 21.2347C29.9641 20.9845 29.7866 20.7681 29.4939 20.6569C29.1301 20.5185 28.8275 20.7068 28.5337 21.2542L28.2834 21.7205L27.8984 21.1019L27.5133 20.4831L27.9312 19.931C28.5788 19.0753 28.765 18.6134 28.7237 17.9646C28.6543 16.8748 27.8716 16.0936 26.7893 16.034C26.4846 16.0172 26.0969 16.0495 25.9277 16.1057ZM34.5019 16.1903C34.3112 16.3011 34.0877 16.5104 34.0052 16.6554C33.8123 16.9942 31.5527 25.1171 31.5527 25.4716C31.5527 25.9318 32.1031 26.2385 32.5243 26.013C32.7642 25.8846 32.8887 25.591 33.2222 24.3659L33.5157 23.2873L35.1892 23.3112L36.8625 23.335L37.1928 24.5215C37.4497 25.4443 37.5737 25.752 37.7508 25.9058C37.8761 26.0146 38.0376 26.1035 38.1098 26.1035C38.3673 26.1035 38.758 25.8331 38.8122 25.6173C38.8821 25.3391 36.5519 16.9327 36.3183 16.6197C35.866 16.014 35.112 15.8356 34.5019 16.1903ZM17.8417 17.5009C17.5576 17.6138 17.162 17.9909 16.977 18.3252C16.8547 18.546 16.8261 18.939 16.8009 20.7422C16.768 23.1088 16.8326 23.6501 17.2001 24.0869C17.5099 24.455 18.0231 24.6973 18.4933 24.6973C18.8732 24.6973 19.3359 24.5542 19.3359 24.4368C19.3359 24.4057 19.1927 24.2439 19.0178 24.0773C18.6518 23.7288 18.4334 23.2843 18.5152 23.0543C18.7179 22.484 19.2833 22.4196 19.8474 22.9024L20.2148 23.2169L20.2143 21.0787C20.214 19.8579 20.1743 18.798 20.1216 18.6085C20.0069 18.1953 19.5619 17.6781 19.1863 17.5211C18.8584 17.3841 18.1618 17.3736 17.8417 17.5009ZM26.1188 17.6057C25.8554 17.8861 25.8795 18.2347 26.1962 18.7283C26.6237 19.3945 26.6516 19.3995 27.0015 18.8725C27.171 18.6173 27.3369 18.3226 27.3702 18.2175C27.4412 17.9937 27.2326 17.5376 27.0224 17.4569C26.7109 17.3374 26.3086 17.4037 26.1188 17.6057ZM35.0386 17.8418C34.5979 19.3526 33.9309 21.8313 33.9579 21.8583C33.9751 21.8756 34.5416 21.8787 35.2166 21.8653L36.4439 21.8408L35.8511 19.7089C35.5251 18.5362 35.2406 17.5277 35.2189 17.4677C35.1973 17.4075 35.1161 17.5759 35.0386 17.8418ZM26.0702 22.0321C24.9299 23.4579 24.8147 24.6973 25.8226 24.6973C26.2979 24.6973 26.8792 24.2997 27.2743 23.7043L27.6003 23.2133L27.1449 22.4831C26.4767 21.4121 26.5436 21.4401 26.0702 22.0321Z" fill="#FA5B72"/>
</g>
<defs>
<filter id="filter0_i_18_50" x="0" y="-4" width="45" height="49" filterUnits="userSpaceOnUse" color-interpolation-filters="sRGB">
<feFlood flood-opacity="0" result="BackgroundImageFix"/>
<feBlend mode="normal" in="SourceGraphic" in2="BackgroundImageFix" result="shape"/>
<feColorMatrix in="SourceAlpha" type="matrix" values="0 0 0 0 0 0 0 0 0 0 0 0 0 0 0 0 0 0 127 0" result="hardAlpha"/>
<feOffset dy="-4"/>
<feGaussianBlur stdDeviation="2"/>
<feComposite in2="hardAlpha" operator="arithmetic" k2="-1" k3="1"/>
<feColorMatrix type="matrix" values="0 0 0 0 0 0 0 0 0 0 0 0 0 0 0 0 0 0 0.23 0"/>
<feBlend mode="normal" in2="shape" result="effect1_innerShadow_18_50"/>
</filter>
</defs>
</svg>
