<svg width="45" height="45" viewBox="0 0 45 45" fill="none" xmlns="http://www.w3.org/2000/svg">
<g clip-path="url(#clip0_20_364)">
<path fill-rule="evenodd" clip-rule="evenodd" d="M4.92188 3.47089V6.23865L5.34015 5.98122C5.57016 5.83972 6.292 5.46697 6.94415 5.15303C7.5963 4.83899 8.46914 4.46432 8.8839 4.32035C9.29856 4.17639 10.1094 3.94893 10.6857 3.81507C11.6108 3.6 11.9134 3.57091 13.2715 3.56607C14.4474 3.56186 14.9807 3.59815 15.5363 3.71997C15.936 3.80769 16.6045 3.9948 17.0219 4.13596C17.4392 4.27702 18.101 4.54772 18.4924 4.73748C18.8838 4.92724 19.5205 5.28838 19.9072 5.5401C20.2939 5.79173 20.8279 6.17757 21.0938 6.39756C21.3596 6.61746 21.7848 6.99697 22.0386 7.24087L22.5 7.68445V7.39898C22.5 7.24192 22.5614 6.96648 22.6365 6.78674C22.7116 6.607 22.8797 6.34764 23.01 6.21044C23.1404 6.07315 23.3646 5.89957 23.5082 5.8246C23.6518 5.74963 24.0275 5.67958 24.3432 5.66895C24.8616 5.65145 24.9868 5.60698 25.6402 5.20743C26.0379 4.96433 26.6973 4.62551 27.1056 4.45456C27.514 4.28361 28.1392 4.06204 28.4952 3.9622C28.8511 3.86235 29.5363 3.7212 30.0179 3.6486C30.4995 3.57609 31.2495 3.51668 31.6846 3.51668C32.1196 3.51668 32.86 3.5746 33.3299 3.64544C33.7997 3.71628 34.5117 3.8577 34.9119 3.95965C35.3122 4.06169 36.0154 4.28493 36.4746 4.45579C36.9338 4.62674 37.775 4.99922 38.344 5.28363C38.913 5.56805 39.5359 5.90019 39.7283 6.02165L40.0781 6.24243V3.47282V0.703125H22.5H4.92188V3.47089ZM24.0443 7.16933C23.9472 7.26653 23.9062 7.4765 23.9062 7.87764C23.9062 8.31015 23.9328 8.43205 24.0161 8.38239C24.0766 8.34636 24.2348 8.23772 24.3677 8.14096C24.5569 8.00323 24.6094 7.89363 24.6094 7.6362C24.6094 7.45453 24.5476 7.2457 24.4713 7.16933C24.3953 7.09339 24.2992 7.03125 24.2578 7.03125C24.2164 7.03125 24.1204 7.09339 24.0443 7.16933ZM10.8681 12.0762C10.6823 12.1453 10.43 12.2941 10.3075 12.4071C10.185 12.5199 10.0305 12.7396 9.96425 12.8951C9.89798 13.0507 9.84375 13.3698 9.84375 13.6042C9.84375 13.8387 9.90343 14.2316 9.97638 14.4773C10.0493 14.723 10.2372 15.1149 10.3939 15.3483C10.5506 15.5816 10.8369 15.8617 11.0303 15.9708C11.37 16.1623 11.4592 16.1691 13.667 16.1701C15.7936 16.1712 15.972 16.1591 16.2386 15.9965C16.3962 15.9005 16.6036 15.693 16.6997 15.5355C16.7957 15.378 16.8744 15.1304 16.8744 14.9854C16.8744 14.8403 16.7971 14.595 16.7027 14.4403C16.6084 14.2856 16.4159 14.0993 16.2751 14.0265C16.1147 13.9436 15.9039 13.9127 15.7112 13.944C15.5418 13.9715 15.1906 13.9486 14.9306 13.893C14.6707 13.8376 14.2932 13.7126 14.0918 13.6154C13.8903 13.5182 13.6552 13.3318 13.5693 13.2013C13.4836 13.0707 13.3913 12.8254 13.3643 12.6562C13.3244 12.4054 13.2507 12.3172 12.9658 12.178C12.7324 12.0641 12.3818 11.9979 11.9111 11.979C11.4506 11.9603 11.0889 11.994 10.8681 12.0762ZM15.6665 13.2442C15.7511 13.2663 15.8895 13.2663 15.9741 13.2442C16.0588 13.2221 15.9895 13.204 15.8203 13.204C15.6511 13.204 15.5819 13.2221 15.6665 13.2442ZM11.4658 13.5751C11.3297 13.7111 11.25 13.8913 11.25 14.0625C11.25 14.2337 11.3297 14.4139 11.4658 14.5499C11.6017 14.6859 11.7819 14.7656 11.9531 14.7656C12.1243 14.7656 12.3045 14.6859 12.4405 14.5499C12.5765 14.4139 12.6562 14.2337 12.6562 14.0625C12.6562 13.8913 12.5765 13.7111 12.4405 13.5751C12.3045 13.4391 12.1243 13.3594 11.9531 13.3594C11.7819 13.3594 11.6017 13.4391 11.4658 13.5751ZM21.3916 39.5058C21.0962 39.5701 20.7007 39.7015 20.5127 39.7979C20.3247 39.8943 20.0864 40.066 19.9833 40.1795C19.8801 40.2929 19.7686 40.4747 19.7357 40.5835L19.6756 40.7812H12.2988H4.92188V41.4844V42.1875H22.5H40.0781V41.4844V40.7812H32.7012H25.3244L25.2643 40.5835C25.2314 40.4747 25.1199 40.2929 25.0167 40.1795C24.9136 40.066 24.6766 39.895 24.4902 39.7993C24.3038 39.7038 23.8885 39.5699 23.5673 39.5018C23.2462 39.4337 22.7461 39.3805 22.4561 39.3835C22.166 39.3865 21.687 39.4415 21.3916 39.5058Z" fill="#DA684E"/>
<path fill-rule="evenodd" clip-rule="evenodd" d="M7.16309 43.0143C7.01807 43.079 6.81302 43.226 6.70755 43.3409C6.60199 43.4558 6.47341 43.6612 6.4219 43.7973C6.37031 43.9333 6.32812 44.1014 6.32812 44.1708C6.32812 44.2799 8.51115 44.2969 22.511 44.2969H38.6938L38.6379 44.0113C38.6071 43.8541 38.5108 43.6292 38.4238 43.5113C38.3368 43.3935 38.1563 43.2155 38.0228 43.1158C37.7801 42.9346 37.78 42.9346 22.6034 42.9157C10.0893 42.9001 7.38053 42.9174 7.16309 43.0143Z" fill="#733125"/>
<path fill-rule="evenodd" clip-rule="evenodd" d="M4.92188 43.2422V44.2969H5.61524H6.30853L6.36574 43.9918C6.39729 43.8241 6.52834 43.5616 6.6571 43.4086C6.78586 43.2555 7.02035 43.0764 7.17812 43.0105C7.41665 42.9108 10.0005 42.8906 22.5 42.8906C34.9995 42.8906 37.5834 42.9108 37.8219 43.0105C37.9796 43.0764 38.2141 43.2555 38.3429 43.4086C38.4717 43.5616 38.6027 43.8241 38.6343 43.9918L38.6915 44.2969H39.3848H40.0781V43.2422V42.1875H22.5H4.92188V43.2422Z" fill="#471E17"/>
<path fill-rule="evenodd" clip-rule="evenodd" d="M12.1003 3.60227C11.7704 3.64401 11.1771 3.74254 10.782 3.82129C10.3868 3.89995 9.6068 4.11862 9.04852 4.30715C8.49032 4.49567 7.67953 4.8127 7.24676 5.01159C6.81407 5.21058 6.11394 5.57137 5.69092 5.81342L4.92188 6.2534V7.25755C4.92188 7.80985 4.9435 8.2617 4.96995 8.2617C4.99632 8.2617 5.33074 8.08126 5.71307 7.86074C6.0953 7.64022 6.83508 7.26924 7.35688 7.03624C7.87869 6.80333 8.75452 6.46803 9.30322 6.29128C9.85184 6.11444 10.7813 5.88751 11.3687 5.78696C12.2542 5.63535 12.6617 5.61241 13.7549 5.65267C14.7437 5.68914 15.296 5.75673 15.964 5.92302C16.4539 6.04492 17.212 6.28768 17.6486 6.46249C18.0853 6.63722 18.7897 6.97929 19.214 7.22257C19.6384 7.46585 20.2724 7.87709 20.623 8.13637C20.9736 8.39564 21.5394 8.87087 21.8802 9.19246L22.5 9.77711V8.76575V7.75431L21.7106 7.0031C21.2764 6.58993 20.5331 5.99351 20.0588 5.6778C19.5846 5.36201 18.8225 4.92739 18.3654 4.71188C17.9082 4.49638 17.2159 4.21776 16.8268 4.09278C16.4378 3.9678 15.8077 3.80582 15.4265 3.73287C15.0452 3.65992 14.2759 3.58363 13.7167 3.56333C13.1577 3.54303 12.4303 3.56052 12.1003 3.60227ZM30.4102 3.61378C30.0476 3.65526 29.4741 3.7515 29.1357 3.8277C28.7974 3.90391 28.2239 4.06782 27.8613 4.19192C27.4988 4.31602 26.8857 4.57592 26.499 4.76936C26.1123 4.96281 25.585 5.25575 25.3274 5.42046L24.8587 5.71981L25.1863 5.94209C25.3664 6.06435 25.5858 6.25059 25.6739 6.35605C25.762 6.46152 25.8353 6.58967 25.8369 6.64091C25.8385 6.69206 25.89 6.80254 25.9513 6.88639C26.0549 7.02807 26.116 7.014 26.8087 6.68934C27.219 6.49712 27.9105 6.23626 28.3452 6.1097C28.78 5.98313 29.5115 5.82256 29.9707 5.75286C30.4299 5.68308 31.2269 5.62577 31.7418 5.62551C32.2743 5.62524 33.1146 5.6996 33.6909 5.79821C34.2482 5.89349 35.1519 6.11594 35.6992 6.2926C36.2465 6.46935 37.0854 6.78707 37.5635 6.99871C38.0416 7.21044 38.778 7.58116 39.1999 7.82268C39.6219 8.06412 39.9921 8.2617 40.0227 8.2617C40.0532 8.2617 40.0781 7.80985 40.0781 7.25755V6.2534L39.3091 5.81342C38.8862 5.57137 38.1859 5.21058 37.7532 5.01159C37.3205 4.8127 36.5097 4.49585 35.9515 4.30759C35.3932 4.11941 34.6383 3.90505 34.2737 3.8314C33.9093 3.75774 33.2567 3.65685 32.8235 3.60727C32.3905 3.55762 31.8186 3.52185 31.5527 3.52773C31.2869 3.53362 30.7727 3.57229 30.4102 3.61378ZM21.6467 38.0579C21.3466 38.0993 20.9116 38.2168 20.6799 38.3192C20.4483 38.4217 20.1532 38.6066 20.0242 38.7301C19.8952 38.8537 19.7659 39.0493 19.7369 39.1649L19.6842 39.375H12.303H4.92188V40.0781V40.7812H12.287H19.6522L19.7596 40.4843C19.82 40.317 20.0101 40.0883 20.1947 39.9606C20.375 39.8358 20.7004 39.6649 20.918 39.5807C21.2229 39.4628 21.5852 39.4274 22.5 39.4261C23.5224 39.4248 23.7541 39.4516 24.1754 39.6197C24.4441 39.7269 24.7908 39.9385 24.9456 40.0899C25.1004 40.2412 25.2506 40.4587 25.2794 40.5732L25.3316 40.7812H32.7048H40.0781V40.0781V39.375H32.7039H25.3297L25.2396 39.1165C25.19 38.9743 24.9811 38.7359 24.7751 38.5869C24.5693 38.4377 24.2006 38.2597 23.9558 38.1912C23.711 38.1227 23.2141 38.0478 22.8516 38.0247C22.489 38.0017 21.9468 38.0166 21.6467 38.0579Z" fill="#A64F3C"/>
<path fill-rule="evenodd" clip-rule="evenodd" d="M30.4321 12.395C29.985 12.4383 29.2929 12.5352 28.894 12.6102C28.4953 12.6854 27.9712 12.8108 27.7295 12.8889C27.4878 12.9672 27.2406 13.0703 27.1802 13.1182C27.1198 13.166 27.0703 13.2746 27.0703 13.3594C27.0703 13.4442 27.1252 13.5592 27.1922 13.6148C27.2858 13.6925 27.4925 13.6643 28.0833 13.4931C28.5063 13.3705 29.3314 13.2068 29.9169 13.1293C30.7042 13.0252 31.3821 13.0006 32.5195 13.035C33.4786 13.064 34.4465 13.1499 35.0908 13.263C35.6591 13.3628 36.5094 13.5427 36.9804 13.6626C37.4515 13.7826 38.1904 14.0008 38.6225 14.1474C39.0545 14.2941 39.4175 14.4141 39.4291 14.4141C39.4408 14.4141 39.5125 14.352 39.5885 14.276C39.6644 14.2 39.7266 14.1039 39.7266 14.0625C39.7266 14.0211 39.666 13.9267 39.5919 13.8526C39.5179 13.7786 39.0137 13.5746 38.4714 13.3992C37.9291 13.224 37.0551 12.9833 36.5292 12.8647C36.0033 12.7459 35.1636 12.5913 34.6633 12.5211C34.1629 12.4509 33.1892 12.376 32.4993 12.3548C31.8095 12.3336 30.8793 12.3517 30.4321 12.395ZM30.4321 14.5044C29.985 14.5477 29.2929 14.6446 28.894 14.7196C28.4953 14.7948 27.9712 14.9202 27.7295 14.9983C27.4878 15.0765 27.2406 15.1796 27.1802 15.2275C27.1198 15.2753 27.0703 15.384 27.0703 15.4688C27.0703 15.5536 27.1252 15.6686 27.1922 15.7242C27.2858 15.8019 27.4925 15.7737 28.0833 15.6025C28.5063 15.4799 29.3314 15.3162 29.9169 15.2387C30.7042 15.1345 31.3821 15.11 32.5195 15.1444C33.4786 15.1734 34.4465 15.2593 35.0908 15.3724C35.6591 15.4722 36.5094 15.652 36.9804 15.772C37.4515 15.892 38.1904 16.1102 38.6225 16.2568C39.0545 16.4035 39.4175 16.5235 39.4291 16.5235C39.4408 16.5235 39.5125 16.4613 39.5885 16.3854C39.6644 16.3094 39.7266 16.2133 39.7266 16.1719C39.7266 16.1305 39.666 16.036 39.5919 15.9619C39.5179 15.8879 39.0137 15.6839 38.4714 15.5086C37.9291 15.3334 37.0551 15.0927 36.5292 14.9741C36.0033 14.8553 35.1636 14.7007 34.6633 14.6305C34.1629 14.5603 33.1892 14.4854 32.4993 14.4642C31.8095 14.443 30.8793 14.461 30.4321 14.5044ZM30.4321 16.6137C29.985 16.6571 29.2929 16.7539 28.894 16.829C28.4953 16.9041 27.9712 17.0296 27.7295 17.1077C27.4878 17.1859 27.2406 17.289 27.1802 17.3369C27.1198 17.3847 27.0703 17.4934 27.0703 17.5782C27.0703 17.663 27.1252 17.7779 27.1922 17.8336C27.2858 17.9113 27.4925 17.8831 28.0833 17.7118C28.5063 17.5892 29.3314 17.4256 29.9169 17.3481C30.7042 17.2439 31.3821 17.2194 32.5195 17.2538C33.4786 17.2828 34.4465 17.3686 35.0908 17.4818C35.6591 17.5816 36.5094 17.7614 36.9804 17.8814C37.4515 18.0014 38.1904 18.2196 38.6225 18.3662C39.0545 18.5129 39.4175 18.6329 39.4291 18.6329C39.4408 18.6329 39.5125 18.5707 39.5885 18.4948C39.6644 18.4188 39.7266 18.3227 39.7266 18.2813C39.7266 18.2399 39.666 18.1454 39.5919 18.0713C39.5179 17.9973 39.0137 17.7933 38.4714 17.618C37.9291 17.4427 37.0551 17.2021 36.5292 17.0834C36.0033 16.9647 35.1636 16.8101 34.6633 16.7399C34.1629 16.6696 33.1892 16.5948 32.4993 16.5736C31.8095 16.5524 30.8793 16.5704 30.4321 16.6137ZM9.86572 35.92C9.95036 35.9421 10.0887 35.9421 10.1733 35.92C10.258 35.8979 10.1887 35.8798 10.0195 35.8798C9.85034 35.8798 9.78108 35.8979 9.86572 35.92ZM9.27246 37.3646C8.8374 37.406 8.01105 37.5195 7.43616 37.6167C6.86127 37.714 5.93183 37.8961 5.37073 38.0214C4.80964 38.1468 3.75732 38.4217 3.03223 38.6323C2.30713 38.8429 1.49634 39.0933 1.23047 39.1887L0.74707 39.3622L9.31641 39.368L17.8857 39.3739L17.6221 39.1939C17.4771 39.0949 17.0091 38.8361 16.5822 38.6187C16.1554 38.4014 15.5423 38.1293 15.2199 38.014C14.8975 37.8987 14.3174 37.7248 13.9307 37.6276C13.5439 37.5303 12.8924 37.4091 12.4828 37.3582C12.0732 37.3073 11.3613 37.271 10.9007 37.2775C10.4403 37.284 9.70752 37.3232 9.27246 37.3646ZM32.4316 37.3543C32.1174 37.3979 31.5044 37.5191 31.0693 37.6236C30.6343 37.7281 29.9907 37.9276 29.6393 38.0668C29.2878 38.2061 28.7341 38.4564 28.4088 38.6231C28.0835 38.7899 27.6592 39.0259 27.4658 39.1479L27.1143 39.3696L35.6836 39.3639L44.2529 39.3583L43.3301 39.0512C42.8225 38.8823 41.9128 38.6082 41.3086 38.4422C40.7043 38.2761 39.6562 38.0252 38.9795 37.8847C38.3027 37.7441 37.2942 37.5651 36.7383 37.487C36.1824 37.4088 35.1145 37.3292 34.3652 37.3101C33.616 37.2908 32.7458 37.3108 32.4316 37.3543Z" fill="#918778"/>
<path fill-rule="evenodd" clip-rule="evenodd" d="M9.97559 35.9119C9.78223 35.9313 9.22852 35.9894 8.74512 36.0411C8.26172 36.0928 7.35205 36.2339 6.72363 36.3547C6.09521 36.4756 5.02734 36.7129 4.35059 36.8821C3.67383 37.0513 2.57634 37.3672 1.91162 37.5841L0.703125 37.9784V38.6663V39.3542L1.77979 39.0082C2.3719 38.8179 3.37061 38.5268 3.99902 38.361C4.62744 38.1953 5.61929 37.9627 6.20315 37.844C6.787 37.7254 7.71196 37.5659 8.25855 37.4896C8.80506 37.4134 9.77098 37.3269 10.4049 37.2974C11.0995 37.2652 11.8894 37.2848 12.3926 37.3467C12.8518 37.4033 13.5439 37.5295 13.9307 37.627C14.3174 37.7246 14.8975 37.8987 15.2199 38.0139C15.5423 38.1292 16.1554 38.4013 16.5822 38.6187C17.0091 38.836 17.4771 39.0949 17.6221 39.1938C17.8455 39.3463 18.0199 39.3733 18.7646 39.3705L19.6436 39.3671L19.2041 38.9688C18.9624 38.7496 18.4123 38.3366 17.9816 38.0508C17.5511 37.7651 16.8391 37.3553 16.3996 37.1402C15.9601 36.9251 15.2446 36.6309 14.8096 36.4864C14.3745 36.3418 13.7021 36.1583 13.3154 36.0786C12.9287 35.9988 12.0981 35.9208 11.4697 35.9052C10.8413 35.8895 10.1689 35.8926 9.97559 35.9119ZM32.4403 35.9576C32.0825 35.9991 31.417 36.1323 30.9614 36.2536C30.5058 36.3748 29.7621 36.629 29.3088 36.8184C28.8555 37.0078 28.1464 37.3619 27.7331 37.6051C27.3197 37.8483 26.6944 38.2635 26.3435 38.5276C25.9925 38.7918 25.6306 39.0905 25.5393 39.1915L25.3731 39.375H26.2238C27.0738 39.375 27.0748 39.3747 27.7625 38.9751C28.1411 38.7552 28.8163 38.4177 29.2631 38.225C29.7098 38.0324 30.4573 37.7788 30.924 37.6615C31.3907 37.5441 32.1482 37.4022 32.6074 37.346C33.1075 37.2848 33.9046 37.2654 34.5951 37.2974C35.229 37.3269 36.1949 37.4134 36.7414 37.4896C37.288 37.5659 38.213 37.7254 38.7969 37.844C39.3807 37.9627 40.3726 38.1953 41.001 38.361C41.6294 38.5268 42.628 38.8179 43.2202 39.0082L44.2969 39.3542V38.6648V37.9756L43.0444 37.5723C42.3556 37.3504 41.2581 37.0358 40.6055 36.8729C39.9529 36.7101 39.0037 36.4969 38.4961 36.3993C37.9885 36.3015 37.2964 36.1792 36.958 36.1274C36.6196 36.0757 35.8879 35.9945 35.332 35.9471C34.7761 35.8997 34.0444 35.8657 33.7061 35.8715C33.3677 35.8774 32.7981 35.9161 32.4403 35.9576Z" fill="#696157"/>
<path fill-rule="evenodd" clip-rule="evenodd" d="M30.4321 12.395C29.985 12.4383 29.2929 12.5352 28.894 12.6102C28.4953 12.6854 27.9712 12.8108 27.7295 12.8889C27.4878 12.9672 27.2406 13.0703 27.1802 13.1182C27.1198 13.166 27.0703 13.2746 27.0703 13.3594C27.0703 13.4442 27.1252 13.5592 27.1922 13.6148C27.2858 13.6925 27.4925 13.6643 28.0833 13.4931C28.5063 13.3705 29.3314 13.2068 29.9169 13.1293C30.7042 13.0252 31.3821 13.0006 32.5195 13.035C33.4786 13.064 34.4465 13.1499 35.0908 13.263C35.6591 13.3628 36.5094 13.5427 36.9804 13.6626C37.4515 13.7826 38.1904 14.0008 38.6225 14.1474C39.0545 14.2941 39.4175 14.4141 39.4291 14.4141C39.4408 14.4141 39.5125 14.352 39.5885 14.276C39.6644 14.2 39.7266 14.1039 39.7266 14.0625C39.7266 14.0211 39.666 13.9267 39.5919 13.8526C39.5179 13.7786 39.0137 13.5746 38.4714 13.3992C37.9291 13.224 37.0551 12.9833 36.5292 12.8647C36.0033 12.7459 35.1636 12.5913 34.6633 12.5211C34.1629 12.4509 33.1892 12.376 32.4993 12.3548C31.8095 12.3336 30.8793 12.3517 30.4321 12.395ZM30.4321 14.5044C29.985 14.5477 29.2929 14.6446 28.894 14.7196C28.4953 14.7948 27.9712 14.9202 27.7295 14.9983C27.4878 15.0765 27.2406 15.1796 27.1802 15.2275C27.1198 15.2753 27.0703 15.384 27.0703 15.4688C27.0703 15.5536 27.1252 15.6686 27.1922 15.7242C27.2858 15.8019 27.4925 15.7737 28.0833 15.6025C28.5063 15.4799 29.3314 15.3162 29.9169 15.2387C30.7042 15.1345 31.3821 15.11 32.5195 15.1444C33.4786 15.1734 34.4465 15.2593 35.0908 15.3724C35.6591 15.4722 36.5094 15.652 36.9804 15.772C37.4515 15.892 38.1904 16.1102 38.6225 16.2568C39.0545 16.4035 39.4175 16.5235 39.4291 16.5235C39.4408 16.5235 39.5125 16.4613 39.5885 16.3854C39.6644 16.3094 39.7266 16.2133 39.7266 16.1719C39.7266 16.1305 39.666 16.036 39.5919 15.9619C39.5179 15.8879 39.0137 15.6839 38.4714 15.5086C37.9291 15.3334 37.0551 15.0927 36.5292 14.9741C36.0033 14.8553 35.1636 14.7007 34.6633 14.6305C34.1629 14.5603 33.1892 14.4854 32.4993 14.4642C31.8095 14.443 30.8793 14.461 30.4321 14.5044ZM30.4321 16.6137C29.985 16.6571 29.2929 16.7539 28.894 16.829C28.4953 16.9041 27.9712 17.0296 27.7295 17.1077C27.4878 17.1859 27.2406 17.289 27.1802 17.3369C27.1198 17.3847 27.0703 17.4934 27.0703 17.5782C27.0703 17.663 27.1252 17.7779 27.1922 17.8336C27.2858 17.9113 27.4925 17.8831 28.0833 17.7118C28.5063 17.5892 29.3314 17.4256 29.9169 17.3481C30.7042 17.2439 31.3821 17.2194 32.5195 17.2538C33.4786 17.2828 34.4465 17.3686 35.0908 17.4818C35.6591 17.5816 36.5094 17.7614 36.9804 17.8814C37.4515 18.0014 38.1904 18.2196 38.6225 18.3662C39.0545 18.5129 39.4175 18.6329 39.4291 18.6329C39.4408 18.6329 39.5125 18.5707 39.5885 18.4948C39.6644 18.4188 39.7266 18.3227 39.7266 18.2813C39.7266 18.2399 39.666 18.1454 39.5919 18.0713C39.5179 17.9973 39.0137 17.7933 38.4714 17.618C37.9291 17.4427 37.0551 17.2021 36.5292 17.0834C36.0033 16.9647 35.1636 16.8101 34.6633 16.7399C34.1629 16.6696 33.1892 16.5948 32.4993 16.5736C31.8095 16.5524 30.8793 16.5704 30.4321 16.6137ZM9.86572 35.92C9.95036 35.9421 10.0887 35.9421 10.1733 35.92C10.258 35.8979 10.1887 35.8798 10.0195 35.8798C9.85034 35.8798 9.78108 35.8979 9.86572 35.92ZM9.27246 37.3646C8.8374 37.406 8.01105 37.5195 7.43616 37.6167C6.86127 37.714 5.93183 37.8961 5.37073 38.0214C4.80964 38.1468 3.75732 38.4217 3.03223 38.6323C2.30713 38.8429 1.49634 39.0933 1.23047 39.1887L0.74707 39.3622L9.31641 39.368L17.8857 39.3739L17.6221 39.1939C17.4771 39.0949 17.0091 38.8361 16.5822 38.6187C16.1554 38.4014 15.5423 38.1293 15.2199 38.014C14.8975 37.8987 14.3174 37.7248 13.9307 37.6276C13.5439 37.5303 12.8924 37.4091 12.4828 37.3582C12.0732 37.3073 11.3613 37.271 10.9007 37.2775C10.4403 37.284 9.70752 37.3232 9.27246 37.3646ZM32.4316 37.3543C32.1174 37.3979 31.5044 37.5191 31.0693 37.6236C30.6343 37.7281 29.9907 37.9276 29.6393 38.0668C29.2878 38.2061 28.7341 38.4564 28.4088 38.6231C28.0835 38.7899 27.6592 39.0259 27.4658 39.1479L27.1143 39.3696L35.6836 39.3639L44.2529 39.3583L43.3301 39.0512C42.8225 38.8823 41.9128 38.6082 41.3086 38.4422C40.7043 38.2761 39.6562 38.0252 38.9795 37.8847C38.3027 37.7441 37.2942 37.5651 36.7383 37.487C36.1824 37.4088 35.1145 37.3292 34.3652 37.3101C33.616 37.2908 32.7458 37.3108 32.4316 37.3543Z" fill="#918778"/>
<path fill-rule="evenodd" clip-rule="evenodd" d="M42.1875 22.5015V34.4561L41.77 34.2464C41.5404 34.1311 40.9768 33.887 40.5176 33.704C40.0583 33.5211 39.2897 33.2583 38.8096 33.1199C38.3294 32.9816 37.5383 32.7912 37.0518 32.6969C36.5651 32.6026 35.7829 32.4846 35.3135 32.4345C34.8441 32.3846 33.974 32.3441 33.3799 32.3445C32.7858 32.3449 31.9438 32.3859 31.5088 32.4356C31.0737 32.4853 30.3481 32.6032 29.8963 32.6974C29.4444 32.7917 28.685 32.989 28.2088 33.136C27.7326 33.2829 26.9553 33.5642 26.4815 33.761C26.0077 33.9578 25.1653 34.3516 24.6094 34.6362C24.0535 34.9209 23.3515 35.3115 23.0493 35.5043L22.5 35.8549V36.9119V37.9688H22.877C23.0844 37.9688 23.4898 38.0294 23.7779 38.1036C24.066 38.1778 24.4755 38.3459 24.6879 38.4771C24.9004 38.6084 25.1402 38.8399 25.221 38.9917L25.3678 39.2675L25.8456 38.8702C26.1083 38.6517 26.6001 38.2868 26.9385 38.0595C27.2768 37.8322 27.8108 37.5034 28.125 37.3289C28.4392 37.1544 29.0918 36.856 29.5752 36.6657C30.0586 36.4754 30.8298 36.2261 31.2891 36.1119C32.0447 35.9238 32.3077 35.9046 34.0576 35.9095C35.6053 35.9138 36.2249 35.953 37.1618 36.1058C37.8056 36.2108 38.8537 36.4134 39.4909 36.556C40.128 36.6986 41.2624 36.9934 42.0117 37.2112C42.761 37.429 43.5471 37.6687 43.7586 37.744C43.9701 37.8192 44.1778 37.8809 44.2201 37.8809C44.2636 37.8809 44.2969 32.2633 44.2969 24.929V11.9773L43.7036 11.5407C43.3774 11.3006 42.9253 10.9788 42.699 10.8255C42.4728 10.6723 42.2651 10.5469 42.2376 10.5469C42.21 10.5469 42.1875 15.9265 42.1875 22.5015ZM0.989907 11.7169L0.705405 11.9092L0.704263 24.895C0.703647 32.0373 0.736519 37.8809 0.777212 37.8809C0.817993 37.8809 1.085 37.7996 1.37047 37.7004C1.65603 37.6011 2.50268 37.3431 3.25195 37.1271C4.00122 36.911 5.28662 36.5977 6.10839 36.431C6.93017 36.2642 8.09578 36.0674 8.69853 35.9936C9.30137 35.9198 10.3777 35.8594 11.0905 35.8594C12.0038 35.8594 12.6412 35.9088 13.2499 36.0268C13.7247 36.1188 14.4282 36.2987 14.813 36.4263C15.1979 36.554 15.9082 36.851 16.3916 37.0863C16.875 37.3216 17.6041 37.7383 18.0119 38.0123C18.4198 38.2863 18.9591 38.6862 19.2104 38.9009L19.6674 39.2913L19.7233 39.0687C19.754 38.9462 19.942 38.728 20.1412 38.5838C20.3403 38.4395 20.7251 38.2546 20.9963 38.1727C21.2674 38.0908 21.5237 37.9948 21.5658 37.9593C21.608 37.9237 21.3114 37.6509 20.9066 37.3529C20.502 37.0549 19.8012 36.5924 19.3495 36.3251C18.8976 36.0578 18.1131 35.6434 17.606 35.4043C17.0989 35.165 16.2106 34.8111 15.6321 34.6177C15.0536 34.4242 14.1573 34.1677 13.6403 34.0475C13.0698 33.9149 12.2855 33.809 11.6455 33.7781C10.8682 33.7406 10.3392 33.7669 9.63395 33.8778C9.10775 33.9606 8.10167 34.1861 7.39828 34.3789C6.69489 34.5718 5.58298 34.9221 4.92732 35.1574C4.27174 35.3927 3.21134 35.8018 2.5708 36.0667L1.40625 36.5483V24.031C1.40625 17.1465 1.37654 11.5161 1.34033 11.5191C1.30412 11.5221 1.14635 11.6111 0.989907 11.7169Z" fill="#DED0B3"/>
<path fill-rule="evenodd" clip-rule="evenodd" d="M22.0166 9.4043C22.2054 9.59766 22.3797 9.75586 22.4038 9.75586C22.428 9.75586 22.2933 9.59766 22.1045 9.4043C21.9157 9.21094 21.7414 9.05273 21.7172 9.05273C21.6931 9.05273 21.8278 9.21094 22.0166 9.4043ZM22.9779 9.33838L22.7197 9.62402L23.0054 9.36589C23.1625 9.22395 23.291 9.09536 23.291 9.08024C23.291 9.06513 23.2786 9.05273 23.2635 9.05273C23.2484 9.05273 23.1198 9.18132 22.9779 9.33838ZM2.0874 10.9999L1.40625 11.4497V23.9991V36.5483L2.5708 36.0667C3.21126 35.8018 4.27175 35.3927 4.92732 35.1574C5.58299 34.9221 6.69489 34.5718 7.39828 34.3789C8.10167 34.1861 9.10775 33.9606 9.63396 33.8778C10.3392 33.7669 10.8682 33.7406 11.6455 33.7781C12.2855 33.809 13.0698 33.9149 13.6403 34.0475C14.1573 34.1677 15.0536 34.4242 15.6321 34.6177C16.2106 34.8111 17.0989 35.165 17.606 35.4043C18.1131 35.6434 18.8976 36.0578 19.3495 36.3251C19.8012 36.5924 20.499 37.0527 20.9 37.348C21.3456 37.6761 21.605 37.9237 21.5674 37.9846C21.5248 38.0535 21.5711 38.0668 21.7172 38.0277C21.8335 37.9966 22.0584 37.9706 22.2171 37.97L22.5055 37.9688L22.4808 36.9003L22.4561 35.8319L21.4573 35.2359C20.9079 34.9081 19.9625 34.4166 19.3564 34.1436C18.7502 33.8705 17.7803 33.4886 17.201 33.2949C16.6216 33.1012 15.7026 32.8484 15.1588 32.7333C14.615 32.6181 13.7009 32.479 13.1275 32.4242C12.5229 32.3663 11.5864 32.3481 10.8984 32.3806C10.2458 32.4114 9.29663 32.4979 8.78906 32.5727C8.28149 32.6476 7.34968 32.8411 6.71827 33.0028C6.08695 33.1646 5.19706 33.4437 4.74073 33.6232C4.28449 33.8026 3.68481 34.0627 3.40831 34.2012C3.13172 34.3397 2.88466 34.4531 2.85926 34.4531C2.83386 34.4531 2.8031 29.0749 2.79088 22.5016L2.76855 10.55L2.0874 10.9999ZM30.6958 13.0684C30.7804 13.0905 30.9189 13.0905 31.0034 13.0684C31.088 13.0463 31.0188 13.0282 30.8496 13.0282C30.6804 13.0282 30.6112 13.0463 30.6958 13.0684ZM30.6958 15.1777C30.7804 15.1999 30.9189 15.1999 31.0034 15.1777C31.088 15.1557 31.0188 15.1376 30.8496 15.1376C30.6804 15.1376 30.6112 15.1557 30.6958 15.1777ZM30.6958 17.2871C30.7804 17.3093 30.9189 17.3093 31.0034 17.2871C31.088 17.2651 31.0188 17.247 30.8496 17.247C30.6804 17.247 30.6112 17.2651 30.6958 17.2871Z" fill="#C1C4AA"/>
<path fill-rule="evenodd" clip-rule="evenodd" d="M12.8111 5.68712C12.9205 5.70813 13.0787 5.70734 13.1627 5.68537C13.2467 5.66339 13.1572 5.64617 12.9639 5.64713C12.7705 5.6481 12.7018 5.66612 12.8111 5.68712ZM26.6309 6.79947L26.0596 7.08617L26.0156 19.1784C25.973 30.9132 25.9668 31.276 25.8043 31.4556C25.6919 31.5797 25.5306 31.6406 25.3142 31.6406C25.0906 31.6406 24.9329 31.5782 24.8005 31.4372L24.6094 31.2338V19.6128C24.6094 8.41525 24.6036 7.99496 24.4499 8.07722C24.3622 8.12416 23.8876 8.54603 23.3953 9.01466L22.5 9.86685V20.7097C22.5 26.7195 22.4663 31.5527 22.4242 31.5527C22.3826 31.5527 22.091 31.4359 21.7761 31.2932C21.4613 31.1504 20.734 30.8714 20.16 30.673C19.5859 30.4747 18.4636 30.1398 17.666 29.9289C16.8684 29.718 15.9192 29.4393 15.5566 29.3095C15.1941 29.1798 14.4822 28.863 13.9746 28.6057C13.1461 28.1855 12.9824 28.134 12.3732 28.1008C11.8369 28.0715 11.5758 28.0053 11.1271 27.7844C10.8149 27.6307 10.3773 27.3201 10.1544 27.0941C9.93165 26.8681 9.62886 26.4383 9.48147 26.139C9.30841 25.7874 9.19583 25.3996 9.16357 25.0435C9.12015 24.5652 9.05204 24.4004 8.64827 23.7971C8.39233 23.4148 8.00649 22.739 7.79072 22.2956C7.57503 21.8521 7.28016 21.1508 7.13549 20.7372C6.99082 20.3235 6.79105 19.6095 6.69156 19.1505C6.59215 18.6914 6.46972 17.8829 6.41954 17.3537C6.36935 16.8245 6.32822 14.4004 6.32822 11.9667L6.32813 7.54179L5.82276 7.83078C5.54476 7.98968 5.13704 8.21424 4.91652 8.32982C4.696 8.4454 4.14229 8.80786 3.68605 9.13534L2.85645 9.73071L2.83421 22.0933L2.81189 34.4559L3.31761 34.2021C3.5957 34.0624 4.25831 33.7864 4.79004 33.5885C5.32178 33.3908 6.09399 33.1326 6.50611 33.0147C6.91823 32.8967 7.74879 32.7146 8.35181 32.6099C9.07489 32.4843 10.0019 32.4031 11.0742 32.3717C12.2987 32.3358 12.9648 32.3591 13.772 32.466C14.3615 32.5441 15.3005 32.7257 15.8586 32.8696C16.4167 33.0135 17.2594 33.2727 17.7311 33.4455C18.2029 33.6183 19.2217 34.0703 19.9951 34.4499C20.7686 34.8295 21.6477 35.3006 21.9488 35.4966L22.4962 35.8531L23.1864 35.425C23.5659 35.1895 24.2736 34.7977 24.7587 34.5543C25.2439 34.3108 26.0238 33.9522 26.4919 33.7574C26.9599 33.5626 27.7326 33.2829 28.2089 33.136C28.685 32.989 29.4444 32.7917 29.8963 32.6974C30.3481 32.6032 31.0737 32.4853 31.5088 32.4356C31.9439 32.3858 32.7858 32.3449 33.3799 32.3444C33.974 32.3441 34.8442 32.3846 35.3135 32.4345C35.7829 32.4845 36.5651 32.6026 37.0518 32.6969C37.5384 32.7912 38.3294 32.9816 38.8096 33.1199C39.2897 33.2582 40.0584 33.5211 40.5176 33.704C40.9768 33.887 41.5404 34.1311 41.77 34.2464L42.1875 34.4561V32.7501C42.1875 31.2079 42.1727 31.0381 42.0337 30.9813C41.9491 30.9468 41.4844 30.7832 41.001 30.618C40.5176 30.4527 39.509 30.1568 38.7598 29.9602C38.0105 29.7638 37.1602 29.5221 36.8701 29.4232C36.5801 29.3243 35.9807 29.0753 35.5381 28.8698C35.0954 28.6644 34.3637 28.2594 33.9121 27.9698C33.1567 27.4856 33.04 27.4389 32.457 27.3884C32.1083 27.3581 31.4862 27.2202 31.0744 27.0818C30.6627 26.9435 30.1036 26.6964 29.8321 26.5328C29.5605 26.3692 29.0885 25.9712 28.7831 25.6484C28.4513 25.2975 28.1169 24.8289 27.952 24.4834C27.8003 24.1656 27.6196 23.6387 27.5506 23.3126C27.4815 22.9865 27.4243 22.512 27.4234 22.2583L27.4219 21.7969L27.7075 21.8007C27.8647 21.8028 28.1583 21.8365 28.3602 21.8756C28.7183 21.945 28.7244 21.9421 28.6095 21.7619C28.5448 21.6603 28.3746 21.241 28.2313 20.8301C28.0881 20.4192 27.8842 19.6875 27.7783 19.2041C27.6724 18.7207 27.5686 18.239 27.5476 18.1335C27.5244 18.0169 27.4321 17.9309 27.3118 17.9138C27.1615 17.8924 27.1078 17.8188 27.0872 17.6059C27.0668 17.3962 27.1054 17.3019 27.241 17.2293C27.3984 17.1451 27.4219 17.0487 27.4219 16.4866C27.4219 15.9147 27.4018 15.8355 27.2461 15.7948C27.1187 15.7615 27.0703 15.6749 27.0703 15.4801C27.0703 15.3012 27.1291 15.1798 27.2461 15.1172C27.3974 15.0362 27.4219 14.9331 27.4219 14.3772C27.4219 13.8053 27.4018 13.7261 27.2461 13.6854C27.1187 13.6521 27.0703 13.5656 27.0703 13.3707C27.0703 13.1918 27.1291 13.0704 27.2461 13.0078C27.417 12.9164 27.4219 12.8238 27.4219 9.70882C27.4219 7.20113 27.398 6.50486 27.312 6.50829C27.2516 6.51075 26.9451 6.64179 26.6309 6.79947ZM10.0415 20.0117C10.1261 20.0339 10.2645 20.0339 10.3491 20.0117C10.4338 19.9897 10.3645 19.9715 10.1953 19.9715C10.0261 19.9715 9.95687 19.9897 10.0415 20.0117Z" fill="#EDD39C"/>
<path fill-rule="evenodd" clip-rule="evenodd" d="M13.9443 23.1881C13.8643 23.2765 13.7988 23.4387 13.7988 23.5484C13.7988 23.6582 13.9332 23.8824 14.0977 24.0469C14.3001 24.2493 14.4787 24.3457 14.6514 24.3457C14.7916 24.3457 14.9537 24.2982 15.0117 24.2402C15.0697 24.1822 15.1172 24.0328 15.1172 23.9083C15.1172 23.7836 15.0555 23.5935 14.98 23.4859C14.9046 23.3781 14.7285 23.2309 14.5889 23.1587C14.4492 23.0864 14.2798 23.0273 14.2124 23.0273C14.1449 23.0273 14.0243 23.0997 13.9443 23.1881Z" fill="#F6FAFD"/>
<path fill-rule="evenodd" clip-rule="evenodd" d="M12.8111 5.68712C12.9205 5.70813 13.0787 5.70734 13.1627 5.68537C13.2467 5.66339 13.1572 5.64617 12.9639 5.64713C12.7705 5.6481 12.7018 5.66612 12.8111 5.68712ZM26.6309 6.79947L26.0596 7.08617L26.0156 19.1784C25.973 30.9132 25.9668 31.276 25.8043 31.4556C25.6919 31.5797 25.5306 31.6406 25.3142 31.6406C25.0906 31.6406 24.9329 31.5782 24.8005 31.4372L24.6094 31.2338V19.6128C24.6094 8.41525 24.6036 7.99496 24.4499 8.07722C24.3622 8.12416 23.8876 8.54603 23.3953 9.01466L22.5 9.86685V20.7097C22.5 26.7195 22.4663 31.5527 22.4242 31.5527C22.3826 31.5527 22.091 31.4359 21.7761 31.2932C21.4613 31.1504 20.734 30.8714 20.16 30.673C19.5859 30.4747 18.4636 30.1398 17.666 29.9289C16.8684 29.718 15.9192 29.4393 15.5566 29.3095C15.1941 29.1798 14.4822 28.863 13.9746 28.6057C13.1461 28.1855 12.9824 28.134 12.3732 28.1008C11.8369 28.0715 11.5758 28.0053 11.1271 27.7844C10.8149 27.6307 10.3773 27.3201 10.1544 27.0941C9.93165 26.8681 9.62886 26.4383 9.48147 26.139C9.30841 25.7874 9.19583 25.3996 9.16357 25.0435C9.12015 24.5652 9.05204 24.4004 8.64827 23.7971C8.39233 23.4148 8.00649 22.739 7.79072 22.2956C7.57503 21.8521 7.28016 21.1508 7.13549 20.7372C6.99082 20.3235 6.79105 19.6095 6.69156 19.1505C6.59215 18.6914 6.46972 17.8829 6.41954 17.3537C6.36935 16.8245 6.32822 14.4004 6.32822 11.9667L6.32813 7.54179L5.82276 7.83078C5.54476 7.98968 5.13704 8.21424 4.91652 8.32982C4.696 8.4454 4.14229 8.80786 3.68605 9.13534L2.85645 9.73071L2.83421 22.0933L2.81189 34.4559L3.31761 34.2021C3.5957 34.0624 4.25831 33.7864 4.79004 33.5885C5.32178 33.3908 6.09399 33.1326 6.50611 33.0147C6.91823 32.8967 7.74879 32.7146 8.35181 32.6099C9.07489 32.4843 10.0019 32.4031 11.0742 32.3717C12.2987 32.3358 12.9648 32.3591 13.772 32.466C14.3615 32.5441 15.3005 32.7257 15.8586 32.8696C16.4167 33.0135 17.2594 33.2727 17.7311 33.4455C18.2029 33.6183 19.2217 34.0703 19.9951 34.4499C20.7686 34.8295 21.6477 35.3006 21.9488 35.4966L22.4962 35.8531L23.1864 35.425C23.5659 35.1895 24.2736 34.7977 24.7587 34.5543C25.2439 34.3108 26.0238 33.9522 26.4919 33.7574C26.9599 33.5626 27.7326 33.2829 28.2089 33.136C28.685 32.989 29.4444 32.7917 29.8963 32.6974C30.3481 32.6032 31.0737 32.4853 31.5088 32.4356C31.9439 32.3858 32.7858 32.3449 33.3799 32.3444C33.974 32.3441 34.8442 32.3846 35.3135 32.4345C35.7829 32.4845 36.5651 32.6026 37.0518 32.6969C37.5384 32.7912 38.3294 32.9816 38.8096 33.1199C39.2897 33.2582 40.0584 33.5211 40.5176 33.704C40.9768 33.887 41.5404 34.1311 41.77 34.2464L42.1875 34.4561V32.7501C42.1875 31.2079 42.1727 31.0381 42.0337 30.9813C41.9491 30.9468 41.4844 30.7832 41.001 30.618C40.5176 30.4527 39.509 30.1568 38.7598 29.9602C38.0105 29.7638 37.1602 29.5221 36.8701 29.4232C36.5801 29.3243 35.9807 29.0753 35.5381 28.8698C35.0954 28.6644 34.3637 28.2594 33.9121 27.9698C33.1567 27.4856 33.04 27.4389 32.457 27.3884C32.1083 27.3581 31.4862 27.2202 31.0744 27.0818C30.6627 26.9435 30.1036 26.6964 29.8321 26.5328C29.5605 26.3692 29.0885 25.9712 28.7831 25.6484C28.4513 25.2975 28.1169 24.8289 27.952 24.4834C27.8003 24.1656 27.6196 23.6387 27.5506 23.3126C27.4815 22.9865 27.4243 22.512 27.4234 22.2583L27.4219 21.7969L27.7075 21.8007C27.8647 21.8028 28.1583 21.8365 28.3602 21.8756C28.7183 21.945 28.7244 21.9421 28.6095 21.7619C28.5448 21.6603 28.3746 21.241 28.2313 20.8301C28.0881 20.4192 27.8842 19.6875 27.7783 19.2041C27.6724 18.7207 27.5686 18.239 27.5476 18.1335C27.5244 18.0169 27.4321 17.9309 27.3118 17.9138C27.1615 17.8924 27.1078 17.8188 27.0872 17.6059C27.0668 17.3962 27.1054 17.3019 27.241 17.2293C27.3984 17.1451 27.4219 17.0487 27.4219 16.4866C27.4219 15.9147 27.4018 15.8355 27.2461 15.7948C27.1187 15.7615 27.0703 15.6749 27.0703 15.4801C27.0703 15.3012 27.1291 15.1798 27.2461 15.1172C27.3974 15.0362 27.4219 14.9331 27.4219 14.3772C27.4219 13.8053 27.4018 13.7261 27.2461 13.6854C27.1187 13.6521 27.0703 13.5656 27.0703 13.3707C27.0703 13.1918 27.1291 13.0704 27.2461 13.0078C27.417 12.9164 27.4219 12.8238 27.4219 9.70882C27.4219 7.20113 27.398 6.50486 27.312 6.50829C27.2516 6.51075 26.9451 6.64179 26.6309 6.79947ZM10.0415 20.0117C10.1261 20.0339 10.2645 20.0339 10.3491 20.0117C10.4338 19.9897 10.3645 19.9715 10.1953 19.9715C10.0261 19.9715 9.95687 19.9897 10.0415 20.0117Z" fill="#EDD39C"/>
<path fill-rule="evenodd" clip-rule="evenodd" d="M11.6976 21.8963C11.4362 21.9397 10.9945 22.0775 10.7159 22.2025C10.4373 22.3275 10.1212 22.5235 10.0136 22.6381C9.83609 22.827 9.82255 22.9075 9.86782 23.5051C9.90526 24.001 9.98788 24.3066 10.2019 24.7413C10.3894 25.1222 10.66 25.4796 10.9969 25.7916C11.3204 26.0911 11.6939 26.3356 12.016 26.4587C12.2956 26.5655 12.8044 26.6725 13.1466 26.6964C13.5828 26.7269 13.9244 26.6952 14.2892 26.5903C14.5754 26.5081 14.9875 26.325 15.2051 26.1836C15.4226 26.0421 15.7079 25.8309 15.8391 25.7142C16.034 25.5409 16.0881 25.4001 16.1349 24.9437C16.1769 24.5339 16.1509 24.2384 16.0372 23.8333C15.9258 23.4364 15.776 23.163 15.5042 22.8606C15.2661 22.5958 14.9373 22.3555 14.6162 22.2116C14.3358 22.0859 13.8494 21.9414 13.5351 21.8906C13.2209 21.8397 12.7859 21.8025 12.5683 21.8077C12.3508 21.8131 11.959 21.8529 11.6976 21.8963ZM13.9992 23.029C13.8919 23.0722 13.7797 23.2049 13.7499 23.3237C13.7185 23.4487 13.755 23.665 13.8365 23.8367C13.914 24 14.0917 24.2012 14.2312 24.2836C14.3709 24.3661 14.5817 24.4336 14.6996 24.4336C14.8176 24.4336 14.9843 24.3561 15.0701 24.2613C15.1864 24.1327 15.2114 24.0114 15.1686 23.7832C15.1339 23.5981 15.0056 23.3885 14.8437 23.2523C14.6967 23.1286 14.5431 23.0273 14.5024 23.0273C14.4617 23.0273 14.3757 23.01 14.3114 22.9889C14.247 22.9677 14.1065 22.9857 13.9992 23.029Z" fill="#E84655"/>
<path fill-rule="evenodd" clip-rule="evenodd" d="M12.3047 19.7314C12.3047 20.1423 12.2837 20.4785 12.2579 20.4785C12.2323 20.4785 11.9836 20.4018 11.7054 20.3081C11.4271 20.2143 10.8944 20.11 10.5216 20.0762L9.84375 20.0148V20.3785V20.7422H10.3668C10.6545 20.7422 11.0975 20.7867 11.3514 20.8412C11.6476 20.9047 11.9012 21.0283 12.0589 21.186C12.1941 21.3212 12.3047 21.514 12.3047 21.6143C12.3047 21.7687 12.3589 21.7969 12.6562 21.7969C12.9003 21.7969 13.0078 21.759 13.0078 21.6729C13.0078 21.6047 13.1283 21.4475 13.2755 21.3236C13.4227 21.1997 13.8026 21.0182 14.1197 20.9203C14.4368 20.8223 14.87 20.7422 15.0825 20.7422H15.4688V20.3843V20.0264L14.9634 20.0859C14.6855 20.1187 14.2009 20.2337 13.8867 20.3415C13.5725 20.4493 13.2463 20.5681 13.1616 20.6053C13.0211 20.6672 13.0078 20.6001 13.0078 19.8287V18.9844H12.6562H12.3047V19.7314Z" fill="#537134"/>
<path fill-rule="evenodd" clip-rule="evenodd" d="M11.6298 13.4638C11.5245 13.5147 11.3911 13.6703 11.3335 13.8094C11.2521 14.0058 11.2524 14.1198 11.3347 14.3186C11.3933 14.4601 11.5555 14.6222 11.697 14.6808C11.897 14.7636 12.0092 14.7636 12.2092 14.6808C12.3507 14.6222 12.5129 14.4601 12.5715 14.3186C12.6537 14.12 12.6541 14.0057 12.5731 13.8102C12.5156 13.6714 12.3705 13.5132 12.2506 13.4586C12.1308 13.404 11.9852 13.362 11.927 13.3653C11.8688 13.3686 11.7352 13.4128 11.6298 13.4638Z" fill="#FFD0C9"/>
<path fill-rule="evenodd" clip-rule="evenodd" d="M21.9727 7.25098C22.2352 7.51685 22.4699 7.73438 22.494 7.73438C22.5182 7.73438 22.3231 7.51685 22.0605 7.25098C21.798 6.98511 21.5633 6.76758 21.5392 6.76758C21.515 6.76758 21.7101 6.98511 21.9727 7.25098ZM10.9615 11.3404C10.7786 11.3865 10.5018 11.4884 10.3463 11.5668C10.1907 11.6453 9.95106 11.8137 9.81369 11.9412C9.6764 12.0686 9.47997 12.3311 9.37731 12.5244C9.22737 12.8066 9.19169 13.0233 9.19599 13.623C9.19969 14.1444 9.25576 14.5206 9.38153 14.8683C9.48058 15.1422 9.68563 15.5465 9.83707 15.7666C9.9885 15.9868 10.2801 16.2823 10.4852 16.4233C10.6901 16.5644 11.0153 16.7235 11.2077 16.7769C11.4179 16.8352 12.3936 16.8742 13.65 16.8745C14.9629 16.8748 15.8953 16.8365 16.1525 16.7717C16.4447 16.6982 16.6805 16.5505 16.9731 16.2579C17.3026 15.9284 17.4055 15.7498 17.4941 15.3538C17.5904 14.9236 17.5853 14.8097 17.4542 14.4664C17.3715 14.2499 17.2233 13.9704 17.125 13.8454C17.0267 13.7204 16.8017 13.545 16.6249 13.4555C16.4114 13.3474 16.0386 13.2791 15.5127 13.2518C15.0776 13.2291 14.61 13.1572 14.4734 13.0921C14.3368 13.0269 14.1688 12.8646 14.0999 12.7314C14.0309 12.5982 13.9746 12.4111 13.9746 12.3158C13.9746 12.2204 13.8727 12.0213 13.7483 11.8734C13.6049 11.703 13.3588 11.556 13.0765 11.4722C12.8316 11.3994 12.3303 11.3212 11.9625 11.2983C11.5948 11.2754 11.1444 11.2944 10.9615 11.3404ZM10.8681 12.0762C10.6823 12.1453 10.43 12.2941 10.3075 12.4071C10.185 12.5199 10.0305 12.7396 9.96425 12.8951C9.89798 13.0507 9.84375 13.3698 9.84375 13.6042C9.84375 13.8387 9.90343 14.2316 9.97638 14.4773C10.0493 14.723 10.2372 15.1149 10.3939 15.3483C10.5506 15.5816 10.8369 15.8617 11.0303 15.9708C11.37 16.1623 11.4592 16.1691 13.667 16.1701C15.7936 16.1712 15.972 16.1591 16.2386 15.9965C16.3962 15.9005 16.6036 15.693 16.6997 15.5355C16.7957 15.378 16.8744 15.1304 16.8744 14.9854C16.8744 14.8403 16.7971 14.595 16.7027 14.4403C16.6084 14.2856 16.4159 14.0993 16.2751 14.0265C16.1147 13.9436 15.9039 13.9127 15.7112 13.944C15.5418 13.9715 15.1906 13.9486 14.9306 13.893C14.6707 13.8376 14.2932 13.7126 14.0918 13.6154C13.8903 13.5182 13.6552 13.3318 13.5693 13.2013C13.4836 13.0707 13.3913 12.8254 13.3643 12.6562C13.3244 12.4054 13.2507 12.3172 12.9658 12.178C12.7324 12.0641 12.3818 11.9979 11.9111 11.979C11.4506 11.9603 11.0889 11.994 10.8681 12.0762ZM9.70057 22.9475C9.64599 23.0156 9.5153 23.2421 9.4101 23.4508C9.30489 23.6596 9.19582 24.0243 9.16778 24.2612C9.13974 24.4983 9.16532 24.9391 9.22473 25.2411C9.28415 25.543 9.42381 25.9693 9.53516 26.1885C9.64643 26.4076 9.8971 26.7678 10.092 26.9888C10.287 27.2099 10.6771 27.5136 10.9591 27.6639C11.2409 27.8141 11.7381 27.9862 12.064 28.0462C12.5326 28.1326 12.7779 28.133 13.2389 28.048C13.5593 27.9889 14.0193 27.8404 14.2611 27.7179C14.5029 27.5954 14.8897 27.3062 15.1207 27.0752C15.3517 26.8443 15.6183 26.5014 15.7132 26.3135C15.808 26.1255 15.916 25.8738 15.9531 25.7541C16.0196 25.5393 16.0166 25.54 15.7179 25.8022C15.5515 25.9483 15.2791 26.1515 15.1124 26.2537C14.9459 26.3559 14.5754 26.5071 14.2892 26.5897C13.9235 26.6953 13.5839 26.727 13.1466 26.6964C12.8044 26.6725 12.2956 26.5656 12.016 26.4587C11.6939 26.3356 11.3204 26.0911 10.9969 25.7916C10.6621 25.4816 10.3894 25.1221 10.2051 24.7477C9.99949 24.3302 9.90721 23.9947 9.86185 23.5001C9.81378 22.9764 9.77739 22.8516 9.70057 22.9475Z" fill="#BD4C3D"/>
<path fill-rule="evenodd" clip-rule="evenodd" d="M23.7318 6.52096C23.5633 6.63531 23.376 6.82664 23.3155 6.946C23.2552 7.06544 23.2051 7.35276 23.2044 7.58452C23.2034 7.91376 23.1559 8.05324 22.9874 8.22173C22.8687 8.34038 22.7105 8.4375 22.6358 8.4375C22.5252 8.4375 22.5 8.5616 22.5 9.10538V9.77326L23.1812 9.13781L23.8623 8.50237L23.9062 7.84187C23.9396 7.34072 23.9873 7.15799 24.104 7.08478C24.2158 7.01455 24.2998 7.01473 24.4116 7.08522C24.5566 7.17662 24.568 7.87623 24.6094 19.1697C24.6335 25.7629 24.6858 31.2228 24.7256 31.3029C24.7653 31.3832 24.9129 31.4964 25.0536 31.5547C25.1942 31.6129 25.3738 31.6359 25.4527 31.6056C25.5751 31.5586 25.5785 31.5296 25.4762 31.4064C25.3768 31.2867 25.349 29.1891 25.3125 19.1044L25.2686 6.9467L24.9967 6.67486C24.8172 6.49538 24.6081 6.38772 24.3815 6.35801C24.1155 6.32312 23.969 6.35994 23.7318 6.52096ZM27.4656 22.4121C27.4979 22.7263 27.5839 23.2207 27.6565 23.5107C27.7291 23.8008 27.9311 24.3103 28.1055 24.6429C28.2799 24.9755 28.6072 25.4372 28.8328 25.6688C29.0584 25.9004 29.4561 26.2254 29.7167 26.3911C29.9772 26.5567 30.4509 26.7957 30.7693 26.9223C31.0877 27.0488 31.6972 27.2131 32.1238 27.2876C32.5505 27.3619 32.9113 27.411 32.9258 27.3965C32.9404 27.382 31.7044 26.126 30.1794 24.6054L27.4067 21.8408L27.4656 22.4121ZM33.7937 22.4121C33.826 22.7263 33.9122 23.2207 33.9851 23.5107C34.0581 23.8008 34.2171 24.2409 34.3384 24.4889C34.4598 24.7369 34.7295 25.1568 34.9378 25.4222C35.1523 25.6954 35.597 26.0923 35.9635 26.3374C36.3315 26.5835 36.9157 26.8711 37.3178 27.004C37.7067 27.1325 38.2942 27.2806 38.6233 27.3333C38.9523 27.3858 39.2348 27.4156 39.2509 27.3995C39.2671 27.3833 38.0326 26.126 36.5076 24.6054L33.7348 21.8408L33.7937 22.4121Z" fill="#658F41"/>
<path fill-rule="evenodd" clip-rule="evenodd" d="M23.5107 5.83282C23.3657 5.90014 23.1404 6.06881 23.01 6.20759C22.8797 6.34645 22.7116 6.60705 22.6365 6.78679C22.5541 6.98401 22.5 7.37592 22.5 7.77555C22.5 8.31406 22.5253 8.43755 22.6358 8.43755C22.7105 8.43755 22.8687 8.34043 22.9874 8.22178C23.1559 8.05329 23.2034 7.91381 23.2044 7.58457C23.2051 7.3528 23.2552 7.06549 23.3155 6.94604C23.376 6.82669 23.5633 6.63535 23.7318 6.521C23.969 6.35999 24.1155 6.32316 24.3815 6.35805C24.6081 6.38776 24.8172 6.49543 24.9967 6.6749L25.2686 6.94675L25.3125 19.1045C25.3469 28.6033 25.3803 31.2909 25.4655 31.3936C25.5255 31.4659 25.5453 31.5562 25.5095 31.5944C25.4737 31.6325 25.5321 31.6102 25.6395 31.5448C25.7469 31.4794 25.8761 31.3258 25.9266 31.2037C25.9893 31.0519 26.011 27.1648 25.9951 18.9405C25.972 7.07911 25.969 6.89498 25.7959 6.60116C25.6992 6.43707 25.4696 6.18122 25.2856 6.03251C24.9984 5.8003 24.8678 5.75838 24.3628 5.73623C23.9933 5.72006 23.6763 5.756 23.5107 5.83282ZM30.191 24.6109C32.0916 26.513 33.0128 27.3782 33.0334 27.2808C33.0502 27.2015 33.0173 26.8181 32.9605 26.4288C32.9035 26.0395 32.7695 25.4802 32.6627 25.1859C32.5558 24.8916 32.3176 24.4234 32.1331 24.1455C31.9487 23.8676 31.5943 23.4678 31.3457 23.2569C31.097 23.046 30.676 22.7543 30.4102 22.6086C30.1443 22.4629 29.6697 22.2615 29.3555 22.1611C29.0413 22.0607 28.5271 21.938 28.2129 21.8884C27.8987 21.8388 27.5825 21.798 27.5103 21.7976C27.438 21.7972 28.6443 23.0632 30.191 24.6109ZM36.5191 24.6109C38.4197 26.513 39.3409 27.3782 39.3615 27.2808C39.3783 27.2015 39.3455 26.8181 39.2886 26.4288C39.2316 26.0395 39.0976 25.4802 38.9908 25.1859C38.884 24.8916 38.6457 24.4234 38.4612 24.1455C38.2768 23.8676 37.9224 23.4686 37.6738 23.2588C37.4251 23.049 37.0405 22.7729 36.8191 22.6452C36.5977 22.5174 36.1825 22.3311 35.8963 22.231C35.6101 22.131 35.0858 21.9924 34.731 21.923C34.3763 21.8537 34.0008 21.7969 33.8966 21.7969C33.7571 21.7969 34.4494 22.5399 36.5191 24.6109Z" fill="#8CAC43"/>
<path fill-rule="evenodd" clip-rule="evenodd" d="M12.4365 5.72376C11.9531 5.75918 11.1657 5.87361 10.6868 5.97811C10.2078 6.08253 9.41678 6.30621 8.92898 6.47522C8.4411 6.64415 7.65642 6.96301 7.18506 7.1838L6.32812 7.58519L6.32821 11.9884C6.32821 14.4102 6.36935 16.8246 6.41953 17.3538C6.46972 17.883 6.59215 18.6915 6.69155 19.1505C6.79105 19.6096 6.991 20.3236 7.13602 20.7372C7.28095 21.1508 7.58804 21.8713 7.81849 22.3381C8.04885 22.8049 8.43029 23.477 8.66602 23.8317L9.09466 24.4765L9.15214 24.0745C9.18378 23.8535 9.29136 23.5125 9.3912 23.3167C9.49104 23.121 9.75647 22.7992 9.98095 22.6016C10.2055 22.4039 10.5993 22.1636 10.8561 22.0675C11.1129 21.9715 11.5241 21.8662 11.7699 21.8336C12.1313 21.7856 12.2168 21.742 12.2168 21.6056C12.2168 21.5129 12.117 21.3445 11.9949 21.2314C11.8729 21.1182 11.5983 20.9817 11.3847 20.928C11.1712 20.8742 10.7865 20.8295 10.5299 20.8288C10.2734 20.828 10.0113 20.7944 9.94755 20.7539C9.87486 20.7079 9.84208 20.5525 9.85966 20.3378L9.8877 19.9952L10.4941 20.0236C10.8276 20.0394 11.3418 20.1278 11.6366 20.2203C11.9316 20.3127 12.2026 20.3889 12.2388 20.3895C12.275 20.3902 12.3047 20.0743 12.3047 19.6876V18.9844H12.6562H13.0078V19.7848C13.0078 20.5143 13.0214 20.5793 13.1616 20.5176C13.2463 20.4804 13.5725 20.3585 13.8867 20.2468C14.2276 20.1256 14.6638 20.0427 14.9684 20.0414L15.4789 20.0391L15.4518 20.4127L15.4248 20.7862L14.8407 20.8439C14.5194 20.8757 14.066 20.9861 13.8331 21.0891C13.6003 21.1921 13.3391 21.3402 13.2528 21.4184C13.1664 21.4965 13.0957 21.6082 13.0957 21.6665C13.0957 21.7274 13.2736 21.7935 13.5142 21.822C13.7442 21.8492 14.1577 21.9557 14.4327 22.0587C14.71 22.1624 15.1254 22.4188 15.3647 22.634C15.6328 22.8752 15.8712 23.196 15.9937 23.4808C16.1644 23.8776 16.186 24.0526 16.1542 24.7798C16.1244 25.4603 16.073 25.7121 15.8839 26.1036C15.7555 26.3694 15.5275 26.7355 15.3771 26.917C15.2267 27.0985 14.9226 27.3716 14.7013 27.5239C14.48 27.6761 14.0425 27.887 13.7293 27.9926L13.1598 28.1844L14.0286 28.6292C14.5064 28.8739 15.2496 29.1977 15.6798 29.3488C16.1101 29.5 17 29.7592 17.6573 29.9249C18.3147 30.0906 19.3784 30.4064 20.021 30.6268C20.6638 30.847 21.4503 31.1455 21.7691 31.2901C22.0878 31.4346 22.3826 31.5528 22.4242 31.5528C22.4662 31.5528 22.5 26.7192 22.5 20.7089V9.86507L21.8732 9.27375C21.5285 8.94855 20.9058 8.4307 20.4896 8.12291C20.0733 7.81511 19.3172 7.3478 18.8093 7.0843C18.3014 6.82089 17.6278 6.50862 17.3125 6.39041C16.9973 6.27211 16.3955 6.0907 15.975 5.98725C15.5546 5.88372 14.9029 5.77807 14.5267 5.7525C14.1506 5.72683 13.7241 5.69546 13.5791 5.68262C13.4341 5.66988 12.9199 5.68834 12.4365 5.72376ZM30.7617 5.72727C30.3025 5.75953 29.6427 5.84751 29.2954 5.92274C28.9483 5.99806 28.3946 6.14967 28.065 6.2598L27.4658 6.46002L27.4428 9.69984C27.4221 12.5912 27.4343 12.934 27.5555 12.8875C27.6301 12.8589 27.9341 12.7725 28.231 12.6956C28.5278 12.6186 29.1891 12.5 29.7004 12.4319C30.2116 12.3639 31.2507 12.3074 32.0097 12.3065C32.7685 12.3055 33.8562 12.3656 34.4267 12.4398C34.9971 12.5142 35.9187 12.6754 36.4746 12.7982C37.0305 12.9209 37.9797 13.1865 38.584 13.3882L39.6826 13.7549V14.0626C39.6826 14.3158 39.6472 14.3752 39.4824 14.3986C39.3723 14.4142 38.9174 14.3066 38.4717 14.1594C38.0259 14.0123 37.2656 13.7919 36.7822 13.6698C36.2988 13.5476 35.3496 13.364 34.6729 13.2617C33.7878 13.1279 33.0353 13.0765 31.9922 13.0786C31.1317 13.0804 30.1667 13.1381 29.6191 13.2207C29.1116 13.2972 28.4096 13.4446 28.0591 13.5482L27.4219 13.7366V14.3924C27.4219 14.9453 27.443 15.0401 27.5565 14.9965C27.6306 14.9681 27.9341 14.8819 28.231 14.805C28.5278 14.728 29.1891 14.6094 29.7004 14.5413C30.2116 14.4733 31.2507 14.4168 32.0097 14.4159C32.7685 14.4149 33.8562 14.4749 34.4267 14.5492C34.9971 14.6236 35.9187 14.7848 36.4746 14.9075C37.0305 15.0303 37.9797 15.2958 38.584 15.4975L39.6826 15.8643V16.1719C39.6826 16.4251 39.6472 16.4846 39.4824 16.5079C39.3723 16.5236 38.9174 16.416 38.4717 16.2688C38.0259 16.1217 37.2656 15.9013 36.7822 15.7791C36.2988 15.657 35.3496 15.4734 34.6729 15.3711C33.7878 15.2373 33.0353 15.1859 31.9922 15.188C31.1317 15.1898 30.1667 15.2475 29.6191 15.3301C29.1116 15.4066 28.4096 15.554 28.0591 15.6576L27.4219 15.8459V16.5018C27.4219 17.0547 27.443 17.1494 27.5565 17.1059C27.6306 17.0775 27.9341 16.9912 28.231 16.9143C28.5278 16.8374 29.1891 16.7188 29.7004 16.6507C30.2116 16.5826 31.2507 16.5261 32.0097 16.5253C32.7685 16.5243 33.8562 16.5843 34.4267 16.6586C34.9971 16.7329 35.9187 16.8941 36.4746 17.0169C37.0305 17.1397 37.9797 17.4052 38.584 17.6069L39.6826 17.9737V18.2813C39.6826 18.5345 39.6472 18.5939 39.4824 18.6173C39.3723 18.633 38.9174 18.5254 38.4717 18.3782C38.0259 18.231 37.2656 18.0107 36.7822 17.8885C36.2988 17.7664 35.3496 17.5828 34.6729 17.4804C33.7872 17.3466 33.036 17.2953 31.9922 17.2975C31.1159 17.2994 30.1663 17.3572 29.5925 17.4437C29.0703 17.5224 28.3937 17.6638 28.0891 17.7579L27.535 17.929L27.6534 18.6105C27.7184 18.9854 27.8944 19.7073 28.0443 20.2149C28.1943 20.7225 28.4023 21.3083 28.5066 21.5166C28.6843 21.8717 28.7422 21.9113 29.4238 22.1446C29.8239 22.2816 30.3716 22.5263 30.6409 22.6886C30.9102 22.8507 31.3803 23.2476 31.6856 23.5704C32.0175 23.9212 32.3518 24.3899 32.5167 24.7354C32.6684 25.0532 32.8491 25.5801 32.9182 25.9062C32.9873 26.2322 33.0445 26.7026 33.0454 26.9515L33.0469 27.4039L33.8159 27.9043C34.2389 28.1795 34.9805 28.5941 35.4639 28.8257C35.9473 29.0574 36.6592 29.3481 37.0459 29.4716C37.4326 29.5952 38.283 29.8355 38.9355 30.0056C39.5881 30.1756 40.5176 30.4506 41.001 30.6167C41.4844 30.7827 41.9491 30.9469 42.0337 30.9814C42.1797 31.0411 42.1875 30.5035 42.1875 20.4173V9.79037L41.5942 9.34643C41.268 9.10227 40.8159 8.77813 40.5896 8.62608C40.3634 8.47403 40.1352 8.34966 40.0825 8.34966C40.0299 8.34966 39.8357 8.2543 39.6511 8.13776C39.4665 8.02122 38.8839 7.70982 38.3564 7.4458C37.829 7.18169 37.0092 6.82063 36.5346 6.64327C36.0599 6.4659 35.3085 6.2257 34.8646 6.10951C34.4208 5.99323 33.7412 5.8577 33.3545 5.80822C32.9678 5.75882 32.4141 5.70715 32.124 5.69352C31.834 5.67981 31.2209 5.69502 30.7617 5.72727ZM10.5807 11.3868C10.3818 11.4603 10.059 11.6574 9.86335 11.8249C9.66771 11.9924 9.42056 12.3093 9.31412 12.5292C9.14546 12.8775 9.12507 13.0389 9.1553 13.7815C9.18483 14.5061 9.23054 14.7201 9.46002 15.2093C9.60847 15.5258 9.85623 15.9286 10.0105 16.1043C10.1648 16.28 10.4948 16.5253 10.7438 16.6494L11.1967 16.8751H13.6886C15.8073 16.8751 16.2228 16.8538 16.4619 16.7332C16.6166 16.6552 16.8556 16.4871 16.9929 16.3597C17.1302 16.2322 17.3181 15.9812 17.4104 15.8019C17.5194 15.59 17.5776 15.2976 17.5767 14.9669C17.5757 14.6038 17.5188 14.3584 17.3782 14.1102C17.2698 13.9188 17.0128 13.6439 16.8071 13.4994C16.474 13.2652 16.3397 13.2307 15.5774 13.1826C15.0463 13.1492 14.6174 13.0737 14.4467 12.9837C14.2954 12.9039 14.1471 12.7746 14.1171 12.6963C14.0871 12.6181 14.0625 12.4615 14.0625 12.3482C14.0625 12.235 13.9638 12.0251 13.8431 11.8817C13.7225 11.7383 13.4554 11.5514 13.2499 11.4665C12.9928 11.3603 12.5739 11.3029 11.9092 11.2826C11.2005 11.261 10.8458 11.2889 10.5807 11.3868ZM33.7698 22.5081C33.7988 22.9714 33.9014 23.4923 34.0449 23.9043C34.1706 24.2658 34.4564 24.829 34.6798 25.1559C34.9221 25.5107 35.3038 25.9152 35.6265 26.1594C35.9237 26.3844 36.4043 26.6805 36.6943 26.8174C36.9844 26.9544 37.5345 27.1464 37.9169 27.2441C38.2992 27.3419 38.7838 27.4219 38.9936 27.4219H39.375L39.3735 26.9605C39.3726 26.7068 39.3154 26.2322 39.2463 25.9062C39.1772 25.5801 38.9965 25.0532 38.8448 24.7354C38.68 24.3899 38.3456 23.9212 38.0138 23.5704C37.7084 23.2476 37.2376 22.8504 36.9676 22.6877C36.6975 22.525 36.1487 22.2789 35.748 22.1408C35.3473 22.0027 34.728 21.8626 34.3715 21.8294L33.7235 21.7692L33.7698 22.5081Z" fill="#FFF3DB"/>
<path fill-rule="evenodd" clip-rule="evenodd" d="M12.4365 5.72376C11.9531 5.75918 11.1657 5.87361 10.6868 5.97811C10.2078 6.08253 9.41678 6.30621 8.92898 6.47522C8.4411 6.64415 7.65642 6.96301 7.18506 7.1838L6.32812 7.58519L6.32821 11.9884C6.32821 14.4102 6.36935 16.8246 6.41953 17.3538C6.46972 17.883 6.59215 18.6915 6.69155 19.1505C6.79105 19.6096 6.991 20.3236 7.13602 20.7372C7.28095 21.1508 7.58804 21.8713 7.81849 22.3381C8.04885 22.8049 8.43029 23.477 8.66602 23.8317L9.09466 24.4765L9.15214 24.0745C9.18378 23.8535 9.29136 23.5125 9.3912 23.3167C9.49104 23.121 9.75647 22.7992 9.98095 22.6016C10.2055 22.4039 10.5993 22.1636 10.8561 22.0675C11.1129 21.9715 11.5241 21.8662 11.7699 21.8336C12.1313 21.7856 12.2168 21.742 12.2168 21.6056C12.2168 21.5129 12.117 21.3445 11.9949 21.2314C11.8729 21.1182 11.5983 20.9817 11.3847 20.928C11.1712 20.8742 10.7865 20.8295 10.5299 20.8288C10.2734 20.828 10.0113 20.7944 9.94755 20.7539C9.87486 20.7079 9.84208 20.5525 9.85966 20.3378L9.8877 19.9952L10.4941 20.0236C10.8276 20.0394 11.3418 20.1278 11.6366 20.2203C11.9316 20.3127 12.2026 20.3889 12.2388 20.3895C12.275 20.3902 12.3047 20.0743 12.3047 19.6876V18.9844H12.6562H13.0078V19.7848C13.0078 20.5143 13.0214 20.5793 13.1616 20.5176C13.2463 20.4804 13.5725 20.3585 13.8867 20.2468C14.2276 20.1256 14.6638 20.0427 14.9684 20.0414L15.4789 20.0391L15.4518 20.4127L15.4248 20.7862L14.8407 20.8439C14.5194 20.8757 14.066 20.9861 13.8331 21.0891C13.6003 21.1921 13.3391 21.3402 13.2528 21.4184C13.1664 21.4965 13.0957 21.6082 13.0957 21.6665C13.0957 21.7274 13.2736 21.7935 13.5142 21.822C13.7442 21.8492 14.1577 21.9557 14.4327 22.0587C14.71 22.1624 15.1254 22.4188 15.3647 22.634C15.6328 22.8752 15.8712 23.196 15.9937 23.4808C16.1644 23.8776 16.186 24.0526 16.1542 24.7798C16.1244 25.4603 16.073 25.7121 15.8839 26.1036C15.7555 26.3694 15.5275 26.7355 15.3771 26.917C15.2267 27.0985 14.9226 27.3716 14.7013 27.5239C14.48 27.6761 14.0425 27.887 13.7293 27.9926L13.1598 28.1844L14.0286 28.6292C14.5064 28.8739 15.2496 29.1977 15.6798 29.3488C16.1101 29.5 17 29.7592 17.6573 29.9249C18.3147 30.0906 19.3784 30.4064 20.021 30.6268C20.6638 30.847 21.4503 31.1455 21.7691 31.2901C22.0878 31.4346 22.3826 31.5528 22.4242 31.5528C22.4662 31.5528 22.5 26.7192 22.5 20.7089V9.86507L21.8732 9.27375C21.5285 8.94855 20.9058 8.4307 20.4896 8.12291C20.0733 7.81511 19.3172 7.3478 18.8093 7.0843C18.3014 6.82089 17.6278 6.50862 17.3125 6.39041C16.9973 6.27211 16.3955 6.0907 15.975 5.98725C15.5546 5.88372 14.9029 5.77807 14.5267 5.7525C14.1506 5.72683 13.7241 5.69546 13.5791 5.68262C13.4341 5.66988 12.9199 5.68834 12.4365 5.72376ZM30.7617 5.72727C30.3025 5.75953 29.6427 5.84751 29.2954 5.92274C28.9483 5.99806 28.3946 6.14967 28.065 6.2598L27.4658 6.46002L27.4428 9.69984C27.4221 12.5912 27.4343 12.934 27.5555 12.8875C27.6301 12.8589 27.9341 12.7725 28.231 12.6956C28.5278 12.6186 29.1891 12.5 29.7004 12.4319C30.2116 12.3639 31.2507 12.3074 32.0097 12.3065C32.7685 12.3055 33.8562 12.3656 34.4267 12.4398C34.9971 12.5142 35.9187 12.6754 36.4746 12.7982C37.0305 12.9209 37.9797 13.1865 38.584 13.3882L39.6826 13.7549V14.0626C39.6826 14.3158 39.6472 14.3752 39.4824 14.3986C39.3723 14.4142 38.9174 14.3066 38.4717 14.1594C38.0259 14.0123 37.2656 13.7919 36.7822 13.6698C36.2988 13.5476 35.3496 13.364 34.6729 13.2617C33.7878 13.1279 33.0353 13.0765 31.9922 13.0786C31.1317 13.0804 30.1667 13.1381 29.6191 13.2207C29.1116 13.2972 28.4096 13.4446 28.0591 13.5482L27.4219 13.7366V14.3924C27.4219 14.9453 27.443 15.0401 27.5565 14.9965C27.6306 14.9681 27.9341 14.8819 28.231 14.805C28.5278 14.728 29.1891 14.6094 29.7004 14.5413C30.2116 14.4733 31.2507 14.4168 32.0097 14.4159C32.7685 14.4149 33.8562 14.4749 34.4267 14.5492C34.9971 14.6236 35.9187 14.7848 36.4746 14.9075C37.0305 15.0303 37.9797 15.2958 38.584 15.4975L39.6826 15.8643V16.1719C39.6826 16.4251 39.6472 16.4846 39.4824 16.5079C39.3723 16.5236 38.9174 16.416 38.4717 16.2688C38.0259 16.1217 37.2656 15.9013 36.7822 15.7791C36.2988 15.657 35.3496 15.4734 34.6729 15.3711C33.7878 15.2373 33.0353 15.1859 31.9922 15.188C31.1317 15.1898 30.1667 15.2475 29.6191 15.3301C29.1116 15.4066 28.4096 15.554 28.0591 15.6576L27.4219 15.8459V16.5018C27.4219 17.0547 27.443 17.1494 27.5565 17.1059C27.6306 17.0775 27.9341 16.9912 28.231 16.9143C28.5278 16.8374 29.1891 16.7188 29.7004 16.6507C30.2116 16.5826 31.2507 16.5261 32.0097 16.5253C32.7685 16.5243 33.8562 16.5843 34.4267 16.6586C34.9971 16.7329 35.9187 16.8941 36.4746 17.0169C37.0305 17.1397 37.9797 17.4052 38.584 17.6069L39.6826 17.9737V18.2813C39.6826 18.5345 39.6472 18.5939 39.4824 18.6173C39.3723 18.633 38.9174 18.5254 38.4717 18.3782C38.0259 18.231 37.2656 18.0107 36.7822 17.8885C36.2988 17.7664 35.3496 17.5828 34.6729 17.4804C33.7872 17.3466 33.036 17.2953 31.9922 17.2975C31.1159 17.2994 30.1663 17.3572 29.5925 17.4437C29.0703 17.5224 28.3937 17.6638 28.0891 17.7579L27.535 17.929L27.6534 18.6105C27.7184 18.9854 27.8944 19.7073 28.0443 20.2149C28.1943 20.7225 28.4023 21.3083 28.5066 21.5166C28.6843 21.8717 28.7422 21.9113 29.4238 22.1446C29.8239 22.2816 30.3716 22.5263 30.6409 22.6886C30.9102 22.8507 31.3803 23.2476 31.6856 23.5704C32.0175 23.9212 32.3518 24.3899 32.5167 24.7354C32.6684 25.0532 32.8491 25.5801 32.9182 25.9062C32.9873 26.2322 33.0445 26.7026 33.0454 26.9515L33.0469 27.4039L33.8159 27.9043C34.2389 28.1795 34.9805 28.5941 35.4639 28.8257C35.9473 29.0574 36.6592 29.3481 37.0459 29.4716C37.4326 29.5952 38.283 29.8355 38.9355 30.0056C39.5881 30.1756 40.5176 30.4506 41.001 30.6167C41.4844 30.7827 41.9491 30.9469 42.0337 30.9814C42.1797 31.0411 42.1875 30.5035 42.1875 20.4173V9.79037L41.5942 9.34643C41.268 9.10227 40.8159 8.77813 40.5896 8.62608C40.3634 8.47403 40.1352 8.34966 40.0825 8.34966C40.0299 8.34966 39.8357 8.2543 39.6511 8.13776C39.4665 8.02122 38.8839 7.70982 38.3564 7.4458C37.829 7.18169 37.0092 6.82063 36.5346 6.64327C36.0599 6.4659 35.3085 6.2257 34.8646 6.10951C34.4208 5.99323 33.7412 5.8577 33.3545 5.80822C32.9678 5.75882 32.4141 5.70715 32.124 5.69352C31.834 5.67981 31.2209 5.69502 30.7617 5.72727ZM10.5807 11.3868C10.3818 11.4603 10.059 11.6574 9.86335 11.8249C9.66771 11.9924 9.42056 12.3093 9.31412 12.5292C9.14546 12.8775 9.12507 13.0389 9.1553 13.7815C9.18483 14.5061 9.23054 14.7201 9.46002 15.2093C9.60847 15.5258 9.85623 15.9286 10.0105 16.1043C10.1648 16.28 10.4948 16.5253 10.7438 16.6494L11.1967 16.8751H13.6886C15.8073 16.8751 16.2228 16.8538 16.4619 16.7332C16.6166 16.6552 16.8556 16.4871 16.9929 16.3597C17.1302 16.2322 17.3181 15.9812 17.4104 15.8019C17.5194 15.59 17.5776 15.2976 17.5767 14.9669C17.5757 14.6038 17.5188 14.3584 17.3782 14.1102C17.2698 13.9188 17.0128 13.6439 16.8071 13.4994C16.474 13.2652 16.3397 13.2307 15.5774 13.1826C15.0463 13.1492 14.6174 13.0737 14.4467 12.9837C14.2954 12.9039 14.1471 12.7746 14.1171 12.6963C14.0871 12.6181 14.0625 12.4615 14.0625 12.3482C14.0625 12.235 13.9638 12.0251 13.8431 11.8817C13.7225 11.7383 13.4554 11.5514 13.2499 11.4665C12.9928 11.3603 12.5739 11.3029 11.9092 11.2826C11.2005 11.261 10.8458 11.2889 10.5807 11.3868ZM33.7698 22.5081C33.7988 22.9714 33.9014 23.4923 34.0449 23.9043C34.1706 24.2658 34.4564 24.829 34.6798 25.1559C34.9221 25.5107 35.3038 25.9152 35.6265 26.1594C35.9237 26.3844 36.4043 26.6805 36.6943 26.8174C36.9844 26.9544 37.5345 27.1464 37.9169 27.2441C38.2992 27.3419 38.7838 27.4219 38.9936 27.4219H39.375L39.3735 26.9605C39.3726 26.7068 39.3154 26.2322 39.2463 25.9062C39.1772 25.5801 38.9965 25.0532 38.8448 24.7354C38.68 24.3899 38.3456 23.9212 38.0138 23.5704C37.7084 23.2476 37.2376 22.8504 36.9676 22.6877C36.6975 22.525 36.1487 22.2789 35.748 22.1408C35.3473 22.0027 34.728 21.8626 34.3715 21.8294L33.7235 21.7692L33.7698 22.5081Z" fill="#FFF3DB"/>
<path fill-rule="evenodd" clip-rule="evenodd" d="M12.1003 3.60227C11.7704 3.64401 11.1771 3.74254 10.782 3.82129C10.3868 3.89995 9.6068 4.11862 9.04852 4.30715C8.49032 4.49567 7.67953 4.8127 7.24676 5.01159C6.81407 5.21058 6.11394 5.57137 5.69092 5.81342L4.92188 6.2534V7.25755C4.92188 7.80985 4.9435 8.2617 4.96995 8.2617C4.99632 8.2617 5.33074 8.08126 5.71307 7.86074C6.0953 7.64022 6.83508 7.26924 7.35688 7.03624C7.87869 6.80333 8.75452 6.46803 9.30322 6.29128C9.85184 6.11444 10.7813 5.88751 11.3687 5.78696C12.2542 5.63535 12.6617 5.61241 13.7549 5.65267C14.7437 5.68914 15.296 5.75673 15.964 5.92302C16.4539 6.04492 17.212 6.28768 17.6486 6.46249C18.0853 6.63722 18.7897 6.97929 19.214 7.22257C19.6384 7.46585 20.2724 7.87709 20.623 8.13637C20.9736 8.39564 21.5394 8.87087 21.8802 9.19246L22.5 9.77711V8.76575V7.75431L21.7106 7.0031C21.2764 6.58993 20.5331 5.99351 20.0588 5.6778C19.5846 5.36201 18.8225 4.92739 18.3654 4.71188C17.9082 4.49638 17.2159 4.21776 16.8268 4.09278C16.4378 3.9678 15.8077 3.80582 15.4265 3.73287C15.0452 3.65992 14.2759 3.58363 13.7167 3.56333C13.1577 3.54303 12.4303 3.56052 12.1003 3.60227ZM30.4102 3.61378C30.0476 3.65526 29.4741 3.7515 29.1357 3.8277C28.7974 3.90391 28.2239 4.06782 27.8613 4.19192C27.4988 4.31602 26.8857 4.57592 26.499 4.76936C26.1123 4.96281 25.585 5.25575 25.3274 5.42046L24.8587 5.71981L25.1863 5.94209C25.3664 6.06435 25.5858 6.25059 25.6739 6.35605C25.762 6.46152 25.8353 6.58967 25.8369 6.64091C25.8385 6.69206 25.89 6.80254 25.9513 6.88639C26.0549 7.02807 26.116 7.014 26.8087 6.68934C27.219 6.49712 27.9105 6.23626 28.3452 6.1097C28.78 5.98313 29.5115 5.82256 29.9707 5.75286C30.4299 5.68308 31.2269 5.62577 31.7418 5.62551C32.2743 5.62524 33.1146 5.6996 33.6909 5.79821C34.2482 5.89349 35.1519 6.11594 35.6992 6.2926C36.2465 6.46935 37.0854 6.78707 37.5635 6.99871C38.0416 7.21044 38.778 7.58116 39.1999 7.82268C39.6219 8.06412 39.9921 8.2617 40.0227 8.2617C40.0532 8.2617 40.0781 7.80985 40.0781 7.25755V6.2534L39.3091 5.81342C38.8862 5.57137 38.1859 5.21058 37.7532 5.01159C37.3205 4.8127 36.5097 4.49585 35.9515 4.30759C35.3932 4.11941 34.6383 3.90505 34.2737 3.8314C33.9093 3.75774 33.2567 3.65685 32.8235 3.60727C32.3905 3.55762 31.8186 3.52185 31.5527 3.52773C31.2869 3.53362 30.7727 3.57229 30.4102 3.61378ZM21.6467 38.0579C21.3466 38.0993 20.9116 38.2168 20.6799 38.3192C20.4483 38.4217 20.1532 38.6066 20.0242 38.7301C19.8952 38.8537 19.7659 39.0493 19.7369 39.1649L19.6842 39.375H12.303H4.92188V40.0781V40.7812H12.287H19.6522L19.7596 40.4843C19.82 40.317 20.0101 40.0883 20.1947 39.9606C20.375 39.8358 20.7004 39.6649 20.918 39.5807C21.2229 39.4628 21.5852 39.4274 22.5 39.4261C23.5224 39.4248 23.7541 39.4516 24.1754 39.6197C24.4441 39.7269 24.7908 39.9385 24.9456 40.0899C25.1004 40.2412 25.2506 40.4587 25.2794 40.5732L25.3316 40.7812H32.7048H40.0781V40.0781V39.375H32.7039H25.3297L25.2396 39.1165C25.19 38.9743 24.9811 38.7359 24.7751 38.5869C24.5693 38.4377 24.2006 38.2597 23.9558 38.1912C23.711 38.1227 23.2141 38.0478 22.8516 38.0247C22.489 38.0017 21.9468 38.0166 21.6467 38.0579Z" fill="#A64F3C"/>
<path fill-rule="evenodd" clip-rule="evenodd" d="M4.92188 3.47089V6.23865L5.34015 5.98122C5.57016 5.83972 6.292 5.46697 6.94415 5.15303C7.5963 4.83899 8.46914 4.46432 8.8839 4.32035C9.29856 4.17639 10.1094 3.94893 10.6857 3.81507C11.6108 3.6 11.9134 3.57091 13.2715 3.56607C14.4474 3.56186 14.9807 3.59815 15.5363 3.71997C15.936 3.80769 16.6045 3.9948 17.0219 4.13596C17.4392 4.27702 18.101 4.54772 18.4924 4.73748C18.8838 4.92724 19.5205 5.28838 19.9072 5.5401C20.2939 5.79173 20.8279 6.17757 21.0938 6.39756C21.3596 6.61746 21.7848 6.99697 22.0386 7.24087L22.5 7.68445V7.39898C22.5 7.24192 22.5614 6.96648 22.6365 6.78674C22.7116 6.607 22.8797 6.34764 23.01 6.21044C23.1404 6.07315 23.3646 5.89957 23.5082 5.8246C23.6518 5.74963 24.0275 5.67958 24.3432 5.66895C24.8616 5.65145 24.9868 5.60698 25.6402 5.20743C26.0379 4.96433 26.6973 4.62551 27.1056 4.45456C27.514 4.28361 28.1392 4.06204 28.4952 3.9622C28.8511 3.86235 29.5363 3.7212 30.0179 3.6486C30.4995 3.57609 31.2495 3.51668 31.6846 3.51668C32.1196 3.51668 32.86 3.5746 33.3299 3.64544C33.7997 3.71628 34.5117 3.8577 34.9119 3.95965C35.3122 4.06169 36.0154 4.28493 36.4746 4.45579C36.9338 4.62674 37.775 4.99922 38.344 5.28363C38.913 5.56805 39.5359 5.90019 39.7283 6.02165L40.0781 6.24243V3.47282V0.703125H22.5H4.92188V3.47089ZM24.0443 7.16933C23.9472 7.26653 23.9062 7.4765 23.9062 7.87764C23.9062 8.31015 23.9328 8.43205 24.0161 8.38239C24.0766 8.34636 24.2348 8.23772 24.3677 8.14096C24.5569 8.00323 24.6094 7.89363 24.6094 7.6362C24.6094 7.45453 24.5476 7.2457 24.4713 7.16933C24.3953 7.09339 24.2992 7.03125 24.2578 7.03125C24.2164 7.03125 24.1204 7.09339 24.0443 7.16933ZM10.8681 12.0762C10.6823 12.1453 10.43 12.2941 10.3075 12.4071C10.185 12.5199 10.0305 12.7396 9.96425 12.8951C9.89798 13.0507 9.84375 13.3698 9.84375 13.6042C9.84375 13.8387 9.90343 14.2316 9.97638 14.4773C10.0493 14.723 10.2372 15.1149 10.3939 15.3483C10.5506 15.5816 10.8369 15.8617 11.0303 15.9708C11.37 16.1623 11.4592 16.1691 13.667 16.1701C15.7936 16.1712 15.972 16.1591 16.2386 15.9965C16.3962 15.9005 16.6036 15.693 16.6997 15.5355C16.7957 15.378 16.8744 15.1304 16.8744 14.9854C16.8744 14.8403 16.7971 14.595 16.7027 14.4403C16.6084 14.2856 16.4159 14.0993 16.2751 14.0265C16.1147 13.9436 15.9039 13.9127 15.7112 13.944C15.5418 13.9715 15.1906 13.9486 14.9306 13.893C14.6707 13.8376 14.2932 13.7126 14.0918 13.6154C13.8903 13.5182 13.6552 13.3318 13.5693 13.2013C13.4836 13.0707 13.3913 12.8254 13.3643 12.6562C13.3244 12.4054 13.2507 12.3172 12.9658 12.178C12.7324 12.0641 12.3818 11.9979 11.9111 11.979C11.4506 11.9603 11.0889 11.994 10.8681 12.0762ZM15.6665 13.2442C15.7511 13.2663 15.8895 13.2663 15.9741 13.2442C16.0588 13.2221 15.9895 13.204 15.8203 13.204C15.6511 13.204 15.5819 13.2221 15.6665 13.2442ZM11.4658 13.5751C11.3297 13.7111 11.25 13.8913 11.25 14.0625C11.25 14.2337 11.3297 14.4139 11.4658 14.5499C11.6017 14.6859 11.7819 14.7656 11.9531 14.7656C12.1243 14.7656 12.3045 14.6859 12.4405 14.5499C12.5765 14.4139 12.6562 14.2337 12.6562 14.0625C12.6562 13.8913 12.5765 13.7111 12.4405 13.5751C12.3045 13.4391 12.1243 13.3594 11.9531 13.3594C11.7819 13.3594 11.6017 13.4391 11.4658 13.5751ZM21.3916 39.5058C21.0962 39.5701 20.7007 39.7015 20.5127 39.7979C20.3247 39.8943 20.0864 40.066 19.9833 40.1795C19.8801 40.2929 19.7686 40.4747 19.7357 40.5835L19.6756 40.7812H12.2988H4.92188V41.4844V42.1875H22.5H40.0781V41.4844V40.7812H32.7012H25.3244L25.2643 40.5835C25.2314 40.4747 25.1199 40.2929 25.0167 40.1795C24.9136 40.066 24.6766 39.895 24.4902 39.7993C24.3038 39.7038 23.8885 39.5699 23.5673 39.5018C23.2462 39.4337 22.7461 39.3805 22.4561 39.3835C22.166 39.3865 21.687 39.4415 21.3916 39.5058Z" fill="#DA684E"/>
</g>
<defs>
<clipPath id="clip0_20_364">
<rect width="45" height="45" fill="white"/>
</clipPath>
</defs>
</svg>
