<svg width="30" height="30" viewBox="0 0 30 30" fill="none" xmlns="http://www.w3.org/2000/svg">
<g clip-path="url(#clip0_31_72)">
<path fill-rule="evenodd" clip-rule="evenodd" d="M13.6812 0.11542C12.6964 0.328584 11.8476 0.713369 11.0694 1.29936C9.81087 2.24706 8.97468 3.55423 8.57272 5.20206C8.48929 5.54419 8.4737 6.18274 8.45302 10.1071C8.43643 13.2523 8.44944 14.7944 8.49603 15.1984C8.95259 19.1591 12.8161 21.8062 16.6694 20.7985C18.8436 20.2299 20.6698 18.4455 21.2913 16.2824C21.5532 15.3711 21.5713 14.933 21.548 10.1071L21.5262 5.5954L21.3722 5.00946C21.2011 4.35872 21.1195 4.14345 20.8179 3.54661C19.9966 1.92104 18.4394 0.664209 16.6681 0.197099C15.8572 -0.0167093 14.4673 -0.0547366 13.6812 0.11542ZM14.3937 1.93862C12.578 2.18272 11.0892 3.47325 10.535 5.28362C10.4047 5.70936 10.4035 5.74634 10.3831 10.2243C10.3684 13.457 10.3819 14.8606 10.4307 15.1755C10.748 17.2206 12.3804 18.7939 14.4575 19.0564C16.5685 19.3233 18.6197 18.0524 19.3503 16.0251C19.6285 15.2531 19.6379 15.0474 19.6159 10.2243C19.5954 5.72144 19.5951 5.71171 19.4616 5.27472C18.873 3.34862 17.2464 2.0472 15.2632 1.91583C15.0054 1.89872 14.6141 1.90903 14.3937 1.93862ZM4.90915 5.3878C4.65491 5.46737 4.41591 5.66542 4.31337 5.8814C4.22958 6.05811 4.21827 6.43083 4.21827 9.02401C4.21827 11.9515 4.21891 11.9673 4.34788 12.1967C4.5669 12.5865 4.98233 12.7658 5.40345 12.6524C5.70936 12.57 6.00327 12.2805 6.08688 11.9794C6.12954 11.8258 6.15046 10.8199 6.14899 8.99384C6.14659 6.09972 6.13493 5.95593 5.87923 5.67339C5.6554 5.42606 5.20792 5.29429 4.90915 5.3878ZM24.521 5.4178C24.232 5.52239 23.9915 5.78114 23.9097 6.07569C23.8233 6.38671 23.8255 11.6674 23.9122 11.9794C24.0362 12.4261 24.584 12.7779 25.0022 12.6794C25.2852 12.6127 25.5459 12.4178 25.6654 12.1836C25.7756 11.9676 25.7808 11.8264 25.7808 9.02314C25.7808 6.21983 25.7756 6.07868 25.6654 5.86265C25.4571 5.45436 24.9572 5.26001 24.521 5.4178ZM0.623837 6.70435C0.355829 6.8022 0.150751 6.98313 0.0602824 7.20151C0.0152238 7.31032 -0.000127786 7.90487 0.011591 9.08536C0.0285832 10.7843 0.0308683 10.8131 0.165282 11.0016C0.345048 11.2536 0.612763 11.3875 0.937021 11.3875C1.26128 11.3875 1.52899 11.2536 1.70876 11.0016C1.84329 10.8129 1.84546 10.7856 1.86239 9.05911L1.8795 7.30792L1.73079 7.08321C1.48352 6.70956 1.03247 6.55517 0.623837 6.70435ZM28.7488 6.70435C28.4808 6.8022 28.2758 6.98313 28.1853 7.20151C28.1402 7.31032 28.1249 7.90487 28.1366 9.08536C28.1536 10.7843 28.1559 10.8131 28.2903 11.0016C28.4701 11.2536 28.7378 11.3875 29.062 11.3875C29.3863 11.3875 29.654 11.2536 29.8338 11.0016C29.9683 10.8129 29.9705 10.7856 29.9874 9.05911L30.0045 7.30792L29.8558 7.08321C29.6085 6.70956 29.1575 6.55517 28.7488 6.70435ZM4.77491 15.3168C4.42575 15.472 4.21827 15.8123 4.21827 16.23C4.21827 16.3547 4.29679 16.761 4.3927 17.1331C5.53124 21.5489 9.2145 24.7792 13.7544 25.3435L14.062 25.3818V26.7533V28.1247H10.8922C7.38913 28.1247 7.46237 28.1173 7.19073 28.4981C7.08778 28.6425 7.06007 28.7621 7.06007 29.0622C7.06007 29.4995 7.1595 29.6807 7.50872 29.8792C7.72294 30.001 7.72358 30.001 15.0673 29.9857L22.4116 29.9704L22.5998 29.8292C22.9859 29.5396 23.081 29.0012 22.8238 28.5623C22.5589 28.1103 22.681 28.1247 19.1069 28.1247H15.937V26.7533V25.3818L16.2446 25.3435C20.3351 24.8351 23.7479 22.1698 25.2334 18.3236C25.481 17.6824 25.7808 16.5329 25.7808 16.2243C25.7808 15.3479 24.8219 14.9206 24.1921 15.5163C24.002 15.696 23.9484 15.8008 23.872 16.1423C23.4356 18.091 22.6656 19.5297 21.3611 20.8335C19.3375 22.8561 16.6323 23.7794 13.816 23.4086C11.8171 23.1455 10.0926 22.2878 8.63835 20.8335C7.38474 19.58 6.52136 18.0145 6.18474 16.3849C6.0669 15.8144 6.02091 15.7047 5.82087 15.5161C5.52286 15.2353 5.12765 15.16 4.77491 15.3168Z" fill="white"/>
</g>
<defs>
<clipPath id="clip0_31_72">
<rect width="30" height="30" fill="white"/>
</clipPath>
</defs>
</svg>
