<svg width="45" height="45" viewBox="0 0 45 45" fill="none" xmlns="http://www.w3.org/2000/svg">
<path fill-rule="evenodd" clip-rule="evenodd" d="M40.2184 30.1685C40.1945 30.3256 40.1512 30.731 40.122 31.0694C40.0928 31.4077 39.9887 32.0558 39.8904 32.5095C39.7921 32.9633 39.612 33.6357 39.4901 34.0037C39.3681 34.3718 39.1127 35.0082 38.9225 35.418C38.7323 35.8278 38.452 36.3617 38.2997 36.6045C38.1473 36.8473 37.7768 37.3623 37.4764 37.749C37.176 38.1358 36.6793 38.6949 36.3728 38.9916C36.0663 39.2883 35.5188 39.7575 35.1563 40.0344C34.7937 40.3111 34.1411 40.7469 33.7061 41.0028C33.271 41.2586 32.6777 41.5762 32.3877 41.7085C32.0977 41.8408 31.4846 42.0942 31.0254 42.2715L30.1904 42.5938L30.1656 43.5236L30.1408 44.4534L30.414 44.7267C30.6271 44.9397 30.7635 45 31.0325 45C31.2224 45 31.7632 44.8989 32.2342 44.7754C32.7054 44.6519 33.4468 44.4298 33.8818 44.2819C34.3169 44.1339 35.0486 43.8504 35.5078 43.6518C35.967 43.4532 36.6196 43.1356 36.958 42.946C37.2964 42.7564 37.9082 42.3796 38.3176 42.1088C38.727 41.8379 39.4521 41.2423 39.9289 40.7854C40.4058 40.3285 41.085 39.5573 41.4384 39.0715C41.7917 38.5858 42.2785 37.7732 42.5199 37.2656C42.7614 36.7581 43.0585 36.0431 43.1801 35.6767C43.3017 35.3103 43.4809 34.6182 43.5785 34.1386C43.6759 33.6591 43.7833 33.0689 43.8171 32.8272C43.8507 32.5855 43.8733 31.837 43.8671 31.1638C43.8609 30.4907 43.846 29.93 43.8341 29.918C43.822 29.9059 43.4777 29.9365 43.069 29.9859C42.5488 30.0489 42.0481 30.0467 41.3997 29.9791C40.8904 29.9259 40.426 29.8825 40.3677 29.8826C40.3095 29.8827 40.2423 30.0113 40.2184 30.1685Z" fill="#FCC16D"/>
<path fill-rule="evenodd" clip-rule="evenodd" d="M28.437 1.04273C28.4829 1.08448 28.8267 1.32275 29.2011 1.57228C29.5753 1.8218 30.2279 2.31557 30.6513 2.6695C31.0745 3.02344 31.7581 3.66513 32.1701 4.09553C32.5821 4.52584 33.1415 5.15733 33.4132 5.49879C33.6849 5.84024 34.1829 6.53792 34.5198 7.04918C34.8567 7.56035 35.3704 8.4477 35.6611 9.02101C35.9519 9.5944 36.3689 10.5381 36.5878 11.1182C36.8067 11.6982 37.1273 12.7463 37.3003 13.4473C37.4732 14.1482 37.714 15.4731 37.8352 16.3916C37.9565 17.3101 38.1562 18.4768 38.2792 18.9844C38.4022 19.4919 38.6434 20.3423 38.8153 20.874C38.9872 21.4058 39.238 22.2596 39.3726 22.7714C39.5072 23.2833 39.7198 23.8568 39.845 24.046C39.9701 24.2351 40.1576 24.6271 40.2616 24.9171C40.404 25.3143 40.451 25.6502 40.4522 26.2793C40.4531 26.7385 40.4089 27.2256 40.3539 27.3617C40.298 27.5 40.2539 28.0866 40.2539 28.6918V29.7744L40.4956 29.8303C40.6285 29.8611 41.2317 29.9085 41.836 29.9356C42.4402 29.9628 43.1521 29.951 43.418 29.9096L43.9014 29.8342L43.8745 29.2653C43.8596 28.9523 43.7916 28.281 43.7232 27.7734C43.6549 27.2659 43.516 26.4551 43.4146 25.9717C43.3133 25.4883 43.1352 24.7347 43.0188 24.297C42.9025 23.8594 42.6477 23.0091 42.4526 22.4074C42.2576 21.8058 42.0029 20.8586 41.8868 20.3027C41.7706 19.7468 41.6303 18.9163 41.575 18.457C41.5197 17.9978 41.3958 17.1672 41.2996 16.6113C41.2033 16.0554 41.029 15.2405 40.9123 14.8003C40.7955 14.3603 40.6348 13.8066 40.5551 13.5699C40.4754 13.3333 40.2709 12.7837 40.1006 12.3486C39.9303 11.9136 39.5555 11.1045 39.2678 10.5506C38.98 9.99668 38.5646 9.26499 38.3445 8.92459C38.1244 8.58419 37.6783 7.94689 37.3531 7.50832C37.028 7.06983 36.3908 6.32268 35.9371 5.84807C35.4835 5.37346 34.7419 4.67578 34.289 4.29776C33.8362 3.91975 33.0752 3.35127 32.5979 3.03451C32.1205 2.71767 31.265 2.22469 30.6965 1.93896C30.1281 1.65313 29.3914 1.31757 29.0594 1.19312C28.7273 1.06866 28.4326 0.966797 28.4046 0.966797C28.3765 0.966797 28.3911 1.00099 28.437 1.04273ZM35.7107 12.3064C35.6048 12.3485 35.4514 12.4849 35.37 12.6091C35.2302 12.8225 35.2322 12.8854 35.4068 13.7345C35.5086 14.2291 35.6504 14.9897 35.7219 15.4248C35.7934 15.8599 35.9129 16.7498 35.9874 17.4023C36.0619 18.0549 36.1229 18.8373 36.123 19.1409C36.1231 19.5507 36.089 19.706 35.9912 19.7436C35.8892 19.7828 35.8594 19.9535 35.8594 20.4989V21.2036L36.1436 21.1467C36.2999 21.1155 36.5757 20.9921 36.7564 20.8725C36.9371 20.7529 37.1503 20.5286 37.2302 20.3742C37.3101 20.2197 37.4104 19.9724 37.453 19.8244C37.4992 19.6644 37.4935 19.0937 37.439 18.4131C37.3886 17.7847 37.268 16.697 37.1711 15.9961C37.0741 15.2952 36.8977 14.2483 36.7791 13.6698C36.6436 13.0092 36.5059 12.5631 36.4091 12.4705C36.3242 12.3894 36.1758 12.3021 36.0791 12.2763C35.9824 12.2506 35.8167 12.2641 35.7107 12.3064ZM8.62121 12.4585C8.47285 12.5803 8.38039 12.8867 8.17674 13.9307C8.03533 14.6558 7.8584 15.7236 7.78352 16.3037C7.70864 16.8838 7.60756 17.8483 7.55896 18.4472C7.49629 19.2182 7.49849 19.6414 7.56661 19.8974C7.61943 20.0961 7.76322 20.3916 7.88609 20.554C8.00896 20.7163 8.27228 20.9232 8.47127 21.0135C8.67025 21.1039 8.90219 21.1787 8.98683 21.1797C9.11963 21.1814 9.14064 21.0929 9.14064 20.5332C9.14064 20.0641 9.10417 19.8546 9.0088 19.7754C8.92021 19.7018 8.87697 19.5038 8.87697 19.1712C8.87697 18.8991 8.95422 18.0042 9.04871 17.1825C9.14319 16.3608 9.32635 15.1348 9.45582 14.458C9.58519 13.7812 9.70877 13.128 9.73039 13.0065C9.75535 12.8662 9.70068 12.6976 9.58062 12.5451C9.44254 12.3695 9.31299 12.3047 9.10004 12.3047C8.93972 12.3047 8.72421 12.3739 8.62121 12.4585ZM14.8739 18.5208C14.6238 18.5517 14.5528 18.6235 14.3244 19.0758C14.1562 19.409 13.9693 19.6434 13.8031 19.7292C13.6346 19.8163 13.2994 19.8633 12.8452 19.8633H12.1466L11.7186 20.3316C11.4833 20.5891 11.1628 21.0395 11.0066 21.3326C10.8505 21.6257 10.7227 21.9686 10.7227 22.0948C10.7227 22.2209 10.8018 22.4033 10.8985 22.5C10.9951 22.5967 11.1699 22.6758 11.2868 22.6758C11.4036 22.6758 11.5618 22.6518 11.6381 22.6225C11.7145 22.5932 11.8962 22.346 12.0418 22.0732C12.1875 21.8004 12.464 21.3935 12.6562 21.1689C12.8484 20.9444 13.2295 20.6122 13.503 20.4306C13.7765 20.2491 14.2417 20.0238 14.5368 19.93C14.9855 19.7874 15.2386 19.767 16.084 19.8057C16.6399 19.8311 17.332 19.9169 17.6221 19.9964C17.9121 20.076 18.4026 20.2649 18.712 20.4162C19.0214 20.5676 19.4818 20.8809 19.7351 21.1124C20.066 21.4147 20.2682 21.5332 20.4536 21.5332C20.6096 21.5332 20.7871 21.4528 20.9027 21.3298C21.0078 21.2179 21.0938 21.0187 21.0938 20.887C21.0938 20.7183 20.9749 20.5321 20.6902 20.2555L20.2866 19.8633H18.9281C17.9061 19.8633 17.5077 19.8314 17.3202 19.7343C17.1782 19.661 16.9479 19.3866 16.7853 19.0971C16.6282 18.8176 16.4556 18.5598 16.4017 18.5243C16.3478 18.4888 16.0466 18.4655 15.7324 18.4724C15.4182 18.4794 15.0319 18.5012 14.8739 18.5208ZM24.2902 20.2472C23.9841 20.5533 23.9063 20.6931 23.9063 20.9367C23.9063 21.1212 23.97 21.2999 24.067 21.3877C24.1554 21.4677 24.3527 21.5332 24.5055 21.5332C24.7164 21.5332 24.9029 21.4249 25.2801 21.0833C25.5533 20.8359 26.0185 20.5208 26.3138 20.3832C26.609 20.2455 27.0681 20.0748 27.334 20.0039C27.81 19.8768 27.7934 19.8748 26.2457 19.8691L24.6742 19.8633L24.2902 20.2472ZM31.0054 20.1728C31.4386 20.3896 31.7847 20.654 32.1594 21.0546C32.4538 21.3694 32.7786 21.7936 32.881 21.9975C32.9835 22.2013 33.1282 22.4373 33.2025 22.522C33.278 22.6077 33.4612 22.6758 33.6165 22.6758C33.7988 22.6758 33.9653 22.6011 34.098 22.4598C34.257 22.2906 34.2889 22.1839 34.2453 21.9662C34.2148 21.8135 34.053 21.4633 33.8857 21.1881C33.7185 20.9127 33.4184 20.5021 33.2189 20.2754L32.8562 19.8633H31.6214H30.3865L31.0054 20.1728ZM17.3997 24.9829C17.1844 25.0917 16.919 25.3151 16.8098 25.4793C16.6619 25.7019 16.6113 25.9056 16.6113 26.2793C16.6113 26.653 16.6619 26.8566 16.8098 27.0793C16.919 27.2435 17.1844 27.4669 17.3997 27.5757C17.6151 27.6845 17.915 27.7734 18.0664 27.7734C18.2177 27.7734 18.5158 27.6815 18.7289 27.5691C18.9703 27.4417 19.1901 27.2348 19.3126 27.0198C19.4355 26.8037 19.5088 26.5271 19.5088 26.2793C19.5088 26.0315 19.4355 25.7549 19.3126 25.5388C19.1901 25.3238 18.9703 25.1169 18.7289 24.9895C18.5158 24.8771 18.2177 24.7852 18.0664 24.7852C17.915 24.7852 17.6151 24.8741 17.3997 24.9829ZM29.3925 24.9518C29.1953 25.0414 28.9483 25.2236 28.8435 25.3569C28.7387 25.4901 28.6118 25.7521 28.5614 25.9392C28.4978 26.1751 28.4978 26.3835 28.5614 26.6193C28.6118 26.8065 28.7387 27.0685 28.8435 27.2017C28.9483 27.335 29.1953 27.5172 29.3925 27.6068C29.5897 27.6963 29.867 27.7704 30.0089 27.7715C30.1507 27.7726 30.438 27.6906 30.6473 27.5892C30.901 27.4663 31.1007 27.2807 31.2464 27.0322C31.3909 26.7855 31.4643 26.5281 31.4635 26.2716C31.4625 26.0341 31.3858 25.7501 31.2657 25.5388C31.1433 25.3238 30.9235 25.1169 30.682 24.9895C30.469 24.8771 30.1723 24.786 30.0228 24.7871C29.8733 24.7881 29.5897 24.8623 29.3925 24.9518Z" fill="#2D2B2D"/>
<path fill-rule="evenodd" clip-rule="evenodd" d="M15.5127 24.5191C15.3193 24.5619 14.9848 24.6602 14.7694 24.7375C14.5539 24.8148 14.187 25.0004 13.9542 25.1498C13.7213 25.2992 13.3918 25.5838 13.2221 25.7821C13.0522 25.9806 12.8524 26.3527 12.7776 26.6097C12.6883 26.917 12.663 27.2034 12.7035 27.4471C12.7374 27.6507 12.8397 27.9643 12.9307 28.1439C13.0217 28.3235 13.2576 28.6255 13.4548 28.8151C13.652 29.0046 14.0022 29.2624 14.2328 29.3879C14.4635 29.5135 14.9052 29.6826 15.2143 29.7636C15.5613 29.8545 16.0958 29.9089 16.6113 29.9057C17.2056 29.9019 17.6147 29.847 18.0307 29.715C18.3522 29.613 18.8507 29.3723 19.1385 29.1802C19.4263 28.988 19.7704 28.674 19.9032 28.4824C20.0359 28.2908 20.1981 27.9837 20.2637 27.7999C20.3293 27.6162 20.3846 27.3642 20.3867 27.2401C20.3888 27.1159 20.3302 26.811 20.2564 26.5624C20.1632 26.2487 19.9875 25.9686 19.6813 25.6457L19.2403 25.1806L19.4199 25.5506C19.5187 25.7542 19.5987 26.0706 19.5977 26.2538C19.5966 26.437 19.5206 26.7524 19.4288 26.9546C19.328 27.1766 19.1285 27.4086 18.9254 27.5398C18.7403 27.6595 18.4636 27.7832 18.3106 27.8147C18.1575 27.8463 17.8725 27.829 17.6773 27.7765C17.4821 27.7239 17.1966 27.575 17.0428 27.4456C16.889 27.3162 16.7092 27.0812 16.6433 26.9234C16.5774 26.7656 16.5234 26.4757 16.5234 26.2793C16.5234 26.0828 16.5774 25.793 16.6433 25.6351C16.7092 25.4773 16.889 25.2423 17.0428 25.1129C17.1966 24.9835 17.4887 24.8323 17.6919 24.7769C18.0492 24.6795 18.0542 24.6732 17.8418 24.5907C17.7209 24.5437 17.2265 24.4909 16.7431 24.4732C16.2597 24.4556 15.706 24.4763 15.5127 24.5191ZM27.4658 24.5191C27.2724 24.5619 26.9376 24.6603 26.7216 24.7378C26.5057 24.8153 26.1635 24.9757 25.9613 25.0941C25.759 25.2127 25.4312 25.494 25.2328 25.7194C25.0206 25.9606 24.8181 26.3112 24.7407 26.5718C24.6685 26.8151 24.6111 27.1159 24.6132 27.2401C24.6153 27.3642 24.6707 27.6162 24.7363 27.7999C24.8018 27.9837 24.9641 28.2908 25.0968 28.4824C25.2296 28.674 25.5737 28.988 25.8614 29.1802C26.1493 29.3723 26.6478 29.613 26.9692 29.715C27.3853 29.847 27.7943 29.9019 28.3886 29.9057C28.9041 29.9089 29.4387 29.8545 29.7857 29.7636C30.0948 29.6826 30.5365 29.5135 30.7672 29.3879C30.9979 29.2623 31.3522 28.996 31.5546 28.7961C31.7568 28.5961 31.9926 28.2941 32.0786 28.125C32.1644 27.9558 32.2625 27.6507 32.2964 27.4471C32.3371 27.2025 32.3115 26.9164 32.2208 26.6045C32.1346 26.308 31.9479 25.9781 31.7194 25.7184C31.5191 25.491 31.3398 25.3203 31.321 25.3391C31.3021 25.3579 31.3466 25.5166 31.4197 25.6916C31.4929 25.8667 31.5527 26.1371 31.5527 26.2926C31.5527 26.4481 31.4702 26.7457 31.3694 26.954C31.2686 27.1623 31.0803 27.408 30.9511 27.5001C30.8219 27.5921 30.5484 27.7125 30.3434 27.7677C30.074 27.8402 29.8743 27.8421 29.6231 27.7745C29.4319 27.723 29.1537 27.5784 29.0048 27.453C28.8558 27.3277 28.676 27.1132 28.6052 26.9763C28.5345 26.8394 28.4765 26.5258 28.4765 26.2793C28.4765 26.0327 28.5345 25.7191 28.6052 25.5822C28.676 25.4454 28.8558 25.2308 29.0048 25.1055C29.1537 24.9801 29.4418 24.8323 29.645 24.7769C30.0023 24.6795 30.0073 24.6732 29.7949 24.5907C29.6741 24.5437 29.1797 24.4909 28.6963 24.4732C28.2129 24.4556 27.6592 24.4763 27.4658 24.5191Z" fill="#FAF7F7"/>
<path fill-rule="evenodd" clip-rule="evenodd" d="M15.4907 18.4321C15.6236 18.4522 15.8412 18.4522 15.9741 18.4321C16.107 18.4119 15.9983 18.3955 15.7324 18.3955C15.4665 18.3955 15.3578 18.4119 15.4907 18.4321ZM15.4468 19.8389C15.6038 19.8584 15.861 19.8584 16.018 19.8389C16.1751 19.8195 16.0466 19.8035 15.7324 19.8035C15.4182 19.8035 15.2897 19.8195 15.4468 19.8389ZM20.6982 20.2148C20.887 20.4082 21.0613 20.5664 21.0855 20.5664C21.1096 20.5664 20.9749 20.4082 20.7861 20.2148C20.5973 20.0215 20.423 19.8633 20.3989 19.8633C20.3747 19.8633 20.5094 20.0215 20.6982 20.2148ZM12.8726 21.0278L12.4365 21.4893L12.8979 21.0531C13.1517 20.8132 13.3594 20.6056 13.3594 20.5917C13.3594 20.5777 13.348 20.5664 13.334 20.5664C13.3202 20.5664 13.1126 20.7741 12.8726 21.0278ZM25.0872 21.2915L24.8291 21.5771L25.1147 21.319C25.2719 21.1771 25.4004 21.0485 25.4004 21.0334C25.4004 21.0183 25.388 21.0059 25.3729 21.0059C25.3577 21.0059 25.2292 21.1344 25.0872 21.2915ZM8.4155 22.1241C8.57256 22.1436 8.82973 22.1436 8.98679 22.1241C9.14385 22.1047 9.01536 22.0887 8.70115 22.0887C8.38694 22.0887 8.25844 22.1047 8.4155 22.1241ZM36.0132 22.1241C36.1703 22.1436 36.4273 22.1436 36.5844 22.1241C36.7416 22.1047 36.613 22.0887 36.2988 22.0887C35.9846 22.0887 35.856 22.1047 36.0132 22.1241ZM1.0863 30.6738C1.0863 31.1331 1.10116 31.321 1.11926 31.0913C1.13737 30.8617 1.13737 30.486 1.11926 30.2563C1.10116 30.0267 1.0863 30.2146 1.0863 30.6738ZM43.889 30.6738C43.889 31.1331 43.9039 31.321 43.922 31.0913C43.9401 30.8617 43.9401 30.486 43.922 30.2563C43.9039 30.0267 43.889 30.2146 43.889 30.6738ZM2.17632 30.0328C2.28566 30.0538 2.44386 30.0531 2.52789 30.0311C2.61191 30.0091 2.52244 29.9919 2.32908 29.9929C2.13572 29.9938 2.06699 30.0118 2.17632 30.0328ZM2.96734 30.0328C3.07667 30.0538 3.23488 30.0531 3.3189 30.0311C3.40292 30.0091 3.31345 29.9919 3.12009 29.9929C2.92673 29.9938 2.858 30.0118 2.96734 30.0328ZM41.9897 30.0342C42.1469 30.0538 42.4039 30.0538 42.561 30.0342C42.7182 30.0148 42.5896 29.9988 42.2754 29.9988C41.9612 29.9988 41.8326 30.0148 41.9897 30.0342ZM20.2949 30.7504C20.1505 30.8674 20.0918 31.0067 20.0918 31.2326C20.0918 31.4645 20.1616 31.6233 20.3502 31.8201C20.4924 31.9685 20.8653 32.2162 21.1789 32.3706C21.6854 32.6199 21.8332 32.6514 22.5 32.6514C23.1667 32.6514 23.3145 32.6199 23.8211 32.3706C24.1347 32.2162 24.5076 31.9685 24.6498 31.8201C24.8383 31.6233 24.9082 31.4645 24.9082 31.2326C24.9082 31.0067 24.8495 30.8674 24.7051 30.7504C24.5934 30.6599 24.4129 30.5859 24.3041 30.5859C24.1952 30.5859 23.9525 30.7097 23.7645 30.8609C23.5765 31.012 23.2956 31.19 23.14 31.2564C22.9844 31.3227 22.6964 31.377 22.5 31.377C22.3035 31.377 22.0155 31.3227 21.86 31.2564C21.7044 31.19 21.4234 31.012 21.2354 30.8609C21.0475 30.7097 20.8047 30.5859 20.6958 30.5859C20.587 30.5859 20.4066 30.6599 20.2949 30.7504ZM15.0357 32.9269C14.9355 33.0543 14.8535 33.252 14.8535 33.3664C14.8535 33.4807 14.9317 33.6524 15.0273 33.7481C15.1229 33.8436 15.5254 34.085 15.9219 34.2842C16.3183 34.4835 16.9862 34.7777 17.406 34.9379C17.8259 35.0982 18.6476 35.3496 19.232 35.4966C19.8165 35.6438 20.86 35.8299 21.5511 35.9104C22.4887 36.0194 23.1979 36.0437 24.3457 36.0059C25.1916 35.978 26.2718 35.8947 26.7461 35.8208C27.2203 35.7468 27.9616 35.6033 28.3933 35.502C29.0011 35.3593 29.218 35.2671 29.3547 35.0933C29.4518 34.9698 29.5312 34.8005 29.5312 34.7168C29.5312 34.6331 29.4492 34.4605 29.349 34.3332C29.2407 34.1953 29.0796 34.1016 28.9511 34.1016C28.8323 34.1016 28.2518 34.1982 27.661 34.3165C27.0703 34.4348 26.2028 34.5732 25.7334 34.6241C25.264 34.675 24.3544 34.7164 23.7119 34.7161C23.0695 34.7157 22.188 34.6747 21.7529 34.625C21.3178 34.5754 20.5763 34.4563 20.105 34.3605C19.6338 34.2646 18.8823 34.0652 18.4351 33.9173C17.9879 33.7693 17.1825 33.4339 16.6453 33.1718C16.1081 32.9098 15.5672 32.6953 15.4431 32.6953C15.3044 32.6953 15.1478 32.7843 15.0357 32.9269Z" fill="#F9A08F"/>
<path fill-rule="evenodd" clip-rule="evenodd" d="M15.2863 20.8827C15.1692 21.0083 14.8755 21.2146 14.6338 21.3412C14.2682 21.5325 14.0393 21.579 13.2715 21.6181L12.3487 21.665L12.1136 22.1007C11.9844 22.3404 11.8088 22.5876 11.7233 22.65C11.6379 22.7125 11.4551 22.7637 11.3171 22.7637C11.1648 22.7637 10.9774 22.6748 10.8398 22.5373C10.6505 22.348 10.621 22.2543 10.6597 21.966L10.706 21.6211H9.96173H9.21747L9.25175 26.9604C9.2847 32.1019 9.29332 32.3324 9.48272 33.1787C9.59092 33.6621 9.77979 34.3542 9.90249 34.7168C10.0252 35.0793 10.3008 35.75 10.515 36.2072C10.7293 36.6643 11.164 37.428 11.4812 37.9045C11.7983 38.3809 12.4159 39.1453 12.8536 39.6031C13.2914 40.061 13.9105 40.6409 14.2295 40.8919C14.5486 41.1429 14.8294 41.3737 14.8535 41.4047C14.8777 41.4357 15.115 41.5994 15.3809 41.7686C15.6468 41.9378 16.1807 42.2347 16.5674 42.4284C16.9541 42.622 17.5672 42.8873 17.9297 43.0177C18.2923 43.1481 18.9784 43.3494 19.4545 43.4648C19.9306 43.5803 20.8106 43.7208 21.4101 43.7772C22.2401 43.8552 22.7599 43.8552 23.59 43.7772C24.1895 43.7208 25.0694 43.5803 25.5455 43.4648C26.0216 43.3494 26.7078 43.1481 27.0703 43.0177C27.4329 42.8873 28.0459 42.622 28.4326 42.4284C28.8194 42.2347 29.3533 41.9378 29.6192 41.7686C29.885 41.5994 30.1223 41.4357 30.1465 41.4047C30.1707 41.3737 30.4515 41.1429 30.7705 40.8919C31.0896 40.6409 31.7087 40.061 32.1465 39.6031C32.5842 39.1453 33.2018 38.3809 33.5189 37.9045C33.8361 37.428 34.2709 36.6643 34.4852 36.2072C34.6996 35.75 34.9781 35.0641 35.1042 34.683C35.2302 34.3019 35.419 33.6097 35.5237 33.145C35.7052 32.3394 35.7156 32.0493 35.7483 26.9604L35.7826 21.6211H35.0435H34.3044L34.3129 22.0243C34.3196 22.348 34.2804 22.4607 34.1138 22.5956C33.9997 22.6881 33.7792 22.7637 33.6238 22.7637C33.4421 22.7637 33.2775 22.693 33.1629 22.5659C33.0648 22.4571 32.8924 22.2001 32.7798 21.9946L32.5751 21.6211L24.8349 21.6202L17.0948 21.6193L16.6496 21.4121C16.4047 21.298 16.0633 21.0809 15.8909 20.9296C15.7185 20.7781 15.5598 20.6543 15.5384 20.6543C15.5169 20.6543 15.4036 20.7571 15.2863 20.8827ZM15.5127 24.5191C15.3194 24.5619 14.9849 24.6603 14.7694 24.7375C14.5539 24.8149 14.1871 25.0004 13.9542 25.1498C13.7213 25.2992 13.3918 25.5838 13.2221 25.7821C13.0522 25.9806 12.8524 26.3528 12.7777 26.6098C12.6884 26.917 12.663 27.2035 12.7036 27.4471C12.7375 27.6507 12.8397 27.9643 12.9308 28.1439C13.0217 28.3235 13.2576 28.6255 13.4549 28.8151C13.6521 29.0046 14.0022 29.2624 14.2329 29.388C14.4636 29.5135 14.9052 29.6826 15.2143 29.7636C15.5613 29.8545 16.0959 29.9089 16.6114 29.9058C17.2057 29.902 17.6147 29.847 18.0308 29.715C18.3522 29.6131 18.8507 29.3723 19.1386 29.1802C19.4263 28.988 19.7704 28.6741 19.9032 28.4825C20.0359 28.2908 20.1982 27.9838 20.2637 27.8C20.3293 27.6162 20.3847 27.3642 20.3868 27.2401C20.3889 27.1159 20.3315 26.8152 20.2593 26.5718C20.1829 26.3145 19.9802 25.9615 19.7754 25.7288C19.5816 25.5087 19.2384 25.2062 19.0129 25.0568C18.7873 24.9074 18.5166 24.7852 18.4115 24.7852C18.3064 24.7852 18.0926 24.7214 17.9365 24.6435C17.7481 24.5495 17.3514 24.4917 16.7584 24.4716C16.2666 24.4549 15.7061 24.4763 15.5127 24.5191ZM27.4658 24.5191C27.2725 24.5619 26.9376 24.6604 26.7217 24.7379C26.5057 24.8153 26.1636 24.9757 25.9613 25.0942C25.7591 25.2127 25.4313 25.4941 25.2329 25.7194C25.0206 25.9606 24.8181 26.3113 24.7408 26.5718C24.6686 26.8152 24.6112 27.1159 24.6133 27.2401C24.6154 27.3642 24.6708 27.6162 24.7363 27.8C24.8019 27.9838 24.9641 28.2908 25.0968 28.4825C25.2296 28.6741 25.5737 28.988 25.8615 29.1802C26.1493 29.3723 26.6479 29.6131 26.9693 29.715C27.3853 29.847 27.7944 29.902 28.3887 29.9058C28.9042 29.9089 29.4387 29.8545 29.7857 29.7636C30.0948 29.6826 30.5366 29.5135 30.7673 29.3879C30.998 29.2623 31.3523 28.996 31.5546 28.7961C31.7568 28.5962 31.9927 28.2942 32.0786 28.125C32.1645 27.9558 32.2626 27.6507 32.2965 27.4471C32.3372 27.2025 32.3115 26.9164 32.2208 26.6045C32.135 26.3093 31.9481 25.9783 31.7225 25.722C31.5238 25.4964 31.3254 25.334 31.2813 25.3613C31.2372 25.3885 31.2012 25.3703 31.2012 25.3208C31.2012 25.2714 31.0536 25.1307 30.8732 25.008C30.6928 24.8854 30.4615 24.7852 30.3594 24.7852C30.2572 24.7852 30.0457 24.7214 29.8896 24.6435C29.7013 24.5495 29.3045 24.4917 28.7115 24.4716C28.2198 24.4549 27.6592 24.4763 27.4658 24.5191ZM20.2302 30.7893C20.1223 30.9042 20.0391 31.1068 20.0391 31.2544C20.0391 31.4472 20.1375 31.6112 20.4126 31.8768C20.6181 32.0752 20.9464 32.3175 21.1421 32.4153C21.3379 32.513 21.7131 32.6321 21.9758 32.6799C22.2829 32.7357 22.6385 32.737 22.9709 32.6834C23.2553 32.6377 23.6514 32.5186 23.851 32.4188C24.0506 32.3191 24.382 32.0752 24.5874 31.8768C24.8699 31.6041 24.961 31.4493 24.961 31.2421C24.961 31.0693 24.8858 30.8975 24.7576 30.777C24.6393 30.6659 24.4404 30.5859 24.2824 30.5859C24.1012 30.5859 23.8894 30.6874 23.6459 30.8908C23.4452 31.0585 23.1349 31.2362 22.9564 31.2858C22.7779 31.3354 22.5725 31.376 22.5 31.376C22.4275 31.376 22.2221 31.3354 22.0436 31.2858C21.8651 31.2362 21.5549 31.0585 21.3542 30.8908C21.1032 30.6811 20.9006 30.5859 20.7053 30.5859C20.522 30.5859 20.3535 30.6581 20.2302 30.7893ZM15.2328 32.6959C15.1272 32.7385 14.9987 32.852 14.9471 32.9483C14.8956 33.0445 14.8535 33.2376 14.8535 33.3773C14.8535 33.5284 14.9337 33.7052 15.0513 33.8132C15.1601 33.9132 15.5655 34.1525 15.9522 34.3448C16.3389 34.5373 17.0406 34.8387 17.5116 35.0146C17.9826 35.1905 18.7736 35.4328 19.2694 35.5528C19.7652 35.673 20.6258 35.8347 21.1817 35.9123C21.7967 35.9981 22.7945 36.0531 23.7305 36.0527C24.6537 36.0524 25.7169 35.9938 26.39 35.906C27.0067 35.8255 27.8955 35.6669 28.3651 35.5534C28.9712 35.4068 29.264 35.2911 29.375 35.1541C29.461 35.0479 29.5313 34.8449 29.5313 34.7031C29.5313 34.5464 29.4466 34.3604 29.3155 34.2294C29.1969 34.1108 29.0345 34.0137 28.9547 34.0137C28.8749 34.0137 28.5864 34.0713 28.3135 34.1417C28.0407 34.2121 27.4812 34.3281 27.0703 34.3995C26.6595 34.4709 25.7391 34.5748 25.0251 34.6303C24.0601 34.7055 23.4059 34.7063 22.4763 34.6336C21.7884 34.5798 20.747 34.439 20.162 34.3208C19.577 34.2025 18.7465 33.9836 18.3163 33.8342C17.8861 33.6847 17.0896 33.3476 16.5461 33.0849C16.0026 32.8223 15.528 32.61 15.4915 32.613C15.4548 32.616 15.3384 32.6534 15.2328 32.6959Z" fill="#FFCEC0"/>
<path fill-rule="evenodd" clip-rule="evenodd" d="M5.96321 29.5739C5.93974 29.5973 5.5278 29.6981 5.04765 29.7976C4.56759 29.8972 3.71997 30.0005 3.16407 30.0272C2.60816 30.0538 1.92841 30.0386 1.65349 29.9934L1.15366 29.9112L1.12615 30.7978C1.11094 31.2855 1.13001 32.0405 1.16833 32.4756C1.20674 32.9106 1.31511 33.6465 1.40915 34.1107C1.5032 34.5749 1.68188 35.2671 1.80624 35.6488C1.93061 36.0305 2.26609 36.8174 2.55173 37.3975C2.83738 37.9775 3.3257 38.7899 3.63692 39.2028C3.94823 39.6156 4.59308 40.3276 5.06997 40.7849C5.54696 41.2421 6.33261 41.8816 6.81583 42.2058C7.29915 42.5301 8.22753 43.0508 8.87898 43.3631C9.53051 43.6754 10.493 44.0738 11.018 44.2485C11.543 44.4232 12.3482 44.6637 12.8074 44.7831C13.2666 44.9024 13.7992 45 13.991 45C14.2592 45 14.399 44.9407 14.5966 44.7431L14.8535 44.4862L14.85 42.9194L14.8465 41.3525L14.3142 40.957C14.0215 40.7395 13.396 40.1615 12.9242 39.6727C12.4525 39.1837 11.8051 38.3911 11.4855 37.9111C11.166 37.431 10.7293 36.6643 10.515 36.2072C10.3008 35.75 10.0251 35.0793 9.90238 34.7168C9.77968 34.3542 9.59828 33.659 9.49931 33.1719C9.40026 32.6849 9.29329 31.8894 9.26148 31.4043L9.20365 30.5222L8.52636 30.4699C8.15388 30.4413 7.63348 30.337 7.36998 30.2384C7.10649 30.1399 6.70351 29.9404 6.47456 29.7952C6.24569 29.6501 6.04653 29.5312 6.03211 29.5312C6.0177 29.5312 5.98667 29.5504 5.96321 29.5739ZM38.4993 29.8025C38.2835 29.9442 37.8918 30.1405 37.629 30.2389C37.366 30.3372 36.8461 30.4413 36.4736 30.4699L35.7964 30.5222L35.7385 31.4043C35.7067 31.8894 35.6026 32.6692 35.5073 33.1371C35.4119 33.6052 35.2307 34.3003 35.1045 34.682C34.9783 35.0637 34.6996 35.75 34.4852 36.2072C34.2708 36.6643 33.834 37.431 33.5145 37.9111C33.1949 38.3911 32.5475 39.1837 32.0758 39.6727C31.604 40.1615 30.9785 40.7395 30.6858 40.957L30.1535 41.3525L30.15 41.9807L30.1465 42.6088L30.9155 42.3192C31.3386 42.1599 31.9812 41.8925 32.3438 41.7248C32.7063 41.5572 33.3401 41.2208 33.7521 40.9772C34.1641 40.7336 34.797 40.3086 35.1584 40.0326C35.5198 39.7567 36.0663 39.2883 36.3727 38.9916C36.6793 38.6949 37.176 38.1357 37.4764 37.749C37.7768 37.3623 38.1473 36.8473 38.2997 36.6045C38.452 36.3617 38.7323 35.8277 38.9225 35.418C39.1127 35.0082 39.3681 34.3717 39.4901 34.0037C39.612 33.6357 39.7934 32.9581 39.893 32.4981C39.9927 32.038 40.111 31.2712 40.1559 30.7941C40.2008 30.3171 40.2115 29.9027 40.1798 29.8732C40.1481 29.8438 39.9045 29.7775 39.6387 29.726C39.3728 29.6744 39.096 29.6126 39.0234 29.5886C38.9509 29.5646 38.715 29.6609 38.4993 29.8025Z" fill="#FFD597"/>
<path fill-rule="evenodd" clip-rule="evenodd" d="M15.0732 17.5002C14.8799 17.939 14.7095 18.3306 14.6947 18.3705C14.6798 18.4104 15.0454 18.4362 15.5072 18.428C15.9689 18.4198 16.3468 18.4023 16.3471 18.3891C16.3475 18.3759 16.1927 18.0595 16.0033 17.686C15.814 17.3125 15.6063 16.9383 15.5418 16.8546C15.4378 16.7193 15.3858 16.791 15.0732 17.5002ZM9.22849 20.7421V21.621H9.97969C10.73 21.621 10.731 21.6208 10.8806 21.3469C10.9628 21.1962 11.2401 20.8007 11.4967 20.468L11.9631 19.8632H10.5958H9.22849V20.7421ZM14.4887 20.0258C14.2156 20.1163 13.8596 20.281 13.6977 20.3918C13.5357 20.5026 13.1956 20.7935 12.9419 21.0382C12.6881 21.2829 12.4804 21.5142 12.4804 21.5521C12.4804 21.59 12.8266 21.6207 13.2495 21.6202C13.8878 21.6195 14.1007 21.5812 14.5019 21.3952C14.7678 21.2718 15.1119 21.0488 15.2666 20.8996L15.5478 20.6283L15.876 20.9165C16.0566 21.075 16.4047 21.298 16.6495 21.412C17.0634 21.6048 17.2025 21.6194 18.6272 21.6202L20.1598 21.621L19.9017 21.3515C19.7597 21.2031 19.4278 20.9386 19.164 20.7634C18.9002 20.5883 18.3465 20.3278 17.9335 20.1845C17.2909 19.9615 17.0242 19.9194 16.084 19.8926C15.186 19.867 14.8946 19.8913 14.4887 20.0258ZM20.7882 20.217C21.0761 20.5117 21.1337 20.6306 21.1337 20.9295C21.1337 21.1995 21.0828 21.3294 20.9281 21.4547C20.7249 21.6192 20.7423 21.621 22.5021 21.621H24.2815L24.0499 21.4388C23.8797 21.305 23.8183 21.1764 23.8183 20.9535C23.8183 20.7204 23.9022 20.5594 24.1811 20.2568L24.5439 19.8632H22.4933H20.4428L20.7882 20.217ZM27.7295 19.9906C27.4394 20.0578 27.0255 20.1766 26.8095 20.2545C26.5936 20.3325 26.2459 20.4965 26.0368 20.619C25.8278 20.7414 25.4593 21.0171 25.218 21.2313L24.7792 21.621H28.6525C32.4177 21.621 32.5232 21.6165 32.4372 21.4556C32.3885 21.3646 32.1399 21.1015 31.8848 20.8709C31.6296 20.6403 31.1638 20.3297 30.8496 20.1805C30.327 19.9326 30.1922 19.9077 29.2676 19.8889C28.6429 19.8762 28.0554 19.9151 27.7295 19.9906ZM33.1964 20.1489C33.346 20.3059 33.6307 20.6685 33.829 20.9545C34.0272 21.2404 34.1893 21.5172 34.1892 21.5697C34.1891 21.6332 34.4529 21.6556 34.9803 21.6368L35.7715 21.6086V20.7359V19.8632H34.348H32.9245L33.1964 20.1489ZM7.60251 22.2718C7.40915 22.3332 7.03386 22.4942 6.76852 22.6296C6.50318 22.765 6.06126 23.1055 5.78643 23.3864C5.49595 23.6832 5.17506 24.131 5.02002 24.4559C4.87342 24.7632 4.70634 25.2992 4.64895 25.647C4.56835 26.1352 4.56835 26.4233 4.64895 26.9115C4.70634 27.2593 4.86788 27.7837 5.00781 28.0769C5.14764 28.3701 5.4847 28.8558 5.75663 29.1563C6.11681 29.5543 6.42276 29.787 6.88286 30.0126C7.23038 30.183 7.72767 30.3619 7.988 30.4102C8.24842 30.4585 8.63408 30.498 8.84493 30.498H9.22849V26.3232V22.1484L8.59128 22.1543C8.24086 22.1575 7.79587 22.2103 7.60251 22.2718ZM35.7715 26.3125V30.498H36.155C36.3659 30.498 36.7515 30.4585 37.0119 30.4102C37.2723 30.3619 37.7696 30.183 38.1171 30.0126C38.5772 29.787 38.8831 29.5543 39.2433 29.1563C39.5152 28.8558 39.8523 28.3701 39.9921 28.0769C40.1321 27.7837 40.2936 27.2593 40.351 26.9115C40.4316 26.4233 40.4316 26.1352 40.351 25.647C40.2936 25.2992 40.1228 24.7554 39.9716 24.4385C39.8017 24.0824 39.5028 23.6684 39.1894 23.3549C38.8438 23.0094 38.465 22.7446 38.0012 22.5243C37.4148 22.2459 37.2124 22.1958 36.5458 22.1639L35.7715 22.1268V26.3125ZM22.4353 34.692C22.5689 34.7121 22.7666 34.7116 22.8747 34.6907C22.9828 34.6699 22.8735 34.6534 22.6318 34.654C22.3901 34.6547 22.3017 34.6717 22.4353 34.692ZM24.6326 34.692C24.7661 34.7121 24.9639 34.7116 25.072 34.6907C25.1801 34.6699 25.0708 34.6534 24.8291 34.654C24.5874 34.6547 24.499 34.6717 24.6326 34.692ZM21.9067 36.0078C21.9914 36.0299 22.1297 36.0299 22.2143 36.0078C22.299 35.9857 22.2297 35.9676 22.0605 35.9676C21.8913 35.9676 21.8221 35.9857 21.9067 36.0078ZM25.2466 36.0078C25.3311 36.0299 25.4696 36.0299 25.5542 36.0078C25.6387 35.9857 25.5696 35.9676 25.4004 35.9676C25.2312 35.9676 25.162 35.9857 25.2466 36.0078ZM23.5327 36.0971C23.6415 36.1181 23.8194 36.1181 23.9282 36.0971C24.037 36.0761 23.948 36.059 23.7304 36.059C23.5129 36.059 23.4239 36.0761 23.5327 36.0971Z" fill="#FDB0A0"/>
<path fill-rule="evenodd" clip-rule="evenodd" d="M28.437 1.04273C28.4829 1.08448 28.8267 1.32275 29.2011 1.57228C29.5753 1.8218 30.2279 2.31557 30.6513 2.6695C31.0745 3.02344 31.7581 3.66513 32.1701 4.09553C32.5821 4.52584 33.1415 5.15733 33.4132 5.49879C33.6849 5.84024 34.1829 6.53792 34.5198 7.04918C34.8567 7.56035 35.3704 8.4477 35.6611 9.02101C35.9519 9.5944 36.3689 10.5381 36.5878 11.1182C36.8067 11.6982 37.1273 12.7463 37.3003 13.4473C37.4732 14.1482 37.714 15.4731 37.8352 16.3916C37.9565 17.3101 38.1562 18.4768 38.2792 18.9844C38.4022 19.4919 38.6434 20.3423 38.8153 20.874C38.9872 21.4058 39.238 22.2596 39.3726 22.7714C39.5072 23.2833 39.7198 23.8568 39.845 24.046C39.9701 24.2351 40.1576 24.6271 40.2616 24.9171C40.404 25.3143 40.451 25.6502 40.4522 26.2793C40.4531 26.7385 40.4089 27.2256 40.3539 27.3617C40.298 27.5 40.2539 28.0866 40.2539 28.6918V29.7744L40.4956 29.8303C40.6285 29.8611 41.2317 29.9085 41.836 29.9356C42.4402 29.9628 43.1521 29.951 43.418 29.9096L43.9014 29.8342L43.8745 29.2653C43.8596 28.9523 43.7916 28.281 43.7232 27.7734C43.6549 27.2659 43.516 26.4551 43.4146 25.9717C43.3133 25.4883 43.1352 24.7347 43.0188 24.297C42.9025 23.8594 42.6477 23.0091 42.4526 22.4074C42.2576 21.8058 42.0029 20.8586 41.8868 20.3027C41.7706 19.7468 41.6303 18.9163 41.575 18.457C41.5197 17.9978 41.3958 17.1672 41.2996 16.6113C41.2033 16.0554 41.029 15.2405 40.9123 14.8003C40.7955 14.3603 40.6348 13.8066 40.5551 13.5699C40.4754 13.3333 40.2709 12.7837 40.1006 12.3486C39.9303 11.9136 39.5555 11.1045 39.2678 10.5506C38.98 9.99668 38.5646 9.26499 38.3445 8.92459C38.1244 8.58419 37.6783 7.94689 37.3531 7.50832C37.028 7.06983 36.3908 6.32268 35.9371 5.84807C35.4835 5.37346 34.7419 4.67578 34.289 4.29776C33.8362 3.91975 33.0752 3.35127 32.5979 3.03451C32.1205 2.71767 31.265 2.22469 30.6965 1.93896C30.1281 1.65313 29.3914 1.31757 29.0594 1.19312C28.7273 1.06866 28.4326 0.966797 28.4046 0.966797C28.3765 0.966797 28.3911 1.00099 28.437 1.04273ZM35.7107 12.3064C35.6048 12.3485 35.4514 12.4849 35.37 12.6091C35.2302 12.8225 35.2322 12.8854 35.4068 13.7345C35.5086 14.2291 35.6504 14.9897 35.7219 15.4248C35.7934 15.8599 35.9129 16.7498 35.9874 17.4023C36.0619 18.0549 36.1229 18.8373 36.123 19.1409C36.1231 19.5507 36.089 19.706 35.9912 19.7436C35.8892 19.7828 35.8594 19.9535 35.8594 20.4989V21.2036L36.1436 21.1467C36.2999 21.1155 36.5757 20.9921 36.7564 20.8725C36.9371 20.7529 37.1503 20.5286 37.2302 20.3742C37.3101 20.2197 37.4104 19.9724 37.453 19.8244C37.4992 19.6644 37.4935 19.0937 37.439 18.4131C37.3886 17.7847 37.268 16.697 37.1711 15.9961C37.0741 15.2952 36.8977 14.2483 36.7791 13.6698C36.6436 13.0092 36.5059 12.5631 36.4091 12.4705C36.3242 12.3894 36.1758 12.3021 36.0791 12.2763C35.9824 12.2506 35.8167 12.2641 35.7107 12.3064ZM8.62121 12.4585C8.47285 12.5803 8.38039 12.8867 8.17674 13.9307C8.03533 14.6558 7.8584 15.7236 7.78352 16.3037C7.70864 16.8838 7.60756 17.8483 7.55896 18.4472C7.49629 19.2182 7.49849 19.6414 7.56661 19.8974C7.61943 20.0961 7.76322 20.3916 7.88609 20.554C8.00896 20.7163 8.27228 20.9232 8.47127 21.0135C8.67025 21.1039 8.90219 21.1787 8.98683 21.1797C9.11963 21.1814 9.14064 21.0929 9.14064 20.5332C9.14064 20.0641 9.10417 19.8546 9.0088 19.7754C8.92021 19.7018 8.87697 19.5038 8.87697 19.1712C8.87697 18.8991 8.95422 18.0042 9.04871 17.1825C9.14319 16.3608 9.32635 15.1348 9.45582 14.458C9.58519 13.7812 9.70877 13.128 9.73039 13.0065C9.75535 12.8662 9.70068 12.6976 9.58062 12.5451C9.44254 12.3695 9.31299 12.3047 9.10004 12.3047C8.93972 12.3047 8.72421 12.3739 8.62121 12.4585ZM14.8739 18.5208C14.6238 18.5517 14.5528 18.6235 14.3244 19.0758C14.1562 19.409 13.9693 19.6434 13.8031 19.7292C13.6346 19.8163 13.2994 19.8633 12.8452 19.8633H12.1466L11.7186 20.3316C11.4833 20.5891 11.1628 21.0395 11.0066 21.3326C10.8505 21.6257 10.7227 21.9686 10.7227 22.0948C10.7227 22.2209 10.8018 22.4033 10.8985 22.5C10.9951 22.5967 11.1699 22.6758 11.2868 22.6758C11.4036 22.6758 11.5618 22.6518 11.6381 22.6225C11.7145 22.5932 11.8962 22.346 12.0418 22.0732C12.1875 21.8004 12.464 21.3935 12.6562 21.1689C12.8484 20.9444 13.2295 20.6122 13.503 20.4306C13.7765 20.2491 14.2417 20.0238 14.5368 19.93C14.9855 19.7874 15.2386 19.767 16.084 19.8057C16.6399 19.8311 17.332 19.9169 17.6221 19.9964C17.9121 20.076 18.4026 20.2649 18.712 20.4162C19.0214 20.5676 19.4818 20.8809 19.7351 21.1124C20.066 21.4147 20.2682 21.5332 20.4536 21.5332C20.6096 21.5332 20.7871 21.4528 20.9027 21.3298C21.0078 21.2179 21.0938 21.0187 21.0938 20.887C21.0938 20.7183 20.9749 20.5321 20.6902 20.2555L20.2866 19.8633H18.9281C17.9061 19.8633 17.5077 19.8314 17.3202 19.7343C17.1782 19.661 16.9479 19.3866 16.7853 19.0971C16.6282 18.8176 16.4556 18.5598 16.4017 18.5243C16.3478 18.4888 16.0466 18.4655 15.7324 18.4724C15.4182 18.4794 15.0319 18.5012 14.8739 18.5208ZM24.2902 20.2472C23.9841 20.5533 23.9063 20.6931 23.9063 20.9367C23.9063 21.1212 23.97 21.2999 24.067 21.3877C24.1554 21.4677 24.3527 21.5332 24.5055 21.5332C24.7164 21.5332 24.9029 21.4249 25.2801 21.0833C25.5533 20.8359 26.0185 20.5208 26.3138 20.3832C26.609 20.2455 27.0681 20.0748 27.334 20.0039C27.81 19.8768 27.7934 19.8748 26.2457 19.8691L24.6742 19.8633L24.2902 20.2472ZM31.0054 20.1728C31.4386 20.3896 31.7847 20.654 32.1594 21.0546C32.4538 21.3694 32.7786 21.7936 32.881 21.9975C32.9835 22.2013 33.1282 22.4373 33.2025 22.522C33.278 22.6077 33.4612 22.6758 33.6165 22.6758C33.7988 22.6758 33.9653 22.6011 34.098 22.4598C34.257 22.2906 34.2889 22.1839 34.2453 21.9662C34.2148 21.8135 34.053 21.4633 33.8857 21.1881C33.7185 20.9127 33.4184 20.5021 33.2189 20.2754L32.8562 19.8633H31.6214H30.3865L31.0054 20.1728ZM17.3997 24.9829C17.1844 25.0917 16.919 25.3151 16.8098 25.4793C16.6619 25.7019 16.6113 25.9056 16.6113 26.2793C16.6113 26.653 16.6619 26.8566 16.8098 27.0793C16.919 27.2435 17.1844 27.4669 17.3997 27.5757C17.6151 27.6845 17.915 27.7734 18.0664 27.7734C18.2177 27.7734 18.5158 27.6815 18.7289 27.5691C18.9703 27.4417 19.1901 27.2348 19.3126 27.0198C19.4355 26.8037 19.5088 26.5271 19.5088 26.2793C19.5088 26.0315 19.4355 25.7549 19.3126 25.5388C19.1901 25.3238 18.9703 25.1169 18.7289 24.9895C18.5158 24.8771 18.2177 24.7852 18.0664 24.7852C17.915 24.7852 17.6151 24.8741 17.3997 24.9829ZM29.3925 24.9518C29.1953 25.0414 28.9483 25.2236 28.8435 25.3569C28.7387 25.4901 28.6118 25.7521 28.5614 25.9392C28.4978 26.1751 28.4978 26.3835 28.5614 26.6193C28.6118 26.8065 28.7387 27.0685 28.8435 27.2017C28.9483 27.335 29.1953 27.5172 29.3925 27.6068C29.5897 27.6963 29.867 27.7704 30.0089 27.7715C30.1507 27.7726 30.438 27.6906 30.6473 27.5892C30.901 27.4663 31.1007 27.2807 31.2464 27.0322C31.3909 26.7855 31.4643 26.5281 31.4635 26.2716C31.4625 26.0341 31.3858 25.7501 31.2657 25.5388C31.1433 25.3238 30.9235 25.1169 30.682 24.9895C30.469 24.8771 30.1723 24.786 30.0228 24.7871C29.8733 24.7881 29.5897 24.8623 29.3925 24.9518Z" fill="#2D2B2D"/>
<path fill-rule="evenodd" clip-rule="evenodd" d="M20.3027 0.0955501C19.9885 0.135804 19.3162 0.253402 18.8086 0.356849C18.301 0.460384 17.4049 0.702083 16.8172 0.894036C16.2295 1.08599 15.2011 1.51173 14.532 1.84027C13.8629 2.16871 12.9428 2.68384 12.4874 2.98487C12.032 3.28589 11.3794 3.75505 11.0372 4.0276C10.695 4.30006 10.0836 4.84015 9.67844 5.22784C9.27335 5.61543 8.627 6.30836 8.24213 6.76759C7.85726 7.22682 7.2741 8.00263 6.94627 8.49165C6.61844 8.98059 6.16765 9.71571 5.9444 10.1251C5.72125 10.5345 5.36125 11.2752 5.14434 11.7711C4.92751 12.2669 4.59247 13.157 4.3999 13.749C4.20725 14.341 3.95104 15.3163 3.83046 15.9161C3.70978 16.5161 3.54851 17.521 3.47195 18.1494C3.39531 18.7778 3.25091 19.6875 3.15106 20.1709C3.05113 20.6543 2.73622 21.8013 2.45119 22.7197C2.16616 23.6382 1.83569 24.8247 1.71669 25.3565C1.59769 25.8882 1.44027 26.6792 1.36688 27.1143C1.2935 27.5493 1.19365 28.3374 1.14487 28.8655C1.09609 29.3936 1.07122 29.8407 1.0895 29.8591C1.10787 29.8774 1.48114 29.921 1.91901 29.956C2.35688 29.991 3.09851 29.9915 3.56714 29.9573C4.03568 29.9231 4.72009 29.8302 5.088 29.751C5.45582 29.6718 5.82522 29.5875 5.90881 29.5638C6.03467 29.528 5.99977 29.4573 5.70578 29.1524C5.51049 28.9499 5.23601 28.5842 5.09573 28.3399C4.95546 28.0955 4.77985 27.662 4.7055 27.3766C4.63114 27.0912 4.57032 26.5735 4.57032 26.2261C4.57032 25.8467 4.63923 25.3718 4.74294 25.0361C4.83786 24.7289 5.03491 24.2896 5.18063 24.0597C5.32645 23.83 5.64821 23.4488 5.89571 23.2128C6.14321 22.9767 6.55612 22.6805 6.81338 22.5546C7.07055 22.4286 7.51 22.266 7.78984 22.1931C8.06969 22.1202 8.50791 22.0606 8.76358 22.0606H9.22853V20.9619V19.8633H10.652H12.0755L11.7727 20.1929L11.47 20.5225L11.8251 20.1929C12.1737 19.8694 12.1934 19.8633 12.8797 19.8629C13.4085 19.8627 13.645 19.8224 13.8494 19.6978C14.0572 19.5711 14.2238 19.3023 14.5705 18.5336C14.8185 17.9839 15.1152 17.3211 15.2297 17.0606L15.4378 16.5871L15.6622 16.9727C15.7856 17.1848 16.0107 17.6056 16.1623 17.9077C16.314 18.2099 16.4079 18.4577 16.3709 18.4584C16.334 18.4592 16.3478 18.4888 16.4017 18.5243C16.4556 18.5598 16.6282 18.8177 16.7853 19.0972C16.9479 19.3866 17.1782 19.6611 17.3202 19.7344C17.5071 19.8311 17.9035 19.8633 18.9072 19.8633C20.0537 19.8633 20.2708 19.8853 20.4261 20.0171C20.5967 20.1619 20.6004 20.162 20.4889 20.0179C20.3766 19.8728 20.6922 19.8651 26.5973 19.868L32.8243 19.8712L33.0448 20.065L33.2654 20.2588L33.0986 20.061L32.9317 19.8633H34.3516H35.7715V20.9619V22.0606H36.2364C36.4921 22.0606 36.9371 22.1211 37.2252 22.1952C37.5133 22.2692 37.9612 22.4362 38.2206 22.5663C38.48 22.6963 38.9013 23.0085 39.1568 23.2599L39.6214 23.7171L39.3746 22.779C39.2389 22.263 38.9872 21.4058 38.8153 20.874C38.6434 20.3423 38.4021 19.492 38.2792 18.9844C38.1562 18.4768 37.9565 17.3101 37.8352 16.3916C37.714 15.4732 37.4732 14.1482 37.3003 13.4473C37.1273 12.7464 36.8067 11.6983 36.5878 11.1182C36.3689 10.5381 35.9519 9.59442 35.6611 9.02102C35.3704 8.44771 34.8567 7.56037 34.5198 7.04919C34.1829 6.53793 33.6851 5.84026 33.4136 5.4988C33.1421 5.15735 32.5629 4.50757 32.1265 4.05485C31.6901 3.60212 31.0364 2.98416 30.6738 2.68156C30.3113 2.37904 29.609 1.85125 29.1133 1.50874C28.4801 1.07131 28.0318 0.832425 27.6062 0.705687C27.273 0.606458 26.6305 0.448607 26.1784 0.354827C25.7263 0.261136 25.0213 0.142923 24.6117 0.0922103C24.2021 0.0414974 23.1936 0.00502275 22.3705 0.0111751C21.5475 0.0173274 20.617 0.0552962 20.3027 0.0955501ZM35.7107 12.3064C35.6048 12.3486 35.4514 12.4849 35.37 12.6092C35.2302 12.8226 35.2322 12.8854 35.4068 13.7345C35.5086 14.2291 35.6504 14.9898 35.7219 15.4248C35.7934 15.8599 35.9129 16.7498 35.9874 17.4024C36.0619 18.0549 36.1229 18.8373 36.123 19.1409C36.1231 19.5507 36.089 19.7061 35.9912 19.7436C35.8892 19.7828 35.8594 19.9536 35.8594 20.4989V21.2036L36.1436 21.1468C36.2999 21.1156 36.5757 20.9921 36.7564 20.8725C36.9371 20.7529 37.1503 20.5286 37.2302 20.3742C37.3101 20.2197 37.4104 19.9724 37.453 19.8244C37.4992 19.6644 37.4935 19.0937 37.439 18.4131C37.3886 17.7847 37.268 16.697 37.1711 15.9961C37.0741 15.2952 36.8977 14.2483 36.7791 13.6698C36.6435 13.0092 36.5059 12.5631 36.4091 12.4705C36.3242 12.3894 36.1758 12.3021 36.0791 12.2763C35.9824 12.2506 35.8167 12.2641 35.7107 12.3064ZM8.6212 12.4585C8.47284 12.5803 8.38038 12.8867 8.17674 13.9307C8.03532 14.6558 7.8584 15.7236 7.78352 16.3037C7.70863 16.8838 7.60756 17.8483 7.55895 18.4472C7.49629 19.2182 7.49849 19.6415 7.5666 19.8974C7.61942 20.0961 7.76321 20.3916 7.88608 20.554C8.00896 20.7164 8.27228 20.9232 8.47126 21.0135C8.67024 21.1039 8.90219 21.1787 8.98683 21.1797C9.11963 21.1814 9.14063 21.0929 9.14063 20.5332C9.14063 20.0641 9.10416 19.8546 9.0088 19.7754C8.92021 19.7018 8.87696 19.5038 8.87696 19.1712C8.87696 18.8991 8.95422 18.0042 9.0487 17.1825C9.14318 16.3608 9.32635 15.1348 9.45581 14.458C9.58519 13.7813 9.70876 13.1281 9.73038 13.0065C9.75534 12.8662 9.70067 12.6977 9.58062 12.5451C9.44254 12.3695 9.31299 12.3047 9.10003 12.3047C8.93972 12.3047 8.72421 12.3739 8.6212 12.4585ZM12.8273 20.9839L12.5244 21.3135L12.854 21.0106C13.0353 20.844 13.1836 20.6957 13.1836 20.681C13.1836 20.6664 13.1716 20.6543 13.1569 20.6543C13.1422 20.6543 12.9939 20.8027 12.8273 20.9839ZM19.7315 21.1817C19.9202 21.375 20.0945 21.5332 20.1187 21.5332C20.1429 21.5332 20.0081 21.375 19.8193 21.1817C19.6306 20.9883 19.4563 20.8301 19.4321 20.8301C19.4079 20.8301 19.5427 20.9883 19.7315 21.1817ZM16.5474 26.2793C16.5474 26.4968 16.5645 26.5859 16.5855 26.4771C16.6064 26.3683 16.6064 26.1904 16.5855 26.0816C16.5645 25.9727 16.5474 26.0618 16.5474 26.2793ZM40.4536 26.2793C40.4536 26.4968 40.4707 26.5859 40.4917 26.4771C40.5127 26.3683 40.5127 26.1904 40.4917 26.0816C40.4707 25.9727 40.4536 26.0618 40.4536 26.2793ZM39.9609 28.2222C39.8239 28.4932 39.5393 28.8948 39.3285 29.1147L38.9453 29.5147L39.5598 29.6653C39.8978 29.7482 40.1935 29.7967 40.217 29.7732C40.2405 29.7498 40.2485 29.2803 40.2348 28.7301L40.21 27.7295L39.9609 28.2222Z" fill="#433F43"/>
</svg>
