<svg xmlns="http://www.w3.org/2000/svg" width="512" height="512" viewBox="0 0 512 512" version="1.1"><path d="M 90 72.212 C 72.577 78.345, 60.212 90.962, 55.454 107.463 C 53.144 115.474, 53.961 130.090, 57.442 143 C 58.851 148.225, 67.724 175.963, 77.160 204.640 L 94.317 256.779 77.684 306.656 C 68.537 334.088, 59.675 361.700, 57.991 368.016 C 50.716 395.303, 53.774 411.011, 69.391 426.592 C 83.265 440.434, 98.391 444.667, 117.500 440.056 C 132.007 436.555, 127.540 438.489, 288.110 366.203 C 407.104 312.634, 422.537 305.424, 432.062 298.957 C 444.547 290.480, 451.578 280.305, 454.489 266.500 C 456.339 257.727, 456.339 254.273, 454.489 245.500 C 450.526 226.707, 440.935 216.506, 415 203.499 C 404.156 198.060, 164.635 89.979, 143.779 81.114 C 125.584 73.379, 116.390 70.752, 106 70.319 C 97.995 69.986, 95.477 70.284, 90 72.212 M 99.867 115.979 C 97.131 118.715, 96.897 119.429, 97.522 123.133 C 98.830 130.872, 102.511 142.900, 117.500 188.405 L 132.500 233.945 189.568 233.973 C 252.728 234.003, 253.621 234.082, 259.935 240.225 C 269.216 249.253, 269.216 262.747, 259.935 271.775 C 253.620 277.919, 252.707 278, 189.892 278 L 133.148 278 116.631 327.750 C 107.547 355.113, 99.423 380.875, 98.578 385 C 97.131 392.068, 97.147 392.644, 98.870 395 C 102.491 399.953, 109.291 398.572, 133.437 387.984 C 169.376 372.225, 378.467 277.870, 391.500 271.530 C 410.249 262.410, 412 261.083, 412 256 C 412 251.267, 410.550 250.008, 397.201 243.155 C 388.013 238.437, 147.157 129.753, 127 121.228 C 117.442 117.186, 110.875 114.835, 105.704 113.604 C 103.430 113.063, 102.340 113.507, 99.867 115.979" stroke="none" fill="#000000" fill-rule="evenodd"/></svg>