<svg width="45" height="45" viewBox="0 0 45 45" fill="none" xmlns="http://www.w3.org/2000/svg">
<path fill-rule="evenodd" clip-rule="evenodd" d="M4.87791 7.63517C4.37351 7.86553 3.97123 8.31808 3.82103 8.82398C3.62582 9.48132 3.62582 35.5187 3.82103 36.1761C4.15281 37.2932 5.3969 37.83 6.45994 37.3145C6.70164 37.1973 9.14245 35.6651 11.8839 33.9095C14.6255 32.1541 19.2393 29.2045 22.137 27.3549C25.1288 25.4452 27.5209 23.8607 27.6725 23.688C28.2624 23.0161 28.2624 21.9839 27.6725 21.3121C27.5209 21.1394 25.1288 19.5548 22.137 17.6451C19.2393 15.7956 14.6255 12.8459 11.8839 11.0905C9.14245 9.33498 6.70164 7.80278 6.45994 7.68553C5.93066 7.42889 5.36869 7.41096 4.87791 7.63517Z" fill="#14A4FC"/>
<path fill-rule="evenodd" clip-rule="evenodd" d="M17.9736 7.63736C17.7803 7.72683 17.5154 7.91386 17.385 8.05291C16.8963 8.5741 16.875 8.72342 16.875 11.6328V14.3064L22.1403 17.6572C25.1497 19.5724 27.5199 21.1382 27.6725 21.3121C28.2624 21.9839 28.2624 23.0161 27.6725 23.6879C27.5199 23.8618 25.1497 25.4277 22.1403 27.3429L16.875 30.6936L16.8769 33.3864C16.8787 35.8008 16.8954 36.1155 17.0389 36.4315C17.456 37.3494 18.5694 37.7737 19.4781 37.3611C19.6773 37.2707 24.5111 34.2241 30.2201 30.591C37.2185 26.1372 40.685 23.8821 40.8609 23.6688C41.4056 23.0078 41.4056 21.9922 40.8609 21.3312C40.685 21.1179 37.2185 18.8628 30.2201 14.4091C24.5111 10.7759 19.6773 7.72938 19.4781 7.63894C19.0176 7.42976 18.4233 7.42915 17.9736 7.63736Z" fill="#CBEBFC"/>
</svg>
