<svg width="30" height="30" viewBox="0 0 30 30" fill="none" xmlns="http://www.w3.org/2000/svg">
<path fill-rule="evenodd" clip-rule="evenodd" d="M15.9982 6.10846C15.5872 6.31922 15.5273 6.49418 15.5273 7.48447V8.32037H15.2637H15V9.19928V10.0782H15.2637H15.5273V11.9784V13.8786L15.3373 13.8241C14.9832 13.7225 14.9956 13.6893 15.0132 14.6906L15.0293 15.6117L15.2637 15.6773L15.498 15.743L15.5135 17.7446L15.5289 19.7462H15.2644H15V20.6544V21.5626H15.2637H15.5273L15.5276 22.4561C15.5278 23.2444 15.5415 23.3722 15.6442 23.5406C15.9893 24.1066 16.8232 24.1066 17.1683 23.5406C17.271 23.3722 17.2847 23.2444 17.2849 22.4561L17.2852 21.5626L17.5928 21.5616C18.484 21.5586 19.3737 21.1866 20.0086 20.5513C20.6716 19.888 20.9627 19.2154 21.0175 18.2203C21.0803 17.0776 20.8146 16.258 20.17 15.6063C19.7092 15.1404 19.3506 14.9607 18.252 14.6452L17.3145 14.376L17.2991 12.2224L17.2837 10.0687L17.6776 10.1109C18.1683 10.1634 18.3945 10.2564 18.697 10.5296C19.0268 10.8276 19.1613 11.1235 19.2167 11.6733C19.2665 12.1674 19.3508 12.3404 19.6515 12.5648C19.8756 12.7322 20.3783 12.7322 20.6024 12.5648C21.0209 12.2524 21.12 11.8149 20.9534 11.0157C20.63 9.46459 19.2495 8.32037 17.7015 8.32037H17.2852V7.46303C17.2852 6.68748 17.2731 6.58623 17.1589 6.40143C17.0254 6.18527 16.6597 5.98014 16.404 5.97791C16.3222 5.97721 16.1396 6.03598 15.9982 6.10846ZM17.2852 18.0004V19.7619L17.6807 19.7335C18.31 19.6883 18.7871 19.3923 19.0435 18.888C19.1571 18.6645 19.1927 18.4917 19.2096 18.0807C19.2215 17.7918 19.2015 17.4586 19.1648 17.3363C19.0467 16.942 18.6786 16.6168 18.2227 16.5038C18.1421 16.4839 17.8982 16.4161 17.6807 16.3532L17.2852 16.2388V18.0004Z" fill="#00CC66"/>
<path fill-rule="evenodd" clip-rule="evenodd" d="M15 2.04199C15 2.84813 15.0094 2.92969 15.1025 2.93016C15.1589 2.93045 15.5715 2.95705 16.0194 2.98939C20.0303 3.27855 23.5547 5.44354 25.5976 8.87291C25.9185 9.41168 26.5163 10.6555 26.4724 10.693C26.4629 10.7011 26.1914 10.5934 25.8691 10.4536C25.5469 10.3138 25.1909 10.1986 25.0781 10.1975C24.7987 10.1947 24.4923 10.3598 24.3322 10.5994C24.0921 10.9588 24.1952 11.5874 24.5302 11.8069C24.61 11.8592 25.3526 12.1927 26.1804 12.5479C28.4508 13.5223 28.3499 13.5642 29.3508 11.2311C30.028 9.65279 30.0889 9.42293 29.9177 9.09369C29.7213 8.71623 29.3376 8.5377 28.9114 8.62547C28.6086 8.68787 28.3604 8.94639 28.1838 9.38314L28.0502 9.71361L27.6248 8.8558C26.5076 6.60299 24.8735 4.76004 22.7813 3.39352C22.0656 2.92605 20.5189 2.1702 19.7461 1.91027C18.4341 1.46895 17.2017 1.23639 15.9229 1.18869L15 1.1543V2.04199ZM27.6713 15.7409C27.3772 15.8858 27.2455 16.1614 27.1211 16.8926C26.4533 20.8171 24.0604 24.05 20.543 25.78C18.9897 26.5439 17.0637 27.0117 15.471 27.0117H15V27.9289V28.8461L15.7764 28.811C19.2534 28.6539 22.3859 27.3073 24.8627 24.9052C26.949 22.8817 28.2846 20.4117 28.836 17.5568C29.0051 16.6812 29.0092 16.2857 28.8514 16.0727C28.5518 15.6684 28.0847 15.537 27.6713 15.7409Z" fill="#0059B2"/>
<path fill-rule="evenodd" clip-rule="evenodd" d="M13.4473 1.26352C10.9486 1.60289 8.50752 2.6349 6.59179 4.16168C4.68275 5.68324 3.03627 7.95334 2.22802 10.1783C1.97923 10.8632 1.64062 12.1037 1.64062 12.3302C1.64062 12.7887 2.05265 13.1836 2.53113 13.1836C3.09744 13.1836 3.31722 12.9547 3.51586 12.1582C4.59205 7.8423 7.89931 4.47855 12.1582 3.36809C13.0465 3.13646 13.9925 2.98828 14.5827 2.98828H15V2.08008V1.17188L14.5166 1.17791C14.2508 1.18125 13.7695 1.21975 13.4473 1.26352ZM1.94232 15.7439C1.70062 15.863 1.65322 15.9361 0.733707 17.6074C0.00210504 18.9373 -0.00738719 18.9594 0.013648 19.28C0.0481597 19.8047 0.374234 20.1202 0.88189 20.1202C1.26123 20.1202 1.51412 19.945 1.75634 19.5143C1.86621 19.319 1.97244 19.1792 1.99242 19.2036C2.0124 19.2281 2.11541 19.4854 2.22134 19.7754C3.03878 22.0136 4.61121 24.2157 6.46429 25.7174C8.17681 27.1051 10.4023 28.1457 12.5391 28.5578C13.311 28.7067 14.3137 28.8281 14.7718 28.8281H15V27.9283V27.0285L14.3994 26.9872C9.59894 26.6573 5.42115 23.4703 3.84369 18.9347C3.72767 18.6013 3.63281 18.3175 3.63281 18.304C3.63281 18.2905 3.91007 18.4249 4.24898 18.6026C4.89351 18.9407 5.08628 18.981 5.4099 18.8459C5.9823 18.6067 6.14115 17.8075 5.69918 17.3903C5.61005 17.3061 4.87921 16.8789 4.07519 16.4409C2.4975 15.5815 2.36197 15.5372 1.94232 15.7439Z" fill="#045CB4"/>
<path fill-rule="evenodd" clip-rule="evenodd" d="M13.1665 6.09903C12.7687 6.30891 12.7153 6.46946 12.7151 7.45606L12.7148 8.32032H12.2877C10.7453 8.32032 9.37575 9.44913 9.05296 10.9863C8.94971 11.4783 8.94397 11.7581 9.02788 12.2207C9.18772 13.1026 9.83155 13.9459 10.6327 14.3227C10.8594 14.4293 11.4206 14.6182 11.8799 14.7424L12.7148 14.9682V17.365V19.7619L12.3091 19.7328C11.7791 19.6949 11.3552 19.467 11.0904 19.0777C10.8554 18.7321 10.7822 18.4751 10.7806 17.9883C10.7784 17.3449 10.428 16.9336 9.88194 16.9336C9.31364 16.9336 8.96407 17.3711 8.96583 18.08C8.97051 19.9498 10.3341 21.411 12.1976 21.5433L12.7072 21.5795L12.7257 22.537L12.7441 23.4945L12.9542 23.7043C13.4035 24.1533 14.0976 24.047 14.3903 23.4844C14.4504 23.369 14.4726 23.0875 14.4726 22.4443V21.5625H14.7363H15V20.6543V19.7461H14.7363H14.4726V17.6035C14.4726 15.5903 14.4789 15.4627 14.5752 15.4913C14.6316 15.5081 14.7503 15.5391 14.8389 15.5602L15 15.5987V14.6617V13.7248L14.7363 13.6584L14.4726 13.5921V11.8644V10.1367H14.7363H15V9.22852V8.32032H14.7363H14.4726L14.4724 7.45606C14.4722 6.46296 14.4184 6.30522 14.0085 6.0961C13.716 5.94686 13.4531 5.94774 13.1665 6.09903ZM11.6894 10.2746C10.6996 10.7365 10.4758 12.0917 11.3011 12.6259C11.4681 12.734 12.5078 13.0664 12.6788 13.0664C12.6986 13.0664 12.7148 12.4072 12.7148 11.6016V10.1367L12.3486 10.1373C12.0886 10.1377 11.8974 10.1776 11.6894 10.2746Z" fill="#04E373"/>
</svg>
