<svg width="30" height="30" viewBox="0 0 30 30" fill="none" xmlns="http://www.w3.org/2000/svg">
<g id="trace (19) 1">
<path id="Vector" fill-rule="evenodd" clip-rule="evenodd" d="M7.5 3.04623V3.74871L15.1715 3.764C22.8164 3.77924 22.8435 3.77971 23.0048 3.90012C23.0938 3.96656 23.2209 4.09371 23.2874 4.18271C23.4082 4.34449 23.4082 4.34514 23.4233 14.5941L23.4385 24.8438H24.1411H24.8438V13.5938V2.34375H16.1719H7.5V3.04623ZM16.7285 6.61816C15.5113 6.88113 14.6109 7.69664 14.2024 8.90625C14.0508 9.35508 14.0512 10.3349 14.2033 10.7812C14.568 11.8519 15.3038 12.6051 16.3286 12.9568C16.8523 13.1365 17.791 13.1504 18.2812 12.9857C19.3261 12.6345 20.1111 11.8651 20.4594 10.851C20.6368 10.3345 20.6493 9.39223 20.4851 8.90625C20.014 7.51119 18.8975 6.64746 17.4902 6.58934C17.2002 6.57732 16.8574 6.59033 16.7285 6.61816ZM17.9487 9.50402L16.8765 10.5705L16.269 9.97277C15.8879 9.59777 15.6157 9.375 15.5386 9.375C15.2111 9.375 14.9464 9.68109 15.0202 9.97465C15.0386 10.0479 15.4194 10.4703 15.8664 10.9133C16.5875 11.6278 16.7016 11.7188 16.8766 11.7188C17.0554 11.7188 17.1938 11.5994 18.3473 10.4503C19.0777 9.72258 19.6363 9.11918 19.6574 9.03498C19.7336 8.73135 19.4823 8.4375 19.1463 8.4375C19.062 8.4375 18.6697 8.78684 17.9487 9.50402ZM15.3636 16.0485C15.0036 16.1728 14.6971 16.4037 14.4302 16.7513C14.1144 17.1628 14.0625 17.4503 14.0625 18.7918C14.0625 20.1166 14.0781 20.1917 14.4438 20.625C14.5662 20.77 14.7349 21.0337 14.8185 21.2109C14.9642 21.5194 14.9715 21.5841 14.9897 22.7197L15.0086 23.9062H15.9375H16.8664L16.8853 22.7197C16.9035 21.5832 16.9107 21.5196 17.0568 21.2109C17.1407 21.0337 17.3193 20.7568 17.4539 20.5957C17.5884 20.4346 17.7264 20.2101 17.7606 20.0968C17.7991 19.9693 17.8153 19.4012 17.8029 18.6027L17.7832 17.3145L17.5735 16.9336C17.1204 16.1107 16.2236 15.7515 15.3636 16.0485ZM12.6562 27.1875V27.6562H15.9375H19.2188V27.1875V26.7188H15.9375H12.6562V27.1875Z" fill="#63E3E3"/>
<path id="Vector_2" fill-rule="evenodd" clip-rule="evenodd" d="M7.04403 1.50341C6.93827 1.55568 6.79325 1.68048 6.72176 1.78068C6.6037 1.9462 6.5901 2.04435 6.57311 2.85241L6.55436 3.74187L5.66491 3.76062C4.85532 3.77761 4.75893 3.79103 4.59217 3.90997C4.18629 4.19954 4.21623 3.18991 4.23299 16.0059C4.24793 27.465 4.24911 27.5698 4.36524 27.7255C4.42969 27.812 4.57829 27.9372 4.69547 28.0038C4.90418 28.1226 4.97871 28.125 8.35125 28.125H11.7939L11.9644 28.3034C12.0582 28.4015 12.2012 28.5069 12.2822 28.5377C12.3699 28.5711 13.8509 28.5938 15.9442 28.5938C19.7678 28.5938 19.666 28.6021 19.9512 28.2658C20.0675 28.1286 20.0784 28.1275 21.4746 28.1117C22.8576 28.096 22.884 28.0934 23.0691 27.9545C23.3871 27.7159 23.4375 27.532 23.4375 26.6115V25.7895L24.3311 25.7707C25.1448 25.7537 25.241 25.7403 25.4078 25.6213C25.8121 25.3329 25.7813 26.3267 25.7813 13.5938C25.7813 0.860872 25.8121 1.85462 25.4078 1.56622L25.2246 1.43556L16.2305 1.42197C8.03426 1.40954 7.21928 1.41675 7.04403 1.50341ZM7.5 3.04624V3.74872L15.1715 3.76402C22.8164 3.77925 22.8435 3.77972 23.0048 3.90013C23.0938 3.96657 23.2209 4.09372 23.2874 4.18273C23.4082 4.3445 23.4082 4.34515 23.4233 14.5941L23.4385 24.8438H24.1411H24.8438V13.5938V2.34376H16.1719H7.5V3.04624ZM5.15625 15.9375V27.1875H8.4375H11.7188V26.9531V26.7188H11.3774C11.0905 26.7188 11.0145 26.6957 10.9006 26.5746C10.7787 26.4448 10.7681 26.3899 10.7943 26.0238C10.8522 25.2147 11.3688 24.4761 12.1287 24.1163C12.4844 23.9477 12.5618 23.9344 13.2916 23.9151L14.0735 23.8945L14.0521 22.8311C14.0286 21.6657 14.0051 21.5728 13.6262 21.1498C13.5239 21.0356 13.3758 20.8115 13.2972 20.6518C13.1598 20.3725 13.1535 20.3071 13.1347 18.9551C13.1215 18.0118 13.1381 17.4427 13.1851 17.2266C13.3927 16.272 14.149 15.4434 15.1073 15.1205C15.5284 14.9787 16.2242 14.9605 16.6699 15.0798C17.3823 15.2703 18.11 15.8379 18.4157 16.4412C18.7312 17.0637 18.7589 17.2729 18.739 18.8801C18.7185 20.5348 18.6935 20.654 18.2665 21.1302C17.868 21.5748 17.8465 21.657 17.8229 22.8311L17.8015 23.8945L18.5834 23.9151C19.3132 23.9344 19.3906 23.9477 19.7463 24.1163C20.5062 24.4761 21.0229 25.2147 21.0807 26.0238C21.1069 26.3899 21.0963 26.4448 20.9744 26.5746C20.8606 26.6957 20.7845 26.7188 20.4976 26.7188H20.1563V26.9531V27.1875H21.3281H22.5V15.9375V4.68751H13.8281H5.15625V15.9375ZM16.4941 5.6849C15.6259 5.85915 14.666 6.43695 14.0943 7.12935C13.0304 8.41812 12.8194 10.2793 13.571 11.7481C14.1045 12.7908 14.8938 13.4718 16.0254 13.8654C16.4496 14.0129 16.5721 14.0287 17.3145 14.0308C17.9445 14.0327 18.214 14.0087 18.4765 13.9276C19.3828 13.6477 20.0893 13.1833 20.6151 12.5219C20.9719 12.0731 21.1485 11.7585 21.3618 11.1914C21.5154 10.7828 21.5272 10.6901 21.5301 9.87306C21.5329 9.09874 21.5167 8.94534 21.3947 8.584C20.7799 6.76349 19.2006 5.61212 17.3449 5.63146C17.0059 5.63497 16.6231 5.659 16.4941 5.6849ZM6.68989 6.6981C6.51534 6.88396 6.5192 7.20452 6.69809 7.37263C6.83344 7.49972 6.84 7.50001 9.61758 7.50001H12.4014L12.5289 7.36443C12.7034 7.17857 12.6996 6.858 12.5207 6.6899C12.3853 6.56281 12.3788 6.56251 9.60118 6.56251H6.81733L6.68989 6.6981ZM16.7285 6.61818C15.5113 6.88115 14.6109 7.69665 14.2024 8.90626C14.0508 9.35509 14.0513 10.335 14.2033 10.7813C14.568 11.8519 15.3038 12.6051 16.3286 12.9568C16.8523 13.1366 17.791 13.1504 18.2813 12.9857C19.3261 12.6345 20.1111 11.8651 20.4594 10.851C20.6368 10.3345 20.6493 9.39224 20.4851 8.90626C20.014 7.5112 18.8975 6.64747 17.4902 6.58935C17.2002 6.57734 16.8574 6.59034 16.7285 6.61818ZM17.9487 9.50404L16.8765 10.5706L16.269 9.97279C15.8879 9.59779 15.6157 9.37501 15.5386 9.37501C15.2111 9.37501 14.9464 9.68111 15.0202 9.97466C15.0386 10.048 15.4194 10.4703 15.8664 10.9133C16.5875 11.6278 16.7016 11.7188 16.8766 11.7188C17.0554 11.7188 17.1938 11.5994 18.3473 10.4503C19.0777 9.72259 19.6363 9.11919 19.6574 9.03499C19.7336 8.73136 19.4823 8.43751 19.1463 8.43751C19.062 8.43751 18.6697 8.78685 17.9487 9.50404ZM6.68989 9.04185C6.51534 9.22771 6.5192 9.54827 6.69809 9.71638C6.83309 9.84312 6.84621 9.84376 9.38321 9.84376H11.9327L12.0601 9.70818C12.2347 9.52232 12.2308 9.20175 12.0519 9.03365C11.9169 8.90691 11.9038 8.90626 9.3668 8.90626H6.81733L6.68989 9.04185ZM6.68989 11.3856C6.51534 11.5715 6.5192 11.892 6.69809 12.0601C6.82776 12.1819 6.88383 12.1875 7.97696 12.1875C9.09621 12.1875 9.12288 12.1846 9.24762 12.0519C9.42217 11.8661 9.4183 11.5455 9.23942 11.3774C9.10975 11.2556 9.05368 11.25 7.96055 11.25C6.84129 11.25 6.81463 11.2529 6.68989 11.3856ZM6.68989 13.7293C6.51534 13.9152 6.5192 14.2358 6.69809 14.4039L6.83373 14.5313H10.0863H13.3389L13.4664 14.3957C13.6409 14.2098 13.6371 13.8893 13.4582 13.7211L13.3225 13.5938H10.0699H6.81733L6.68989 13.7293ZM6.68989 16.0731C6.51534 16.259 6.5192 16.5795 6.69809 16.7476C6.83309 16.8744 6.84621 16.875 9.38321 16.875H11.9327L12.0601 16.7394C12.2347 16.5536 12.2308 16.233 12.0519 16.0649C11.9169 15.9382 11.9038 15.9375 9.3668 15.9375H6.81733L6.68989 16.0731ZM15.3636 16.0485C15.0036 16.1728 14.6971 16.4037 14.4302 16.7513C14.1144 17.1628 14.0625 17.4503 14.0625 18.7918C14.0625 20.1167 14.0781 20.1917 14.4438 20.625C14.5662 20.77 14.7349 21.0337 14.8185 21.211C14.9642 21.5194 14.9715 21.5841 14.9897 22.7197L15.0086 23.9063H15.9375H16.8664L16.8853 22.7197C16.9035 21.5832 16.9107 21.5196 17.0568 21.211C17.1407 21.0337 17.3193 20.7568 17.4539 20.5957C17.5884 20.4346 17.7264 20.2101 17.7606 20.0968C17.7991 19.9693 17.8153 19.4012 17.803 18.6027L17.7832 17.3145L17.5735 16.9336C17.1205 16.1107 16.2236 15.7515 15.3636 16.0485ZM6.68989 18.4168C6.51534 18.6027 6.5192 18.9233 6.69809 19.0914C6.83309 19.2181 6.84621 19.2188 9.38321 19.2188H11.9327L12.0601 19.0832C12.2347 18.8973 12.2308 18.5768 12.0519 18.4086C11.9169 18.2819 11.9038 18.2813 9.3668 18.2813H6.81733L6.68989 18.4168ZM6.68989 20.7606C6.51534 20.9465 6.5192 21.267 6.69809 21.4351C6.82776 21.5569 6.88383 21.5625 7.97696 21.5625C9.09621 21.5625 9.12288 21.5596 9.24762 21.4269C9.42217 21.2411 9.4183 20.9205 9.23942 20.7524C9.10975 20.6306 9.05368 20.625 7.96055 20.625C6.84129 20.625 6.81463 20.6279 6.68989 20.7606ZM12.8428 24.9049C12.7038 24.9331 12.4969 25.0137 12.3831 25.084C12.1889 25.2041 11.8359 25.6217 11.8359 25.7315C11.8359 25.7589 13.6816 25.7813 15.9375 25.7813C18.4023 25.7813 20.0391 25.7597 20.0391 25.7272C20.0391 25.588 19.6278 25.1574 19.3664 25.0228L19.0757 24.8731L16.0857 24.8633C14.4412 24.858 12.9819 24.8767 12.8428 24.9049ZM12.6563 27.1875V27.6563H15.9375H19.2188V27.1875V26.7188H15.9375H12.6563V27.1875Z" fill="#049C9C"/>
</g>
</svg>
