<svg width="30" height="30" viewBox="0 0 30 30" fill="none" xmlns="http://www.w3.org/2000/svg">
<path fill-rule="evenodd" clip-rule="evenodd" d="M9.08203 6.27247C6.80513 6.5556 4.9108 7.54126 3.40933 9.22402C2.43328 10.318 1.74222 11.71 1.393 13.2856C1.20931 14.1144 1.20931 15.8856 1.393 16.7144C2.09958 19.9024 4.25085 22.3252 7.25906 23.3205C9.68085 24.1218 12.2346 23.8437 14.4313 22.5394C17.0318 20.9954 18.6054 18.3754 18.7339 15.3754C18.8401 12.8964 17.9442 10.6091 16.176 8.84515C14.8861 7.55825 13.1781 6.64935 11.5001 6.35673C10.8562 6.24441 9.64664 6.20228 9.08203 6.27247ZM8.23242 9.03025C7.27687 9.29972 6.17402 9.98199 5.4665 10.7412C2.66724 13.7455 3.46857 18.5627 7.08984 20.4997C7.48687 20.7121 8.14458 20.9606 8.56933 21.0588L8.73046 21.096V15.0011C8.73046 11.649 8.71066 8.90814 8.68652 8.91042C8.66238 8.91271 8.458 8.96661 8.23242 9.03025Z" fill="#0454F4"/>
<path fill-rule="evenodd" clip-rule="evenodd" d="M15.8648 2.5443C15.5362 2.6616 15.3685 2.7894 15.1903 3.05846L15.0293 3.30162L15.012 4.80526L14.9946 6.30883L14.6074 6.3802C14.3944 6.41945 13.9703 6.5316 13.6649 6.6294L13.1096 6.80729L13.7179 7.09873C14.5559 7.50033 15.3398 8.03641 16.029 8.67947C16.3493 8.97824 16.519 9.12174 16.4063 8.99822L16.2012 8.77369L16.6699 8.80826C19.386 9.00854 21.7175 11.1113 22.2323 13.8252C22.3595 14.4958 22.3509 15.5964 22.2132 16.2597C21.7864 18.3169 20.3251 20.0487 18.3778 20.8048C17.8696 21.0021 16.886 21.2109 16.4646 21.2109C16.1752 21.2109 16.1423 21.2276 15.7827 21.5571C15.281 22.0168 14.5424 22.5075 13.7876 22.8824C13.4486 23.0508 13.1938 23.2021 13.2214 23.2187C13.345 23.2929 14.2638 23.5557 14.6111 23.6161L14.9945 23.6829L15.0119 25.1906L15.0293 26.6983L15.1928 26.9452C15.7307 27.7575 16.938 27.6868 17.3711 26.8178C17.5177 26.5237 17.5195 26.5019 17.5195 25.1025V23.6851L17.915 23.6124C18.5349 23.4985 19.6344 23.1188 20.2193 22.8168L20.7529 22.5412L21.729 23.5148C22.7221 24.5055 22.9526 24.6679 23.3648 24.6679C23.8054 24.6679 24.2873 24.3623 24.5055 23.9445C24.6636 23.6416 24.6725 23.1452 24.525 22.8515C24.4683 22.7388 24.0388 22.2604 23.5707 21.7887L22.7194 20.9308L23.03 20.5582C23.8953 19.5203 24.6228 17.9804 24.8462 16.7138L24.9211 16.289L26.2447 16.2887C27.0052 16.2885 27.6681 16.2616 27.8027 16.2253C28.3634 16.0743 28.7695 15.5595 28.7695 15C28.7695 14.4403 28.335 13.8917 27.792 13.7656C27.669 13.7371 26.9728 13.7131 26.2447 13.7123L24.9211 13.7109L24.8462 13.2861C24.6229 12.0204 23.8952 10.4796 23.0314 9.44348L22.7222 9.07258L23.6279 8.15442C24.4666 7.30416 24.5388 7.21358 24.6066 6.92869C24.718 6.45977 24.6101 6.08887 24.2606 5.73936C23.8465 5.32528 23.3374 5.2375 22.8223 5.49139C22.7256 5.53903 22.2204 6.00115 21.6997 6.51836L20.7528 7.45873L20.2348 7.19178C19.5987 6.86401 18.6963 6.54578 18.0244 6.41236L17.5195 6.31205V4.89602C17.5195 3.49815 17.5177 3.47623 17.3711 3.18215C17.2051 2.84904 16.8912 2.59668 16.542 2.51559C16.2437 2.44639 16.1251 2.45143 15.8648 2.5443Z" fill="#6BA3FC"/>
</svg>
