<svg width="45" height="45" viewBox="0 0 45 45" fill="none" xmlns="http://www.w3.org/2000/svg">
<g clip-path="url(#clip0_18_56)">
<path fill-rule="evenodd" clip-rule="evenodd" d="M27.3151 21.1597L27.29 25.6201L27.0192 26.1917C26.6722 26.9238 26.0449 27.5511 25.3128 27.8981L24.7412 28.1689L21.2014 28.1938L17.6616 28.2186L17.6858 32.9839L17.71 37.749L17.99 38.3203C18.3057 38.9644 18.5191 39.2222 19.1089 39.6725C19.7408 40.1548 20.472 40.3418 21.7259 40.3418H22.779L25.8255 42.5269C27.5012 43.7288 28.9986 44.7769 29.1533 44.856C29.7955 45.1847 30.562 44.9556 31.0013 44.3037C31.1933 44.0189 31.2012 43.9351 31.2012 42.1776V40.348L36.7603 40.3229L42.3193 40.2979L42.9118 40.0172C43.9732 39.5144 44.6951 38.5857 44.9114 37.4449C45.0279 36.8304 45.0308 20.3657 44.9146 19.6555C44.6715 18.1712 43.4477 17.0059 41.8961 16.7814C41.5971 16.7382 38.1997 16.7019 34.3463 16.701L27.3401 16.6992L27.3151 21.1597ZM30.9167 22.5497C30.7843 22.6215 30.6123 22.8035 30.5344 22.9541C30.3675 23.2768 26.8577 32.7154 26.7733 33.0681C26.6449 33.6055 27.2145 34.2762 27.7998 34.277C28.4551 34.2779 28.7119 33.9188 29.3553 32.1021L29.6432 31.2891H31.3356H33.028L33.4464 32.5223C33.7938 33.546 33.9153 33.7997 34.162 34.0164C34.8198 34.5939 35.8606 34.0989 35.859 33.2094C35.8587 33.0089 32.5404 23.3067 32.3513 22.9536C32.0846 22.4552 31.4303 22.271 30.9167 22.5497ZM31.1744 27.2101C30.6557 28.5876 30.498 29.0288 30.498 29.1023C30.498 29.1449 30.8936 29.1797 31.377 29.1797C31.8604 29.1797 32.255 29.1501 32.2539 29.1138C32.2529 29.0775 32.061 28.4977 31.8276 27.8254L31.403 26.6029L31.1744 27.2101Z" fill="#FEC007"/>
<path fill-rule="evenodd" clip-rule="evenodd" d="M29.2039 1.6709C28.5258 1.82366 28.1259 2.33184 28.1254 3.04121C28.125 3.53717 28.3353 3.93365 28.7689 4.25462C29.1598 4.54387 29.9363 4.50872 30.3642 4.18229C30.7804 3.86483 30.9682 3.42643 30.9169 2.89214C30.8339 2.02853 30.0614 1.47763 29.2039 1.6709ZM33.2758 1.67328C32.7492 1.83086 32.2559 2.50138 32.2559 3.05958C32.2559 3.4927 32.6192 4.05573 33.0434 4.28002C33.4007 4.46899 33.5283 4.48244 34.9604 4.48244C36.3549 4.48244 36.5245 4.49922 36.8222 4.66648C37.463 5.02666 37.4819 5.11156 37.514 7.77834L37.5424 10.1514L36.8071 9.43367C36.0224 8.66779 35.7347 8.53472 35.1149 8.65091C34.759 8.71771 34.3255 9.05626 34.1424 9.41038C33.9912 9.7027 33.975 10.2573 34.1073 10.6071C34.2075 10.8721 37.5202 14.2646 38.0918 14.6877C38.4656 14.9644 39.0439 15.029 39.5231 14.8479C39.8482 14.7249 43.3662 11.2279 43.6551 10.7405C44.1625 9.88463 43.6308 8.77194 42.6516 8.64063C42.1036 8.56715 41.7234 8.74671 41.0035 9.41899L40.3418 10.0369V7.62971C40.3418 5.00662 40.2863 4.58105 39.8361 3.75382C39.2648 2.70423 38.0131 1.83974 36.8135 1.66633C36.1173 1.5657 33.619 1.57062 33.2758 1.67328ZM13.4264 9.73733C13.0845 9.77996 12.692 10.2064 12.6257 10.6072C12.5953 10.7916 12.5699 11.3478 12.5694 11.8433L12.5684 12.7442H10.191C7.53341 12.7442 7.43084 12.7637 7.16682 13.3201C6.96748 13.7401 7.05106 14.1921 7.38602 14.505C7.67447 14.7743 8.02419 14.8512 8.9684 14.8526L9.63109 14.8535L9.91999 15.5347C10.267 16.3526 11.0462 17.6956 11.5775 18.3911C11.7898 18.6691 11.9405 18.9338 11.9124 18.9793C11.7199 19.2907 10.2171 19.979 9.11816 20.2591C8.37865 20.4476 8.08598 20.7429 8.08598 21.3007C8.08598 21.6419 8.25209 22.0119 8.47639 22.1701C8.52754 22.2062 8.6984 22.2724 8.85616 22.3171C9.48704 22.4963 11.4947 21.793 12.7489 20.9535C13.1392 20.6923 13.4897 20.4785 13.5276 20.4785C13.5656 20.4785 13.7707 20.6047 13.9834 20.7591C15.2967 21.7117 17.4829 22.5214 18.2042 22.3222C19.0626 22.0852 19.2563 20.9358 18.5126 20.4913C18.3613 20.4007 17.9605 20.2591 17.6221 20.1765C16.95 20.0126 15.7614 19.4797 15.3244 19.1463L15.0482 18.9356L15.437 18.4214C15.9856 17.6957 16.7437 16.4019 17.0968 15.5889L17.397 14.8975L18.4763 14.8502C19.07 14.8242 19.6417 14.7552 19.7466 14.6969C20.3506 14.3618 20.4955 13.578 20.0465 13.0752L19.7901 12.7881L17.256 12.7442L14.7217 12.7002L14.6778 11.5576C14.6351 10.4485 14.5691 10.1698 14.2956 9.94273C14.1197 9.79674 13.7157 9.70129 13.4264 9.73733ZM11.9544 14.9194C11.9593 15.1807 13.3679 17.4024 13.5287 17.4024C13.6429 17.4024 14.4474 16.1924 14.7996 15.4907L15.1194 14.8535H13.5363C12.6656 14.8535 11.9537 14.8832 11.9544 14.9194ZM30.8812 22.5811C30.5614 22.7762 30.699 22.4412 28.3863 28.6524C27.4529 31.1592 26.7964 33.0483 26.7926 33.2386C26.775 34.1185 27.8801 34.5862 28.5036 33.9627C28.6292 33.8371 28.9117 33.2341 29.1803 32.5181L29.6413 31.2891H31.3345H33.0278L33.3577 32.2339C33.8668 33.6922 33.9729 33.9036 34.2934 34.0989C34.7509 34.3779 35.2296 34.291 35.6217 33.8578C35.989 33.452 35.9637 33.3528 34.1884 28.2129C33.2615 25.53 32.45 23.2073 32.3849 23.0513C32.2443 22.7144 31.7889 22.4127 31.4209 22.4127C31.2759 22.4127 31.0331 22.4885 30.8812 22.5811ZM31.3421 26.7188C31.3149 26.7913 31.0995 27.3648 30.8635 27.9932L30.4345 29.1358L31.3127 29.1609C31.7957 29.1748 32.2096 29.1674 32.2325 29.1445C32.2554 29.1216 32.1513 28.7345 32.0013 28.2844C31.5618 26.9657 31.3966 26.5733 31.3421 26.7188ZM5.05375 29.7556C4.71678 29.9286 1.08769 33.5337 0.906894 33.8751C0.705273 34.2556 0.732431 34.9089 0.965517 35.286C1.20414 35.6721 1.71769 35.9473 2.19959 35.9473C2.68387 35.9473 2.83811 35.8561 3.57253 35.1356L4.20077 34.5194L4.24217 37.0571C4.27425 39.0239 4.31415 39.6861 4.41927 40.0007C4.93316 41.538 6.2241 42.6615 7.74918 42.8988C8.07147 42.949 9.02781 42.9776 9.87437 42.9623C11.2739 42.9371 11.436 42.9179 11.6614 42.7507C12.0976 42.4271 12.3047 42.0335 12.3047 41.5283C12.3047 40.9479 12.052 40.5465 11.5163 40.2759C11.1545 40.0931 11.0077 40.0781 9.57449 40.0781C8.10892 40.0781 8.00775 40.0672 7.72545 39.8786C7.15029 39.4945 7.11944 39.3369 7.11936 36.7844L7.11918 34.5015L7.75639 35.1318C8.42734 35.7956 8.69471 35.9473 9.19313 35.9473C9.85108 35.9473 10.3594 35.5534 10.5583 34.8892C10.7762 34.1619 10.7093 34.062 8.5394 31.8721C7.44402 30.7668 6.42062 29.8077 6.26506 29.7408C5.89346 29.5809 5.38176 29.5872 5.05375 29.7556ZM14.1415 40.3655C13.3468 40.8963 13.3319 42.0861 14.1123 42.6813C14.3893 42.8926 14.5282 42.9346 14.9501 42.9346C15.5172 42.9346 15.812 42.7729 16.1499 42.2763C16.5415 41.701 16.3418 40.7666 15.7414 40.3655C15.5181 40.2163 15.3164 40.166 14.9414 40.166C14.5665 40.166 14.3648 40.2163 14.1415 40.3655Z" fill="#24343B"/>
<path fill-rule="evenodd" clip-rule="evenodd" d="M14.6747 0.0721114C14.3972 0.195158 14.1687 0.404777 13.9869 0.703166C13.8115 0.991008 13.7994 1.12803 13.7991 2.83451L13.7988 4.65824L8.45941 4.6593C4.28601 4.66009 3.02408 4.68593 2.6806 4.77769C1.29105 5.14885 0.314061 6.21804 0.0847542 7.61831C0.0357113 7.91767 0.00134602 11.6129 0.00196125 16.5235C0.00310383 25.6103 0.00380691 25.626 0.477186 26.4666C0.995916 27.3877 2.04674 28.0772 3.14827 28.2193C3.81053 28.3048 14.5642 28.3077 20.6982 28.2241L24.7411 28.169L25.3127 27.8981C26.0448 27.5511 26.6721 26.9238 27.0191 26.1917L27.29 25.6202V16.4356V7.25102L27.0187 6.67973C26.7264 6.06414 26.0816 5.3575 25.5761 5.09875C24.9399 4.77312 24.3399 4.65824 23.2752 4.65824H22.2366L19.1225 2.42345C17.4098 1.1943 15.9291 0.146203 15.8322 0.0943478C15.6395 -0.00883584 14.8898 -0.023162 14.6747 0.0721114ZM13.4263 9.73736C13.0844 9.77998 12.6919 10.2064 12.6256 10.6072C12.5952 10.7916 12.5698 11.3479 12.5693 11.8433L12.5683 12.7442H10.1909C7.53331 12.7442 7.43074 12.7637 7.16672 13.3201C6.96738 13.7402 7.05097 14.1921 7.38592 14.505C7.67437 14.7744 8.02409 14.8512 8.9683 14.8526L9.63099 14.8536L9.91989 15.5347C10.2669 16.3526 11.0461 17.6956 11.5774 18.3912C11.7897 18.6692 11.9404 18.9338 11.9123 18.9793C11.7198 19.2907 10.217 19.979 9.11806 20.2591C8.37855 20.4476 8.08588 20.7429 8.08588 21.3007C8.08588 21.6419 8.25199 22.0119 8.47629 22.1701C8.52744 22.2062 8.6983 22.2724 8.85606 22.3171C9.48694 22.4963 11.4946 21.793 12.7488 20.9535C13.1391 20.6923 13.4896 20.4786 13.5275 20.4786C13.5655 20.4786 13.7706 20.6048 13.9833 20.7591C15.2966 21.7118 17.4828 22.5214 18.2041 22.3222C19.0625 22.0852 19.2562 20.9359 18.5125 20.4913C18.3612 20.4008 17.9604 20.2591 17.622 20.1766C16.9499 20.0126 15.7613 19.4797 15.3243 19.1463L15.0481 18.9356L15.4369 18.4214C15.9855 17.6958 16.7436 16.4019 17.0967 15.5889L17.3969 14.8975L18.4762 14.8502C19.0699 14.8242 19.6416 14.7552 19.7465 14.6969C20.3505 14.3618 20.4954 13.578 20.0464 13.0752L19.79 12.7881L17.2559 12.7442L14.7216 12.7002L14.6777 11.5577C14.635 10.4486 14.569 10.1698 14.2955 9.94276C14.1196 9.79677 13.7156 9.70132 13.4263 9.73736ZM11.9543 14.9195C11.9592 15.1808 13.3678 17.4024 13.5286 17.4024C13.6428 17.4024 14.4473 16.1924 14.7995 15.4908L15.1193 14.8536H13.5362C12.6655 14.8536 11.9536 14.8833 11.9543 14.9195Z" fill="#F44C4C"/>
</g>
<defs>
<clipPath id="clip0_18_56">
<rect width="45" height="45" fill="white"/>
</clipPath>
</defs>
</svg>
