<svg width="45" height="45" viewBox="0 0 45 45" fill="none" xmlns="http://www.w3.org/2000/svg">
<g clip-path="url(#clip0_20_419)">
<path fill-rule="evenodd" clip-rule="evenodd" d="M14.5459 16.9267C13.477 17.1737 12.6738 17.412 12.3143 17.5888C11.964 17.7611 11.5327 18.0841 11.1685 18.4467C10.8428 18.7712 10.4606 19.2651 10.3042 19.5639C10.1501 19.8584 9.96417 20.3528 9.89122 20.6625C9.78048 21.1324 9.75869 22.0991 9.76 26.4991C9.76115 30.5076 9.78716 31.806 9.86855 31.912C9.92744 31.9886 10.062 32.0974 10.1676 32.1537C10.3088 32.2288 12.1622 32.2559 17.176 32.2559H23.9926L24.0153 27.7954L24.0381 23.335L25.2105 25.5323C25.8552 26.7408 26.465 27.8182 26.5654 27.9265C26.6658 28.0349 26.912 28.2029 27.1127 28.3C27.3355 28.408 27.6564 28.4766 27.9374 28.4766C28.1924 28.4766 28.5228 28.412 28.6787 28.3317C28.8334 28.252 30.0711 27.3622 31.4291 26.3544C32.7871 25.3465 33.9725 24.4399 34.0632 24.3396C34.154 24.2393 34.2324 24.0597 34.2376 23.9405C34.2447 23.7781 34.0139 23.4819 33.3174 22.7598C32.7167 22.137 32.3228 21.7962 32.2045 21.7965C32.1036 21.7967 31.5697 22.156 31.0179 22.595C30.4662 23.0339 29.9229 23.4295 29.8108 23.474C29.6987 23.5186 29.5138 23.5316 29.3998 23.503C29.2859 23.4744 29.136 23.3854 29.0669 23.3051C28.9977 23.2249 28.6603 22.4151 28.3171 21.5057C27.8592 20.2924 27.5843 19.6997 27.2843 19.2793C27.0542 18.957 26.6391 18.5315 26.3356 18.3069C26.0388 18.0873 25.6246 17.8336 25.4152 17.743C25.2058 17.6523 24.1205 17.3338 23.0035 17.035C21.4206 16.6116 20.9638 16.518 20.9327 16.611C20.9109 16.6767 20.7371 16.8994 20.5466 17.1061C20.3561 17.3127 19.998 17.5826 19.7509 17.7058C19.5036 17.8289 19.2169 17.9297 19.1136 17.9297C19.0103 17.9297 18.8999 17.9556 18.8684 17.9871C18.8368 18.0188 18.9325 18.1342 19.0811 18.2438C19.2296 18.3534 19.4607 18.5945 19.5946 18.7796C19.7285 18.9648 19.9083 19.314 19.9942 19.5557C20.08 19.7974 20.2693 20.1084 20.4146 20.2467L20.6791 20.4982L20.474 21.152L20.2691 21.8057L20.646 24.34C20.9431 26.3384 21.0017 26.9138 20.9233 27.0605C20.8685 27.1628 20.4112 27.5232 19.907 27.8615C19.3275 28.2503 18.9017 28.4766 18.7495 28.4766C18.598 28.4766 18.1558 28.2433 17.5584 27.8483C16.8687 27.3923 16.5925 27.1579 16.5512 26.9934C16.5199 26.8687 16.6612 25.6387 16.8651 24.2599L17.2357 21.753L17.0173 21.1176L16.7988 20.4822L17.0484 20.3044C17.1964 20.1991 17.3545 19.9608 17.4369 19.7191C17.5134 19.4948 17.6752 19.1418 17.7966 18.9347C17.9181 18.7274 18.1631 18.4378 18.341 18.2911C18.5644 18.1071 18.6257 18.0127 18.5389 17.9867C18.4697 17.966 18.2153 17.8802 17.9736 17.7961C17.66 17.687 17.3757 17.483 16.9806 17.0833C16.676 16.7754 16.3794 16.5274 16.3214 16.5322C16.2633 16.537 15.4644 16.7145 14.5459 16.9267Z" fill="#C43745"/>
<path fill-rule="evenodd" clip-rule="evenodd" d="M18.1439 18.479L17.8857 18.7646L18.1714 18.5065C18.3284 18.3646 18.457 18.236 18.457 18.2209C18.457 18.2058 18.4446 18.1934 18.4295 18.1934C18.4144 18.1934 18.2858 18.3219 18.1439 18.479ZM18.7549 21.689L17.2511 21.713L17.113 22.6119C17.0371 23.1063 16.8671 24.2442 16.7352 25.1406C16.6032 26.037 16.5207 26.8715 16.5517 26.9952C16.5924 27.1574 16.8726 27.3948 17.5583 27.8482C18.1558 28.2433 18.598 28.4766 18.7494 28.4766C18.9018 28.4766 19.3294 28.2489 19.9142 27.8567C20.4223 27.5157 20.8791 27.1468 20.9292 27.0367C20.9979 26.8859 20.9328 26.2442 20.6644 24.4266C20.4687 23.1012 20.2973 21.9375 20.2837 21.8408C20.2597 21.6718 20.2011 21.6659 18.7549 21.689Z" fill="#F2AB1C"/>
<path fill-rule="evenodd" clip-rule="evenodd" d="M18.2517 18.475C17.9195 18.8072 17.7235 19.1003 17.5858 19.4705C17.4784 19.759 17.2753 20.1149 17.1344 20.2612L16.8783 20.5274L17.071 21.1202L17.2638 21.7129L18.7532 21.689L20.2427 21.665L20.4394 21.0816L20.6361 20.4981L20.3914 20.3172C20.2509 20.2133 20.0868 19.9605 20.0061 19.7238C19.9289 19.4969 19.7667 19.1426 19.6459 18.9364C19.525 18.7302 19.2678 18.4361 19.0744 18.2829L18.7226 18.0043L18.2517 18.475Z" fill="#FFB91D"/>
<path fill-rule="evenodd" clip-rule="evenodd" d="M14.5459 16.9267C13.477 17.1737 12.6738 17.412 12.3143 17.5888C11.964 17.7611 11.5327 18.0841 11.1685 18.4467C10.8428 18.7712 10.4606 19.2651 10.3042 19.5639C10.1501 19.8584 9.96417 20.3528 9.89122 20.6625C9.78048 21.1324 9.75869 22.0991 9.76 26.4991C9.76115 30.5076 9.78716 31.806 9.86855 31.912C9.92744 31.9886 10.062 32.0974 10.1676 32.1537C10.3088 32.2288 12.1622 32.2559 17.176 32.2559H23.9926L24.0153 27.7954L24.0381 23.335L25.2105 25.5323C25.8552 26.7408 26.465 27.8182 26.5654 27.9265C26.6658 28.0349 26.912 28.2029 27.1127 28.3C27.3355 28.408 27.6564 28.4766 27.9374 28.4766C28.1924 28.4766 28.5228 28.412 28.6787 28.3317C28.8334 28.252 30.0711 27.3622 31.4291 26.3544C32.7871 25.3465 33.9725 24.4399 34.0632 24.3396C34.154 24.2393 34.2324 24.0597 34.2376 23.9405C34.2447 23.7781 34.0139 23.4819 33.3174 22.7598C32.7167 22.137 32.3228 21.7962 32.2045 21.7965C32.1036 21.7967 31.5697 22.156 31.0179 22.595C30.4662 23.0339 29.9229 23.4295 29.8108 23.474C29.6987 23.5186 29.5138 23.5316 29.3998 23.503C29.2859 23.4744 29.136 23.3854 29.0669 23.3051C28.9977 23.2249 28.6603 22.4151 28.3171 21.5057C27.8592 20.2924 27.5843 19.6997 27.2843 19.2793C27.0542 18.957 26.6391 18.5315 26.3356 18.3069C26.0388 18.0873 25.6246 17.8336 25.4152 17.743C25.2058 17.6523 24.1205 17.3338 23.0035 17.035C21.4206 16.6116 20.9638 16.518 20.9327 16.611C20.9109 16.6767 20.7371 16.8994 20.5466 17.1061C20.3561 17.3127 19.998 17.5826 19.7509 17.7058C19.5036 17.8289 19.2169 17.9297 19.1136 17.9297C19.0103 17.9297 18.8999 17.9556 18.8684 17.9871C18.8368 18.0188 18.9325 18.1342 19.0811 18.2438C19.2296 18.3534 19.4607 18.5945 19.5946 18.7796C19.7285 18.9648 19.9083 19.314 19.9942 19.5557C20.08 19.7974 20.2693 20.1084 20.4146 20.2467L20.6791 20.4982L20.474 21.152L20.2691 21.8057L20.646 24.34C20.9431 26.3384 21.0017 26.9138 20.9233 27.0605C20.8685 27.1628 20.4112 27.5232 19.907 27.8615C19.3275 28.2503 18.9017 28.4766 18.7495 28.4766C18.598 28.4766 18.1558 28.2433 17.5584 27.8483C16.8687 27.3923 16.5925 27.1579 16.5512 26.9934C16.5199 26.8687 16.6612 25.6387 16.8651 24.2599L17.2357 21.753L17.0173 21.1176L16.7988 20.4822L17.0484 20.3044C17.1964 20.1991 17.3545 19.9608 17.4369 19.7191C17.5134 19.4948 17.6752 19.1418 17.7966 18.9347C17.9181 18.7274 18.1631 18.4378 18.341 18.2911C18.5644 18.1071 18.6257 18.0127 18.5389 17.9867C18.4697 17.966 18.2153 17.8802 17.9736 17.7961C17.66 17.687 17.3757 17.483 16.9806 17.0833C16.676 16.7754 16.3794 16.5274 16.3214 16.5322C16.2633 16.537 15.4644 16.7145 14.5459 16.9267Z" fill="#C43745"/>
<path fill-rule="evenodd" clip-rule="evenodd" d="M12.7663 9.00884C12.7673 9.2022 12.7853 9.27093 12.8063 9.16159C12.8273 9.05226 12.8265 8.89405 12.8045 8.81003C12.7826 8.72601 12.7653 8.81548 12.7663 9.00884ZM14.2604 10.7667C14.2614 10.96 14.2794 11.0287 14.3004 10.9194C14.3214 10.8101 14.3206 10.6519 14.2987 10.5678C14.2767 10.4838 14.2595 10.5733 14.2604 10.7667ZM15.553 13.6451C15.7685 13.8747 15.9564 14.0625 15.9704 14.0625C15.9846 14.0625 15.9961 14.051 15.9961 14.0369C15.9961 14.0228 15.8083 13.8349 15.5786 13.6194L15.1611 13.2276L15.553 13.6451ZM16.4136 14.3242C16.4886 14.4095 16.5234 14.7884 16.5234 15.5179V16.5866L16.8837 16.9959C17.0818 17.221 17.4082 17.5012 17.6088 17.6185C17.8095 17.7359 18.1516 17.8723 18.3692 17.9217C18.6754 17.9913 18.8738 17.9811 19.2481 17.8766C19.5139 17.8024 19.8885 17.6345 20.0805 17.5036C20.2724 17.3727 20.5591 17.0955 20.7177 16.8877C21.0057 16.51 21.0059 16.5093 21.0059 15.4722V14.4345L20.4997 14.6389C20.2214 14.7514 19.7198 14.8871 19.385 14.9407C18.9491 15.0103 18.6057 15.0114 18.1753 14.9446C17.8447 14.8933 17.3729 14.7749 17.1269 14.6814C16.8808 14.5879 16.595 14.4411 16.4916 14.3552C16.3883 14.2694 16.3532 14.2554 16.4136 14.3242ZM32.6663 21.7804C32.5309 21.93 32.5447 21.9606 32.8944 22.2858L33.2666 22.6319L32.9373 22.2769C32.6265 21.9419 32.6165 21.9135 32.7583 21.7715C32.8411 21.6888 32.8867 21.6211 32.8596 21.6211C32.8326 21.6211 32.7456 21.6928 32.6663 21.7804ZM0.718517 33.6841C0.745675 34.952 0.770812 35.1531 0.942462 35.4757C1.04881 35.6756 1.26546 35.9688 1.42384 36.1271C1.58231 36.2856 1.87815 36.4888 2.08135 36.5786C2.43221 36.7339 2.82446 36.7419 9.8384 36.7393L17.2259 36.7366L17.0771 37.111C16.9952 37.3169 16.6668 38.138 16.3471 38.9356L15.766 40.3858L14.0573 40.4301C12.6951 40.4654 12.2952 40.5038 12.085 40.6195C11.94 40.6993 11.7349 40.8573 11.6294 40.9707C11.5239 41.0841 11.3953 41.2882 11.3438 41.4242C11.2922 41.5603 11.25 42.16 11.25 42.7567V43.8418L11.5204 44.0694L11.7908 44.2969H22.5H33.2092L33.4796 44.0694L33.75 43.8418V42.7027C33.75 41.8956 33.714 41.4944 33.6265 41.3262C33.5586 41.1957 33.4103 41.0049 33.2969 40.9021C33.1836 40.7994 32.992 40.661 32.8711 40.5945C32.7152 40.5088 32.1574 40.4609 30.9507 40.4297L29.25 40.3858L28.5194 38.5612L27.7887 36.7366L35.1689 36.7393C42.2083 36.7419 42.5661 36.7345 42.9176 36.5767C43.1203 36.4858 43.4135 36.288 43.5691 36.1372C43.7246 35.9864 43.9417 35.6942 44.0515 35.4877C44.2304 35.1509 44.2541 34.966 44.2815 33.6841L44.312 32.2559H22.5H0.688019L0.718517 33.6841Z" fill="#E8BCB1"/>
<path fill-rule="evenodd" clip-rule="evenodd" d="M15.133 6.12439C14.9724 6.2035 14.7459 6.39299 14.6297 6.54548C14.5133 6.69806 14.386 6.9772 14.3468 7.16581C14.285 7.46306 14.2364 7.51685 13.9821 7.56879C13.8206 7.60184 13.5848 7.70563 13.4581 7.79959C13.3313 7.89346 13.1386 8.10105 13.0298 8.26084C12.8911 8.46457 12.832 8.68008 12.832 8.98225C12.832 9.2192 12.89 9.52497 12.9607 9.6619C13.0315 9.79875 13.2125 10.0143 13.363 10.1409C13.5135 10.2676 13.7918 10.396 13.9814 10.4263C14.3189 10.4803 14.3262 10.4892 14.3262 10.8497C14.3262 11.0523 14.3899 11.4329 14.4679 11.6954C14.5457 11.958 14.6998 12.3508 14.8102 12.5684C14.9207 12.7859 15.1815 13.1573 15.39 13.3937C15.5985 13.6301 16.008 13.9975 16.3 14.2104C16.6198 14.4434 17.0758 14.6723 17.4463 14.7858C17.8567 14.9116 18.2956 14.9744 18.7647 14.9744C19.2349 14.9744 19.6734 14.9114 20.0886 14.7845C20.5065 14.6568 20.8988 14.4514 21.288 14.1568C21.6062 13.9159 22.0057 13.549 22.1759 13.3414C22.346 13.1337 22.5862 12.7627 22.7097 12.5169C22.8331 12.2711 22.9947 11.8376 23.0687 11.5537C23.1426 11.2697 23.2031 10.9071 23.2031 10.7481C23.2031 10.5157 23.2383 10.459 23.3824 10.459C23.481 10.459 23.715 10.3808 23.9024 10.2852C24.0897 10.1896 24.3307 9.98824 24.4379 9.83769C24.545 9.68722 24.6519 9.39437 24.6753 9.18694C24.6987 8.97961 24.6712 8.66874 24.6143 8.4963C24.5573 8.32377 24.3737 8.06229 24.2062 7.91525C24.0284 7.75907 23.7563 7.6246 23.5524 7.59199C23.2766 7.54787 23.2031 7.49813 23.2031 7.35539C23.2031 7.25599 23.1202 7.00339 23.0189 6.79412C22.896 6.54038 22.7104 6.34069 22.4619 6.19506C22.2302 6.05927 21.9538 5.97656 21.7317 5.97656C21.4934 5.97656 21.1215 6.09785 20.6158 6.34052C19.9347 6.66738 19.7728 6.70896 19.0303 6.74771C18.5357 6.77364 18.0381 6.7493 17.7917 6.68733C17.5652 6.63029 17.0983 6.44704 16.7542 6.28005C16.354 6.0859 16.0018 5.97727 15.7766 5.97858C15.5832 5.97964 15.2935 6.04529 15.133 6.12439ZM35.3347 18.9477C35.1669 19.0205 34.9549 19.1475 34.8636 19.2299C34.7722 19.3124 34.5202 19.6567 34.3035 19.9951C34.0869 20.3335 33.6178 20.907 33.2612 21.2695L32.6128 21.9287L33.4035 22.7801L34.1941 23.6315L34.8457 23.164C35.2042 22.9069 35.8062 22.5711 36.1838 22.4178C36.5613 22.2645 36.9625 22.0932 37.0753 22.0371C37.1881 21.9809 37.3936 21.8061 37.5319 21.6486C37.6702 21.4911 37.8249 21.2128 37.8756 21.0302C37.9263 20.8477 37.9678 20.6389 37.9678 20.5664C37.9678 20.4939 37.9263 20.2852 37.8756 20.1026C37.8249 19.92 37.6574 19.627 37.5033 19.4516C37.3492 19.2761 37.0646 19.0606 36.8709 18.9725C36.6771 18.8844 36.3208 18.8132 36.0791 18.814C35.8374 18.8148 35.5024 18.875 35.3347 18.9477ZM6.52588 36.8042C8.49577 36.8174 11.7192 36.8174 13.689 36.8042C15.6589 36.791 14.0471 36.7802 10.1074 36.7802C6.16773 36.7802 4.55608 36.791 6.52588 36.8042ZM31.311 36.8042C33.2809 36.8174 36.5043 36.8174 38.4741 36.8042C40.444 36.791 38.8323 36.7802 34.8926 36.7802C30.9529 36.7802 29.3412 36.791 31.311 36.8042Z" fill="#FDD1C3"/>
<path fill-rule="evenodd" clip-rule="evenodd" d="M17.5749 0.828243C17.2589 0.894601 16.747 1.05553 16.4373 1.18587C16.1276 1.31621 15.6497 1.57531 15.3753 1.76164C15.1009 1.94797 14.6632 2.33601 14.4026 2.62394C14.142 2.91187 13.7799 3.39843 13.5979 3.70508C13.4159 4.01182 13.1641 4.57915 13.0384 4.96587C12.8392 5.57838 12.8051 5.85585 12.7741 7.11919L12.7385 8.56939L12.9148 8.24841C13.0118 8.07184 13.2252 7.84455 13.3891 7.74321C13.553 7.64188 13.8067 7.53509 13.9529 7.50582C14.1796 7.46056 14.2266 7.40325 14.2724 7.11699C14.3019 6.93233 14.43 6.65776 14.5569 6.50694C14.6839 6.35604 14.9394 6.15521 15.1248 6.06064C15.3101 5.96607 15.6176 5.88872 15.8079 5.88872C16.0226 5.88872 16.3446 5.98892 16.6559 6.15275C16.9319 6.29785 17.3764 6.48023 17.6436 6.55792C17.992 6.65926 18.3688 6.68923 18.9745 6.66383C19.744 6.63157 19.8906 6.59545 20.6184 6.25857C21.0726 6.04833 21.5468 5.88951 21.7171 5.89066C21.8818 5.89171 22.1779 5.96589 22.3751 6.05536C22.5723 6.14492 22.8219 6.33046 22.9297 6.46757C23.0376 6.60477 23.1704 6.88356 23.2248 7.0872C23.3109 7.4087 23.3624 7.4646 23.6169 7.51232C23.7781 7.54256 24.0534 7.6932 24.2286 7.84701C24.4037 8.00082 24.6026 8.24604 24.6706 8.39193C24.7806 8.62836 24.789 8.50408 24.7478 7.25103C24.7207 6.43101 24.6452 5.62496 24.5667 5.31743C24.4925 5.02739 24.2752 4.46999 24.0838 4.07879C23.8679 3.63784 23.5139 3.12017 23.1522 2.71649C22.8312 2.35842 22.3967 1.94314 22.1866 1.79355C21.9764 1.64396 21.5582 1.41105 21.257 1.27587C20.9559 1.14078 20.5092 0.975724 20.2644 0.909103C20.0196 0.842482 19.4436 0.769884 18.9844 0.747823C18.4599 0.722511 17.9358 0.752482 17.5749 0.828243ZM35.4956 12.209L35.2881 12.377L35.263 15.6332L35.238 18.8895L35.5129 18.7937C35.6642 18.741 36.0017 18.72 36.2631 18.7469L36.7383 18.7959V15.6342V12.4725L36.5225 12.2568C36.3772 12.1115 36.2083 12.0411 36.0049 12.0411C35.8387 12.0411 35.6098 12.1166 35.4956 12.209Z" fill="#151F28"/>
<path fill-rule="evenodd" clip-rule="evenodd" d="M2.25352 2.3407C1.96471 2.42938 1.68935 2.60895 1.40317 2.89503C1.09837 3.19992 0.941309 3.44865 0.841553 3.78448C0.718066 4.2002 0.703125 5.76519 0.703125 18.2533V32.2559L5.51514 32.2532C9.17895 32.2511 10.2852 32.2265 10.1514 32.1497C10.0547 32.0942 9.92742 31.9867 9.86854 31.9107C9.78715 31.8056 9.76113 30.5082 9.75999 26.499C9.75867 22.099 9.78047 21.1323 9.89121 20.6625C9.96416 20.3527 10.15 19.8584 10.3042 19.5638C10.4606 19.2651 10.8428 18.7712 11.1685 18.4467C11.5323 18.0844 11.9644 17.7608 12.3143 17.5886C12.6937 17.4018 13.4678 17.1789 14.6997 16.9016L16.5234 16.4913V15.4569V14.4225L16.1374 14.1569C15.9252 14.0109 15.5834 13.7024 15.3782 13.4715C15.1729 13.2406 14.8685 12.7671 14.7019 12.4192C14.5284 12.0569 14.3579 11.5214 14.3029 11.1659C14.2077 10.551 14.2037 10.5443 13.8824 10.4578C13.7041 10.4098 13.453 10.2878 13.3245 10.1867C13.196 10.0856 13.0108 9.84612 12.913 9.65443C12.7477 9.33047 12.7376 9.17763 12.7694 7.4874C12.8008 5.81168 12.8217 5.61366 13.035 4.96397C13.1622 4.5762 13.4175 4.00922 13.602 3.70389C13.7867 3.39855 14.1265 2.93467 14.3572 2.67302L14.7766 2.19727L8.72868 2.20342C3.62777 2.20852 2.61378 2.23005 2.25352 2.3407ZM22.7637 2.25141C22.7637 2.2812 22.9794 2.53872 23.2433 2.82357C23.5262 3.12926 23.8682 3.6385 24.0774 4.06582C24.2723 4.46414 24.4943 5.02734 24.5706 5.31738C24.6624 5.66604 24.7231 6.3893 24.7499 7.45163C24.775 8.44928 24.7547 9.1909 24.6963 9.40781C24.6446 9.59994 24.4688 9.89051 24.3058 10.0535C24.1414 10.218 23.8603 10.3852 23.6747 10.4292C23.4037 10.4933 23.3282 10.558 23.278 10.7693C23.2439 10.9129 23.1702 11.2601 23.1142 11.541C23.0582 11.8218 22.8945 12.2759 22.7503 12.5498C22.6062 12.8238 22.3528 13.2134 22.1871 13.4154C22.0215 13.6176 21.688 13.9283 21.4459 14.106L21.0059 14.429V15.4644V16.4997L22.5659 16.9125C23.4239 17.1396 24.4562 17.4277 24.8597 17.5527C25.37 17.7108 25.7836 17.9166 26.2183 18.2284C26.6124 18.5112 26.9989 18.8908 27.265 19.2562C27.5866 19.698 27.8359 20.2308 28.314 21.4974C28.6588 22.4114 28.9977 23.2248 29.0668 23.3051C29.136 23.3853 29.2859 23.4744 29.3998 23.503C29.5138 23.5316 29.6987 23.5186 29.8108 23.474C29.9229 23.4294 30.4694 23.0313 31.0251 22.5892C31.9344 21.866 32.0634 21.7906 32.3132 21.8376C32.5647 21.8847 32.6452 21.8359 33.1712 21.3177C33.4905 21.003 33.9702 20.4105 34.2373 20.0007C34.5044 19.5909 34.8388 19.1732 34.9805 19.0723L35.238 18.8889L35.263 15.6329L35.2881 12.3769L35.4956 12.209C35.6098 12.1165 35.8387 12.041 36.0049 12.041C36.2083 12.041 36.3772 12.1114 36.5225 12.2568L36.7383 12.4725V15.6738V18.8751L36.9917 18.9801C37.131 19.0378 37.3464 19.1909 37.4703 19.3204C37.5943 19.4498 37.7572 19.7027 37.8323 19.8824C37.9073 20.0622 37.9679 20.3786 37.9668 20.5856C37.9658 20.7925 37.891 21.1247 37.8006 21.3237C37.7103 21.5227 37.5035 21.7854 37.3411 21.9076C37.1787 22.0298 36.771 22.2387 36.4351 22.3719C36.0991 22.5051 35.5924 22.7499 35.3092 22.9158C35.026 23.0818 34.662 23.3337 34.5005 23.4756C34.3129 23.6402 34.2214 23.7898 34.2474 23.8891C34.2698 23.9746 34.2082 24.1462 34.1106 24.2703C34.013 24.3944 32.8141 25.3264 31.4466 26.3413C30.0789 27.3563 28.8334 28.252 28.6787 28.3316C28.5228 28.412 28.1924 28.4766 27.9374 28.4766C27.6564 28.4766 27.3355 28.4079 27.1127 28.3C26.912 28.2029 26.6658 28.0348 26.5654 27.9265C26.465 27.8182 25.8614 26.7507 25.224 25.5542C24.5866 24.3577 24.0492 23.3789 24.0296 23.3789C24.0101 23.3789 23.9941 25.3762 23.9941 27.8174V32.2559H34.1455H44.2969V18.2533C44.2969 5.76519 44.2819 4.2002 44.1584 3.78448C44.0588 3.44892 43.9016 3.19992 43.598 2.89617C43.2942 2.59251 43.0452 2.43536 42.7097 2.33569C42.2976 2.21335 41.1121 2.19727 32.5035 2.19727C27.1466 2.19727 22.7637 2.22161 22.7637 2.25141ZM18.5245 6.74341C18.6825 6.76292 18.9198 6.76257 19.0519 6.74253C19.184 6.7224 19.0547 6.70641 18.7646 6.70693C18.4746 6.70737 18.3666 6.72381 18.5245 6.74341Z" fill="#233951"/>
</g>
<defs>
<clipPath id="clip0_20_419">
<rect width="45" height="45" fill="white"/>
</clipPath>
</defs>
</svg>
