<svg width="55" height="55" viewBox="0 0 55 55" fill="none" xmlns="http://www.w3.org/2000/svg">
<path fill-rule="evenodd" clip-rule="evenodd" d="M24.6986 0.166697C20.0506 1.00835 16.0095 4.50654 14.5081 8.98807C14.0001 10.5042 13.8198 11.9053 13.8889 13.8016C14.0219 17.4596 15.3127 20.3087 18.0033 22.8832C20.6459 25.4119 24.0877 26.6893 27.7572 26.503C31.2079 26.3279 34.0126 25.0772 36.4736 22.6161C38.9742 20.1156 40.1988 17.336 40.356 13.8037C40.4623 11.4167 40.0158 9.31636 38.966 7.26438C37.595 4.58453 35.0946 2.20664 32.448 1.0656C31.3097 0.5749 30.6476 0.3795 29.3927 0.163904C28.2193 -0.0377266 25.8194 -0.0363302 24.6986 0.166697ZM26.026 3.34166C23.6734 3.55779 21.5634 4.61128 19.8576 6.42123C17.7887 8.61639 16.9332 11.1771 17.2139 14.3345C17.5301 17.891 19.9276 21.0853 23.3416 22.4985C24.651 23.0406 25.9458 23.2428 27.6074 23.1649C30.3987 23.034 32.3154 22.1605 34.2749 20.1262C35.4183 18.9392 36.018 18.0016 36.5141 16.6258C36.9243 15.488 37.0068 14.9045 37.0045 13.1592C37.0025 11.7002 36.9653 11.3105 36.7582 10.581C35.9305 7.66679 33.6396 5.11068 30.8308 3.96771C29.4776 3.41696 27.7111 3.18686 26.026 3.34166ZM14.8779 26.6523C11.44 27.1481 8.75273 29.2281 6.98424 32.762C5.9719 34.7851 5.39075 36.6635 4.95633 39.3164C4.42363 42.5688 4.36197 46.6987 4.82066 48.3935C5.66081 51.4974 7.96157 53.7619 11.2256 54.6979L12.085 54.9443L27.0081 54.9747C43.4229 55.0081 42.9355 55.0252 44.6669 54.3564C47.7223 53.1763 49.6967 50.7577 50.2802 47.4804C50.4322 46.6266 50.4262 43.0928 50.2702 41.626C50.1066 40.0866 49.7731 38.1419 49.4606 36.9051C48.3147 32.3687 46.1183 29.133 43.1836 27.6584C41.8546 26.9907 39.976 26.5322 38.5772 26.5343C37.6872 26.5355 37.292 26.7129 35.1677 28.0644C33.2093 29.3104 32.7972 29.5211 31.3672 30.0079C28.6537 30.9316 26.2851 30.9479 23.6865 30.0606C22.1902 29.5498 21.5198 29.2133 19.8628 28.1416C17.7154 26.7529 17.2144 26.5301 16.2744 26.5464C15.8608 26.5535 15.2324 26.6012 14.8779 26.6523ZM14.8242 30.0303C11.9736 30.6426 9.89312 33.1403 8.75574 37.3162C7.87821 40.5379 7.53027 45.7222 8.05835 47.7073C8.40672 49.0168 9.61071 50.4372 10.8698 51.0243C12.47 51.7703 11.3633 51.7236 27.4463 51.7236C41.257 51.7236 41.9841 51.7141 42.7002 51.5233C44.4496 51.0573 45.815 50.0028 46.4788 48.605C47.0794 47.3404 47.1854 46.4439 47.0567 43.7207C46.786 37.9911 45.5309 34.082 43.2026 31.7174C42.4417 30.9446 41.1602 30.2641 40.0146 30.0243C38.6796 29.745 38.6735 29.7468 36.7845 30.9558C34.3081 32.5409 32.6328 33.2575 30.293 33.7327C27.4426 34.3115 24.7038 34.0348 21.6897 32.8634C20.3941 32.36 19.9305 32.1095 17.8969 30.8141C16.24 29.7586 16.171 29.741 14.8242 30.0303Z" fill="white"/>
</svg>
